G04 #@! TF.GenerationSoftware,KiCad,Pcbnew,7.0.1-0*
G04 #@! TF.CreationDate,2023-10-08T18:23:24+09:00*
G04 #@! TF.ProjectId,cool846ble,636f6f6c-3834-4366-926c-652e6b696361,rev?*
G04 #@! TF.SameCoordinates,Original*
G04 #@! TF.FileFunction,Profile,NP*
%FSLAX46Y46*%
G04 Gerber Fmt 4.6, Leading zero omitted, Abs format (unit mm)*
G04 Created by KiCad (PCBNEW 7.0.1-0) date 2023-10-08 18:23:24*
%MOMM*%
%LPD*%
G01*
G04 APERTURE LIST*
G04 #@! TA.AperFunction,Profile*
%ADD10C,0.150000*%
G04 #@! TD*
G04 APERTURE END LIST*
D10*
X73136525Y144236266D02*
X87126525Y144236266D01*
X87126525Y130246266D01*
X73136525Y130246266D01*
X73136525Y144236266D01*
X-143913475Y106106266D02*
X-129923475Y106106266D01*
X-129923475Y92116266D01*
X-143913475Y92116266D01*
X-143913475Y106106266D01*
X-150913475Y125186266D02*
X-136923475Y125186266D01*
X-136923475Y111196266D01*
X-150913475Y111196266D01*
X-150913475Y125186266D01*
X-153173475Y144216266D02*
X-139183475Y144216266D01*
X-139183475Y130226266D01*
X-153173475Y130226266D01*
X-153173475Y144216266D01*
X-156983475Y87066266D02*
X-142993475Y87066266D01*
X-142993475Y73076266D01*
X-156983475Y73076266D01*
X-156983475Y87066266D01*
X81926525Y87056266D02*
X95916525Y87056266D01*
X95916525Y73066266D01*
X81926525Y73066266D01*
X81926525Y87056266D01*
X74036525Y106066266D02*
X88026525Y106066266D01*
X88026525Y92076266D01*
X74036525Y92076266D01*
X74036525Y106066266D01*
X80976525Y125146266D02*
X94966525Y125146266D01*
X94966525Y111156266D01*
X80976525Y111156266D01*
X80976525Y125146266D01*
X79890000Y69070000D02*
X99890000Y69070000D01*
X-160944500Y69070011D02*
X-140944500Y69070011D01*
X-160944506Y148220001D02*
X-140944506Y148220001D01*
X-127570000Y148170000D02*
X-37027245Y148219998D01*
X-37027245Y148219998D02*
X67339924Y148203687D01*
X57746233Y69069990D02*
X-18764208Y58317163D01*
X67380703Y69070000D02*
X57746233Y69069990D01*
X62856525Y87056266D02*
X76846525Y87056266D01*
X76846525Y73066266D01*
X62856525Y73066266D01*
X62856525Y87056266D01*
X79890000Y69070000D02*
X73420000Y69070000D01*
X-127568000Y150680000D02*
G75*
G03*
X-133609999Y150790000I-3022001J0D01*
G01*
X-162944495Y146219982D02*
X-160944506Y148220001D01*
X-162944494Y71069998D02*
X-162944495Y146219982D01*
X-38764191Y58317167D02*
X-115274606Y69069994D01*
X-133610000Y148220000D02*
X-140944506Y148220001D01*
X-18764208Y58317163D02*
X-38764191Y58317167D01*
X101889996Y146219999D02*
X99889995Y148219996D01*
X61906525Y125166266D02*
X75896525Y125166266D01*
X75896525Y111176266D01*
X61906525Y111176266D01*
X61906525Y125166266D01*
X73382002Y150870000D02*
G75*
G03*
X67340001Y150980000I-3022002J0D01*
G01*
X-160944500Y69070011D02*
X-162944494Y71069998D01*
X73380000Y148218965D02*
X73382001Y150870000D01*
X-133642000Y65950000D02*
G75*
G03*
X-127600001Y65840000I3022001J0D01*
G01*
X101889996Y146219999D02*
X101890000Y71070009D01*
X73420000Y69070000D02*
X73420000Y65860000D01*
X54966525Y106086266D02*
X68956525Y106086266D01*
X68956525Y92096266D01*
X54966525Y92096266D01*
X54966525Y106086266D01*
X-133640000Y69060000D02*
X-140944500Y69070011D01*
X99890000Y69070000D02*
X101890000Y71070009D01*
X67377999Y65970000D02*
X67380703Y69070000D01*
X-133642001Y65950000D02*
X-133640000Y69060000D01*
X-133610000Y150790000D02*
X-133610000Y148220000D01*
X-137933475Y87066266D02*
X-123943475Y87066266D01*
X-123943475Y73076266D01*
X-137933475Y73076266D01*
X-137933475Y87066266D01*
X-134123475Y144216266D02*
X-120133475Y144216266D01*
X-120133475Y130226266D01*
X-134123475Y130226266D01*
X-134123475Y144216266D01*
X54056525Y144246266D02*
X68046525Y144246266D01*
X68046525Y130256266D01*
X54056525Y130256266D01*
X54056525Y144246266D01*
X-127567999Y150680000D02*
X-127570000Y148170000D01*
X67377998Y65970000D02*
G75*
G03*
X73419999Y65860000I3022002J0D01*
G01*
X-131863475Y125186266D02*
X-117873475Y125186266D01*
X-117873475Y111196266D01*
X-131863475Y111196266D01*
X-131863475Y125186266D01*
X67340000Y150980000D02*
X67339924Y148203687D01*
X-115274606Y69069994D02*
X-127600000Y69080000D01*
X-124863475Y106106266D02*
X-110873475Y106106266D01*
X-110873475Y92116266D01*
X-124863475Y92116266D01*
X-124863475Y106106266D01*
X71894326Y65996266D02*
G75*
G03*
X71894326Y65996266I-1507801J0D01*
G01*
X-129125674Y65926266D02*
G75*
G03*
X-129125674Y65926266I-1507801J0D01*
G01*
X-127600000Y65840000D02*
X-127600000Y69080000D01*
X71854326Y150876266D02*
G75*
G03*
X71854326Y150876266I-1507801J0D01*
G01*
X-129105674Y150676266D02*
G75*
G03*
X-129105674Y150676266I-1507801J0D01*
G01*
X79889996Y148219998D02*
X73380000Y148218965D01*
X79889996Y148219998D02*
X99889996Y148219998D01*
X48616525Y129946266D02*
X34756525Y127996266D01*
X34756525Y127996266D02*
X32806525Y141866266D01*
X46666525Y143816266D02*
X48616525Y129946266D01*
X32806525Y141866266D02*
X46666525Y143816266D01*
X12326525Y81256266D02*
X14276525Y67386266D01*
X416525Y65436266D02*
X-1533475Y79306266D01*
X14276525Y67386266D02*
X416525Y65436266D01*
X-1533475Y79306266D02*
X12326525Y81256266D01*
X-18473475Y62796266D02*
X-20423475Y76666266D01*
X-20423475Y76666266D02*
X-6563475Y78616266D01*
X-4613475Y64746266D02*
X-18473475Y62796266D01*
X-6563475Y78616266D02*
X-4613475Y64746266D01*
X35496525Y89616266D02*
X33546525Y103486266D01*
X49356525Y91566266D02*
X35496525Y89616266D01*
X47406525Y105436266D02*
X49356525Y91566266D01*
X33546525Y103486266D02*
X47406525Y105436266D01*
X54036525Y125616266D02*
X55986525Y111746266D01*
X40176525Y123666266D02*
X54036525Y125616266D01*
X55986525Y111746266D02*
X42126525Y109796266D01*
X42126525Y109796266D02*
X40176525Y123666266D01*
X-74523475Y105556266D02*
X-72573475Y119426266D01*
X-60663475Y103606266D02*
X-74523475Y105556266D01*
X-72573475Y119426266D02*
X-58713475Y117476266D01*
X-58713475Y117476266D02*
X-60663475Y103606266D01*
X-70363475Y66426266D02*
X-68413475Y80296266D01*
X-54553475Y78346266D02*
X-56503475Y64476266D01*
X-56503475Y64476266D02*
X-70363475Y66426266D01*
X-68413475Y80296266D02*
X-54553475Y78346266D01*
X-98503475Y142306266D02*
X-100453475Y128436266D01*
X-100453475Y128436266D02*
X-114313475Y130386266D01*
X-114313475Y130386266D02*
X-112363475Y144256266D01*
X-112363475Y144256266D02*
X-98503475Y142306266D01*
X-72753475Y86066266D02*
X-86613475Y88016266D01*
X-86613475Y88016266D02*
X-84663475Y101886266D01*
X-84663475Y101886266D02*
X-70803475Y99936266D01*
X-70803475Y99936266D02*
X-72753475Y86066266D01*
X17316525Y81876266D02*
X31176525Y83826266D01*
X33126525Y69956266D02*
X19266525Y68006266D01*
X31176525Y83826266D02*
X33126525Y69956266D01*
X19266525Y68006266D02*
X17316525Y81876266D01*
X14646525Y100846266D02*
X28506525Y102796266D01*
X16596525Y86976266D02*
X14646525Y100846266D01*
X28506525Y102796266D02*
X30456525Y88926266D01*
X30456525Y88926266D02*
X16596525Y86976266D01*
X-43863475Y120486266D02*
X-57723475Y122436266D01*
X-55773475Y136306266D02*
X-41913475Y134356266D01*
X-57723475Y122436266D02*
X-55773475Y136306266D01*
X-41913475Y134356266D02*
X-43863475Y120486266D01*
X-35023475Y80766266D02*
X-48883475Y82716266D01*
X-46933475Y96586266D02*
X-33073475Y94636266D01*
X-33073475Y94636266D02*
X-35023475Y80766266D01*
X-48883475Y82716266D02*
X-46933475Y96586266D01*
X-79533475Y106256266D02*
X-93393475Y108206266D01*
X-77583475Y120126266D02*
X-79533475Y106256266D01*
X-93393475Y108206266D02*
X-91443475Y122076266D01*
X-91443475Y122076266D02*
X-77583475Y120126266D01*
X-41803475Y100956266D02*
X-55663475Y102906266D01*
X-53713475Y116776266D02*
X-39853475Y114826266D01*
X-39853475Y114826266D02*
X-41803475Y100956266D01*
X-55663475Y102906266D02*
X-53713475Y116776266D01*
X-9243475Y97476266D02*
X-7293475Y83606266D01*
X-21153475Y81656266D02*
X-23103475Y95526266D01*
X-7293475Y83606266D02*
X-21153475Y81656266D01*
X-23103475Y95526266D02*
X-9243475Y97476266D01*
X16256525Y120306266D02*
X18206525Y106436266D01*
X18206525Y106436266D02*
X4346525Y104486266D01*
X2396525Y118356266D02*
X16256525Y120306266D01*
X4346525Y104486266D02*
X2396525Y118356266D01*
X11576525Y86256266D02*
X-2283475Y84306266D01*
X-4233475Y98176266D02*
X9626525Y100126266D01*
X-2283475Y84306266D02*
X-4233475Y98176266D01*
X9626525Y100126266D02*
X11576525Y86256266D01*
X-67743475Y85366266D02*
X-65793475Y99236266D01*
X-65793475Y99236266D02*
X-51933475Y97286266D01*
X-53883475Y83416266D02*
X-67743475Y85366266D01*
X-51933475Y97286266D02*
X-53883475Y83416266D01*
X-89293475Y69096266D02*
X-87343475Y82966266D01*
X-75433475Y67146266D02*
X-89293475Y69096266D01*
X-73483475Y81016266D02*
X-75433475Y67146266D01*
X-87343475Y82966266D02*
X-73483475Y81016266D01*
X-96443475Y122776266D02*
X-98393475Y108906266D01*
X-110303475Y124726266D02*
X-96443475Y122776266D01*
X-98393475Y108906266D02*
X-112253475Y110856266D01*
X-112253475Y110856266D02*
X-110303475Y124726266D01*
X-8033475Y121986266D02*
X-21893475Y120036266D01*
X-21893475Y120036266D02*
X-23843475Y133906266D01*
X-23843475Y133906266D02*
X-9983475Y135856266D01*
X-9983475Y135856266D02*
X-8033475Y121986266D01*
X-89663475Y102586266D02*
X-91613475Y88716266D01*
X-105473475Y90666266D02*
X-103523475Y104536266D01*
X-103523475Y104536266D02*
X-89663475Y102586266D01*
X-91613475Y88716266D02*
X-105473475Y90666266D01*
X21276525Y121026266D02*
X35136525Y122976266D01*
X35136525Y122976266D02*
X37086525Y109106266D01*
X23226525Y107156266D02*
X21276525Y121026266D01*
X37086525Y109106266D02*
X23226525Y107156266D01*
X-79643475Y139656266D02*
X-81593475Y125786266D01*
X-95453475Y127736266D02*
X-93503475Y141606266D01*
X-81593475Y125786266D02*
X-95453475Y127736266D01*
X-93503475Y141606266D02*
X-79643475Y139656266D01*
X-16473475Y115706266D02*
X-2613475Y117656266D01*
X-663475Y103786266D02*
X-14523475Y101836266D01*
X-14523475Y101836266D02*
X-16473475Y115706266D01*
X-2613475Y117656266D02*
X-663475Y103786266D01*
X10836525Y124636266D02*
X-3023475Y122686266D01*
X-3023475Y122686266D02*
X-4973475Y136556266D01*
X8886525Y138506266D02*
X10836525Y124636266D01*
X-4973475Y136556266D02*
X8886525Y138506266D01*
X-60773475Y137006266D02*
X-62723475Y123136266D01*
X-74633475Y138956266D02*
X-60773475Y137006266D01*
X-76583475Y125086266D02*
X-74633475Y138956266D01*
X-62723475Y123136266D02*
X-76583475Y125086266D01*
X-51503475Y63806266D02*
X-49553475Y77676266D01*
X-49553475Y77676266D02*
X-35693475Y75726266D01*
X-37643475Y61856266D02*
X-51503475Y63806266D01*
X-35693475Y75726266D02*
X-37643475Y61856266D01*
X15856525Y125356266D02*
X13906525Y139226266D01*
X27766525Y141176266D02*
X29716525Y127306266D01*
X13906525Y139226266D02*
X27766525Y141176266D01*
X29716525Y127306266D02*
X15856525Y125356266D01*
M02*
