G04 #@! TF.GenerationSoftware,KiCad,Pcbnew,7.0.1-0*
G04 #@! TF.CreationDate,2023-10-08T21:15:56+09:00*
G04 #@! TF.ProjectId,cool846ble,636f6f6c-3834-4366-926c-652e6b696361,rev?*
G04 #@! TF.SameCoordinates,Original*
G04 #@! TF.FileFunction,Soldermask,Bot*
G04 #@! TF.FilePolarity,Negative*
%FSLAX46Y46*%
G04 Gerber Fmt 4.6, Leading zero omitted, Abs format (unit mm)*
G04 Created by KiCad (PCBNEW 7.0.1-0) date 2023-10-08 21:15:56*
%MOMM*%
%LPD*%
G01*
G04 APERTURE LIST*
G04 Aperture macros list*
%AMRoundRect*
0 Rectangle with rounded corners*
0 $1 Rounding radius*
0 $2 $3 $4 $5 $6 $7 $8 $9 X,Y pos of 4 corners*
0 Add a 4 corners polygon primitive as box body*
4,1,4,$2,$3,$4,$5,$6,$7,$8,$9,$2,$3,0*
0 Add four circle primitives for the rounded corners*
1,1,$1+$1,$2,$3*
1,1,$1+$1,$4,$5*
1,1,$1+$1,$6,$7*
1,1,$1+$1,$8,$9*
0 Add four rect primitives between the rounded corners*
20,1,$1+$1,$2,$3,$4,$5,0*
20,1,$1+$1,$4,$5,$6,$7,0*
20,1,$1+$1,$6,$7,$8,$9,0*
20,1,$1+$1,$8,$9,$2,$3,0*%
G04 Aperture macros list end*
%ADD10C,1.499000*%
%ADD11RoundRect,0.051000X-0.698500X-0.698500X0.698500X-0.698500X0.698500X0.698500X-0.698500X0.698500X0*%
%ADD12RoundRect,0.051000X-0.650000X-0.475000X0.650000X-0.475000X0.650000X0.475000X-0.650000X0.475000X0*%
%ADD13C,2.002000*%
%ADD14C,3.102000*%
%ADD15C,4.202000*%
%ADD16RoundRect,0.051000X-1.436558X-1.060389X1.088625X-1.415281X1.436558X1.060389X-1.088625X1.415281X0*%
%ADD17RoundRect,0.051000X-1.088625X-1.415281X1.436558X-1.060389X1.088625X1.415281X-1.436558X1.060389X0*%
%ADD18RoundRect,0.051000X-1.275000X-1.250000X1.275000X-1.250000X1.275000X1.250000X-1.275000X1.250000X0*%
%ADD19RoundRect,0.051000X0.698500X0.698500X-0.698500X0.698500X-0.698500X-0.698500X0.698500X-0.698500X0*%
%ADD20RoundRect,0.051000X0.650000X0.475000X-0.650000X0.475000X-0.650000X-0.475000X0.650000X-0.475000X0*%
%ADD21C,1.626000*%
%ADD22RoundRect,0.051000X-0.762000X-0.762000X0.762000X-0.762000X0.762000X0.762000X-0.762000X0.762000X0*%
%ADD23RoundRect,0.051000X0.648534X-0.860634X0.860634X0.648534X-0.648534X0.860634X-0.860634X-0.648534X0*%
%ADD24RoundRect,0.051000X1.500000X1.300000X-1.500000X1.300000X-1.500000X-1.300000X1.500000X-1.300000X0*%
%ADD25O,1.102000X1.402000*%
%ADD26RoundRect,0.051000X1.500000X2.000000X-1.500000X2.000000X-1.500000X-2.000000X1.500000X-2.000000X0*%
%ADD27C,1.902000*%
G04 APERTURE END LIST*
D10*
X-348500000Y-87660000D03*
D11*
X-356120000Y-87660000D03*
D12*
X-354085000Y-87660000D03*
X-350535000Y-87660000D03*
D10*
X-348500000Y-90310000D03*
D11*
X-356120000Y-90310000D03*
D12*
X-354085000Y-90310000D03*
X-350535000Y-90310000D03*
D10*
X-348500000Y-92960000D03*
D11*
X-356120000Y-92960000D03*
D12*
X-354085000Y-92960000D03*
X-350535000Y-92960000D03*
X-104785000Y-84940000D03*
X-108335000Y-84940000D03*
D11*
X-110370000Y-84940000D03*
D10*
X-102750000Y-84940000D03*
D12*
X-104785000Y-87590000D03*
X-108335000Y-87590000D03*
D11*
X-110370000Y-87590000D03*
D10*
X-102750000Y-87590000D03*
D12*
X-104785000Y-90240000D03*
X-108335000Y-90240000D03*
D11*
X-110370000Y-90240000D03*
D10*
X-102750000Y-90240000D03*
X-348500000Y-85010000D03*
D11*
X-356120000Y-85010000D03*
D12*
X-354085000Y-85010000D03*
X-350535000Y-85010000D03*
D13*
X-272100926Y-80080310D03*
D14*
X-270292644Y-85464371D03*
D15*
X-267070364Y-80787309D03*
D14*
X-263650942Y-83832839D03*
D13*
X-262039802Y-81494308D03*
D16*
X-260407814Y-84288631D03*
X-273562509Y-85004822D03*
D13*
X-253236320Y-82731557D03*
D14*
X-251428038Y-88115618D03*
D15*
X-248205758Y-83438556D03*
D14*
X-244786336Y-86484086D03*
D13*
X-243175196Y-84145555D03*
D16*
X-241543208Y-86939878D03*
X-254697903Y-87656069D03*
D13*
X-255301224Y-63204139D03*
D14*
X-253492942Y-68588200D03*
D15*
X-250270662Y-63911138D03*
D14*
X-246851240Y-66956668D03*
D13*
X-245240100Y-64618137D03*
D16*
X-243608112Y-67412460D03*
X-256762807Y-68128651D03*
D13*
X-183636781Y-59752692D03*
D14*
X-180414501Y-64429754D03*
D15*
X-178606219Y-59045693D03*
D14*
X-174479798Y-61030724D03*
D13*
X-173575657Y-58338694D03*
D17*
X-171236670Y-60574932D03*
X-183684366Y-64889304D03*
D13*
X-293030437Y-57901644D03*
D14*
X-291222155Y-63285705D03*
D15*
X-287999875Y-58608643D03*
D14*
X-284580453Y-61654173D03*
D13*
X-282969313Y-59315642D03*
D16*
X-281337325Y-62109965D03*
X-294492020Y-62826156D03*
D13*
X-290965533Y-77429062D03*
D14*
X-289157251Y-82813123D03*
D15*
X-285934971Y-78136061D03*
D14*
X-282515549Y-81181591D03*
D13*
X-280904409Y-78843060D03*
D16*
X-279272421Y-81637383D03*
X-292427116Y-82353574D03*
D13*
X-332658475Y-55075733D03*
D14*
X-330118475Y-60155733D03*
D15*
X-327578475Y-55075733D03*
D14*
X-323768475Y-57615733D03*
D13*
X-322498475Y-55075733D03*
D18*
X-320493475Y-57615733D03*
X-333420475Y-60155733D03*
D13*
X-164772174Y-57101444D03*
D14*
X-161549894Y-61778506D03*
D15*
X-159741612Y-56394445D03*
D14*
X-155615191Y-58379476D03*
D13*
X-154711050Y-55687446D03*
D17*
X-152372063Y-57923684D03*
X-164819759Y-62238056D03*
D13*
X-311895044Y-55250396D03*
D14*
X-310086762Y-60634457D03*
D15*
X-306864482Y-55957395D03*
D14*
X-303445060Y-59002925D03*
D13*
X-301833920Y-56664394D03*
D16*
X-300201932Y-59458717D03*
X-313356627Y-60174908D03*
D13*
X-221365994Y-65055187D03*
D14*
X-218143714Y-69732249D03*
D15*
X-216335432Y-64348188D03*
D14*
X-212209011Y-66333219D03*
D13*
X-211304870Y-63641189D03*
D17*
X-208965883Y-65877427D03*
X-221413579Y-70191799D03*
D13*
X-202501387Y-62403940D03*
D14*
X-199279107Y-67081002D03*
D15*
X-197470825Y-61696941D03*
D14*
X-193344404Y-63681972D03*
D13*
X-192440263Y-60989942D03*
D17*
X-190101276Y-63226180D03*
X-202548972Y-67540552D03*
D13*
X-274165831Y-60552891D03*
D14*
X-272357549Y-65936952D03*
D15*
X-269135269Y-61259890D03*
D14*
X-265715847Y-64305420D03*
D13*
X-264104707Y-61966889D03*
D16*
X-262472719Y-64761212D03*
X-275627414Y-65477403D03*
D13*
X-213998595Y-83256982D03*
D14*
X-210776315Y-87934044D03*
D15*
X-208968033Y-82549983D03*
D14*
X-204841612Y-84535014D03*
D13*
X-203937471Y-81842984D03*
D17*
X-201598484Y-84079222D03*
X-214046180Y-88393594D03*
D13*
X-195133988Y-80605734D03*
D14*
X-191911708Y-85282796D03*
D15*
X-190103426Y-79898735D03*
D14*
X-185977005Y-81883766D03*
D13*
X-185072864Y-79191736D03*
D17*
X-182733877Y-81427974D03*
X-195181573Y-85742346D03*
D13*
X-176269381Y-77954487D03*
D14*
X-173047101Y-82631549D03*
D15*
X-171238819Y-77247488D03*
D14*
X-167112398Y-79232519D03*
D13*
X-166208257Y-76540489D03*
D17*
X-163869270Y-78776727D03*
X-176316966Y-83091099D03*
D13*
X-157404775Y-75303239D03*
D14*
X-154182495Y-79980301D03*
D15*
X-152374213Y-74596240D03*
D14*
X-148247792Y-76581271D03*
D13*
X-147343651Y-73889241D03*
D17*
X-145004664Y-76125479D03*
X-157452360Y-80439851D03*
D13*
X-136633975Y-74125734D03*
D14*
X-134093975Y-79205734D03*
D15*
X-131553975Y-74125734D03*
D14*
X-127743975Y-76665734D03*
D13*
X-126473975Y-74125734D03*
D18*
X-124468975Y-76665734D03*
X-137395975Y-79205734D03*
D13*
X-303049084Y-94968045D03*
D14*
X-301240802Y-100352106D03*
D15*
X-298018522Y-95675044D03*
D14*
X-294599100Y-98720574D03*
D13*
X-292987960Y-96382043D03*
D16*
X-291355972Y-99176366D03*
X-304510667Y-99892557D03*
D13*
X-284184477Y-97619293D03*
D14*
X-282376195Y-103003354D03*
D15*
X-279153915Y-98326292D03*
D14*
X-275734493Y-101371822D03*
D13*
X-274123353Y-99033291D03*
D16*
X-272491365Y-101827614D03*
X-285646060Y-102543805D03*
D13*
X-265319871Y-100270540D03*
D14*
X-263511589Y-105654601D03*
D15*
X-260289309Y-100977539D03*
D14*
X-256869887Y-104023069D03*
D13*
X-255258747Y-101684538D03*
D16*
X-253626759Y-104478861D03*
X-266781454Y-105195052D03*
D13*
X-246455264Y-102921788D03*
D14*
X-244646982Y-108305849D03*
D15*
X-241424702Y-103628787D03*
D14*
X-238005280Y-106674317D03*
D13*
X-236394140Y-104335786D03*
D16*
X-234762152Y-107130109D03*
X-247916847Y-107846300D03*
D13*
X-144480000Y-55040000D03*
D14*
X-141940000Y-60120000D03*
D15*
X-139400000Y-55040000D03*
D14*
X-135590000Y-57580000D03*
D13*
X-134320000Y-55040000D03*
D18*
X-132315000Y-57580000D03*
X-145242000Y-60120000D03*
D13*
X-330410000Y-74110000D03*
D14*
X-327870000Y-79190000D03*
D15*
X-325330000Y-74110000D03*
D14*
X-321520000Y-76650000D03*
D13*
X-320250000Y-74110000D03*
D18*
X-318245000Y-76650000D03*
X-331172000Y-79190000D03*
D13*
X-286851124Y-116546002D03*
D14*
X-285042842Y-121930063D03*
D15*
X-281820562Y-117253001D03*
D14*
X-278401140Y-120298531D03*
D13*
X-276790000Y-117960000D03*
D16*
X-275158012Y-120754323D03*
X-288312707Y-121470514D03*
D13*
X-143580000Y-93210000D03*
D14*
X-141040000Y-98290000D03*
D15*
X-138500000Y-93210000D03*
D14*
X-134690000Y-95750000D03*
D13*
X-133420000Y-93210000D03*
D18*
X-131415000Y-95750000D03*
X-144342000Y-98290000D03*
D13*
X-323410000Y-93190000D03*
D14*
X-320870000Y-98270000D03*
D15*
X-318330000Y-93190000D03*
D14*
X-314520000Y-95730000D03*
D13*
X-313250000Y-93190000D03*
D18*
X-311245000Y-95730000D03*
X-324172000Y-98270000D03*
D13*
X-267940000Y-119210000D03*
D14*
X-266131718Y-124594061D03*
D15*
X-262909438Y-119916999D03*
D14*
X-259490016Y-122962529D03*
D13*
X-257878876Y-120623998D03*
D16*
X-256246888Y-123418321D03*
X-269401583Y-124134512D03*
D13*
X-218000562Y-122296999D03*
D14*
X-214778282Y-126974061D03*
D15*
X-212970000Y-121590000D03*
D14*
X-208843579Y-123575031D03*
D13*
X-207939438Y-120883001D03*
D17*
X-205600451Y-123119239D03*
X-218048147Y-127433611D03*
D19*
X-157053475Y-109723734D03*
D20*
X-159088475Y-109723734D03*
X-162638475Y-109723734D03*
D10*
X-164673475Y-109723734D03*
D19*
X-224823475Y-120673734D03*
D20*
X-226858475Y-120673734D03*
X-230408475Y-120673734D03*
D10*
X-232443475Y-120673734D03*
D13*
X-164034037Y-95480733D03*
D14*
X-160811757Y-100157795D03*
D15*
X-159003475Y-94773734D03*
D14*
X-154877054Y-96758765D03*
D13*
X-153972913Y-94066735D03*
D17*
X-151633926Y-96302973D03*
X-164081622Y-100617345D03*
D19*
X-224823475Y-128331234D03*
D20*
X-226858475Y-128331234D03*
X-230408475Y-128331234D03*
D10*
X-232443475Y-128331234D03*
D19*
X-224770000Y-113900000D03*
D20*
X-226805000Y-113900000D03*
X-230355000Y-113900000D03*
D10*
X-232390000Y-113900000D03*
D19*
X-311543475Y-120933734D03*
D20*
X-313578475Y-120933734D03*
X-317128475Y-120933734D03*
D10*
X-319163475Y-120933734D03*
D13*
X-182924037Y-98120733D03*
D14*
X-179701757Y-102797795D03*
D15*
X-177893475Y-97413734D03*
D14*
X-173767054Y-99398765D03*
D13*
X-172862913Y-96706735D03*
D17*
X-170523926Y-98942973D03*
X-182971622Y-103257345D03*
D19*
X-311543475Y-115925734D03*
D20*
X-313578475Y-115925734D03*
X-317128475Y-115925734D03*
D10*
X-319163475Y-115925734D03*
D21*
X-224560000Y-47890000D03*
X-224560000Y-50430000D03*
X-224560000Y-52970000D03*
X-224560000Y-55510000D03*
X-224560000Y-58050000D03*
X-224560000Y-60590000D03*
X-224560000Y-63130000D03*
X-224560000Y-65670000D03*
X-224560000Y-68210000D03*
X-224560000Y-70750000D03*
X-224560000Y-73290000D03*
X-224560000Y-75830000D03*
X-239780000Y-75830000D03*
X-239780000Y-73290000D03*
X-239780000Y-70750000D03*
X-239780000Y-68210000D03*
X-239780000Y-65670000D03*
X-239780000Y-63130000D03*
X-239780000Y-60590000D03*
X-239780000Y-58050000D03*
X-239780000Y-55510000D03*
X-239780000Y-52970000D03*
X-239780000Y-50430000D03*
X-239780000Y-47890000D03*
D22*
X-239780000Y-45350000D03*
D21*
X-224560000Y-45350000D03*
D19*
X-224723475Y-123213734D03*
D20*
X-226758475Y-123213734D03*
X-230308475Y-123213734D03*
D10*
X-232343475Y-123213734D03*
D19*
X-144938475Y-109793734D03*
D20*
X-146973475Y-109793734D03*
X-150523475Y-109793734D03*
D10*
X-152558475Y-109793734D03*
D19*
X-144933475Y-112543734D03*
D20*
X-146968475Y-112543734D03*
X-150518475Y-112543734D03*
D10*
X-152553475Y-112543734D03*
D19*
X-300583475Y-121033734D03*
D20*
X-302618475Y-121033734D03*
X-306168475Y-121033734D03*
D10*
X-308203475Y-121033734D03*
D13*
X-201814037Y-100790733D03*
D14*
X-198591757Y-105467795D03*
D15*
X-196783475Y-100083734D03*
D14*
X-192657054Y-102068765D03*
D13*
X-191752913Y-99376735D03*
D17*
X-189413926Y-101612973D03*
X-201861622Y-105927345D03*
D19*
X-224780000Y-109090000D03*
D20*
X-226815000Y-109090000D03*
X-230365000Y-109090000D03*
D10*
X-232400000Y-109090000D03*
D19*
X-157083475Y-118153734D03*
D20*
X-159118475Y-118153734D03*
X-162668475Y-118153734D03*
D10*
X-164703475Y-118153734D03*
D19*
X-300578475Y-107953734D03*
D20*
X-302613475Y-107953734D03*
X-306163475Y-107953734D03*
D10*
X-308198475Y-107953734D03*
D19*
X-144933475Y-120733734D03*
D20*
X-146968475Y-120733734D03*
X-150518475Y-120733734D03*
D10*
X-152553475Y-120733734D03*
D13*
X-309844037Y-74796735D03*
D14*
X-308035755Y-80180796D03*
D15*
X-304813475Y-75503734D03*
D14*
X-301394053Y-78549264D03*
D13*
X-299782913Y-76210733D03*
D16*
X-298150925Y-79005056D03*
X-311305620Y-79721247D03*
D19*
X-157083475Y-120733734D03*
D20*
X-159118475Y-120733734D03*
X-162668475Y-120733734D03*
D10*
X-164703475Y-120733734D03*
D13*
X-336468475Y-112225733D03*
D14*
X-333928475Y-117305733D03*
D15*
X-331388475Y-112225733D03*
D14*
X-327578475Y-114765733D03*
D13*
X-326308475Y-112225733D03*
D18*
X-324303475Y-114765733D03*
X-337230475Y-117305733D03*
D19*
X-311513475Y-108383734D03*
D20*
X-313548475Y-108383734D03*
X-317098475Y-108383734D03*
D10*
X-319133475Y-108383734D03*
D19*
X-224763475Y-125823734D03*
D20*
X-226798475Y-125823734D03*
X-230348475Y-125823734D03*
D10*
X-232383475Y-125823734D03*
D19*
X-224775000Y-116320000D03*
D20*
X-226810000Y-116320000D03*
X-230360000Y-116320000D03*
D10*
X-232395000Y-116320000D03*
D19*
X-300583475Y-110457734D03*
D20*
X-302618475Y-110457734D03*
X-306168475Y-110457734D03*
D10*
X-308203475Y-110457734D03*
D19*
X-300583475Y-118389734D03*
D20*
X-302618475Y-118389734D03*
X-306168475Y-118389734D03*
D10*
X-308203475Y-118389734D03*
D19*
X-226133475Y-78569734D03*
D20*
X-228168475Y-78569734D03*
X-231718475Y-78569734D03*
D10*
X-233753475Y-78569734D03*
D19*
X-157008475Y-107023734D03*
D20*
X-159043475Y-107023734D03*
X-162593475Y-107023734D03*
D10*
X-164628475Y-107023734D03*
D19*
X-311543475Y-110917734D03*
D20*
X-313578475Y-110917734D03*
X-317128475Y-110917734D03*
D10*
X-319163475Y-110917734D03*
D19*
X-144858475Y-107133734D03*
D20*
X-146893475Y-107133734D03*
X-150443475Y-107133734D03*
D10*
X-152478475Y-107133734D03*
D13*
X-199111124Y-119653998D03*
D14*
X-195888844Y-124331060D03*
D15*
X-194080562Y-118946999D03*
D14*
X-189954141Y-120932030D03*
D13*
X-189050000Y-118240000D03*
D17*
X-186711013Y-120476238D03*
X-199158709Y-124790610D03*
D19*
X-311543475Y-113421734D03*
D20*
X-313578475Y-113421734D03*
X-317128475Y-113421734D03*
D10*
X-319163475Y-113421734D03*
D19*
X-144933475Y-118003734D03*
D20*
X-146968475Y-118003734D03*
X-150518475Y-118003734D03*
D10*
X-152553475Y-118003734D03*
D13*
X-135681475Y-112225734D03*
D14*
X-133141475Y-117305734D03*
D15*
X-130601475Y-112225734D03*
D14*
X-126791475Y-114765734D03*
D13*
X-125521475Y-112225734D03*
D18*
X-123516475Y-114765734D03*
X-136443475Y-117305734D03*
D19*
X-226123475Y-80941067D03*
D20*
X-228158475Y-80941067D03*
X-231708475Y-80941067D03*
D10*
X-233743475Y-80941067D03*
D19*
X-224780000Y-111570000D03*
D20*
X-226815000Y-111570000D03*
X-230365000Y-111570000D03*
D10*
X-232400000Y-111570000D03*
D19*
X-224823475Y-130883734D03*
D20*
X-226858475Y-130883734D03*
X-230408475Y-130883734D03*
D10*
X-232443475Y-130883734D03*
D19*
X-311453475Y-105903734D03*
D20*
X-313488475Y-105903734D03*
X-317038475Y-105903734D03*
D10*
X-319073475Y-105903734D03*
D19*
X-311543475Y-118429734D03*
D20*
X-313578475Y-118429734D03*
X-317128475Y-118429734D03*
D10*
X-319163475Y-118429734D03*
D19*
X-157088475Y-115283734D03*
D20*
X-159123475Y-115283734D03*
X-162673475Y-115283734D03*
D10*
X-164708475Y-115283734D03*
D13*
X-220674599Y-103437732D03*
D14*
X-217452319Y-108114794D03*
D15*
X-215644037Y-102730733D03*
D14*
X-211517616Y-104715764D03*
D13*
X-210613475Y-102023734D03*
D17*
X-208274488Y-104259972D03*
X-220722184Y-108574344D03*
D19*
X-144933475Y-115273734D03*
D20*
X-146968475Y-115273734D03*
X-150518475Y-115273734D03*
D10*
X-152553475Y-115273734D03*
D19*
X-300583475Y-115745734D03*
D20*
X-302618475Y-115745734D03*
X-306168475Y-115745734D03*
D10*
X-308203475Y-115745734D03*
D19*
X-157158475Y-112393734D03*
D20*
X-159193475Y-112393734D03*
X-162743475Y-112393734D03*
D10*
X-164778475Y-112393734D03*
D13*
X-249081124Y-121826002D03*
D14*
X-247272842Y-127210063D03*
D15*
X-244050562Y-122533001D03*
D14*
X-240631140Y-125578531D03*
D13*
X-239020000Y-123240000D03*
D16*
X-237388012Y-126034323D03*
X-250542707Y-126750514D03*
D13*
X-180251124Y-117083998D03*
D14*
X-177028844Y-121761060D03*
D15*
X-175220562Y-116376999D03*
D14*
X-171094141Y-118362030D03*
D13*
X-170190000Y-115670000D03*
D17*
X-167851013Y-117906238D03*
X-180298709Y-122220610D03*
D19*
X-226193475Y-83312400D03*
D20*
X-228228475Y-83312400D03*
X-231778475Y-83312400D03*
D10*
X-233813475Y-83312400D03*
D19*
X-224760000Y-118460000D03*
D20*
X-226795000Y-118460000D03*
X-230345000Y-118460000D03*
D10*
X-232380000Y-118460000D03*
D19*
X-300583475Y-113101734D03*
D20*
X-302618475Y-113101734D03*
X-306168475Y-113101734D03*
D10*
X-308203475Y-113101734D03*
D23*
X-249740000Y-72300000D03*
D21*
X-247621786Y-57228120D03*
D24*
X-246000000Y-50720000D03*
X-251000000Y-50720000D03*
D25*
X-103130000Y-57500000D03*
X-103130000Y-55000000D03*
X-103130000Y-52500000D03*
D26*
X-218250000Y-93140000D03*
D27*
X-218900001Y-94410000D03*
X-218900001Y-91870000D03*
X-241600000Y-93140000D03*
D26*
X-242250000Y-93140000D03*
D18*
X-343222000Y-98270000D03*
D13*
X-332300000Y-93190000D03*
X-342460000Y-93190000D03*
D15*
X-337380000Y-93190000D03*
D18*
X-330295000Y-95730000D03*
D14*
X-339920000Y-98270000D03*
X-333570000Y-95730000D03*
D18*
X-356280475Y-117305733D03*
D13*
X-345358475Y-112225733D03*
X-355518475Y-112225733D03*
D15*
X-350438475Y-112225733D03*
D18*
X-343353475Y-114765733D03*
D14*
X-352978475Y-117305733D03*
X-346628475Y-114765733D03*
D18*
X-117393475Y-117305734D03*
D13*
X-106471475Y-112225734D03*
X-116631475Y-112225734D03*
D15*
X-111551475Y-112225734D03*
D18*
X-104466475Y-114765734D03*
D14*
X-114091475Y-117305734D03*
X-107741475Y-114765734D03*
D12*
X-104785000Y-92890000D03*
X-108335000Y-92890000D03*
D11*
X-110370000Y-92890000D03*
D10*
X-102750000Y-92890000D03*
D18*
X-126192000Y-60120000D03*
D13*
X-115270000Y-55040000D03*
X-125430000Y-55040000D03*
D15*
X-120350000Y-55040000D03*
D18*
X-113265000Y-57580000D03*
D14*
X-122890000Y-60120000D03*
X-116540000Y-57580000D03*
D18*
X-352470475Y-60155733D03*
D13*
X-341548475Y-55075733D03*
X-351708475Y-55075733D03*
D15*
X-346628475Y-55075733D03*
D18*
X-339543475Y-57615733D03*
D14*
X-349168475Y-60155733D03*
X-342818475Y-57615733D03*
D18*
X-118345975Y-79205734D03*
D13*
X-107423975Y-74125734D03*
X-117583975Y-74125734D03*
D15*
X-112503975Y-74125734D03*
D18*
X-105418975Y-76665734D03*
D14*
X-115043975Y-79205734D03*
X-108693975Y-76665734D03*
D18*
X-125292000Y-98290000D03*
D13*
X-114370000Y-93210000D03*
X-124530000Y-93210000D03*
D15*
X-119450000Y-93210000D03*
D18*
X-112365000Y-95750000D03*
D14*
X-121990000Y-98290000D03*
X-115640000Y-95750000D03*
D18*
X-350222000Y-79190000D03*
D13*
X-339300000Y-74110000D03*
X-349460000Y-74110000D03*
D15*
X-344380000Y-74110000D03*
D18*
X-337295000Y-76650000D03*
D14*
X-346920000Y-79190000D03*
X-340570000Y-76650000D03*
G36*
X-249110962Y-125635926D02*
G01*
X-249110848Y-125635946D01*
X-249110843Y-125635947D01*
X-249109353Y-125637231D01*
X-249109683Y-125639169D01*
X-249111513Y-125639889D01*
X-251612323Y-125288424D01*
X-251613899Y-125287192D01*
X-251613621Y-125285212D01*
X-251611767Y-125284462D01*
X-249110962Y-125635926D01*
G37*
G36*
X-235956267Y-124919735D02*
G01*
X-235956153Y-124919755D01*
X-235956148Y-124919756D01*
X-235954658Y-124921040D01*
X-235954988Y-124922978D01*
X-235956818Y-124923698D01*
X-238457628Y-124572233D01*
X-238459204Y-124571001D01*
X-238458926Y-124569021D01*
X-238457072Y-124568271D01*
X-235956267Y-124919735D01*
G37*
G36*
X-267969838Y-123019924D02*
G01*
X-267969724Y-123019944D01*
X-267969719Y-123019945D01*
X-267968229Y-123021229D01*
X-267968559Y-123023167D01*
X-267970389Y-123023887D01*
X-270471199Y-122672422D01*
X-270472775Y-122671190D01*
X-270472497Y-122669210D01*
X-270470643Y-122668460D01*
X-267969838Y-123019924D01*
G37*
G36*
X-254815143Y-122303733D02*
G01*
X-254815029Y-122303753D01*
X-254815024Y-122303754D01*
X-254813534Y-122305038D01*
X-254813864Y-122306976D01*
X-254815694Y-122307696D01*
X-257316504Y-121956231D01*
X-257318080Y-121954999D01*
X-257317802Y-121953019D01*
X-257315948Y-121952269D01*
X-254815143Y-122303733D01*
G37*
G36*
X-286880962Y-120355926D02*
G01*
X-286880848Y-120355946D01*
X-286880843Y-120355947D01*
X-286879353Y-120357231D01*
X-286879683Y-120359169D01*
X-286881513Y-120359889D01*
X-289382323Y-120008424D01*
X-289383899Y-120007192D01*
X-289383621Y-120005212D01*
X-289381767Y-120004462D01*
X-286880962Y-120355926D01*
G37*
G36*
X-273726267Y-119639735D02*
G01*
X-273726153Y-119639755D01*
X-273726148Y-119639756D01*
X-273724658Y-119641040D01*
X-273724988Y-119642978D01*
X-273726818Y-119643698D01*
X-276227628Y-119292233D01*
X-276229204Y-119291001D01*
X-276228926Y-119289021D01*
X-276227072Y-119288271D01*
X-273726267Y-119639735D01*
G37*
G36*
X-116113062Y-116002772D02*
G01*
X-116098185Y-116005731D01*
X-116097464Y-116006030D01*
X-116080595Y-116017302D01*
X-116080043Y-116017854D01*
X-116068772Y-116034721D01*
X-116068457Y-116035756D01*
X-116068396Y-116035827D01*
X-116065513Y-116050323D01*
X-116065475Y-116050713D01*
X-116065475Y-117307320D01*
X-116066475Y-117309052D01*
X-116068475Y-117309052D01*
X-116069475Y-117307320D01*
X-116069475Y-116050910D01*
X-116072318Y-116036613D01*
X-116083147Y-116020406D01*
X-116099355Y-116009577D01*
X-116113650Y-116006734D01*
X-118673298Y-116006734D01*
X-118680545Y-116008175D01*
X-118682439Y-116007531D01*
X-118682829Y-116005570D01*
X-118681325Y-116004251D01*
X-118673885Y-116002772D01*
X-118673495Y-116002734D01*
X-116113452Y-116002734D01*
X-116113062Y-116002772D01*
G37*
G36*
X-355000062Y-116002771D02*
G01*
X-354985185Y-116005730D01*
X-354984464Y-116006029D01*
X-354967595Y-116017301D01*
X-354967043Y-116017853D01*
X-354955772Y-116034720D01*
X-354955435Y-116035831D01*
X-354955435Y-116035832D01*
X-354956116Y-116037336D01*
X-354957696Y-116037815D01*
X-354959098Y-116036943D01*
X-354970147Y-116020405D01*
X-354986355Y-116009576D01*
X-355000650Y-116006733D01*
X-357560298Y-116006733D01*
X-357567545Y-116008174D01*
X-357569439Y-116007530D01*
X-357569829Y-116005569D01*
X-357568325Y-116004250D01*
X-357560885Y-116002771D01*
X-357560495Y-116002733D01*
X-355000452Y-116002733D01*
X-355000062Y-116002771D01*
G37*
G36*
X-103186062Y-113462772D02*
G01*
X-103171185Y-113465731D01*
X-103170464Y-113466030D01*
X-103153595Y-113477302D01*
X-103153043Y-113477854D01*
X-103141772Y-113494721D01*
X-103141457Y-113495756D01*
X-103141396Y-113495827D01*
X-103138513Y-113510323D01*
X-103138475Y-113510713D01*
X-103138475Y-114772672D01*
X-103139475Y-114774404D01*
X-103141475Y-114774404D01*
X-103142475Y-114772672D01*
X-103142475Y-113510910D01*
X-103145318Y-113496613D01*
X-103156147Y-113480406D01*
X-103172355Y-113469577D01*
X-103186650Y-113466734D01*
X-105746298Y-113466734D01*
X-105753545Y-113468175D01*
X-105755439Y-113467531D01*
X-105755829Y-113465570D01*
X-105754325Y-113464251D01*
X-105746885Y-113462772D01*
X-105746495Y-113462734D01*
X-103186452Y-113462734D01*
X-103186062Y-113462772D01*
G37*
G36*
X-342073062Y-113462771D02*
G01*
X-342058185Y-113465730D01*
X-342057464Y-113466029D01*
X-342040595Y-113477301D01*
X-342040043Y-113477853D01*
X-342028772Y-113494720D01*
X-342028435Y-113495831D01*
X-342028435Y-113495832D01*
X-342029116Y-113497336D01*
X-342030696Y-113497815D01*
X-342032098Y-113496943D01*
X-342043147Y-113480405D01*
X-342059355Y-113469576D01*
X-342073650Y-113466733D01*
X-344633298Y-113466733D01*
X-344640545Y-113468174D01*
X-344642439Y-113467530D01*
X-344642829Y-113465569D01*
X-344641325Y-113464250D01*
X-344633885Y-113462771D01*
X-344633495Y-113462733D01*
X-342073452Y-113462733D01*
X-342073062Y-113462771D01*
G37*
G36*
X-246485102Y-106731712D02*
G01*
X-246484988Y-106731732D01*
X-246484983Y-106731733D01*
X-246483493Y-106733017D01*
X-246483823Y-106734955D01*
X-246485653Y-106735675D01*
X-248986463Y-106384210D01*
X-248988039Y-106382978D01*
X-248987761Y-106380998D01*
X-248985907Y-106380248D01*
X-246485102Y-106731712D01*
G37*
G36*
X-233330407Y-106015521D02*
G01*
X-233330293Y-106015541D01*
X-233330288Y-106015542D01*
X-233328798Y-106016826D01*
X-233329128Y-106018764D01*
X-233330958Y-106019484D01*
X-235831768Y-105668019D01*
X-235833344Y-105666787D01*
X-235833066Y-105664807D01*
X-235831212Y-105664057D01*
X-233330407Y-106015521D01*
G37*
G36*
X-265349709Y-104080464D02*
G01*
X-265349595Y-104080484D01*
X-265349590Y-104080485D01*
X-265348100Y-104081769D01*
X-265348430Y-104083707D01*
X-265350260Y-104084427D01*
X-267851070Y-103732962D01*
X-267852646Y-103731730D01*
X-267852368Y-103729750D01*
X-267850514Y-103729000D01*
X-265349709Y-104080464D01*
G37*
G36*
X-252195014Y-103364273D02*
G01*
X-252194900Y-103364293D01*
X-252194895Y-103364294D01*
X-252193405Y-103365578D01*
X-252193735Y-103367516D01*
X-252195565Y-103368236D01*
X-254696375Y-103016771D01*
X-254697951Y-103015539D01*
X-254697673Y-103013559D01*
X-254695819Y-103012809D01*
X-252195014Y-103364273D01*
G37*
G36*
X-284214315Y-101429217D02*
G01*
X-284214201Y-101429237D01*
X-284214196Y-101429238D01*
X-284212706Y-101430522D01*
X-284213036Y-101432460D01*
X-284214866Y-101433180D01*
X-286715676Y-101081715D01*
X-286717252Y-101080483D01*
X-286716974Y-101078503D01*
X-286715120Y-101077753D01*
X-284214315Y-101429217D01*
G37*
G36*
X-271059620Y-100713026D02*
G01*
X-271059506Y-100713046D01*
X-271059501Y-100713047D01*
X-271058011Y-100714331D01*
X-271058341Y-100716269D01*
X-271060171Y-100716989D01*
X-273560981Y-100365524D01*
X-273562557Y-100364292D01*
X-273562279Y-100362312D01*
X-273560425Y-100361562D01*
X-271059620Y-100713026D01*
G37*
G36*
X-303078922Y-98777969D02*
G01*
X-303078808Y-98777989D01*
X-303078803Y-98777990D01*
X-303077313Y-98779274D01*
X-303077643Y-98781212D01*
X-303079473Y-98781932D01*
X-305580283Y-98430467D01*
X-305581859Y-98429235D01*
X-305581581Y-98427255D01*
X-305579727Y-98426505D01*
X-303078922Y-98777969D01*
G37*
G36*
X-124011587Y-96987038D02*
G01*
X-123996710Y-96989997D01*
X-123995989Y-96990296D01*
X-123979120Y-97001568D01*
X-123978568Y-97002120D01*
X-123967297Y-97018987D01*
X-123966998Y-97019708D01*
X-123964038Y-97034589D01*
X-123964000Y-97034979D01*
X-123964000Y-98290670D01*
X-123965000Y-98292402D01*
X-123967000Y-98292402D01*
X-123968000Y-98290670D01*
X-123968000Y-97035176D01*
X-123970843Y-97020880D01*
X-123981672Y-97004672D01*
X-123997880Y-96993843D01*
X-124012175Y-96991000D01*
X-126571823Y-96991000D01*
X-126579070Y-96992442D01*
X-126580964Y-96991799D01*
X-126581354Y-96989837D01*
X-126579850Y-96988518D01*
X-126572410Y-96987038D01*
X-126572020Y-96987000D01*
X-124011977Y-96987000D01*
X-124011587Y-96987038D01*
G37*
G36*
X-341941587Y-96967038D02*
G01*
X-341926710Y-96969997D01*
X-341925989Y-96970296D01*
X-341909120Y-96981568D01*
X-341908568Y-96982120D01*
X-341897297Y-96998987D01*
X-341897171Y-96999204D01*
X-341897170Y-96999206D01*
X-341897218Y-97000459D01*
X-341896740Y-97001005D01*
X-341894038Y-97014589D01*
X-341894000Y-97014979D01*
X-341894000Y-98270536D01*
X-341895000Y-98272268D01*
X-341897000Y-98272268D01*
X-341898000Y-98270536D01*
X-341898000Y-97015176D01*
X-341900664Y-97001785D01*
X-341900492Y-97001278D01*
X-341900622Y-97001211D01*
X-341911672Y-96984672D01*
X-341927880Y-96973843D01*
X-341942175Y-96971000D01*
X-344501823Y-96971000D01*
X-344509070Y-96972442D01*
X-344510964Y-96971799D01*
X-344511354Y-96969837D01*
X-344509850Y-96968518D01*
X-344502410Y-96967038D01*
X-344502020Y-96967000D01*
X-341941977Y-96967000D01*
X-341941587Y-96967038D01*
G37*
G36*
X-289924227Y-98061778D02*
G01*
X-289924113Y-98061798D01*
X-289924108Y-98061799D01*
X-289922618Y-98063083D01*
X-289922948Y-98065021D01*
X-289924778Y-98065741D01*
X-292425588Y-97714276D01*
X-292427164Y-97713044D01*
X-292426886Y-97711064D01*
X-292425032Y-97710314D01*
X-289924227Y-98061778D01*
G37*
G36*
X-111084587Y-94447038D02*
G01*
X-111069710Y-94449997D01*
X-111068989Y-94450296D01*
X-111052120Y-94461568D01*
X-111051568Y-94462120D01*
X-111040297Y-94478987D01*
X-111039998Y-94479708D01*
X-111037038Y-94494589D01*
X-111037000Y-94494979D01*
X-111037000Y-95766433D01*
X-111038000Y-95768165D01*
X-111040000Y-95768165D01*
X-111041000Y-95766433D01*
X-111041000Y-94495176D01*
X-111043843Y-94480880D01*
X-111054672Y-94464672D01*
X-111070880Y-94453843D01*
X-111085175Y-94451000D01*
X-113644823Y-94451000D01*
X-113652070Y-94452441D01*
X-113653964Y-94451797D01*
X-113654354Y-94449836D01*
X-113652850Y-94448517D01*
X-113645410Y-94447038D01*
X-113645020Y-94447000D01*
X-111084977Y-94447000D01*
X-111084587Y-94447038D01*
G37*
G36*
X-329014587Y-94427038D02*
G01*
X-328999710Y-94429997D01*
X-328998989Y-94430296D01*
X-328982120Y-94441568D01*
X-328981568Y-94442120D01*
X-328970297Y-94458987D01*
X-328969998Y-94459708D01*
X-328967038Y-94474589D01*
X-328967000Y-94474979D01*
X-328967000Y-95744463D01*
X-328968000Y-95746195D01*
X-328970000Y-95746195D01*
X-328971000Y-95744463D01*
X-328971000Y-94475176D01*
X-328973843Y-94460880D01*
X-328984672Y-94444672D01*
X-329000880Y-94433843D01*
X-329015175Y-94431000D01*
X-331574823Y-94431000D01*
X-331582070Y-94432441D01*
X-331583964Y-94431797D01*
X-331584354Y-94429836D01*
X-331582850Y-94428517D01*
X-331575410Y-94427038D01*
X-331575020Y-94427000D01*
X-329014977Y-94427000D01*
X-329014587Y-94427038D01*
G37*
G36*
X-253266158Y-86541481D02*
G01*
X-253266044Y-86541501D01*
X-253266039Y-86541502D01*
X-253264549Y-86542786D01*
X-253264879Y-86544724D01*
X-253266709Y-86545444D01*
X-255767519Y-86193979D01*
X-255769095Y-86192747D01*
X-255768817Y-86190767D01*
X-255766963Y-86190017D01*
X-253266158Y-86541481D01*
G37*
G36*
X-240111463Y-85825290D02*
G01*
X-240111349Y-85825310D01*
X-240111344Y-85825311D01*
X-240109854Y-85826595D01*
X-240110184Y-85828533D01*
X-240112014Y-85829253D01*
X-242612824Y-85477788D01*
X-242614400Y-85476556D01*
X-242614122Y-85474576D01*
X-242612268Y-85473826D01*
X-240111463Y-85825290D01*
G37*
G36*
X-272130764Y-83890234D02*
G01*
X-272130650Y-83890254D01*
X-272130645Y-83890255D01*
X-272129155Y-83891539D01*
X-272129485Y-83893477D01*
X-272131315Y-83894197D01*
X-274632125Y-83542732D01*
X-274633701Y-83541500D01*
X-274633423Y-83539520D01*
X-274631569Y-83538770D01*
X-272130764Y-83890234D01*
G37*
G36*
X-258976069Y-83174043D02*
G01*
X-258975955Y-83174063D01*
X-258975950Y-83174064D01*
X-258974460Y-83175348D01*
X-258974790Y-83177286D01*
X-258976620Y-83178006D01*
X-261477430Y-82826541D01*
X-261479006Y-82825309D01*
X-261478728Y-82823329D01*
X-261476874Y-82822579D01*
X-258976069Y-83174043D01*
G37*
G36*
X-290995371Y-81238986D02*
G01*
X-290995257Y-81239006D01*
X-290995252Y-81239007D01*
X-290993762Y-81240291D01*
X-290994092Y-81242229D01*
X-290995922Y-81242949D01*
X-293496732Y-80891484D01*
X-293498308Y-80890252D01*
X-293498030Y-80888272D01*
X-293496176Y-80887522D01*
X-290995371Y-81238986D01*
G37*
G36*
X-277840676Y-80522795D02*
G01*
X-277840562Y-80522815D01*
X-277840557Y-80522816D01*
X-277839067Y-80524100D01*
X-277839397Y-80526038D01*
X-277841227Y-80526758D01*
X-280342037Y-80175293D01*
X-280343613Y-80174061D01*
X-280343335Y-80172081D01*
X-280341481Y-80171331D01*
X-277840676Y-80522795D01*
G37*
G36*
X-117065562Y-77902772D02*
G01*
X-117050685Y-77905731D01*
X-117049964Y-77906030D01*
X-117033095Y-77917302D01*
X-117032543Y-77917854D01*
X-117021272Y-77934721D01*
X-117021146Y-77934938D01*
X-117021145Y-77934940D01*
X-117021194Y-77936210D01*
X-117020710Y-77936763D01*
X-117018013Y-77950323D01*
X-117017975Y-77950713D01*
X-117017975Y-79218223D01*
X-117018975Y-79219955D01*
X-117020975Y-79219955D01*
X-117021975Y-79218223D01*
X-117021975Y-77950910D01*
X-117024634Y-77937543D01*
X-117024455Y-77937018D01*
X-117024597Y-77936945D01*
X-117035647Y-77920406D01*
X-117051855Y-77909577D01*
X-117066150Y-77906734D01*
X-119625798Y-77906734D01*
X-119633045Y-77908176D01*
X-119634939Y-77907533D01*
X-119635329Y-77905571D01*
X-119633825Y-77904252D01*
X-119626385Y-77902772D01*
X-119625995Y-77902734D01*
X-117065952Y-77902734D01*
X-117065562Y-77902772D01*
G37*
G36*
X-348941587Y-77887038D02*
G01*
X-348926710Y-77889997D01*
X-348925989Y-77890296D01*
X-348909120Y-77901568D01*
X-348908568Y-77902120D01*
X-348897297Y-77918987D01*
X-348897171Y-77919204D01*
X-348897170Y-77919206D01*
X-348897200Y-77919985D01*
X-348896867Y-77920366D01*
X-348894038Y-77934589D01*
X-348894000Y-77934979D01*
X-348894000Y-79191735D01*
X-348895000Y-79193467D01*
X-348897000Y-79193467D01*
X-348898000Y-79191735D01*
X-348898000Y-77935176D01*
X-348900791Y-77921146D01*
X-348900748Y-77921021D01*
X-348911672Y-77904672D01*
X-348927880Y-77893843D01*
X-348942175Y-77891000D01*
X-351501823Y-77891000D01*
X-351509070Y-77892441D01*
X-351510964Y-77891797D01*
X-351511354Y-77889836D01*
X-351509850Y-77888517D01*
X-351502410Y-77887038D01*
X-351502020Y-77887000D01*
X-348941977Y-77887000D01*
X-348941587Y-77887038D01*
G37*
G36*
X-309873875Y-78606659D02*
G01*
X-309873761Y-78606679D01*
X-309873756Y-78606680D01*
X-309872266Y-78607964D01*
X-309872596Y-78609902D01*
X-309874426Y-78610622D01*
X-312375236Y-78259157D01*
X-312376812Y-78257925D01*
X-312376534Y-78255945D01*
X-312374680Y-78255195D01*
X-309873875Y-78606659D01*
G37*
G36*
X-296719180Y-77890468D02*
G01*
X-296719066Y-77890488D01*
X-296719061Y-77890489D01*
X-296717571Y-77891773D01*
X-296717901Y-77893711D01*
X-296719731Y-77894431D01*
X-299220541Y-77542966D01*
X-299222117Y-77541734D01*
X-299221839Y-77539754D01*
X-299219985Y-77539004D01*
X-296719180Y-77890468D01*
G37*
G36*
X-104138562Y-75362772D02*
G01*
X-104123685Y-75365731D01*
X-104122964Y-75366030D01*
X-104106095Y-75377302D01*
X-104105543Y-75377854D01*
X-104094272Y-75394721D01*
X-104093973Y-75395442D01*
X-104091013Y-75410323D01*
X-104090975Y-75410713D01*
X-104090975Y-76678999D01*
X-104091975Y-76680731D01*
X-104093975Y-76680731D01*
X-104094975Y-76678999D01*
X-104094975Y-75410910D01*
X-104097818Y-75396614D01*
X-104108647Y-75380406D01*
X-104124855Y-75369577D01*
X-104139150Y-75366734D01*
X-106698798Y-75366734D01*
X-106706045Y-75368175D01*
X-106707939Y-75367531D01*
X-106708329Y-75365570D01*
X-106706825Y-75364251D01*
X-106699385Y-75362772D01*
X-106698995Y-75362734D01*
X-104138952Y-75362734D01*
X-104138562Y-75362772D01*
G37*
G36*
X-336014587Y-75347038D02*
G01*
X-335999710Y-75349997D01*
X-335998989Y-75350296D01*
X-335982120Y-75361568D01*
X-335981568Y-75362120D01*
X-335970297Y-75378987D01*
X-335970171Y-75379204D01*
X-335970170Y-75379206D01*
X-335970245Y-75381131D01*
X-335971912Y-75382099D01*
X-335973622Y-75381211D01*
X-335984672Y-75364672D01*
X-336000880Y-75353843D01*
X-336015175Y-75351000D01*
X-338574823Y-75351000D01*
X-338582070Y-75352441D01*
X-338583964Y-75351797D01*
X-338584354Y-75349836D01*
X-338582850Y-75348517D01*
X-338575410Y-75347038D01*
X-338575020Y-75347000D01*
X-336014977Y-75347000D01*
X-336014587Y-75347038D01*
G37*
G36*
X-255331062Y-67014063D02*
G01*
X-255330948Y-67014083D01*
X-255330943Y-67014084D01*
X-255329453Y-67015368D01*
X-255329783Y-67017306D01*
X-255331613Y-67018026D01*
X-257832423Y-66666561D01*
X-257833999Y-66665329D01*
X-257833721Y-66663349D01*
X-257831867Y-66662599D01*
X-255331062Y-67014063D01*
G37*
G36*
X-242176367Y-66297872D02*
G01*
X-242176253Y-66297892D01*
X-242176248Y-66297893D01*
X-242174758Y-66299177D01*
X-242175088Y-66301115D01*
X-242176918Y-66301835D01*
X-244677728Y-65950370D01*
X-244679304Y-65949138D01*
X-244679026Y-65947158D01*
X-244677172Y-65946408D01*
X-242176367Y-66297872D01*
G37*
G36*
X-274195669Y-64362815D02*
G01*
X-274195555Y-64362835D01*
X-274195550Y-64362836D01*
X-274194060Y-64364120D01*
X-274194390Y-64366058D01*
X-274196220Y-64366778D01*
X-276697030Y-64015313D01*
X-276698606Y-64014081D01*
X-276698328Y-64012101D01*
X-276696474Y-64011351D01*
X-274195669Y-64362815D01*
G37*
G36*
X-261040974Y-63646624D02*
G01*
X-261040860Y-63646644D01*
X-261040855Y-63646645D01*
X-261039365Y-63647929D01*
X-261039695Y-63649867D01*
X-261041525Y-63650587D01*
X-263542335Y-63299122D01*
X-263543911Y-63297890D01*
X-263543633Y-63295910D01*
X-263541779Y-63295160D01*
X-261040974Y-63646624D01*
G37*
G36*
X-293060275Y-61711568D02*
G01*
X-293060161Y-61711588D01*
X-293060156Y-61711589D01*
X-293058666Y-61712873D01*
X-293058996Y-61714811D01*
X-293060826Y-61715531D01*
X-295561636Y-61364066D01*
X-295563212Y-61362834D01*
X-295562934Y-61360854D01*
X-295561080Y-61360104D01*
X-293060275Y-61711568D01*
G37*
G36*
X-279905580Y-60995377D02*
G01*
X-279905466Y-60995397D01*
X-279905461Y-60995398D01*
X-279903971Y-60996682D01*
X-279904301Y-60998620D01*
X-279906131Y-60999340D01*
X-282406941Y-60647875D01*
X-282408517Y-60646643D01*
X-282408239Y-60644663D01*
X-282406385Y-60643913D01*
X-279905580Y-60995377D01*
G37*
G36*
X-351190062Y-58852771D02*
G01*
X-351175185Y-58855730D01*
X-351174464Y-58856029D01*
X-351157595Y-58867301D01*
X-351157043Y-58867853D01*
X-351145772Y-58884720D01*
X-351145473Y-58885441D01*
X-351142513Y-58900322D01*
X-351142475Y-58900712D01*
X-351142475Y-60157212D01*
X-351143475Y-60158944D01*
X-351145475Y-60158944D01*
X-351146475Y-60157212D01*
X-351146475Y-58900909D01*
X-351149318Y-58886613D01*
X-351160147Y-58870405D01*
X-351176355Y-58859576D01*
X-351190650Y-58856733D01*
X-353750298Y-58856733D01*
X-353757545Y-58858174D01*
X-353759439Y-58857530D01*
X-353759829Y-58855569D01*
X-353758325Y-58854250D01*
X-353750885Y-58852771D01*
X-353750495Y-58852733D01*
X-351190452Y-58852733D01*
X-351190062Y-58852771D01*
G37*
G36*
X-124911587Y-58817038D02*
G01*
X-124896710Y-58819997D01*
X-124895989Y-58820296D01*
X-124879120Y-58831568D01*
X-124878568Y-58832120D01*
X-124867297Y-58848987D01*
X-124866998Y-58849708D01*
X-124864038Y-58864589D01*
X-124864000Y-58864979D01*
X-124864000Y-60122268D01*
X-124865000Y-60124000D01*
X-124867000Y-60124000D01*
X-124868000Y-60122268D01*
X-124868000Y-58865176D01*
X-124870843Y-58850880D01*
X-124881672Y-58834672D01*
X-124897880Y-58823843D01*
X-124912175Y-58821000D01*
X-127471823Y-58821000D01*
X-127479070Y-58822441D01*
X-127480964Y-58821797D01*
X-127481354Y-58819836D01*
X-127479850Y-58818517D01*
X-127472410Y-58817038D01*
X-127472020Y-58817000D01*
X-124911977Y-58817000D01*
X-124911587Y-58817038D01*
G37*
G36*
X-311924882Y-59060320D02*
G01*
X-311924768Y-59060340D01*
X-311924763Y-59060341D01*
X-311923273Y-59061625D01*
X-311923603Y-59063563D01*
X-311925433Y-59064283D01*
X-314426243Y-58712818D01*
X-314427819Y-58711586D01*
X-314427541Y-58709606D01*
X-314425687Y-58708856D01*
X-311924882Y-59060320D01*
G37*
G36*
X-298770187Y-58344129D02*
G01*
X-298770073Y-58344149D01*
X-298770068Y-58344150D01*
X-298768578Y-58345434D01*
X-298768908Y-58347372D01*
X-298770738Y-58348092D01*
X-301271548Y-57996627D01*
X-301273124Y-57995395D01*
X-301272846Y-57993415D01*
X-301270992Y-57992665D01*
X-298770187Y-58344129D01*
G37*
G36*
X-338263062Y-56312771D02*
G01*
X-338248185Y-56315730D01*
X-338247464Y-56316029D01*
X-338230595Y-56327301D01*
X-338230043Y-56327853D01*
X-338218772Y-56344720D01*
X-338218473Y-56345441D01*
X-338215513Y-56360322D01*
X-338215475Y-56360712D01*
X-338215475Y-57620974D01*
X-338216475Y-57622706D01*
X-338218475Y-57622706D01*
X-338219475Y-57620974D01*
X-338219475Y-56360909D01*
X-338222318Y-56346613D01*
X-338233147Y-56330405D01*
X-338249355Y-56319576D01*
X-338263650Y-56316733D01*
X-340823298Y-56316733D01*
X-340830545Y-56318175D01*
X-340832439Y-56317532D01*
X-340832829Y-56315570D01*
X-340831325Y-56314251D01*
X-340823885Y-56312771D01*
X-340823495Y-56312733D01*
X-338263452Y-56312733D01*
X-338263062Y-56312771D01*
G37*
G36*
X-111984587Y-56277038D02*
G01*
X-111969710Y-56279997D01*
X-111968989Y-56280296D01*
X-111952120Y-56291568D01*
X-111951568Y-56292120D01*
X-111940297Y-56308987D01*
X-111939998Y-56309708D01*
X-111937038Y-56324589D01*
X-111937000Y-56324979D01*
X-111937000Y-57580867D01*
X-111938000Y-57582599D01*
X-111940000Y-57582599D01*
X-111941000Y-57580867D01*
X-111941000Y-56325176D01*
X-111943843Y-56310880D01*
X-111954672Y-56294672D01*
X-111970880Y-56283843D01*
X-111985175Y-56281000D01*
X-114544823Y-56281000D01*
X-114552070Y-56282441D01*
X-114553964Y-56281797D01*
X-114554354Y-56279836D01*
X-114552850Y-56278517D01*
X-114545410Y-56277038D01*
X-114545020Y-56277000D01*
X-111984977Y-56277000D01*
X-111984587Y-56277038D01*
G37*
M02*
