G04 #@! TF.GenerationSoftware,KiCad,Pcbnew,7.0.1-0*
G04 #@! TF.CreationDate,2023-10-08T21:15:56+09:00*
G04 #@! TF.ProjectId,cool846ble,636f6f6c-3834-4366-926c-652e6b696361,rev?*
G04 #@! TF.SameCoordinates,Original*
G04 #@! TF.FileFunction,Copper,L1,Top*
G04 #@! TF.FilePolarity,Positive*
%FSLAX46Y46*%
G04 Gerber Fmt 4.6, Leading zero omitted, Abs format (unit mm)*
G04 Created by KiCad (PCBNEW 7.0.1-0) date 2023-10-08 21:15:56*
%MOMM*%
%LPD*%
G01*
G04 APERTURE LIST*
G04 Aperture macros list*
%AMRotRect*
0 Rectangle, with rotation*
0 The origin of the aperture is its center*
0 $1 length*
0 $2 width*
0 $3 Rotation angle, in degrees counterclockwise*
0 Add horizontal line*
21,1,$1,$2,0,0,$3*%
G04 Aperture macros list end*
G04 #@! TA.AperFunction,SMDPad,CuDef*
%ADD10R,1.300000X0.950000*%
G04 #@! TD*
G04 #@! TA.AperFunction,ComponentPad*
%ADD11C,1.397000*%
G04 #@! TD*
G04 #@! TA.AperFunction,ComponentPad*
%ADD12R,1.397000X1.397000*%
G04 #@! TD*
G04 #@! TA.AperFunction,ComponentPad*
%ADD13C,1.524000*%
G04 #@! TD*
G04 #@! TA.AperFunction,ComponentPad*
%ADD14R,1.524000X1.524000*%
G04 #@! TD*
G04 #@! TA.AperFunction,ComponentPad*
%ADD15RotRect,1.524000X1.524000X82.000000*%
G04 #@! TD*
G04 #@! TA.AperFunction,ComponentPad*
%ADD16C,2.000000*%
G04 #@! TD*
G04 #@! TA.AperFunction,ComponentPad*
%ADD17O,1.000000X1.300000*%
G04 #@! TD*
G04 #@! TA.AperFunction,ComponentPad*
%ADD18C,1.800000*%
G04 #@! TD*
G04 #@! TA.AperFunction,ViaPad*
%ADD19C,0.800000*%
G04 #@! TD*
G04 #@! TA.AperFunction,Conductor*
%ADD20C,0.250000*%
G04 #@! TD*
G04 APERTURE END LIST*
D10*
X-350535000Y-87660000D03*
D11*
X-348500000Y-87660000D03*
D12*
X-356120000Y-87660000D03*
D10*
X-354085000Y-87660000D03*
X-350535000Y-90310000D03*
D11*
X-348500000Y-90310000D03*
D12*
X-356120000Y-90310000D03*
D10*
X-354085000Y-90310000D03*
X-350535000Y-92960000D03*
D11*
X-348500000Y-92960000D03*
D12*
X-356120000Y-92960000D03*
D10*
X-354085000Y-92960000D03*
X-108335000Y-84940000D03*
D12*
X-110370000Y-84940000D03*
D11*
X-102750000Y-84940000D03*
D10*
X-104785000Y-84940000D03*
X-108335000Y-87590000D03*
D12*
X-110370000Y-87590000D03*
D11*
X-102750000Y-87590000D03*
D10*
X-104785000Y-87590000D03*
X-108335000Y-90240000D03*
D12*
X-110370000Y-90240000D03*
D11*
X-102750000Y-90240000D03*
D10*
X-104785000Y-90240000D03*
X-350535000Y-85010000D03*
D11*
X-348500000Y-85010000D03*
D12*
X-356120000Y-85010000D03*
D10*
X-354085000Y-85010000D03*
D12*
X-157053475Y-109723734D03*
D10*
X-159088475Y-109723734D03*
X-162638475Y-109723734D03*
D11*
X-164673475Y-109723734D03*
D12*
X-224823475Y-120673734D03*
D10*
X-226858475Y-120673734D03*
X-230408475Y-120673734D03*
D11*
X-232443475Y-120673734D03*
D12*
X-224823475Y-128331234D03*
D10*
X-226858475Y-128331234D03*
X-230408475Y-128331234D03*
D11*
X-232443475Y-128331234D03*
D12*
X-224770000Y-113900000D03*
D10*
X-226805000Y-113900000D03*
X-230355000Y-113900000D03*
D11*
X-232390000Y-113900000D03*
D12*
X-311543475Y-120933734D03*
D10*
X-313578475Y-120933734D03*
X-317128475Y-120933734D03*
D11*
X-319163475Y-120933734D03*
D12*
X-311543475Y-115925734D03*
D10*
X-313578475Y-115925734D03*
X-317128475Y-115925734D03*
D11*
X-319163475Y-115925734D03*
D13*
X-224560000Y-47890000D03*
X-224560000Y-50430000D03*
X-224560000Y-52970000D03*
X-224560000Y-55510000D03*
X-224560000Y-58050000D03*
X-224560000Y-60590000D03*
X-224560000Y-63130000D03*
X-224560000Y-65670000D03*
X-224560000Y-68210000D03*
X-224560000Y-70750000D03*
X-224560000Y-73290000D03*
X-224560000Y-75830000D03*
X-239780000Y-75830000D03*
X-239780000Y-73290000D03*
X-239780000Y-70750000D03*
X-239780000Y-68210000D03*
X-239780000Y-65670000D03*
X-239780000Y-63130000D03*
X-239780000Y-60590000D03*
X-239780000Y-58050000D03*
X-239780000Y-55510000D03*
X-239780000Y-52970000D03*
X-239780000Y-50430000D03*
X-239780000Y-47890000D03*
D14*
X-239780000Y-45350000D03*
D13*
X-224560000Y-45350000D03*
D12*
X-224723475Y-123213734D03*
D10*
X-226758475Y-123213734D03*
X-230308475Y-123213734D03*
D11*
X-232343475Y-123213734D03*
D12*
X-144938475Y-109793734D03*
D10*
X-146973475Y-109793734D03*
X-150523475Y-109793734D03*
D11*
X-152558475Y-109793734D03*
D12*
X-144933475Y-112543734D03*
D10*
X-146968475Y-112543734D03*
X-150518475Y-112543734D03*
D11*
X-152553475Y-112543734D03*
D12*
X-300583475Y-121033734D03*
D10*
X-302618475Y-121033734D03*
X-306168475Y-121033734D03*
D11*
X-308203475Y-121033734D03*
D12*
X-224780000Y-109090000D03*
D10*
X-226815000Y-109090000D03*
X-230365000Y-109090000D03*
D11*
X-232400000Y-109090000D03*
D12*
X-157083475Y-118153734D03*
D10*
X-159118475Y-118153734D03*
X-162668475Y-118153734D03*
D11*
X-164703475Y-118153734D03*
D12*
X-300578475Y-107953734D03*
D10*
X-302613475Y-107953734D03*
X-306163475Y-107953734D03*
D11*
X-308198475Y-107953734D03*
D12*
X-144933475Y-120733734D03*
D10*
X-146968475Y-120733734D03*
X-150518475Y-120733734D03*
D11*
X-152553475Y-120733734D03*
D12*
X-157083475Y-120733734D03*
D10*
X-159118475Y-120733734D03*
X-162668475Y-120733734D03*
D11*
X-164703475Y-120733734D03*
D12*
X-311513475Y-108383734D03*
D10*
X-313548475Y-108383734D03*
X-317098475Y-108383734D03*
D11*
X-319133475Y-108383734D03*
D12*
X-224763475Y-125823734D03*
D10*
X-226798475Y-125823734D03*
X-230348475Y-125823734D03*
D11*
X-232383475Y-125823734D03*
D12*
X-224775000Y-116320000D03*
D10*
X-226810000Y-116320000D03*
X-230360000Y-116320000D03*
D11*
X-232395000Y-116320000D03*
D12*
X-300583475Y-110457734D03*
D10*
X-302618475Y-110457734D03*
X-306168475Y-110457734D03*
D11*
X-308203475Y-110457734D03*
D12*
X-300583475Y-118389734D03*
D10*
X-302618475Y-118389734D03*
X-306168475Y-118389734D03*
D11*
X-308203475Y-118389734D03*
D12*
X-226133475Y-78569734D03*
D10*
X-228168475Y-78569734D03*
X-231718475Y-78569734D03*
D11*
X-233753475Y-78569734D03*
D12*
X-157008475Y-107023734D03*
D10*
X-159043475Y-107023734D03*
X-162593475Y-107023734D03*
D11*
X-164628475Y-107023734D03*
D12*
X-311543475Y-110917734D03*
D10*
X-313578475Y-110917734D03*
X-317128475Y-110917734D03*
D11*
X-319163475Y-110917734D03*
D12*
X-144858475Y-107133734D03*
D10*
X-146893475Y-107133734D03*
X-150443475Y-107133734D03*
D11*
X-152478475Y-107133734D03*
D12*
X-311543475Y-113421734D03*
D10*
X-313578475Y-113421734D03*
X-317128475Y-113421734D03*
D11*
X-319163475Y-113421734D03*
D12*
X-144933475Y-118003734D03*
D10*
X-146968475Y-118003734D03*
X-150518475Y-118003734D03*
D11*
X-152553475Y-118003734D03*
D12*
X-226123475Y-80941067D03*
D10*
X-228158475Y-80941067D03*
X-231708475Y-80941067D03*
D11*
X-233743475Y-80941067D03*
D12*
X-224780000Y-111570000D03*
D10*
X-226815000Y-111570000D03*
X-230365000Y-111570000D03*
D11*
X-232400000Y-111570000D03*
D12*
X-224823475Y-130883734D03*
D10*
X-226858475Y-130883734D03*
X-230408475Y-130883734D03*
D11*
X-232443475Y-130883734D03*
D12*
X-311453475Y-105903734D03*
D10*
X-313488475Y-105903734D03*
X-317038475Y-105903734D03*
D11*
X-319073475Y-105903734D03*
D12*
X-311543475Y-118429734D03*
D10*
X-313578475Y-118429734D03*
X-317128475Y-118429734D03*
D11*
X-319163475Y-118429734D03*
D12*
X-157088475Y-115283734D03*
D10*
X-159123475Y-115283734D03*
X-162673475Y-115283734D03*
D11*
X-164708475Y-115283734D03*
D12*
X-144933475Y-115273734D03*
D10*
X-146968475Y-115273734D03*
X-150518475Y-115273734D03*
D11*
X-152553475Y-115273734D03*
D12*
X-300583475Y-115745734D03*
D10*
X-302618475Y-115745734D03*
X-306168475Y-115745734D03*
D11*
X-308203475Y-115745734D03*
D12*
X-157158475Y-112393734D03*
D10*
X-159193475Y-112393734D03*
X-162743475Y-112393734D03*
D11*
X-164778475Y-112393734D03*
D12*
X-226193475Y-83312400D03*
D10*
X-228228475Y-83312400D03*
X-231778475Y-83312400D03*
D11*
X-233813475Y-83312400D03*
D12*
X-224760000Y-118460000D03*
D10*
X-226795000Y-118460000D03*
X-230345000Y-118460000D03*
D11*
X-232380000Y-118460000D03*
D12*
X-300583475Y-113101734D03*
D10*
X-302618475Y-113101734D03*
X-306168475Y-113101734D03*
D11*
X-308203475Y-113101734D03*
D15*
X-249740000Y-72300000D03*
D13*
X-247621786Y-57228120D03*
D16*
X-221190000Y-50320000D03*
X-214690000Y-50320000D03*
D17*
X-103130000Y-57500000D03*
X-103130000Y-55000000D03*
X-103130000Y-52500000D03*
D18*
X-218900001Y-94410000D03*
X-218900001Y-91870000D03*
X-241600000Y-93140000D03*
D10*
X-108335000Y-92890000D03*
D12*
X-110370000Y-92890000D03*
D11*
X-102750000Y-92890000D03*
D10*
X-104785000Y-92890000D03*
D19*
X-324670000Y-84740000D03*
X-160950000Y-116743734D03*
X-113140000Y-54240000D03*
X-305420000Y-84700000D03*
X-224740000Y-103820000D03*
X-168240000Y-114250000D03*
X-223459089Y-82160911D03*
X-185263475Y-115463734D03*
X-158203475Y-113803734D03*
X-167833475Y-110813734D03*
X-171663475Y-109003734D03*
X-222320000Y-115835500D03*
X-222313475Y-128331234D03*
X-186730000Y-107610000D03*
X-186730000Y-104850000D03*
X-205160000Y-51010000D03*
X-246000000Y-54550000D03*
X-242960000Y-81710000D03*
X-258680000Y-63750000D03*
X-294543475Y-67723734D03*
X-283260000Y-87783734D03*
X-289230000Y-109330000D03*
X-275603475Y-69693734D03*
X-257310000Y-86010000D03*
X-257310000Y-89740000D03*
X-251000000Y-110845500D03*
X-201953475Y-72203734D03*
X-181433475Y-72943734D03*
X-163683475Y-66573734D03*
X-269590000Y-111500000D03*
X-236370000Y-113920000D03*
X-222880000Y-114870000D03*
X-169423475Y-110503734D03*
X-194533475Y-88913734D03*
X-175773475Y-87373734D03*
X-162483475Y-87333734D03*
X-151623475Y-84003734D03*
X-137593475Y-83933734D03*
X-263383475Y-114553734D03*
X-243460000Y-115360000D03*
X-167320000Y-105990000D03*
X-174173475Y-105923734D03*
X-168313475Y-104813734D03*
X-174193475Y-104843734D03*
X-308198475Y-92719802D03*
X-142343475Y-64753734D03*
X-218630000Y-116560000D03*
X-203320000Y-116510000D03*
X-206840000Y-116540000D03*
X-298073475Y-91743734D03*
X-331810000Y-84690000D03*
X-327360000Y-98289512D03*
X-331150000Y-83580000D03*
X-102800000Y-101290000D03*
X-359420000Y-109340000D03*
X-333420475Y-80230000D03*
D20*
X-242673993Y-81996007D02*
G75*
G03*
X-241966886Y-82288900I707106J707106D01*
G01*
X-218900001Y-91870000D02*
X-218900001Y-84838909D01*
X-222302999Y-81435911D02*
X-223671697Y-81435911D01*
X-221595892Y-81728804D02*
G75*
G03*
X-222302999Y-81435911I-707106J-707106D01*
G01*
X-223671697Y-81435912D02*
G75*
G03*
X-224378803Y-81728805I-1J-999998D01*
G01*
X-218900002Y-84838909D02*
G75*
G03*
X-219192895Y-84131803I-999998J1D01*
G01*
X-225353114Y-82288900D02*
X-241966886Y-82288900D01*
X-225353114Y-82288899D02*
G75*
G03*
X-224646008Y-81996006I1J999998D01*
G01*
X-219192894Y-84131802D02*
X-221595892Y-81728804D01*
X-242673993Y-81996007D02*
X-242960000Y-81710000D01*
X-224378804Y-81728804D02*
X-224646007Y-81996007D01*
X-289402154Y-124095055D02*
G75*
G03*
X-287280834Y-124973734I2121319J2121319D01*
G01*
X-226261189Y-129354733D02*
G75*
G03*
X-225554083Y-129061840I1J999998D01*
G01*
X-193051702Y-128849061D02*
G75*
G03*
X-190930381Y-127970381I-2J3000005D01*
G01*
X-188507359Y-126790000D02*
G75*
G03*
X-190628679Y-127668679I-1J-2999998D01*
G01*
X-272711158Y-127890268D02*
G75*
G03*
X-269175624Y-129354734I3535533J3535532D01*
G01*
X-274163226Y-126438200D02*
G75*
G03*
X-277698760Y-124973734I-3535533J-3535532D01*
G01*
X-222088541Y-128556168D02*
G75*
G03*
X-221381434Y-128849061I707106J707106D01*
G01*
X-245092786Y-54057001D02*
G75*
G03*
X-245799892Y-54349894I-3J-999993D01*
G01*
X-243890001Y-57074214D02*
G75*
G03*
X-244182894Y-56367108I-999993J3D01*
G01*
X-252349211Y-57228121D02*
G75*
G03*
X-253056317Y-57521014I-1J-999998D01*
G01*
X-258387107Y-62851802D02*
G75*
G03*
X-258680000Y-63558909I707106J-707106D01*
G01*
X-312059213Y-95389213D02*
G75*
G03*
X-312645000Y-96803427I1414213J-1414214D01*
G01*
X-296007941Y-81858200D02*
G75*
G03*
X-294543475Y-78322666I-3535532J3535533D01*
G01*
X-305365307Y-89523735D02*
G75*
G03*
X-306779519Y-90109521I0J-1999999D01*
G01*
X-304501902Y-89523733D02*
G75*
G03*
X-303087689Y-88937946I0J1999999D01*
G01*
X-313230786Y-100061045D02*
G75*
G03*
X-312645000Y-98646832I-1414214J1414213D01*
G01*
X-276510582Y-73540841D02*
G75*
G03*
X-276803475Y-74247948I707101J-707104D01*
G01*
X-278267941Y-85968200D02*
G75*
G03*
X-276803475Y-82432666I-3535532J3535533D01*
G01*
X-275896368Y-72926627D02*
G75*
G03*
X-275603475Y-72219520I-707106J707106D01*
G01*
X-282154543Y-87783734D02*
G75*
G03*
X-278619009Y-86319268I1J4999998D01*
G01*
X-234569714Y-110845499D02*
G75*
G03*
X-233862608Y-110552606I3J999993D01*
G01*
X-232819261Y-75853735D02*
G75*
G03*
X-233526367Y-76146628I-1J-999998D01*
G01*
X-226105052Y-74743001D02*
G75*
G03*
X-226812158Y-75035894I-3J-999993D01*
G01*
X-228044214Y-75853733D02*
G75*
G03*
X-227337108Y-75560840I3J999993D01*
G01*
X-221717841Y-75035893D02*
G75*
G03*
X-222424948Y-74743000I-707106J-707106D01*
G01*
X-207270329Y-75853734D02*
G75*
G03*
X-204441902Y-74682161I0J3999999D01*
G01*
X-235113474Y-79156853D02*
G75*
G03*
X-234820581Y-79863959I999993J-3D01*
G01*
X-221192893Y-75560841D02*
G75*
G03*
X-220485786Y-75853734I707106J707106D01*
G01*
X-234820582Y-77440841D02*
G75*
G03*
X-235113475Y-78147948I707106J-707106D01*
G01*
X-187090329Y-76943734D02*
G75*
G03*
X-184261902Y-75772161I0J3999999D01*
G01*
X-231713261Y-76943735D02*
G75*
G03*
X-232420367Y-77236628I-1J-999998D01*
G01*
X-162637154Y-89817413D02*
G75*
G03*
X-161758475Y-87696093I-2121319J2121319D01*
G01*
X-165373295Y-92553554D02*
G75*
G03*
X-166251975Y-94674875I2121325J-2121323D01*
G01*
X-166251975Y-117942593D02*
G75*
G03*
X-165373296Y-120063913I2999998J-1D01*
G01*
X-185733476Y-99356375D02*
G75*
G03*
X-186612156Y-97235055I-2999993J3D01*
G01*
X-183442155Y-109535054D02*
G75*
G03*
X-181320834Y-110413734I2121323J2121325D01*
G01*
X-185733475Y-106001093D02*
G75*
G03*
X-184854796Y-108122413I2999998J-1D01*
G01*
X-234979261Y-125237947D02*
G75*
G03*
X-233565047Y-125823734I1414214J1414213D01*
G01*
X-244524796Y-115692413D02*
G75*
G03*
X-246646116Y-114813734I-2121319J-2121319D01*
G01*
X-236192053Y-122627947D02*
G75*
G03*
X-234777839Y-123213734I1414214J1414213D01*
G01*
X-143222154Y-80162413D02*
G75*
G03*
X-142343475Y-78041093I-2121319J2121319D01*
G01*
X-154005834Y-83278734D02*
G75*
G03*
X-156127154Y-84157413I-1J-2999998D01*
G01*
X-165801975Y-115812593D02*
G75*
G03*
X-164923296Y-117933913I2999998J-1D01*
G01*
X-147581116Y-83278734D02*
G75*
G03*
X-145459795Y-82400054I-2J3000005D01*
G01*
X-164923295Y-92953554D02*
G75*
G03*
X-165801975Y-95074875I2121325J-2121323D01*
G01*
X-195107359Y-113110000D02*
G75*
G03*
X-197228679Y-113988679I-1J-2999998D01*
G01*
X-169350582Y-109296627D02*
G75*
G03*
X-170057689Y-109003734I-707104J-707101D01*
G01*
X-169568932Y-123293734D02*
G75*
G03*
X-173104466Y-124758200I-1J-4999998D01*
G01*
X-149564543Y-123293734D02*
G75*
G03*
X-146029009Y-121829268I1J4999998D01*
G01*
X-218370834Y-118103734D02*
G75*
G03*
X-220492155Y-118982414I2J-3000005D01*
G01*
X-240804543Y-116252666D02*
G75*
G03*
X-247875611Y-113323734I-7071070J-7071075D01*
G01*
X-225660582Y-122276627D02*
G75*
G03*
X-226367689Y-121983734I-707104J-707101D01*
G01*
X-201642641Y-118103734D02*
G75*
G03*
X-199521321Y-117225055I1J2999998D01*
G01*
X-177207334Y-126790000D02*
G75*
G03*
X-173671800Y-125325534I1J4999998D01*
G01*
X-238002407Y-119054802D02*
G75*
G03*
X-230931339Y-121983734I7071066J7071064D01*
G01*
X-196517359Y-115463735D02*
G75*
G03*
X-198638679Y-116342415I-3J-2999993D01*
G01*
X-288746621Y-113323734D02*
G75*
G03*
X-291575048Y-114495307I0J-3999999D01*
G01*
X-294228795Y-119268414D02*
G75*
G03*
X-296350116Y-118389734I-2121323J-2121325D01*
G01*
X-294482329Y-115745734D02*
G75*
G03*
X-291653902Y-114574161I0J3999999D01*
G01*
X-220136621Y-117643734D02*
G75*
G03*
X-222965048Y-118815307I0J-3999999D01*
G01*
X-202126375Y-117643734D02*
G75*
G03*
X-200005054Y-116765054I-2J3000005D01*
G01*
X-276145048Y-111372161D02*
G75*
G03*
X-273316621Y-112543734I2828427J2828426D01*
G01*
X-156981902Y-122283733D02*
G75*
G03*
X-155567690Y-121697947I0J1999999D01*
G01*
X-223751982Y-104251982D02*
G75*
G03*
X-223459089Y-103544875I-707101J707104D01*
G01*
X-278391902Y-109125307D02*
G75*
G03*
X-281220329Y-107953734I-2828427J-2828426D01*
G01*
X-155409262Y-121539521D02*
G75*
G03*
X-154823475Y-120125307I-1414213J1414214D01*
G01*
X-181038350Y-113988680D02*
G75*
G03*
X-183159671Y-113110000I-2121323J-2121325D01*
G01*
X-174207762Y-120819268D02*
G75*
G03*
X-170672228Y-122283734I3535533J3535532D01*
G01*
X-154823476Y-117652161D02*
G75*
G03*
X-155409262Y-116237949I-1999999J0D01*
G01*
X-227497107Y-107997107D02*
G75*
G03*
X-227790000Y-108704214I707101J-707104D01*
G01*
X-169371800Y-113118200D02*
G75*
G03*
X-172907334Y-111653734I-3535533J-3535532D01*
G01*
X-322535802Y-111724979D02*
G75*
G03*
X-321950015Y-113139192I1999999J0D01*
G01*
X-322985804Y-111758427D02*
G75*
G03*
X-323571590Y-110344215I-1999999J0D01*
G01*
X-326289999Y-106103178D02*
G75*
G03*
X-325704213Y-107517390I1999999J0D01*
G01*
X-327359999Y-105727376D02*
G75*
G03*
X-326774212Y-107141589I1999999J0D01*
G01*
X-322985802Y-113778979D02*
G75*
G03*
X-322400015Y-115193192I1999999J0D01*
G01*
X-326290001Y-89268427D02*
G75*
G03*
X-326875787Y-87854215I-1999999J0D01*
G01*
X-322535804Y-111514230D02*
G75*
G03*
X-323121590Y-110100018I-1999999J0D01*
G01*
X-159215787Y-105495787D02*
G75*
G03*
X-158630000Y-104081573I-1414213J1414214D01*
G01*
X-160364214Y-106644214D02*
G75*
G03*
X-160950000Y-108058427I1414214J-1414213D01*
G01*
X-155992689Y-94212678D02*
G75*
G03*
X-156578475Y-95626891I1414214J-1414213D01*
G01*
X-158044214Y-97274275D02*
G75*
G03*
X-158630000Y-98688488I1414214J-1414213D01*
G01*
X-145891584Y-84940001D02*
G75*
G03*
X-147305797Y-85525788I0J-1999999D01*
G01*
X-325840001Y-88638902D02*
G75*
G03*
X-326425787Y-87224690I-1999999J0D01*
G01*
X-139005406Y-87590001D02*
G75*
G03*
X-140419619Y-88175788I0J-1999999D01*
G01*
X-141155994Y-107133733D02*
G75*
G03*
X-139741782Y-106547947I0J1999999D01*
G01*
X-122605406Y-90240001D02*
G75*
G03*
X-124019619Y-90825788I0J-1999999D01*
G01*
X-110955787Y-104676213D02*
G75*
G03*
X-110370000Y-103261999I-1414213J1414214D01*
G01*
X-127841735Y-120733733D02*
G75*
G03*
X-126427523Y-120147947I0J1999999D01*
G01*
X-156422689Y-104178856D02*
G75*
G03*
X-157008475Y-105593069I1414214J-1414213D01*
G01*
X-325839999Y-105916782D02*
G75*
G03*
X-325254213Y-107330994I1999999J0D01*
G01*
X-115449213Y-49580787D02*
G75*
G03*
X-116863427Y-48995000I-1414214J-1414213D01*
G01*
X-222296573Y-48995001D02*
G75*
G03*
X-223710785Y-49580787I0J-1999999D01*
G01*
X-113140001Y-52718427D02*
G75*
G03*
X-113725787Y-51304215I-1999999J0D01*
G01*
X-339032552Y-118867448D02*
G75*
G03*
X-337618339Y-119453234I1414213J1414214D01*
G01*
X-199115786Y-111067948D02*
G75*
G03*
X-197701573Y-111653734I1414213J1414214D01*
G01*
X-317205402Y-119453233D02*
G75*
G03*
X-315791189Y-118867446I0J1999999D01*
G01*
X-199608153Y-110575581D02*
G75*
G03*
X-201022367Y-109989794I-1414214J-1414213D01*
G01*
X-340269999Y-116801573D02*
G75*
G03*
X-339684212Y-118215786I1999999J0D01*
G01*
X-340270001Y-112298427D02*
G75*
G03*
X-340855787Y-110884215I-1999999J0D01*
G01*
X-341814213Y-109925787D02*
G75*
G03*
X-343228427Y-109340000I-1414214J-1414213D01*
G01*
X-353061573Y-82780001D02*
G75*
G03*
X-354475786Y-83365788I0J-1999999D01*
G01*
X-344344214Y-83365786D02*
G75*
G03*
X-345758427Y-82780000I-1414213J-1414214D01*
G01*
X-343605787Y-84104213D02*
G75*
G03*
X-342191573Y-84690000I1414214J1414213D01*
G01*
X-340270000Y-112298427D02*
X-340270000Y-116801573D01*
X-337618339Y-119453234D02*
X-317205402Y-119453234D01*
X-315791188Y-118867447D02*
X-312849475Y-115925734D01*
X-312849475Y-115925734D02*
X-311543475Y-115925734D01*
X-339684213Y-118215787D02*
X-339032552Y-118867448D01*
X-359420000Y-109340000D02*
X-343228427Y-109340000D01*
X-341814213Y-109925787D02*
X-340855786Y-110884214D01*
X-155567689Y-121697948D02*
X-155409262Y-121539521D01*
X-300583475Y-110457734D02*
X-302618475Y-110457734D01*
X-102750000Y-101240000D02*
X-102800000Y-101290000D01*
X-157008475Y-107023734D02*
X-159043475Y-107023734D01*
X-281220329Y-107953734D02*
X-300578475Y-107953734D01*
X-227790000Y-108704214D02*
X-227790000Y-110595000D01*
X-220136621Y-117643734D02*
X-215700000Y-117643734D01*
X-322985803Y-111758427D02*
X-322985803Y-113778979D01*
X-326774213Y-107141590D02*
X-323571589Y-110344214D01*
X-327360000Y-98289512D02*
X-327360000Y-105727376D01*
X-322400016Y-115193193D02*
X-319163475Y-118429734D01*
X-102750000Y-92890000D02*
X-102750000Y-101240000D01*
X-110370000Y-90240000D02*
X-108335000Y-90240000D01*
X-110370000Y-84940000D02*
X-145891584Y-84940000D01*
X-102750000Y-90240000D02*
X-104785000Y-90240000D01*
X-104785000Y-92890000D02*
X-102750000Y-92890000D01*
X-168313475Y-104813734D02*
X-174163475Y-104813734D01*
X-152553475Y-112543734D02*
X-150518475Y-112543734D01*
X-174163475Y-104813734D02*
X-174193475Y-104843734D01*
X-152558475Y-109793734D02*
X-150523475Y-109793734D01*
X-319163475Y-120933734D02*
X-317128475Y-120933734D01*
X-152553475Y-118003734D02*
X-150518475Y-118003734D01*
X-308198475Y-107953734D02*
X-306163475Y-107953734D01*
X-308198475Y-107953734D02*
X-308198475Y-92719802D01*
X-152553475Y-120733734D02*
X-150518475Y-120733734D01*
X-142343475Y-78041093D02*
X-142343475Y-64753734D01*
X-145459795Y-82400054D02*
X-143222154Y-80162413D01*
X-164703475Y-118153734D02*
X-164923296Y-117933913D01*
X-164923295Y-92953554D02*
X-156127154Y-84157413D01*
X-165801975Y-115812593D02*
X-165801975Y-95074875D01*
X-162668475Y-118153734D02*
X-164703475Y-118153734D01*
X-154005834Y-83278734D02*
X-147581116Y-83278734D01*
X-319163475Y-115925734D02*
X-317128475Y-115925734D01*
X-308203475Y-121033734D02*
X-306168475Y-121033734D01*
X-152478475Y-107133734D02*
X-150443475Y-107133734D01*
X-319163475Y-118429734D02*
X-317128475Y-118429734D01*
X-308203475Y-118389734D02*
X-306168475Y-118389734D01*
X-232443475Y-128331234D02*
X-230408475Y-128331234D01*
X-230345000Y-118460000D02*
X-232380000Y-118460000D01*
X-230360000Y-116320000D02*
X-232395000Y-116320000D01*
X-218630000Y-116560000D02*
X-222968000Y-116560000D01*
X-206840000Y-116540000D02*
X-203350000Y-116540000D01*
X-223751500Y-117343500D02*
X-231371500Y-117343500D01*
X-203350000Y-116540000D02*
X-203320000Y-116510000D01*
X-231371500Y-117343500D02*
X-232395000Y-116320000D01*
X-222968000Y-116560000D02*
X-223751500Y-117343500D01*
X-252349211Y-57228120D02*
X-247621786Y-57228120D01*
X-258387107Y-62851802D02*
X-253056318Y-57521013D01*
X-258680000Y-63750000D02*
X-258680000Y-63558909D01*
X-319163475Y-113421734D02*
X-317128475Y-113421734D01*
X-319163475Y-110917734D02*
X-317128475Y-110917734D01*
X-312059213Y-95389213D02*
X-306779520Y-90109520D01*
X-305365307Y-89523734D02*
X-304501902Y-89523734D01*
X-294543475Y-78322666D02*
X-294543475Y-67723734D01*
X-303087688Y-88937947D02*
X-296007941Y-81858200D01*
X-319073475Y-105903734D02*
X-313230786Y-100061045D01*
X-312645000Y-98646832D02*
X-312645000Y-96803427D01*
X-319073475Y-105903734D02*
X-317038475Y-105903734D01*
X-318082975Y-109434234D02*
X-289334234Y-109434234D01*
X-289334234Y-109434234D02*
X-289230000Y-109330000D01*
X-278619009Y-86319268D02*
X-278267941Y-85968200D01*
X-276510582Y-73540841D02*
X-275896368Y-72926627D01*
X-283260000Y-87783734D02*
X-282154543Y-87783734D01*
X-275603475Y-72219520D02*
X-275603475Y-69693734D01*
X-319133475Y-108383734D02*
X-317098475Y-108383734D01*
X-319133475Y-108383734D02*
X-318082975Y-109434234D01*
X-276803475Y-82432666D02*
X-276803475Y-74247948D01*
X-257310000Y-86010000D02*
X-257310000Y-89740000D01*
X-233862607Y-110552607D02*
X-232400000Y-109090000D01*
X-232400000Y-109090000D02*
X-230365000Y-109090000D01*
X-251000000Y-110845500D02*
X-234569714Y-110845500D01*
X-233813475Y-83312400D02*
X-231778475Y-83312400D01*
X-227337107Y-75560841D02*
X-226812159Y-75035893D01*
X-221717841Y-75035893D02*
X-221192893Y-75560841D01*
X-234820582Y-77440841D02*
X-233526368Y-76146627D01*
X-201963475Y-72203734D02*
X-201953475Y-72203734D01*
X-220485786Y-75853734D02*
X-207270329Y-75853734D01*
X-233743475Y-80941067D02*
X-234820582Y-79863960D01*
X-226105052Y-74743000D02*
X-222424948Y-74743000D01*
X-235113475Y-79156853D02*
X-235113475Y-78147948D01*
X-231708475Y-80941067D02*
X-233743475Y-80941067D01*
X-232819261Y-75853734D02*
X-228044214Y-75853734D01*
X-204441902Y-74682161D02*
X-201963475Y-72203734D01*
X-181433475Y-72943734D02*
X-184261902Y-75772161D01*
X-187090329Y-76943734D02*
X-231713261Y-76943734D01*
X-232420368Y-77236627D02*
X-233753475Y-78569734D01*
X-233753475Y-78569734D02*
X-231718475Y-78569734D01*
X-163593475Y-66573734D02*
X-163683475Y-66573734D01*
X-164703475Y-120733734D02*
X-162668475Y-120733734D01*
X-164703475Y-120733734D02*
X-165373296Y-120063913D01*
X-165373295Y-92553554D02*
X-162637154Y-89817413D01*
X-161758475Y-87696093D02*
X-161758475Y-68408734D01*
X-166251975Y-117942593D02*
X-166251975Y-94674875D01*
X-161758475Y-68408734D02*
X-163593475Y-66573734D01*
X-308203475Y-110457734D02*
X-306168475Y-110457734D01*
X-269520000Y-111570000D02*
X-269590000Y-111500000D01*
X-232400000Y-111570000D02*
X-230365000Y-111570000D01*
X-232400000Y-111570000D02*
X-269520000Y-111570000D01*
X-236350000Y-113900000D02*
X-232390000Y-113900000D01*
X-230355000Y-113900000D02*
X-232390000Y-113900000D01*
X-236370000Y-113920000D02*
X-236350000Y-113900000D01*
X-233403500Y-117465948D02*
X-233418500Y-117450948D01*
X-232443475Y-120673734D02*
X-230408475Y-120673734D01*
X-232445948Y-114923500D02*
X-222933500Y-114923500D01*
X-233403500Y-119713709D02*
X-233403500Y-117465948D01*
X-233418500Y-117450948D02*
X-233418500Y-115896052D01*
X-222933500Y-114923500D02*
X-222880000Y-114870000D01*
X-232443475Y-120673734D02*
X-233403500Y-119713709D01*
X-233418500Y-115896052D02*
X-232445948Y-114923500D01*
X-164708475Y-115283734D02*
X-162673475Y-115283734D01*
X-185733475Y-106001093D02*
X-185733475Y-99356375D01*
X-169423475Y-110503734D02*
X-174073475Y-110503734D01*
X-174283475Y-110413734D02*
X-181320834Y-110413734D01*
X-174193475Y-110503734D02*
X-174283475Y-110413734D01*
X-183442155Y-109535054D02*
X-184854796Y-108122413D01*
X-174073475Y-110503734D02*
X-174193475Y-110503734D01*
X-194533475Y-89313734D02*
X-194533475Y-88913734D01*
X-186612155Y-97235054D02*
X-194533475Y-89313734D01*
X-162483475Y-87333734D02*
X-175733475Y-87333734D01*
X-175733475Y-87333734D02*
X-175773475Y-87373734D01*
X-162743475Y-112393734D02*
X-164778475Y-112393734D01*
X-164673475Y-109723734D02*
X-162638475Y-109723734D01*
X-137663475Y-84003734D02*
X-137593475Y-83933734D01*
X-151623475Y-84003734D02*
X-137663475Y-84003734D01*
X-164628475Y-107023734D02*
X-162593475Y-107023734D01*
X-306168475Y-113101734D02*
X-308203475Y-113101734D01*
X-308203475Y-115745734D02*
X-306168475Y-115745734D01*
X-241263604Y-118953604D02*
X-244524796Y-115692413D01*
X-230348475Y-125823734D02*
X-232383475Y-125823734D01*
X-232383475Y-125823734D02*
X-233565047Y-125823734D01*
X-234979261Y-125237947D02*
X-241263604Y-118953604D01*
X-263123475Y-114813734D02*
X-263383475Y-114553734D01*
X-246646116Y-114813734D02*
X-263123475Y-114813734D01*
X-232343475Y-123213734D02*
X-234777839Y-123213734D01*
X-232343475Y-123213734D02*
X-230308475Y-123213734D01*
X-236192053Y-122627947D02*
X-243460000Y-115360000D01*
X-230408475Y-130883734D02*
X-232443475Y-130883734D01*
X-152553475Y-115273734D02*
X-150518475Y-115273734D01*
X-168263475Y-105983734D02*
X-167326266Y-105983734D01*
X-168263475Y-105983734D02*
X-174113475Y-105983734D01*
X-174113475Y-105983734D02*
X-174173475Y-105923734D01*
X-167326266Y-105983734D02*
X-167320000Y-105990000D01*
X-225660582Y-122276627D02*
X-224723475Y-123213734D01*
X-171663475Y-109003734D02*
X-170057689Y-109003734D01*
X-144933475Y-115273734D02*
X-146968475Y-115273734D01*
X-302618475Y-115745734D02*
X-300583475Y-115745734D01*
X-144933475Y-112543734D02*
X-146968475Y-112543734D01*
X-222313475Y-128331234D02*
X-222088541Y-128556168D01*
X-301606975Y-120010234D02*
X-300583475Y-121033734D01*
X-169568932Y-123293734D02*
X-149564543Y-123293734D01*
X-224760000Y-118460000D02*
X-226795000Y-118460000D01*
X-289402154Y-124095055D02*
X-294228795Y-119268414D01*
X-226261189Y-129354734D02*
X-269175624Y-129354734D01*
X-277698760Y-124973734D02*
X-287280834Y-124973734D01*
X-146029009Y-121829268D02*
X-144933475Y-120733734D01*
X-224823475Y-128331234D02*
X-225554082Y-129061841D01*
X-224290500Y-115835500D02*
X-222320000Y-115835500D01*
X-144933475Y-118003734D02*
X-146968475Y-118003734D01*
X-226858475Y-128331234D02*
X-224823475Y-128331234D01*
X-311543475Y-120933734D02*
X-310619975Y-120010234D01*
X-296350116Y-118389734D02*
X-300583475Y-118389734D01*
X-188507359Y-126790000D02*
X-177207334Y-126790000D01*
X-224823475Y-128331234D02*
X-222313475Y-128331234D01*
X-173671800Y-125325534D02*
X-173104466Y-124758200D01*
X-224775000Y-116320000D02*
X-224290500Y-115835500D01*
X-221381434Y-128849061D02*
X-193051702Y-128849061D01*
X-144933475Y-120733734D02*
X-146968475Y-120733734D01*
X-311543475Y-120933734D02*
X-313578475Y-120933734D01*
X-190930381Y-127970381D02*
X-190628679Y-127668679D01*
X-224775000Y-116320000D02*
X-226810000Y-116320000D01*
X-310619975Y-120010234D02*
X-301606975Y-120010234D01*
X-302618475Y-121033734D02*
X-300583475Y-121033734D01*
X-272711158Y-127890268D02*
X-274163226Y-126438200D01*
X-300583475Y-118389734D02*
X-302618475Y-118389734D01*
X-186730000Y-107610000D02*
X-186730000Y-104850000D01*
X-208207000Y-54057000D02*
X-245092786Y-54057000D01*
X-244182893Y-56367107D02*
X-246000000Y-54550000D01*
X-248970512Y-72300000D02*
X-243890000Y-67219488D01*
X-249740000Y-72300000D02*
X-248970512Y-72300000D01*
X-205160000Y-51010000D02*
X-208207000Y-54057000D01*
X-245799893Y-54349893D02*
X-246000000Y-54550000D01*
X-243890000Y-67219488D02*
X-243890000Y-57074214D01*
X-225803500Y-112593500D02*
X-273266855Y-112593500D01*
X-170672228Y-122283734D02*
X-156981902Y-122283734D01*
X-223800000Y-104300000D02*
X-227497107Y-107997107D01*
X-157053475Y-109723734D02*
X-159088475Y-109723734D01*
X-311543475Y-115925734D02*
X-311543475Y-115903734D01*
X-224780000Y-111570000D02*
X-225803500Y-112593500D01*
X-301839475Y-111713734D02*
X-300583475Y-110457734D01*
X-276145048Y-111372161D02*
X-278391902Y-109125307D01*
X-156363475Y-115283734D02*
X-157088475Y-115283734D01*
X-224823475Y-120673734D02*
X-222965048Y-118815307D01*
X-224780000Y-111570000D02*
X-226815000Y-111570000D01*
X-227790000Y-110595000D02*
X-226815000Y-111570000D01*
X-215700000Y-117643734D02*
X-202126375Y-117643734D01*
X-302613475Y-107953734D02*
X-300578475Y-107953734D01*
X-223751982Y-104251982D02*
X-223800000Y-104300000D01*
X-195107359Y-113110000D02*
X-183159671Y-113110000D01*
X-273266855Y-112593500D02*
X-273316621Y-112543734D01*
X-308723475Y-111713734D02*
X-301839475Y-111713734D01*
X-309873475Y-114233734D02*
X-309873475Y-112863734D01*
X-159123475Y-115283734D02*
X-157088475Y-115283734D01*
X-309873475Y-112863734D02*
X-308723475Y-111713734D01*
X-223459089Y-82160911D02*
X-223459089Y-103544875D01*
X-311543475Y-115925734D02*
X-313578475Y-115925734D01*
X-226858475Y-120673734D02*
X-224823475Y-120673734D01*
X-311543475Y-115903734D02*
X-309873475Y-114233734D01*
X-181038350Y-113988680D02*
X-174207762Y-120819268D01*
X-226805000Y-113900000D02*
X-224770000Y-113900000D01*
X-155409261Y-116237948D02*
X-156363475Y-115283734D01*
X-200005054Y-116765054D02*
X-197228679Y-113988679D01*
X-198638680Y-116342414D02*
X-199521321Y-117225055D01*
X-201642641Y-118103734D02*
X-218370834Y-118103734D01*
X-291653902Y-114574161D02*
X-291575048Y-114495307D01*
X-311543475Y-118429734D02*
X-313578475Y-118429734D01*
X-220492155Y-118982414D02*
X-224723475Y-123213734D01*
X-169350582Y-109296627D02*
X-167833475Y-110813734D01*
X-158203475Y-113803734D02*
X-146193475Y-113803734D01*
X-224763475Y-125823734D02*
X-226798475Y-125823734D01*
X-224723475Y-123213734D02*
X-226758475Y-123213734D01*
X-300583475Y-113101734D02*
X-302618475Y-113101734D01*
X-224823475Y-130883734D02*
X-226858475Y-130883734D01*
X-146193475Y-113803734D02*
X-144933475Y-112543734D01*
X-144938475Y-109793734D02*
X-146973475Y-109793734D01*
X-185263475Y-115463734D02*
X-196517359Y-115463734D01*
X-230931339Y-121983734D02*
X-228073475Y-121983734D01*
X-228073475Y-121983734D02*
X-226367689Y-121983734D01*
X-240804543Y-116252666D02*
X-238002407Y-119054802D01*
X-288746621Y-113323734D02*
X-247875611Y-113323734D01*
X-144858475Y-107133734D02*
X-146893475Y-107133734D01*
X-300583475Y-115745734D02*
X-294482329Y-115745734D01*
X-154823475Y-120125307D02*
X-154823475Y-117652161D01*
X-160950000Y-108058427D02*
X-160950000Y-116743734D01*
X-158630000Y-98688488D02*
X-158630000Y-104081573D01*
X-156578475Y-95626891D02*
X-156578475Y-95808536D01*
X-159215787Y-105495787D02*
X-160364214Y-106644214D01*
X-270623475Y-91743734D02*
X-269480000Y-91743734D01*
X-223880206Y-109989794D02*
X-201022367Y-109989794D01*
X-168240000Y-114250000D02*
X-169371800Y-113118200D01*
X-311543475Y-110917734D02*
X-313578475Y-110917734D01*
X-226350000Y-91743734D02*
X-224753734Y-91743734D01*
X-224740000Y-91730000D02*
X-224740000Y-84765875D01*
X-224780000Y-109090000D02*
X-226815000Y-109090000D01*
X-224740000Y-103820000D02*
X-224740000Y-91730000D01*
X-226123475Y-80941067D02*
X-228158475Y-80941067D01*
X-298073475Y-91743734D02*
X-270623475Y-91743734D01*
X-172907334Y-111653734D02*
X-197701573Y-111653734D01*
X-311453475Y-105903734D02*
X-313488475Y-105903734D01*
X-311543475Y-113421734D02*
X-313578475Y-113421734D01*
X-224780000Y-109090000D02*
X-223880206Y-109989794D01*
X-157083475Y-118153734D02*
X-159118475Y-118153734D01*
X-199608153Y-110575581D02*
X-199115786Y-111067948D01*
X-311513475Y-108383734D02*
X-313548475Y-108383734D01*
X-226193475Y-83312400D02*
X-228228475Y-83312400D01*
X-269480000Y-91743734D02*
X-226350000Y-91743734D01*
X-228168475Y-78569734D02*
X-226133475Y-78569734D01*
X-224753734Y-91743734D02*
X-224740000Y-91730000D01*
X-224740000Y-84765875D02*
X-226193475Y-83312400D01*
X-159118475Y-120733734D02*
X-157083475Y-120733734D01*
X-157158475Y-112393734D02*
X-159193475Y-112393734D01*
X-156578475Y-95808536D02*
X-158044214Y-97274275D01*
X-147305798Y-85525787D02*
X-155992689Y-94212678D01*
X-325254214Y-107330995D02*
X-319163475Y-113421734D01*
X-325840000Y-88638902D02*
X-325840000Y-105916782D01*
X-333420475Y-80230000D02*
X-326425786Y-87224689D01*
X-326290000Y-89268427D02*
X-326290000Y-106103178D01*
X-331150000Y-83580000D02*
X-326875786Y-87854214D01*
X-325704214Y-107517391D02*
X-323121589Y-110100017D01*
X-321950016Y-113139193D02*
X-319163475Y-115925734D01*
X-322535803Y-111514230D02*
X-322535803Y-111724979D01*
X-141155994Y-107133734D02*
X-144858475Y-107133734D01*
X-124019620Y-90825787D02*
X-139741781Y-106547948D01*
X-110370000Y-90240000D02*
X-122605406Y-90240000D01*
X-305420000Y-84700000D02*
X-324630000Y-84700000D01*
X-343605787Y-84104213D02*
X-344344214Y-83365786D01*
X-354475787Y-83365787D02*
X-356120000Y-85010000D01*
X-345758427Y-82780000D02*
X-353061573Y-82780000D01*
X-331810000Y-84690000D02*
X-342191573Y-84690000D01*
X-324630000Y-84700000D02*
X-324670000Y-84740000D01*
X-110370000Y-92890000D02*
X-108335000Y-92890000D01*
X-115449213Y-49580787D02*
X-113725786Y-51304214D01*
X-118885000Y-48995000D02*
X-116863427Y-48995000D01*
X-113140000Y-52718427D02*
X-113140000Y-54240000D01*
X-224560000Y-50430000D02*
X-223710786Y-49580786D01*
X-222296573Y-48995000D02*
X-118885000Y-48995000D01*
X-110370000Y-92890000D02*
X-110370000Y-103261999D01*
X-108335000Y-87590000D02*
X-110370000Y-87590000D01*
X-127841735Y-120733734D02*
X-144933475Y-120733734D01*
X-157008475Y-105593069D02*
X-157008475Y-107023734D01*
X-110955787Y-104676213D02*
X-126427522Y-120147948D01*
X-104785000Y-84940000D02*
X-102750000Y-84940000D01*
X-110370000Y-87590000D02*
X-139005406Y-87590000D01*
X-140419620Y-88175787D02*
X-156422689Y-104178856D01*
X-348500000Y-90310000D02*
X-350535000Y-90310000D01*
X-110370000Y-84940000D02*
X-108335000Y-84940000D01*
X-350535000Y-85010000D02*
X-348500000Y-85010000D01*
X-356120000Y-87660000D02*
X-354085000Y-87660000D01*
X-102750000Y-87590000D02*
X-104785000Y-87590000D01*
X-354085000Y-90310000D02*
X-356120000Y-90310000D01*
X-354085000Y-85010000D02*
X-356120000Y-85010000D01*
X-356120000Y-92960000D02*
X-354085000Y-92960000D01*
X-350535000Y-87660000D02*
X-348500000Y-87660000D01*
X-350535000Y-92960000D02*
X-348500000Y-92960000D01*
M02*
