M48
; DRILL file {KiCad 7.0.1-0} date 2023 October 08, Sunday 21:15:59
; FORMAT={-:-/ absolute / metric / decimal}
; #@! TF.CreationDate,2023-10-08T21:15:59+09:00
; #@! TF.GenerationSoftware,Kicad,Pcbnew,7.0.1-0
; #@! TF.FileFunction,NonPlated,1,2,NPTH
FMAT,2
METRIC
; #@! TA.AperFunction,NonPlated,NPTH,ComponentDrill
T1C1.900
; #@! TA.AperFunction,NonPlated,NPTH,ComponentDrill
T2C3.000
; #@! TA.AperFunction,NonPlated,NPTH,ComponentDrill
T3C4.100
%
G90
G05
T1
X-355.518Y-112.226
X-351.708Y-55.076
X-349.46Y-74.11
X-345.358Y-112.226
X-342.46Y-93.19
X-341.548Y-55.076
X-339.3Y-74.11
X-336.468Y-112.226
X-332.658Y-55.076
X-332.3Y-93.19
X-330.41Y-74.11
X-326.308Y-112.226
X-323.41Y-93.19
X-322.498Y-55.076
X-320.25Y-74.11
X-313.25Y-93.19
X-311.895Y-55.25
X-309.844Y-74.797
X-303.049Y-94.968
X-301.834Y-56.664
X-299.783Y-76.211
X-293.03Y-57.902
X-292.988Y-96.382
X-290.966Y-77.429
X-286.851Y-116.546
X-284.184Y-97.619
X-282.969Y-59.316
X-280.904Y-78.843
X-276.79Y-117.96
X-274.166Y-60.553
X-274.123Y-99.033
X-272.101Y-80.08
X-267.94Y-119.21
X-265.32Y-100.271
X-264.105Y-61.967
X-262.04Y-81.494
X-257.879Y-120.624
X-255.301Y-63.204
X-255.259Y-101.685
X-253.236Y-82.732
X-249.081Y-121.826
X-246.455Y-102.922
X-245.24Y-64.618
X-243.175Y-84.146
X-239.02Y-123.24
X-236.394Y-104.336
X-221.366Y-65.055
X-220.675Y-103.438
X-218.001Y-122.297
X-213.999Y-83.257
X-211.305Y-63.641
X-210.613Y-102.024
X-207.939Y-120.883
X-203.937Y-81.843
X-202.501Y-62.404
X-201.814Y-100.791
X-199.111Y-119.654
X-195.134Y-80.606
X-192.44Y-60.99
X-191.753Y-99.377
X-189.05Y-118.24
X-185.073Y-79.192
X-183.637Y-59.753
X-182.924Y-98.121
X-180.251Y-117.084
X-176.269Y-77.954
X-173.576Y-58.339
X-172.863Y-96.707
X-170.19Y-115.67
X-166.208Y-76.54
X-164.772Y-57.101
X-164.034Y-95.481
X-157.405Y-75.303
X-154.711Y-55.687
X-153.973Y-94.067
X-147.344Y-73.889
X-144.48Y-55.04
X-143.58Y-93.21
X-136.634Y-74.126
X-135.681Y-112.226
X-134.32Y-55.04
X-133.42Y-93.21
X-126.474Y-74.126
X-125.521Y-112.226
X-125.43Y-55.04
X-124.53Y-93.21
X-117.584Y-74.126
X-116.631Y-112.226
X-115.27Y-55.04
X-114.37Y-93.21
X-107.424Y-74.126
X-106.471Y-112.226
T2
X-352.978Y-117.306
X-349.168Y-60.156
X-346.92Y-79.19
X-346.628Y-114.766
X-342.818Y-57.616
X-340.57Y-76.65
X-339.92Y-98.27
X-333.928Y-117.306
X-333.57Y-95.73
X-330.118Y-60.156
X-327.87Y-79.19
X-327.578Y-114.766
X-323.768Y-57.616
X-321.52Y-76.65
X-320.87Y-98.27
X-314.52Y-95.73
X-310.087Y-60.634
X-308.036Y-80.181
X-303.445Y-59.003
X-301.394Y-78.549
X-301.241Y-100.352
X-294.599Y-98.721
X-291.222Y-63.286
X-289.157Y-82.813
X-285.043Y-121.93
X-284.58Y-61.654
X-282.516Y-81.182
X-282.376Y-103.003
X-278.401Y-120.299
X-275.734Y-101.372
X-272.358Y-65.937
X-270.293Y-85.464
X-266.132Y-124.594
X-265.716Y-64.305
X-263.651Y-83.833
X-263.512Y-105.655
X-259.49Y-122.963
X-256.87Y-104.023
X-253.493Y-68.588
X-251.428Y-88.116
X-247.273Y-127.21
X-246.851Y-66.957
X-244.786Y-86.484
X-244.647Y-108.306
X-240.631Y-125.579
X-238.005Y-106.674
X-218.144Y-69.732
X-217.452Y-108.115
X-214.778Y-126.974
X-212.209Y-66.333
X-211.518Y-104.716
X-210.776Y-87.934
X-208.844Y-123.575
X-204.842Y-84.535
X-199.279Y-67.081
X-198.592Y-105.468
X-195.889Y-124.331
X-193.344Y-63.682
X-192.657Y-102.069
X-191.912Y-85.283
X-189.954Y-120.932
X-185.977Y-81.884
X-180.415Y-64.43
X-179.702Y-102.798
X-177.029Y-121.761
X-174.48Y-61.031
X-173.767Y-99.399
X-173.047Y-82.632
X-171.094Y-118.362
X-167.112Y-79.233
X-161.55Y-61.779
X-160.812Y-100.158
X-155.615Y-58.379
X-154.877Y-96.759
X-154.182Y-79.98
X-148.248Y-76.581
X-141.94Y-60.12
X-141.04Y-98.29
X-135.59Y-57.58
X-134.69Y-95.75
X-134.094Y-79.206
X-133.141Y-117.306
X-127.744Y-76.666
X-126.791Y-114.766
X-122.89Y-60.12
X-121.99Y-98.29
X-116.54Y-57.58
X-115.64Y-95.75
X-115.044Y-79.206
X-114.091Y-117.306
X-108.694Y-76.666
X-107.741Y-114.766
T3
X-350.438Y-112.226
X-346.628Y-55.076
X-344.38Y-74.11
X-337.38Y-93.19
X-331.388Y-112.226
X-327.578Y-55.076
X-325.33Y-74.11
X-318.33Y-93.19
X-306.864Y-55.957
X-304.813Y-75.504
X-298.019Y-95.675
X-288.0Y-58.609
X-285.935Y-78.136
X-281.821Y-117.253
X-279.154Y-98.326
X-269.135Y-61.26
X-267.07Y-80.787
X-262.909Y-119.917
X-260.289Y-100.978
X-250.271Y-63.911
X-248.206Y-83.439
X-244.051Y-122.533
X-241.425Y-103.629
X-216.335Y-64.348
X-215.644Y-102.731
X-212.97Y-121.59
X-208.968Y-82.55
X-197.471Y-61.697
X-196.783Y-100.084
X-194.081Y-118.947
X-190.103Y-79.899
X-178.606Y-59.046
X-177.893Y-97.414
X-175.221Y-116.377
X-171.239Y-77.247
X-159.742Y-56.394
X-159.003Y-94.774
X-152.374Y-74.596
X-139.4Y-55.04
X-138.5Y-93.21
X-131.554Y-74.126
X-130.601Y-112.226
X-120.35Y-55.04
X-119.45Y-93.21
X-112.504Y-74.126
X-111.551Y-112.226
T0
M30
