G04 #@! TF.GenerationSoftware,KiCad,Pcbnew,7.0.1-0*
G04 #@! TF.CreationDate,2023-10-08T21:15:56+09:00*
G04 #@! TF.ProjectId,cool846ble,636f6f6c-3834-4366-926c-652e6b696361,rev?*
G04 #@! TF.SameCoordinates,Original*
G04 #@! TF.FileFunction,Legend,Top*
G04 #@! TF.FilePolarity,Positive*
%FSLAX46Y46*%
G04 Gerber Fmt 4.6, Leading zero omitted, Abs format (unit mm)*
G04 Created by KiCad (PCBNEW 7.0.1-0) date 2023-10-08 21:15:56*
%MOMM*%
%LPD*%
G01*
G04 APERTURE LIST*
G04 Aperture macros list*
%AMRotRect*
0 Rectangle, with rotation*
0 The origin of the aperture is its center*
0 $1 length*
0 $2 width*
0 $3 Rotation angle, in degrees counterclockwise*
0 Add horizontal line*
21,1,$1,$2,0,0,$3*%
G04 Aperture macros list end*
%ADD10C,0.125000*%
%ADD11C,0.150000*%
%ADD12C,1.397000*%
%ADD13R,1.397000X1.397000*%
%ADD14C,1.524000*%
%ADD15R,1.524000X1.524000*%
%ADD16RotRect,1.524000X1.524000X82.000000*%
G04 APERTURE END LIST*
D10*
X-237799018Y-73664964D02*
X-238181875Y-73664964D01*
X-237990447Y-73664964D02*
X-237990447Y-72914964D01*
X-237990447Y-72914964D02*
X-238054256Y-73022107D01*
X-238054256Y-73022107D02*
X-238118066Y-73093535D01*
X-238118066Y-73093535D02*
X-238181875Y-73129250D01*
X-237224733Y-72914964D02*
X-237352352Y-72914964D01*
X-237352352Y-72914964D02*
X-237416161Y-72950678D01*
X-237416161Y-72950678D02*
X-237448066Y-72986392D01*
X-237448066Y-72986392D02*
X-237511876Y-73093535D01*
X-237511876Y-73093535D02*
X-237543780Y-73236392D01*
X-237543780Y-73236392D02*
X-237543780Y-73522107D01*
X-237543780Y-73522107D02*
X-237511876Y-73593535D01*
X-237511876Y-73593535D02*
X-237479971Y-73629250D01*
X-237479971Y-73629250D02*
X-237416161Y-73664964D01*
X-237416161Y-73664964D02*
X-237288542Y-73664964D01*
X-237288542Y-73664964D02*
X-237224733Y-73629250D01*
X-237224733Y-73629250D02*
X-237192828Y-73593535D01*
X-237192828Y-73593535D02*
X-237160923Y-73522107D01*
X-237160923Y-73522107D02*
X-237160923Y-73343535D01*
X-237160923Y-73343535D02*
X-237192828Y-73272107D01*
X-237192828Y-73272107D02*
X-237224733Y-73236392D01*
X-237224733Y-73236392D02*
X-237288542Y-73200678D01*
X-237288542Y-73200678D02*
X-237416161Y-73200678D01*
X-237416161Y-73200678D02*
X-237479971Y-73236392D01*
X-237479971Y-73236392D02*
X-237511876Y-73272107D01*
X-237511876Y-73272107D02*
X-237543780Y-73343535D01*
X-236395209Y-72879250D02*
X-236969495Y-73843535D01*
X-235948542Y-73272107D02*
X-235852828Y-73307821D01*
X-235852828Y-73307821D02*
X-235820923Y-73343535D01*
X-235820923Y-73343535D02*
X-235789019Y-73414964D01*
X-235789019Y-73414964D02*
X-235789019Y-73522107D01*
X-235789019Y-73522107D02*
X-235820923Y-73593535D01*
X-235820923Y-73593535D02*
X-235852828Y-73629250D01*
X-235852828Y-73629250D02*
X-235916638Y-73664964D01*
X-235916638Y-73664964D02*
X-236171876Y-73664964D01*
X-236171876Y-73664964D02*
X-236171876Y-72914964D01*
X-236171876Y-72914964D02*
X-235948542Y-72914964D01*
X-235948542Y-72914964D02*
X-235884733Y-72950678D01*
X-235884733Y-72950678D02*
X-235852828Y-72986392D01*
X-235852828Y-72986392D02*
X-235820923Y-73057821D01*
X-235820923Y-73057821D02*
X-235820923Y-73129250D01*
X-235820923Y-73129250D02*
X-235852828Y-73200678D01*
X-235852828Y-73200678D02*
X-235884733Y-73236392D01*
X-235884733Y-73236392D02*
X-235948542Y-73272107D01*
X-235948542Y-73272107D02*
X-236171876Y-73272107D01*
X-235533780Y-72986392D02*
X-235501876Y-72950678D01*
X-235501876Y-72950678D02*
X-235438066Y-72914964D01*
X-235438066Y-72914964D02*
X-235278542Y-72914964D01*
X-235278542Y-72914964D02*
X-235214733Y-72950678D01*
X-235214733Y-72950678D02*
X-235182828Y-72986392D01*
X-235182828Y-72986392D02*
X-235150923Y-73057821D01*
X-235150923Y-73057821D02*
X-235150923Y-73129250D01*
X-235150923Y-73129250D02*
X-235182828Y-73236392D01*
X-235182828Y-73236392D02*
X-235565685Y-73664964D01*
X-235565685Y-73664964D02*
X-235150923Y-73664964D01*
X-237749019Y-48214964D02*
X-237972352Y-47857821D01*
X-238131876Y-48214964D02*
X-238131876Y-47464964D01*
X-238131876Y-47464964D02*
X-237876638Y-47464964D01*
X-237876638Y-47464964D02*
X-237812828Y-47500678D01*
X-237812828Y-47500678D02*
X-237780923Y-47536392D01*
X-237780923Y-47536392D02*
X-237749019Y-47607821D01*
X-237749019Y-47607821D02*
X-237749019Y-47714964D01*
X-237749019Y-47714964D02*
X-237780923Y-47786392D01*
X-237780923Y-47786392D02*
X-237812828Y-47822107D01*
X-237812828Y-47822107D02*
X-237876638Y-47857821D01*
X-237876638Y-47857821D02*
X-238131876Y-47857821D01*
X-237493780Y-48000678D02*
X-237174733Y-48000678D01*
X-237557590Y-48214964D02*
X-237334257Y-47464964D01*
X-237334257Y-47464964D02*
X-237110923Y-48214964D01*
X-236951399Y-47464964D02*
X-236791875Y-48214964D01*
X-236791875Y-48214964D02*
X-236664256Y-47679250D01*
X-236664256Y-47679250D02*
X-236536637Y-48214964D01*
X-236536637Y-48214964D02*
X-236377114Y-47464964D01*
X-237799018Y-76164964D02*
X-238181875Y-76164964D01*
X-237990447Y-76164964D02*
X-237990447Y-75414964D01*
X-237990447Y-75414964D02*
X-238054256Y-75522107D01*
X-238054256Y-75522107D02*
X-238118066Y-75593535D01*
X-238118066Y-75593535D02*
X-238181875Y-75629250D01*
X-237384257Y-75414964D02*
X-237320447Y-75414964D01*
X-237320447Y-75414964D02*
X-237256638Y-75450678D01*
X-237256638Y-75450678D02*
X-237224733Y-75486392D01*
X-237224733Y-75486392D02*
X-237192828Y-75557821D01*
X-237192828Y-75557821D02*
X-237160923Y-75700678D01*
X-237160923Y-75700678D02*
X-237160923Y-75879250D01*
X-237160923Y-75879250D02*
X-237192828Y-76022107D01*
X-237192828Y-76022107D02*
X-237224733Y-76093535D01*
X-237224733Y-76093535D02*
X-237256638Y-76129250D01*
X-237256638Y-76129250D02*
X-237320447Y-76164964D01*
X-237320447Y-76164964D02*
X-237384257Y-76164964D01*
X-237384257Y-76164964D02*
X-237448066Y-76129250D01*
X-237448066Y-76129250D02*
X-237479971Y-76093535D01*
X-237479971Y-76093535D02*
X-237511876Y-76022107D01*
X-237511876Y-76022107D02*
X-237543780Y-75879250D01*
X-237543780Y-75879250D02*
X-237543780Y-75700678D01*
X-237543780Y-75700678D02*
X-237511876Y-75557821D01*
X-237511876Y-75557821D02*
X-237479971Y-75486392D01*
X-237479971Y-75486392D02*
X-237448066Y-75450678D01*
X-237448066Y-75450678D02*
X-237384257Y-75414964D01*
X-236395209Y-75379250D02*
X-236969495Y-76343535D01*
X-235948542Y-75772107D02*
X-235852828Y-75807821D01*
X-235852828Y-75807821D02*
X-235820923Y-75843535D01*
X-235820923Y-75843535D02*
X-235789019Y-75914964D01*
X-235789019Y-75914964D02*
X-235789019Y-76022107D01*
X-235789019Y-76022107D02*
X-235820923Y-76093535D01*
X-235820923Y-76093535D02*
X-235852828Y-76129250D01*
X-235852828Y-76129250D02*
X-235916638Y-76164964D01*
X-235916638Y-76164964D02*
X-236171876Y-76164964D01*
X-236171876Y-76164964D02*
X-236171876Y-75414964D01*
X-236171876Y-75414964D02*
X-235948542Y-75414964D01*
X-235948542Y-75414964D02*
X-235884733Y-75450678D01*
X-235884733Y-75450678D02*
X-235852828Y-75486392D01*
X-235852828Y-75486392D02*
X-235820923Y-75557821D01*
X-235820923Y-75557821D02*
X-235820923Y-75629250D01*
X-235820923Y-75629250D02*
X-235852828Y-75700678D01*
X-235852828Y-75700678D02*
X-235884733Y-75736392D01*
X-235884733Y-75736392D02*
X-235948542Y-75772107D01*
X-235948542Y-75772107D02*
X-236171876Y-75772107D01*
X-235214733Y-75414964D02*
X-235342352Y-75414964D01*
X-235342352Y-75414964D02*
X-235406161Y-75450678D01*
X-235406161Y-75450678D02*
X-235438066Y-75486392D01*
X-235438066Y-75486392D02*
X-235501876Y-75593535D01*
X-235501876Y-75593535D02*
X-235533780Y-75736392D01*
X-235533780Y-75736392D02*
X-235533780Y-76022107D01*
X-235533780Y-76022107D02*
X-235501876Y-76093535D01*
X-235501876Y-76093535D02*
X-235469971Y-76129250D01*
X-235469971Y-76129250D02*
X-235406161Y-76164964D01*
X-235406161Y-76164964D02*
X-235278542Y-76164964D01*
X-235278542Y-76164964D02*
X-235214733Y-76129250D01*
X-235214733Y-76129250D02*
X-235182828Y-76093535D01*
X-235182828Y-76093535D02*
X-235150923Y-76022107D01*
X-235150923Y-76022107D02*
X-235150923Y-75843535D01*
X-235150923Y-75843535D02*
X-235182828Y-75772107D01*
X-235182828Y-75772107D02*
X-235214733Y-75736392D01*
X-235214733Y-75736392D02*
X-235278542Y-75700678D01*
X-235278542Y-75700678D02*
X-235406161Y-75700678D01*
X-235406161Y-75700678D02*
X-235469971Y-75736392D01*
X-235469971Y-75736392D02*
X-235501876Y-75772107D01*
X-235501876Y-75772107D02*
X-235533780Y-75843535D01*
X-228445923Y-63414964D02*
X-228445923Y-62664964D01*
X-228445923Y-62664964D02*
X-228286399Y-62664964D01*
X-228286399Y-62664964D02*
X-228190685Y-62700678D01*
X-228190685Y-62700678D02*
X-228126875Y-62772107D01*
X-228126875Y-62772107D02*
X-228094970Y-62843535D01*
X-228094970Y-62843535D02*
X-228063066Y-62986392D01*
X-228063066Y-62986392D02*
X-228063066Y-63093535D01*
X-228063066Y-63093535D02*
X-228094970Y-63236392D01*
X-228094970Y-63236392D02*
X-228126875Y-63307821D01*
X-228126875Y-63307821D02*
X-228190685Y-63379250D01*
X-228190685Y-63379250D02*
X-228286399Y-63414964D01*
X-228286399Y-63414964D02*
X-228445923Y-63414964D01*
X-227488780Y-62914964D02*
X-227488780Y-63414964D01*
X-227648304Y-62629250D02*
X-227807827Y-63164964D01*
X-227807827Y-63164964D02*
X-227393066Y-63164964D01*
X-226659256Y-62629250D02*
X-227233542Y-63593535D01*
X-226148780Y-62914964D02*
X-226148780Y-63414964D01*
X-226308304Y-62629250D02*
X-226467827Y-63164964D01*
X-226467827Y-63164964D02*
X-226053066Y-63164964D01*
X-228414018Y-70672107D02*
X-228190684Y-70672107D01*
X-228094970Y-71064964D02*
X-228414018Y-71064964D01*
X-228414018Y-71064964D02*
X-228414018Y-70314964D01*
X-228414018Y-70314964D02*
X-228094970Y-70314964D01*
X-227520685Y-70314964D02*
X-227648304Y-70314964D01*
X-227648304Y-70314964D02*
X-227712113Y-70350678D01*
X-227712113Y-70350678D02*
X-227744018Y-70386392D01*
X-227744018Y-70386392D02*
X-227807828Y-70493535D01*
X-227807828Y-70493535D02*
X-227839732Y-70636392D01*
X-227839732Y-70636392D02*
X-227839732Y-70922107D01*
X-227839732Y-70922107D02*
X-227807828Y-70993535D01*
X-227807828Y-70993535D02*
X-227775923Y-71029250D01*
X-227775923Y-71029250D02*
X-227712113Y-71064964D01*
X-227712113Y-71064964D02*
X-227584494Y-71064964D01*
X-227584494Y-71064964D02*
X-227520685Y-71029250D01*
X-227520685Y-71029250D02*
X-227488780Y-70993535D01*
X-227488780Y-70993535D02*
X-227456875Y-70922107D01*
X-227456875Y-70922107D02*
X-227456875Y-70743535D01*
X-227456875Y-70743535D02*
X-227488780Y-70672107D01*
X-227488780Y-70672107D02*
X-227520685Y-70636392D01*
X-227520685Y-70636392D02*
X-227584494Y-70600678D01*
X-227584494Y-70600678D02*
X-227712113Y-70600678D01*
X-227712113Y-70600678D02*
X-227775923Y-70636392D01*
X-227775923Y-70636392D02*
X-227807828Y-70672107D01*
X-227807828Y-70672107D02*
X-227839732Y-70743535D01*
X-226691161Y-70279250D02*
X-227265447Y-71243535D01*
X-226531637Y-70314964D02*
X-226084971Y-70314964D01*
X-226084971Y-70314964D02*
X-226372113Y-71064964D01*
X-238102113Y-65800678D02*
X-237783066Y-65800678D01*
X-238165923Y-66014964D02*
X-237942590Y-65264964D01*
X-237942590Y-65264964D02*
X-237719256Y-66014964D01*
X-237368304Y-65264964D02*
X-237304494Y-65264964D01*
X-237304494Y-65264964D02*
X-237240685Y-65300678D01*
X-237240685Y-65300678D02*
X-237208780Y-65336392D01*
X-237208780Y-65336392D02*
X-237176875Y-65407821D01*
X-237176875Y-65407821D02*
X-237144970Y-65550678D01*
X-237144970Y-65550678D02*
X-237144970Y-65729250D01*
X-237144970Y-65729250D02*
X-237176875Y-65872107D01*
X-237176875Y-65872107D02*
X-237208780Y-65943535D01*
X-237208780Y-65943535D02*
X-237240685Y-65979250D01*
X-237240685Y-65979250D02*
X-237304494Y-66014964D01*
X-237304494Y-66014964D02*
X-237368304Y-66014964D01*
X-237368304Y-66014964D02*
X-237432113Y-65979250D01*
X-237432113Y-65979250D02*
X-237464018Y-65943535D01*
X-237464018Y-65943535D02*
X-237495923Y-65872107D01*
X-237495923Y-65872107D02*
X-237527827Y-65729250D01*
X-237527827Y-65729250D02*
X-237527827Y-65550678D01*
X-237527827Y-65550678D02*
X-237495923Y-65407821D01*
X-237495923Y-65407821D02*
X-237464018Y-65336392D01*
X-237464018Y-65336392D02*
X-237432113Y-65300678D01*
X-237432113Y-65300678D02*
X-237368304Y-65264964D01*
X-236379256Y-65229250D02*
X-236953542Y-66193535D01*
X-235932589Y-65622107D02*
X-236155923Y-65622107D01*
X-236155923Y-66014964D02*
X-236155923Y-65264964D01*
X-236155923Y-65264964D02*
X-235836875Y-65264964D01*
X-235645446Y-65264964D02*
X-235198780Y-65264964D01*
X-235198780Y-65264964D02*
X-235485922Y-66014964D01*
X-237799018Y-68564964D02*
X-238181875Y-68564964D01*
X-237990447Y-68564964D02*
X-237990447Y-67814964D01*
X-237990447Y-67814964D02*
X-238054256Y-67922107D01*
X-238054256Y-67922107D02*
X-238118066Y-67993535D01*
X-238118066Y-67993535D02*
X-238181875Y-68029250D01*
X-237192828Y-67814964D02*
X-237511876Y-67814964D01*
X-237511876Y-67814964D02*
X-237543780Y-68172107D01*
X-237543780Y-68172107D02*
X-237511876Y-68136392D01*
X-237511876Y-68136392D02*
X-237448066Y-68100678D01*
X-237448066Y-68100678D02*
X-237288542Y-68100678D01*
X-237288542Y-68100678D02*
X-237224733Y-68136392D01*
X-237224733Y-68136392D02*
X-237192828Y-68172107D01*
X-237192828Y-68172107D02*
X-237160923Y-68243535D01*
X-237160923Y-68243535D02*
X-237160923Y-68422107D01*
X-237160923Y-68422107D02*
X-237192828Y-68493535D01*
X-237192828Y-68493535D02*
X-237224733Y-68529250D01*
X-237224733Y-68529250D02*
X-237288542Y-68564964D01*
X-237288542Y-68564964D02*
X-237448066Y-68564964D01*
X-237448066Y-68564964D02*
X-237511876Y-68529250D01*
X-237511876Y-68529250D02*
X-237543780Y-68493535D01*
X-236395209Y-67779250D02*
X-236969495Y-68743535D01*
X-235948542Y-68172107D02*
X-235852828Y-68207821D01*
X-235852828Y-68207821D02*
X-235820923Y-68243535D01*
X-235820923Y-68243535D02*
X-235789019Y-68314964D01*
X-235789019Y-68314964D02*
X-235789019Y-68422107D01*
X-235789019Y-68422107D02*
X-235820923Y-68493535D01*
X-235820923Y-68493535D02*
X-235852828Y-68529250D01*
X-235852828Y-68529250D02*
X-235916638Y-68564964D01*
X-235916638Y-68564964D02*
X-236171876Y-68564964D01*
X-236171876Y-68564964D02*
X-236171876Y-67814964D01*
X-236171876Y-67814964D02*
X-235948542Y-67814964D01*
X-235948542Y-67814964D02*
X-235884733Y-67850678D01*
X-235884733Y-67850678D02*
X-235852828Y-67886392D01*
X-235852828Y-67886392D02*
X-235820923Y-67957821D01*
X-235820923Y-67957821D02*
X-235820923Y-68029250D01*
X-235820923Y-68029250D02*
X-235852828Y-68100678D01*
X-235852828Y-68100678D02*
X-235884733Y-68136392D01*
X-235884733Y-68136392D02*
X-235948542Y-68172107D01*
X-235948542Y-68172107D02*
X-236171876Y-68172107D01*
X-235150923Y-68564964D02*
X-235533780Y-68564964D01*
X-235342352Y-68564964D02*
X-235342352Y-67814964D01*
X-235342352Y-67814964D02*
X-235406161Y-67922107D01*
X-235406161Y-67922107D02*
X-235469971Y-67993535D01*
X-235469971Y-67993535D02*
X-235533780Y-68029250D01*
X-237653304Y-53314964D02*
X-237876637Y-52957821D01*
X-238036161Y-53314964D02*
X-238036161Y-52564964D01*
X-238036161Y-52564964D02*
X-237780923Y-52564964D01*
X-237780923Y-52564964D02*
X-237717113Y-52600678D01*
X-237717113Y-52600678D02*
X-237685208Y-52636392D01*
X-237685208Y-52636392D02*
X-237653304Y-52707821D01*
X-237653304Y-52707821D02*
X-237653304Y-52814964D01*
X-237653304Y-52814964D02*
X-237685208Y-52886392D01*
X-237685208Y-52886392D02*
X-237717113Y-52922107D01*
X-237717113Y-52922107D02*
X-237780923Y-52957821D01*
X-237780923Y-52957821D02*
X-238036161Y-52957821D01*
X-237398065Y-53279250D02*
X-237302351Y-53314964D01*
X-237302351Y-53314964D02*
X-237142827Y-53314964D01*
X-237142827Y-53314964D02*
X-237079018Y-53279250D01*
X-237079018Y-53279250D02*
X-237047113Y-53243535D01*
X-237047113Y-53243535D02*
X-237015208Y-53172107D01*
X-237015208Y-53172107D02*
X-237015208Y-53100678D01*
X-237015208Y-53100678D02*
X-237047113Y-53029250D01*
X-237047113Y-53029250D02*
X-237079018Y-52993535D01*
X-237079018Y-52993535D02*
X-237142827Y-52957821D01*
X-237142827Y-52957821D02*
X-237270446Y-52922107D01*
X-237270446Y-52922107D02*
X-237334256Y-52886392D01*
X-237334256Y-52886392D02*
X-237366161Y-52850678D01*
X-237366161Y-52850678D02*
X-237398065Y-52779250D01*
X-237398065Y-52779250D02*
X-237398065Y-52707821D01*
X-237398065Y-52707821D02*
X-237366161Y-52636392D01*
X-237366161Y-52636392D02*
X-237334256Y-52600678D01*
X-237334256Y-52600678D02*
X-237270446Y-52564964D01*
X-237270446Y-52564964D02*
X-237110923Y-52564964D01*
X-237110923Y-52564964D02*
X-237015208Y-52600678D01*
X-236823780Y-52564964D02*
X-236440923Y-52564964D01*
X-236632351Y-53314964D02*
X-236632351Y-52564964D01*
X-227656875Y-52700678D02*
X-227720685Y-52664964D01*
X-227720685Y-52664964D02*
X-227816399Y-52664964D01*
X-227816399Y-52664964D02*
X-227912113Y-52700678D01*
X-227912113Y-52700678D02*
X-227975923Y-52772107D01*
X-227975923Y-52772107D02*
X-228007828Y-52843535D01*
X-228007828Y-52843535D02*
X-228039732Y-52986392D01*
X-228039732Y-52986392D02*
X-228039732Y-53093535D01*
X-228039732Y-53093535D02*
X-228007828Y-53236392D01*
X-228007828Y-53236392D02*
X-227975923Y-53307821D01*
X-227975923Y-53307821D02*
X-227912113Y-53379250D01*
X-227912113Y-53379250D02*
X-227816399Y-53414964D01*
X-227816399Y-53414964D02*
X-227752590Y-53414964D01*
X-227752590Y-53414964D02*
X-227656875Y-53379250D01*
X-227656875Y-53379250D02*
X-227624971Y-53343535D01*
X-227624971Y-53343535D02*
X-227624971Y-53093535D01*
X-227624971Y-53093535D02*
X-227752590Y-53093535D01*
X-227337828Y-53414964D02*
X-227337828Y-52664964D01*
X-227337828Y-52664964D02*
X-226954971Y-53414964D01*
X-226954971Y-53414964D02*
X-226954971Y-52664964D01*
X-226635923Y-53414964D02*
X-226635923Y-52664964D01*
X-226635923Y-52664964D02*
X-226476399Y-52664964D01*
X-226476399Y-52664964D02*
X-226380685Y-52700678D01*
X-226380685Y-52700678D02*
X-226316875Y-52772107D01*
X-226316875Y-52772107D02*
X-226284970Y-52843535D01*
X-226284970Y-52843535D02*
X-226253066Y-52986392D01*
X-226253066Y-52986392D02*
X-226253066Y-53093535D01*
X-226253066Y-53093535D02*
X-226284970Y-53236392D01*
X-226284970Y-53236392D02*
X-226316875Y-53307821D01*
X-226316875Y-53307821D02*
X-226380685Y-53379250D01*
X-226380685Y-53379250D02*
X-226476399Y-53414964D01*
X-226476399Y-53414964D02*
X-226635923Y-53414964D01*
X-228222589Y-73222107D02*
X-228126875Y-73257821D01*
X-228126875Y-73257821D02*
X-228094970Y-73293535D01*
X-228094970Y-73293535D02*
X-228063066Y-73364964D01*
X-228063066Y-73364964D02*
X-228063066Y-73472107D01*
X-228063066Y-73472107D02*
X-228094970Y-73543535D01*
X-228094970Y-73543535D02*
X-228126875Y-73579250D01*
X-228126875Y-73579250D02*
X-228190685Y-73614964D01*
X-228190685Y-73614964D02*
X-228445923Y-73614964D01*
X-228445923Y-73614964D02*
X-228445923Y-72864964D01*
X-228445923Y-72864964D02*
X-228222589Y-72864964D01*
X-228222589Y-72864964D02*
X-228158780Y-72900678D01*
X-228158780Y-72900678D02*
X-228126875Y-72936392D01*
X-228126875Y-72936392D02*
X-228094970Y-73007821D01*
X-228094970Y-73007821D02*
X-228094970Y-73079250D01*
X-228094970Y-73079250D02*
X-228126875Y-73150678D01*
X-228126875Y-73150678D02*
X-228158780Y-73186392D01*
X-228158780Y-73186392D02*
X-228222589Y-73222107D01*
X-228222589Y-73222107D02*
X-228445923Y-73222107D01*
X-227488780Y-73114964D02*
X-227488780Y-73614964D01*
X-227648304Y-72829250D02*
X-227807827Y-73364964D01*
X-227807827Y-73364964D02*
X-227393066Y-73364964D01*
X-226659256Y-72829250D02*
X-227233542Y-73793535D01*
X-226340208Y-73186392D02*
X-226404018Y-73150678D01*
X-226404018Y-73150678D02*
X-226435923Y-73114964D01*
X-226435923Y-73114964D02*
X-226467827Y-73043535D01*
X-226467827Y-73043535D02*
X-226467827Y-73007821D01*
X-226467827Y-73007821D02*
X-226435923Y-72936392D01*
X-226435923Y-72936392D02*
X-226404018Y-72900678D01*
X-226404018Y-72900678D02*
X-226340208Y-72864964D01*
X-226340208Y-72864964D02*
X-226212589Y-72864964D01*
X-226212589Y-72864964D02*
X-226148780Y-72900678D01*
X-226148780Y-72900678D02*
X-226116875Y-72936392D01*
X-226116875Y-72936392D02*
X-226084970Y-73007821D01*
X-226084970Y-73007821D02*
X-226084970Y-73043535D01*
X-226084970Y-73043535D02*
X-226116875Y-73114964D01*
X-226116875Y-73114964D02*
X-226148780Y-73150678D01*
X-226148780Y-73150678D02*
X-226212589Y-73186392D01*
X-226212589Y-73186392D02*
X-226340208Y-73186392D01*
X-226340208Y-73186392D02*
X-226404018Y-73222107D01*
X-226404018Y-73222107D02*
X-226435923Y-73257821D01*
X-226435923Y-73257821D02*
X-226467827Y-73329250D01*
X-226467827Y-73329250D02*
X-226467827Y-73472107D01*
X-226467827Y-73472107D02*
X-226435923Y-73543535D01*
X-226435923Y-73543535D02*
X-226404018Y-73579250D01*
X-226404018Y-73579250D02*
X-226340208Y-73614964D01*
X-226340208Y-73614964D02*
X-226212589Y-73614964D01*
X-226212589Y-73614964D02*
X-226148780Y-73579250D01*
X-226148780Y-73579250D02*
X-226116875Y-73543535D01*
X-226116875Y-73543535D02*
X-226084970Y-73472107D01*
X-226084970Y-73472107D02*
X-226084970Y-73329250D01*
X-226084970Y-73329250D02*
X-226116875Y-73257821D01*
X-226116875Y-73257821D02*
X-226148780Y-73222107D01*
X-226148780Y-73222107D02*
X-226212589Y-73186392D01*
X-238102113Y-63250678D02*
X-237783066Y-63250678D01*
X-238165923Y-63464964D02*
X-237942590Y-62714964D01*
X-237942590Y-62714964D02*
X-237719256Y-63464964D01*
X-237144970Y-63464964D02*
X-237527827Y-63464964D01*
X-237336399Y-63464964D02*
X-237336399Y-62714964D01*
X-237336399Y-62714964D02*
X-237400208Y-62822107D01*
X-237400208Y-62822107D02*
X-237464018Y-62893535D01*
X-237464018Y-62893535D02*
X-237527827Y-62929250D01*
X-236379256Y-62679250D02*
X-236953542Y-63643535D01*
X-235932589Y-63072107D02*
X-236155923Y-63072107D01*
X-236155923Y-63464964D02*
X-236155923Y-62714964D01*
X-236155923Y-62714964D02*
X-235836875Y-62714964D01*
X-235294494Y-62714964D02*
X-235422113Y-62714964D01*
X-235422113Y-62714964D02*
X-235485922Y-62750678D01*
X-235485922Y-62750678D02*
X-235517827Y-62786392D01*
X-235517827Y-62786392D02*
X-235581637Y-62893535D01*
X-235581637Y-62893535D02*
X-235613541Y-63036392D01*
X-235613541Y-63036392D02*
X-235613541Y-63322107D01*
X-235613541Y-63322107D02*
X-235581637Y-63393535D01*
X-235581637Y-63393535D02*
X-235549732Y-63429250D01*
X-235549732Y-63429250D02*
X-235485922Y-63464964D01*
X-235485922Y-63464964D02*
X-235358303Y-63464964D01*
X-235358303Y-63464964D02*
X-235294494Y-63429250D01*
X-235294494Y-63429250D02*
X-235262589Y-63393535D01*
X-235262589Y-63393535D02*
X-235230684Y-63322107D01*
X-235230684Y-63322107D02*
X-235230684Y-63143535D01*
X-235230684Y-63143535D02*
X-235262589Y-63072107D01*
X-235262589Y-63072107D02*
X-235294494Y-63036392D01*
X-235294494Y-63036392D02*
X-235358303Y-63000678D01*
X-235358303Y-63000678D02*
X-235485922Y-63000678D01*
X-235485922Y-63000678D02*
X-235549732Y-63036392D01*
X-235549732Y-63036392D02*
X-235581637Y-63072107D01*
X-235581637Y-63072107D02*
X-235613541Y-63143535D01*
X-228222589Y-75722107D02*
X-228126875Y-75757821D01*
X-228126875Y-75757821D02*
X-228094970Y-75793535D01*
X-228094970Y-75793535D02*
X-228063066Y-75864964D01*
X-228063066Y-75864964D02*
X-228063066Y-75972107D01*
X-228063066Y-75972107D02*
X-228094970Y-76043535D01*
X-228094970Y-76043535D02*
X-228126875Y-76079250D01*
X-228126875Y-76079250D02*
X-228190685Y-76114964D01*
X-228190685Y-76114964D02*
X-228445923Y-76114964D01*
X-228445923Y-76114964D02*
X-228445923Y-75364964D01*
X-228445923Y-75364964D02*
X-228222589Y-75364964D01*
X-228222589Y-75364964D02*
X-228158780Y-75400678D01*
X-228158780Y-75400678D02*
X-228126875Y-75436392D01*
X-228126875Y-75436392D02*
X-228094970Y-75507821D01*
X-228094970Y-75507821D02*
X-228094970Y-75579250D01*
X-228094970Y-75579250D02*
X-228126875Y-75650678D01*
X-228126875Y-75650678D02*
X-228158780Y-75686392D01*
X-228158780Y-75686392D02*
X-228222589Y-75722107D01*
X-228222589Y-75722107D02*
X-228445923Y-75722107D01*
X-227456875Y-75364964D02*
X-227775923Y-75364964D01*
X-227775923Y-75364964D02*
X-227807827Y-75722107D01*
X-227807827Y-75722107D02*
X-227775923Y-75686392D01*
X-227775923Y-75686392D02*
X-227712113Y-75650678D01*
X-227712113Y-75650678D02*
X-227552589Y-75650678D01*
X-227552589Y-75650678D02*
X-227488780Y-75686392D01*
X-227488780Y-75686392D02*
X-227456875Y-75722107D01*
X-227456875Y-75722107D02*
X-227424970Y-75793535D01*
X-227424970Y-75793535D02*
X-227424970Y-75972107D01*
X-227424970Y-75972107D02*
X-227456875Y-76043535D01*
X-227456875Y-76043535D02*
X-227488780Y-76079250D01*
X-227488780Y-76079250D02*
X-227552589Y-76114964D01*
X-227552589Y-76114964D02*
X-227712113Y-76114964D01*
X-227712113Y-76114964D02*
X-227775923Y-76079250D01*
X-227775923Y-76079250D02*
X-227807827Y-76043535D01*
X-226659256Y-75329250D02*
X-227233542Y-76293535D01*
X-226404018Y-76114964D02*
X-226276399Y-76114964D01*
X-226276399Y-76114964D02*
X-226212589Y-76079250D01*
X-226212589Y-76079250D02*
X-226180685Y-76043535D01*
X-226180685Y-76043535D02*
X-226116875Y-75936392D01*
X-226116875Y-75936392D02*
X-226084970Y-75793535D01*
X-226084970Y-75793535D02*
X-226084970Y-75507821D01*
X-226084970Y-75507821D02*
X-226116875Y-75436392D01*
X-226116875Y-75436392D02*
X-226148780Y-75400678D01*
X-226148780Y-75400678D02*
X-226212589Y-75364964D01*
X-226212589Y-75364964D02*
X-226340208Y-75364964D01*
X-226340208Y-75364964D02*
X-226404018Y-75400678D01*
X-226404018Y-75400678D02*
X-226435923Y-75436392D01*
X-226435923Y-75436392D02*
X-226467827Y-75507821D01*
X-226467827Y-75507821D02*
X-226467827Y-75686392D01*
X-226467827Y-75686392D02*
X-226435923Y-75757821D01*
X-226435923Y-75757821D02*
X-226404018Y-75793535D01*
X-226404018Y-75793535D02*
X-226340208Y-75829250D01*
X-226340208Y-75829250D02*
X-226212589Y-75829250D01*
X-226212589Y-75829250D02*
X-226148780Y-75793535D01*
X-226148780Y-75793535D02*
X-226116875Y-75757821D01*
X-226116875Y-75757821D02*
X-226084970Y-75686392D01*
X-227656875Y-55150678D02*
X-227720685Y-55114964D01*
X-227720685Y-55114964D02*
X-227816399Y-55114964D01*
X-227816399Y-55114964D02*
X-227912113Y-55150678D01*
X-227912113Y-55150678D02*
X-227975923Y-55222107D01*
X-227975923Y-55222107D02*
X-228007828Y-55293535D01*
X-228007828Y-55293535D02*
X-228039732Y-55436392D01*
X-228039732Y-55436392D02*
X-228039732Y-55543535D01*
X-228039732Y-55543535D02*
X-228007828Y-55686392D01*
X-228007828Y-55686392D02*
X-227975923Y-55757821D01*
X-227975923Y-55757821D02*
X-227912113Y-55829250D01*
X-227912113Y-55829250D02*
X-227816399Y-55864964D01*
X-227816399Y-55864964D02*
X-227752590Y-55864964D01*
X-227752590Y-55864964D02*
X-227656875Y-55829250D01*
X-227656875Y-55829250D02*
X-227624971Y-55793535D01*
X-227624971Y-55793535D02*
X-227624971Y-55543535D01*
X-227624971Y-55543535D02*
X-227752590Y-55543535D01*
X-227337828Y-55864964D02*
X-227337828Y-55114964D01*
X-227337828Y-55114964D02*
X-226954971Y-55864964D01*
X-226954971Y-55864964D02*
X-226954971Y-55114964D01*
X-226635923Y-55864964D02*
X-226635923Y-55114964D01*
X-226635923Y-55114964D02*
X-226476399Y-55114964D01*
X-226476399Y-55114964D02*
X-226380685Y-55150678D01*
X-226380685Y-55150678D02*
X-226316875Y-55222107D01*
X-226316875Y-55222107D02*
X-226284970Y-55293535D01*
X-226284970Y-55293535D02*
X-226253066Y-55436392D01*
X-226253066Y-55436392D02*
X-226253066Y-55543535D01*
X-226253066Y-55543535D02*
X-226284970Y-55686392D01*
X-226284970Y-55686392D02*
X-226316875Y-55757821D01*
X-226316875Y-55757821D02*
X-226380685Y-55829250D01*
X-226380685Y-55829250D02*
X-226476399Y-55864964D01*
X-226476399Y-55864964D02*
X-226635923Y-55864964D01*
X-238102113Y-60750678D02*
X-237783066Y-60750678D01*
X-238165923Y-60964964D02*
X-237942590Y-60214964D01*
X-237942590Y-60214964D02*
X-237719256Y-60964964D01*
X-237527827Y-60286392D02*
X-237495923Y-60250678D01*
X-237495923Y-60250678D02*
X-237432113Y-60214964D01*
X-237432113Y-60214964D02*
X-237272589Y-60214964D01*
X-237272589Y-60214964D02*
X-237208780Y-60250678D01*
X-237208780Y-60250678D02*
X-237176875Y-60286392D01*
X-237176875Y-60286392D02*
X-237144970Y-60357821D01*
X-237144970Y-60357821D02*
X-237144970Y-60429250D01*
X-237144970Y-60429250D02*
X-237176875Y-60536392D01*
X-237176875Y-60536392D02*
X-237559732Y-60964964D01*
X-237559732Y-60964964D02*
X-237144970Y-60964964D01*
X-236379256Y-60179250D02*
X-236953542Y-61143535D01*
X-235932589Y-60572107D02*
X-236155923Y-60572107D01*
X-236155923Y-60964964D02*
X-236155923Y-60214964D01*
X-236155923Y-60214964D02*
X-235836875Y-60214964D01*
X-235262589Y-60214964D02*
X-235581637Y-60214964D01*
X-235581637Y-60214964D02*
X-235613541Y-60572107D01*
X-235613541Y-60572107D02*
X-235581637Y-60536392D01*
X-235581637Y-60536392D02*
X-235517827Y-60500678D01*
X-235517827Y-60500678D02*
X-235358303Y-60500678D01*
X-235358303Y-60500678D02*
X-235294494Y-60536392D01*
X-235294494Y-60536392D02*
X-235262589Y-60572107D01*
X-235262589Y-60572107D02*
X-235230684Y-60643535D01*
X-235230684Y-60643535D02*
X-235230684Y-60822107D01*
X-235230684Y-60822107D02*
X-235262589Y-60893535D01*
X-235262589Y-60893535D02*
X-235294494Y-60929250D01*
X-235294494Y-60929250D02*
X-235358303Y-60964964D01*
X-235358303Y-60964964D02*
X-235517827Y-60964964D01*
X-235517827Y-60964964D02*
X-235581637Y-60929250D01*
X-235581637Y-60929250D02*
X-235613541Y-60893535D01*
X-237799018Y-71114964D02*
X-238181875Y-71114964D01*
X-237990447Y-71114964D02*
X-237990447Y-70364964D01*
X-237990447Y-70364964D02*
X-238054256Y-70472107D01*
X-238054256Y-70472107D02*
X-238118066Y-70543535D01*
X-238118066Y-70543535D02*
X-238181875Y-70579250D01*
X-237224733Y-70614964D02*
X-237224733Y-71114964D01*
X-237384257Y-70329250D02*
X-237543780Y-70864964D01*
X-237543780Y-70864964D02*
X-237129019Y-70864964D01*
X-236395209Y-70329250D02*
X-236969495Y-71293535D01*
X-235948542Y-70722107D02*
X-235852828Y-70757821D01*
X-235852828Y-70757821D02*
X-235820923Y-70793535D01*
X-235820923Y-70793535D02*
X-235789019Y-70864964D01*
X-235789019Y-70864964D02*
X-235789019Y-70972107D01*
X-235789019Y-70972107D02*
X-235820923Y-71043535D01*
X-235820923Y-71043535D02*
X-235852828Y-71079250D01*
X-235852828Y-71079250D02*
X-235916638Y-71114964D01*
X-235916638Y-71114964D02*
X-236171876Y-71114964D01*
X-236171876Y-71114964D02*
X-236171876Y-70364964D01*
X-236171876Y-70364964D02*
X-235948542Y-70364964D01*
X-235948542Y-70364964D02*
X-235884733Y-70400678D01*
X-235884733Y-70400678D02*
X-235852828Y-70436392D01*
X-235852828Y-70436392D02*
X-235820923Y-70507821D01*
X-235820923Y-70507821D02*
X-235820923Y-70579250D01*
X-235820923Y-70579250D02*
X-235852828Y-70650678D01*
X-235852828Y-70650678D02*
X-235884733Y-70686392D01*
X-235884733Y-70686392D02*
X-235948542Y-70722107D01*
X-235948542Y-70722107D02*
X-236171876Y-70722107D01*
X-235565685Y-70364964D02*
X-235150923Y-70364964D01*
X-235150923Y-70364964D02*
X-235374257Y-70650678D01*
X-235374257Y-70650678D02*
X-235278542Y-70650678D01*
X-235278542Y-70650678D02*
X-235214733Y-70686392D01*
X-235214733Y-70686392D02*
X-235182828Y-70722107D01*
X-235182828Y-70722107D02*
X-235150923Y-70793535D01*
X-235150923Y-70793535D02*
X-235150923Y-70972107D01*
X-235150923Y-70972107D02*
X-235182828Y-71043535D01*
X-235182828Y-71043535D02*
X-235214733Y-71079250D01*
X-235214733Y-71079250D02*
X-235278542Y-71114964D01*
X-235278542Y-71114964D02*
X-235469971Y-71114964D01*
X-235469971Y-71114964D02*
X-235533780Y-71079250D01*
X-235533780Y-71079250D02*
X-235565685Y-71043535D01*
X-231159970Y-58479250D02*
X-231064256Y-58514964D01*
X-231064256Y-58514964D02*
X-230904732Y-58514964D01*
X-230904732Y-58514964D02*
X-230840923Y-58479250D01*
X-230840923Y-58479250D02*
X-230809018Y-58443535D01*
X-230809018Y-58443535D02*
X-230777113Y-58372107D01*
X-230777113Y-58372107D02*
X-230777113Y-58300678D01*
X-230777113Y-58300678D02*
X-230809018Y-58229250D01*
X-230809018Y-58229250D02*
X-230840923Y-58193535D01*
X-230840923Y-58193535D02*
X-230904732Y-58157821D01*
X-230904732Y-58157821D02*
X-231032351Y-58122107D01*
X-231032351Y-58122107D02*
X-231096161Y-58086392D01*
X-231096161Y-58086392D02*
X-231128066Y-58050678D01*
X-231128066Y-58050678D02*
X-231159970Y-57979250D01*
X-231159970Y-57979250D02*
X-231159970Y-57907821D01*
X-231159970Y-57907821D02*
X-231128066Y-57836392D01*
X-231128066Y-57836392D02*
X-231096161Y-57800678D01*
X-231096161Y-57800678D02*
X-231032351Y-57764964D01*
X-231032351Y-57764964D02*
X-230872828Y-57764964D01*
X-230872828Y-57764964D02*
X-230777113Y-57800678D01*
X-230489971Y-58514964D02*
X-230489971Y-57764964D01*
X-230489971Y-57764964D02*
X-230330447Y-57764964D01*
X-230330447Y-57764964D02*
X-230234733Y-57800678D01*
X-230234733Y-57800678D02*
X-230170923Y-57872107D01*
X-230170923Y-57872107D02*
X-230139018Y-57943535D01*
X-230139018Y-57943535D02*
X-230107114Y-58086392D01*
X-230107114Y-58086392D02*
X-230107114Y-58193535D01*
X-230107114Y-58193535D02*
X-230139018Y-58336392D01*
X-230139018Y-58336392D02*
X-230170923Y-58407821D01*
X-230170923Y-58407821D02*
X-230234733Y-58479250D01*
X-230234733Y-58479250D02*
X-230330447Y-58514964D01*
X-230330447Y-58514964D02*
X-230489971Y-58514964D01*
X-229851875Y-58300678D02*
X-229532828Y-58300678D01*
X-229915685Y-58514964D02*
X-229692352Y-57764964D01*
X-229692352Y-57764964D02*
X-229469018Y-58514964D01*
X-228767113Y-57729250D02*
X-229341399Y-58693535D01*
X-228543780Y-58514964D02*
X-228543780Y-57764964D01*
X-228543780Y-57764964D02*
X-228384256Y-57764964D01*
X-228384256Y-57764964D02*
X-228288542Y-57800678D01*
X-228288542Y-57800678D02*
X-228224732Y-57872107D01*
X-228224732Y-57872107D02*
X-228192827Y-57943535D01*
X-228192827Y-57943535D02*
X-228160923Y-58086392D01*
X-228160923Y-58086392D02*
X-228160923Y-58193535D01*
X-228160923Y-58193535D02*
X-228192827Y-58336392D01*
X-228192827Y-58336392D02*
X-228224732Y-58407821D01*
X-228224732Y-58407821D02*
X-228288542Y-58479250D01*
X-228288542Y-58479250D02*
X-228384256Y-58514964D01*
X-228384256Y-58514964D02*
X-228543780Y-58514964D01*
X-227522827Y-58514964D02*
X-227905684Y-58514964D01*
X-227714256Y-58514964D02*
X-227714256Y-57764964D01*
X-227714256Y-57764964D02*
X-227778065Y-57872107D01*
X-227778065Y-57872107D02*
X-227841875Y-57943535D01*
X-227841875Y-57943535D02*
X-227905684Y-57979250D01*
X-226757113Y-57729250D02*
X-227331399Y-58693535D01*
X-226565684Y-57836392D02*
X-226533780Y-57800678D01*
X-226533780Y-57800678D02*
X-226469970Y-57764964D01*
X-226469970Y-57764964D02*
X-226310446Y-57764964D01*
X-226310446Y-57764964D02*
X-226246637Y-57800678D01*
X-226246637Y-57800678D02*
X-226214732Y-57836392D01*
X-226214732Y-57836392D02*
X-226182827Y-57907821D01*
X-226182827Y-57907821D02*
X-226182827Y-57979250D01*
X-226182827Y-57979250D02*
X-226214732Y-58086392D01*
X-226214732Y-58086392D02*
X-226597589Y-58514964D01*
X-226597589Y-58514964D02*
X-226182827Y-58514964D01*
X-238102113Y-58250678D02*
X-237783066Y-58250678D01*
X-238165923Y-58464964D02*
X-237942590Y-57714964D01*
X-237942590Y-57714964D02*
X-237719256Y-58464964D01*
X-237559732Y-57714964D02*
X-237144970Y-57714964D01*
X-237144970Y-57714964D02*
X-237368304Y-58000678D01*
X-237368304Y-58000678D02*
X-237272589Y-58000678D01*
X-237272589Y-58000678D02*
X-237208780Y-58036392D01*
X-237208780Y-58036392D02*
X-237176875Y-58072107D01*
X-237176875Y-58072107D02*
X-237144970Y-58143535D01*
X-237144970Y-58143535D02*
X-237144970Y-58322107D01*
X-237144970Y-58322107D02*
X-237176875Y-58393535D01*
X-237176875Y-58393535D02*
X-237208780Y-58429250D01*
X-237208780Y-58429250D02*
X-237272589Y-58464964D01*
X-237272589Y-58464964D02*
X-237464018Y-58464964D01*
X-237464018Y-58464964D02*
X-237527827Y-58429250D01*
X-237527827Y-58429250D02*
X-237559732Y-58393535D01*
X-236379256Y-57679250D02*
X-236953542Y-58643535D01*
X-235932589Y-58072107D02*
X-236155923Y-58072107D01*
X-236155923Y-58464964D02*
X-236155923Y-57714964D01*
X-236155923Y-57714964D02*
X-235836875Y-57714964D01*
X-235294494Y-57964964D02*
X-235294494Y-58464964D01*
X-235454018Y-57679250D02*
X-235613541Y-58214964D01*
X-235613541Y-58214964D02*
X-235198780Y-58214964D01*
X-237780923Y-45402107D02*
X-237685209Y-45437821D01*
X-237685209Y-45437821D02*
X-237653304Y-45473535D01*
X-237653304Y-45473535D02*
X-237621400Y-45544964D01*
X-237621400Y-45544964D02*
X-237621400Y-45652107D01*
X-237621400Y-45652107D02*
X-237653304Y-45723535D01*
X-237653304Y-45723535D02*
X-237685209Y-45759250D01*
X-237685209Y-45759250D02*
X-237749019Y-45794964D01*
X-237749019Y-45794964D02*
X-238004257Y-45794964D01*
X-238004257Y-45794964D02*
X-238004257Y-45044964D01*
X-238004257Y-45044964D02*
X-237780923Y-45044964D01*
X-237780923Y-45044964D02*
X-237717114Y-45080678D01*
X-237717114Y-45080678D02*
X-237685209Y-45116392D01*
X-237685209Y-45116392D02*
X-237653304Y-45187821D01*
X-237653304Y-45187821D02*
X-237653304Y-45259250D01*
X-237653304Y-45259250D02*
X-237685209Y-45330678D01*
X-237685209Y-45330678D02*
X-237717114Y-45366392D01*
X-237717114Y-45366392D02*
X-237780923Y-45402107D01*
X-237780923Y-45402107D02*
X-238004257Y-45402107D01*
X-237366161Y-45580678D02*
X-237047114Y-45580678D01*
X-237429971Y-45794964D02*
X-237206638Y-45044964D01*
X-237206638Y-45044964D02*
X-236983304Y-45794964D01*
X-236855685Y-45044964D02*
X-236472828Y-45044964D01*
X-236664256Y-45794964D02*
X-236664256Y-45044964D01*
X-228063066Y-65893535D02*
X-228094970Y-65929250D01*
X-228094970Y-65929250D02*
X-228190685Y-65964964D01*
X-228190685Y-65964964D02*
X-228254494Y-65964964D01*
X-228254494Y-65964964D02*
X-228350208Y-65929250D01*
X-228350208Y-65929250D02*
X-228414018Y-65857821D01*
X-228414018Y-65857821D02*
X-228445923Y-65786392D01*
X-228445923Y-65786392D02*
X-228477827Y-65643535D01*
X-228477827Y-65643535D02*
X-228477827Y-65536392D01*
X-228477827Y-65536392D02*
X-228445923Y-65393535D01*
X-228445923Y-65393535D02*
X-228414018Y-65322107D01*
X-228414018Y-65322107D02*
X-228350208Y-65250678D01*
X-228350208Y-65250678D02*
X-228254494Y-65214964D01*
X-228254494Y-65214964D02*
X-228190685Y-65214964D01*
X-228190685Y-65214964D02*
X-228094970Y-65250678D01*
X-228094970Y-65250678D02*
X-228063066Y-65286392D01*
X-227488780Y-65214964D02*
X-227616399Y-65214964D01*
X-227616399Y-65214964D02*
X-227680208Y-65250678D01*
X-227680208Y-65250678D02*
X-227712113Y-65286392D01*
X-227712113Y-65286392D02*
X-227775923Y-65393535D01*
X-227775923Y-65393535D02*
X-227807827Y-65536392D01*
X-227807827Y-65536392D02*
X-227807827Y-65822107D01*
X-227807827Y-65822107D02*
X-227775923Y-65893535D01*
X-227775923Y-65893535D02*
X-227744018Y-65929250D01*
X-227744018Y-65929250D02*
X-227680208Y-65964964D01*
X-227680208Y-65964964D02*
X-227552589Y-65964964D01*
X-227552589Y-65964964D02*
X-227488780Y-65929250D01*
X-227488780Y-65929250D02*
X-227456875Y-65893535D01*
X-227456875Y-65893535D02*
X-227424970Y-65822107D01*
X-227424970Y-65822107D02*
X-227424970Y-65643535D01*
X-227424970Y-65643535D02*
X-227456875Y-65572107D01*
X-227456875Y-65572107D02*
X-227488780Y-65536392D01*
X-227488780Y-65536392D02*
X-227552589Y-65500678D01*
X-227552589Y-65500678D02*
X-227680208Y-65500678D01*
X-227680208Y-65500678D02*
X-227744018Y-65536392D01*
X-227744018Y-65536392D02*
X-227775923Y-65572107D01*
X-227775923Y-65572107D02*
X-227807827Y-65643535D01*
X-226659256Y-65179250D02*
X-227233542Y-66143535D01*
X-226116875Y-65214964D02*
X-226435923Y-65214964D01*
X-226435923Y-65214964D02*
X-226467827Y-65572107D01*
X-226467827Y-65572107D02*
X-226435923Y-65536392D01*
X-226435923Y-65536392D02*
X-226372113Y-65500678D01*
X-226372113Y-65500678D02*
X-226212589Y-65500678D01*
X-226212589Y-65500678D02*
X-226148780Y-65536392D01*
X-226148780Y-65536392D02*
X-226116875Y-65572107D01*
X-226116875Y-65572107D02*
X-226084970Y-65643535D01*
X-226084970Y-65643535D02*
X-226084970Y-65822107D01*
X-226084970Y-65822107D02*
X-226116875Y-65893535D01*
X-226116875Y-65893535D02*
X-226148780Y-65929250D01*
X-226148780Y-65929250D02*
X-226212589Y-65964964D01*
X-226212589Y-65964964D02*
X-226372113Y-65964964D01*
X-226372113Y-65964964D02*
X-226435923Y-65929250D01*
X-226435923Y-65929250D02*
X-226467827Y-65893535D01*
X-228445923Y-68514964D02*
X-228445923Y-67764964D01*
X-228445923Y-67764964D02*
X-228286399Y-67764964D01*
X-228286399Y-67764964D02*
X-228190685Y-67800678D01*
X-228190685Y-67800678D02*
X-228126875Y-67872107D01*
X-228126875Y-67872107D02*
X-228094970Y-67943535D01*
X-228094970Y-67943535D02*
X-228063066Y-68086392D01*
X-228063066Y-68086392D02*
X-228063066Y-68193535D01*
X-228063066Y-68193535D02*
X-228094970Y-68336392D01*
X-228094970Y-68336392D02*
X-228126875Y-68407821D01*
X-228126875Y-68407821D02*
X-228190685Y-68479250D01*
X-228190685Y-68479250D02*
X-228286399Y-68514964D01*
X-228286399Y-68514964D02*
X-228445923Y-68514964D01*
X-227839732Y-67764964D02*
X-227393066Y-67764964D01*
X-227393066Y-67764964D02*
X-227680208Y-68514964D01*
X-226659256Y-67729250D02*
X-227233542Y-68693535D01*
X-226148780Y-67764964D02*
X-226276399Y-67764964D01*
X-226276399Y-67764964D02*
X-226340208Y-67800678D01*
X-226340208Y-67800678D02*
X-226372113Y-67836392D01*
X-226372113Y-67836392D02*
X-226435923Y-67943535D01*
X-226435923Y-67943535D02*
X-226467827Y-68086392D01*
X-226467827Y-68086392D02*
X-226467827Y-68372107D01*
X-226467827Y-68372107D02*
X-226435923Y-68443535D01*
X-226435923Y-68443535D02*
X-226404018Y-68479250D01*
X-226404018Y-68479250D02*
X-226340208Y-68514964D01*
X-226340208Y-68514964D02*
X-226212589Y-68514964D01*
X-226212589Y-68514964D02*
X-226148780Y-68479250D01*
X-226148780Y-68479250D02*
X-226116875Y-68443535D01*
X-226116875Y-68443535D02*
X-226084970Y-68372107D01*
X-226084970Y-68372107D02*
X-226084970Y-68193535D01*
X-226084970Y-68193535D02*
X-226116875Y-68122107D01*
X-226116875Y-68122107D02*
X-226148780Y-68086392D01*
X-226148780Y-68086392D02*
X-226212589Y-68050678D01*
X-226212589Y-68050678D02*
X-226340208Y-68050678D01*
X-226340208Y-68050678D02*
X-226404018Y-68086392D01*
X-226404018Y-68086392D02*
X-226435923Y-68122107D01*
X-226435923Y-68122107D02*
X-226467827Y-68193535D01*
X-237796875Y-50050678D02*
X-237860685Y-50014964D01*
X-237860685Y-50014964D02*
X-237956399Y-50014964D01*
X-237956399Y-50014964D02*
X-238052113Y-50050678D01*
X-238052113Y-50050678D02*
X-238115923Y-50122107D01*
X-238115923Y-50122107D02*
X-238147828Y-50193535D01*
X-238147828Y-50193535D02*
X-238179732Y-50336392D01*
X-238179732Y-50336392D02*
X-238179732Y-50443535D01*
X-238179732Y-50443535D02*
X-238147828Y-50586392D01*
X-238147828Y-50586392D02*
X-238115923Y-50657821D01*
X-238115923Y-50657821D02*
X-238052113Y-50729250D01*
X-238052113Y-50729250D02*
X-237956399Y-50764964D01*
X-237956399Y-50764964D02*
X-237892590Y-50764964D01*
X-237892590Y-50764964D02*
X-237796875Y-50729250D01*
X-237796875Y-50729250D02*
X-237764971Y-50693535D01*
X-237764971Y-50693535D02*
X-237764971Y-50443535D01*
X-237764971Y-50443535D02*
X-237892590Y-50443535D01*
X-237477828Y-50764964D02*
X-237477828Y-50014964D01*
X-237477828Y-50014964D02*
X-237094971Y-50764964D01*
X-237094971Y-50764964D02*
X-237094971Y-50014964D01*
X-236775923Y-50764964D02*
X-236775923Y-50014964D01*
X-236775923Y-50014964D02*
X-236616399Y-50014964D01*
X-236616399Y-50014964D02*
X-236520685Y-50050678D01*
X-236520685Y-50050678D02*
X-236456875Y-50122107D01*
X-236456875Y-50122107D02*
X-236424970Y-50193535D01*
X-236424970Y-50193535D02*
X-236393066Y-50336392D01*
X-236393066Y-50336392D02*
X-236393066Y-50443535D01*
X-236393066Y-50443535D02*
X-236424970Y-50586392D01*
X-236424970Y-50586392D02*
X-236456875Y-50657821D01*
X-236456875Y-50657821D02*
X-236520685Y-50729250D01*
X-236520685Y-50729250D02*
X-236616399Y-50764964D01*
X-236616399Y-50764964D02*
X-236775923Y-50764964D01*
X-238179733Y-55014964D02*
X-237956400Y-55764964D01*
X-237956400Y-55764964D02*
X-237733066Y-55014964D01*
X-237126876Y-55693535D02*
X-237158780Y-55729250D01*
X-237158780Y-55729250D02*
X-237254495Y-55764964D01*
X-237254495Y-55764964D02*
X-237318304Y-55764964D01*
X-237318304Y-55764964D02*
X-237414018Y-55729250D01*
X-237414018Y-55729250D02*
X-237477828Y-55657821D01*
X-237477828Y-55657821D02*
X-237509733Y-55586392D01*
X-237509733Y-55586392D02*
X-237541637Y-55443535D01*
X-237541637Y-55443535D02*
X-237541637Y-55336392D01*
X-237541637Y-55336392D02*
X-237509733Y-55193535D01*
X-237509733Y-55193535D02*
X-237477828Y-55122107D01*
X-237477828Y-55122107D02*
X-237414018Y-55050678D01*
X-237414018Y-55050678D02*
X-237318304Y-55014964D01*
X-237318304Y-55014964D02*
X-237254495Y-55014964D01*
X-237254495Y-55014964D02*
X-237158780Y-55050678D01*
X-237158780Y-55050678D02*
X-237126876Y-55086392D01*
X-236456876Y-55693535D02*
X-236488780Y-55729250D01*
X-236488780Y-55729250D02*
X-236584495Y-55764964D01*
X-236584495Y-55764964D02*
X-236648304Y-55764964D01*
X-236648304Y-55764964D02*
X-236744018Y-55729250D01*
X-236744018Y-55729250D02*
X-236807828Y-55657821D01*
X-236807828Y-55657821D02*
X-236839733Y-55586392D01*
X-236839733Y-55586392D02*
X-236871637Y-55443535D01*
X-236871637Y-55443535D02*
X-236871637Y-55336392D01*
X-236871637Y-55336392D02*
X-236839733Y-55193535D01*
X-236839733Y-55193535D02*
X-236807828Y-55122107D01*
X-236807828Y-55122107D02*
X-236744018Y-55050678D01*
X-236744018Y-55050678D02*
X-236648304Y-55014964D01*
X-236648304Y-55014964D02*
X-236584495Y-55014964D01*
X-236584495Y-55014964D02*
X-236488780Y-55050678D01*
X-236488780Y-55050678D02*
X-236456876Y-55086392D01*
X-231144018Y-60979250D02*
X-231048304Y-61014964D01*
X-231048304Y-61014964D02*
X-230888780Y-61014964D01*
X-230888780Y-61014964D02*
X-230824971Y-60979250D01*
X-230824971Y-60979250D02*
X-230793066Y-60943535D01*
X-230793066Y-60943535D02*
X-230761161Y-60872107D01*
X-230761161Y-60872107D02*
X-230761161Y-60800678D01*
X-230761161Y-60800678D02*
X-230793066Y-60729250D01*
X-230793066Y-60729250D02*
X-230824971Y-60693535D01*
X-230824971Y-60693535D02*
X-230888780Y-60657821D01*
X-230888780Y-60657821D02*
X-231016399Y-60622107D01*
X-231016399Y-60622107D02*
X-231080209Y-60586392D01*
X-231080209Y-60586392D02*
X-231112114Y-60550678D01*
X-231112114Y-60550678D02*
X-231144018Y-60479250D01*
X-231144018Y-60479250D02*
X-231144018Y-60407821D01*
X-231144018Y-60407821D02*
X-231112114Y-60336392D01*
X-231112114Y-60336392D02*
X-231080209Y-60300678D01*
X-231080209Y-60300678D02*
X-231016399Y-60264964D01*
X-231016399Y-60264964D02*
X-230856876Y-60264964D01*
X-230856876Y-60264964D02*
X-230761161Y-60300678D01*
X-230091162Y-60943535D02*
X-230123066Y-60979250D01*
X-230123066Y-60979250D02*
X-230218781Y-61014964D01*
X-230218781Y-61014964D02*
X-230282590Y-61014964D01*
X-230282590Y-61014964D02*
X-230378304Y-60979250D01*
X-230378304Y-60979250D02*
X-230442114Y-60907821D01*
X-230442114Y-60907821D02*
X-230474019Y-60836392D01*
X-230474019Y-60836392D02*
X-230505923Y-60693535D01*
X-230505923Y-60693535D02*
X-230505923Y-60586392D01*
X-230505923Y-60586392D02*
X-230474019Y-60443535D01*
X-230474019Y-60443535D02*
X-230442114Y-60372107D01*
X-230442114Y-60372107D02*
X-230378304Y-60300678D01*
X-230378304Y-60300678D02*
X-230282590Y-60264964D01*
X-230282590Y-60264964D02*
X-230218781Y-60264964D01*
X-230218781Y-60264964D02*
X-230123066Y-60300678D01*
X-230123066Y-60300678D02*
X-230091162Y-60336392D01*
X-229484971Y-61014964D02*
X-229804019Y-61014964D01*
X-229804019Y-61014964D02*
X-229804019Y-60264964D01*
X-228783066Y-60229250D02*
X-229357352Y-61193535D01*
X-228559733Y-61014964D02*
X-228559733Y-60264964D01*
X-228559733Y-60264964D02*
X-228400209Y-60264964D01*
X-228400209Y-60264964D02*
X-228304495Y-60300678D01*
X-228304495Y-60300678D02*
X-228240685Y-60372107D01*
X-228240685Y-60372107D02*
X-228208780Y-60443535D01*
X-228208780Y-60443535D02*
X-228176876Y-60586392D01*
X-228176876Y-60586392D02*
X-228176876Y-60693535D01*
X-228176876Y-60693535D02*
X-228208780Y-60836392D01*
X-228208780Y-60836392D02*
X-228240685Y-60907821D01*
X-228240685Y-60907821D02*
X-228304495Y-60979250D01*
X-228304495Y-60979250D02*
X-228400209Y-61014964D01*
X-228400209Y-61014964D02*
X-228559733Y-61014964D01*
X-227762114Y-60264964D02*
X-227698304Y-60264964D01*
X-227698304Y-60264964D02*
X-227634495Y-60300678D01*
X-227634495Y-60300678D02*
X-227602590Y-60336392D01*
X-227602590Y-60336392D02*
X-227570685Y-60407821D01*
X-227570685Y-60407821D02*
X-227538780Y-60550678D01*
X-227538780Y-60550678D02*
X-227538780Y-60729250D01*
X-227538780Y-60729250D02*
X-227570685Y-60872107D01*
X-227570685Y-60872107D02*
X-227602590Y-60943535D01*
X-227602590Y-60943535D02*
X-227634495Y-60979250D01*
X-227634495Y-60979250D02*
X-227698304Y-61014964D01*
X-227698304Y-61014964D02*
X-227762114Y-61014964D01*
X-227762114Y-61014964D02*
X-227825923Y-60979250D01*
X-227825923Y-60979250D02*
X-227857828Y-60943535D01*
X-227857828Y-60943535D02*
X-227889733Y-60872107D01*
X-227889733Y-60872107D02*
X-227921637Y-60729250D01*
X-227921637Y-60729250D02*
X-227921637Y-60550678D01*
X-227921637Y-60550678D02*
X-227889733Y-60407821D01*
X-227889733Y-60407821D02*
X-227857828Y-60336392D01*
X-227857828Y-60336392D02*
X-227825923Y-60300678D01*
X-227825923Y-60300678D02*
X-227762114Y-60264964D01*
X-226773066Y-60229250D02*
X-227347352Y-61193535D01*
X-226613542Y-60264964D02*
X-226198780Y-60264964D01*
X-226198780Y-60264964D02*
X-226422114Y-60550678D01*
X-226422114Y-60550678D02*
X-226326399Y-60550678D01*
X-226326399Y-60550678D02*
X-226262590Y-60586392D01*
X-226262590Y-60586392D02*
X-226230685Y-60622107D01*
X-226230685Y-60622107D02*
X-226198780Y-60693535D01*
X-226198780Y-60693535D02*
X-226198780Y-60872107D01*
X-226198780Y-60872107D02*
X-226230685Y-60943535D01*
X-226230685Y-60943535D02*
X-226262590Y-60979250D01*
X-226262590Y-60979250D02*
X-226326399Y-61014964D01*
X-226326399Y-61014964D02*
X-226517828Y-61014964D01*
X-226517828Y-61014964D02*
X-226581637Y-60979250D01*
X-226581637Y-60979250D02*
X-226613542Y-60943535D01*
X-229919971Y-50814964D02*
X-229919971Y-50064964D01*
X-229919971Y-50064964D02*
X-229760447Y-50064964D01*
X-229760447Y-50064964D02*
X-229664733Y-50100678D01*
X-229664733Y-50100678D02*
X-229600923Y-50172107D01*
X-229600923Y-50172107D02*
X-229569018Y-50243535D01*
X-229569018Y-50243535D02*
X-229537114Y-50386392D01*
X-229537114Y-50386392D02*
X-229537114Y-50493535D01*
X-229537114Y-50493535D02*
X-229569018Y-50636392D01*
X-229569018Y-50636392D02*
X-229600923Y-50707821D01*
X-229600923Y-50707821D02*
X-229664733Y-50779250D01*
X-229664733Y-50779250D02*
X-229760447Y-50814964D01*
X-229760447Y-50814964D02*
X-229919971Y-50814964D01*
X-229281875Y-50136392D02*
X-229249971Y-50100678D01*
X-229249971Y-50100678D02*
X-229186161Y-50064964D01*
X-229186161Y-50064964D02*
X-229026637Y-50064964D01*
X-229026637Y-50064964D02*
X-228962828Y-50100678D01*
X-228962828Y-50100678D02*
X-228930923Y-50136392D01*
X-228930923Y-50136392D02*
X-228899018Y-50207821D01*
X-228899018Y-50207821D02*
X-228899018Y-50279250D01*
X-228899018Y-50279250D02*
X-228930923Y-50386392D01*
X-228930923Y-50386392D02*
X-229313780Y-50814964D01*
X-229313780Y-50814964D02*
X-228899018Y-50814964D01*
X-228133304Y-50029250D02*
X-228707590Y-50993535D01*
X-227527114Y-50814964D02*
X-227750447Y-50457821D01*
X-227909971Y-50814964D02*
X-227909971Y-50064964D01*
X-227909971Y-50064964D02*
X-227654733Y-50064964D01*
X-227654733Y-50064964D02*
X-227590923Y-50100678D01*
X-227590923Y-50100678D02*
X-227559018Y-50136392D01*
X-227559018Y-50136392D02*
X-227527114Y-50207821D01*
X-227527114Y-50207821D02*
X-227527114Y-50314964D01*
X-227527114Y-50314964D02*
X-227559018Y-50386392D01*
X-227559018Y-50386392D02*
X-227590923Y-50422107D01*
X-227590923Y-50422107D02*
X-227654733Y-50457821D01*
X-227654733Y-50457821D02*
X-227909971Y-50457821D01*
X-227303780Y-50064964D02*
X-226857114Y-50814964D01*
X-226857114Y-50064964D02*
X-227303780Y-50814964D01*
X-226250923Y-50814964D02*
X-226633780Y-50814964D01*
X-226442352Y-50814964D02*
X-226442352Y-50064964D01*
X-226442352Y-50064964D02*
X-226506161Y-50172107D01*
X-226506161Y-50172107D02*
X-226569971Y-50243535D01*
X-226569971Y-50243535D02*
X-226633780Y-50279250D01*
X-229840209Y-48264964D02*
X-229840209Y-47514964D01*
X-229840209Y-47514964D02*
X-229680685Y-47514964D01*
X-229680685Y-47514964D02*
X-229584971Y-47550678D01*
X-229584971Y-47550678D02*
X-229521161Y-47622107D01*
X-229521161Y-47622107D02*
X-229489256Y-47693535D01*
X-229489256Y-47693535D02*
X-229457352Y-47836392D01*
X-229457352Y-47836392D02*
X-229457352Y-47943535D01*
X-229457352Y-47943535D02*
X-229489256Y-48086392D01*
X-229489256Y-48086392D02*
X-229521161Y-48157821D01*
X-229521161Y-48157821D02*
X-229584971Y-48229250D01*
X-229584971Y-48229250D02*
X-229680685Y-48264964D01*
X-229680685Y-48264964D02*
X-229840209Y-48264964D01*
X-229234018Y-47514964D02*
X-228819256Y-47514964D01*
X-228819256Y-47514964D02*
X-229042590Y-47800678D01*
X-229042590Y-47800678D02*
X-228946875Y-47800678D01*
X-228946875Y-47800678D02*
X-228883066Y-47836392D01*
X-228883066Y-47836392D02*
X-228851161Y-47872107D01*
X-228851161Y-47872107D02*
X-228819256Y-47943535D01*
X-228819256Y-47943535D02*
X-228819256Y-48122107D01*
X-228819256Y-48122107D02*
X-228851161Y-48193535D01*
X-228851161Y-48193535D02*
X-228883066Y-48229250D01*
X-228883066Y-48229250D02*
X-228946875Y-48264964D01*
X-228946875Y-48264964D02*
X-229138304Y-48264964D01*
X-229138304Y-48264964D02*
X-229202113Y-48229250D01*
X-229202113Y-48229250D02*
X-229234018Y-48193535D01*
X-228053542Y-47479250D02*
X-228627828Y-48443535D01*
X-227925923Y-47514964D02*
X-227543066Y-47514964D01*
X-227734494Y-48264964D02*
X-227734494Y-47514964D01*
X-227383542Y-47514964D02*
X-226936876Y-48264964D01*
X-226936876Y-47514964D02*
X-227383542Y-48264964D01*
X-226554019Y-47514964D02*
X-226490209Y-47514964D01*
X-226490209Y-47514964D02*
X-226426400Y-47550678D01*
X-226426400Y-47550678D02*
X-226394495Y-47586392D01*
X-226394495Y-47586392D02*
X-226362590Y-47657821D01*
X-226362590Y-47657821D02*
X-226330685Y-47800678D01*
X-226330685Y-47800678D02*
X-226330685Y-47979250D01*
X-226330685Y-47979250D02*
X-226362590Y-48122107D01*
X-226362590Y-48122107D02*
X-226394495Y-48193535D01*
X-226394495Y-48193535D02*
X-226426400Y-48229250D01*
X-226426400Y-48229250D02*
X-226490209Y-48264964D01*
X-226490209Y-48264964D02*
X-226554019Y-48264964D01*
X-226554019Y-48264964D02*
X-226617828Y-48229250D01*
X-226617828Y-48229250D02*
X-226649733Y-48193535D01*
X-226649733Y-48193535D02*
X-226681638Y-48122107D01*
X-226681638Y-48122107D02*
X-226713542Y-47979250D01*
X-226713542Y-47979250D02*
X-226713542Y-47800678D01*
X-226713542Y-47800678D02*
X-226681638Y-47657821D01*
X-226681638Y-47657821D02*
X-226649733Y-47586392D01*
X-226649733Y-47586392D02*
X-226617828Y-47550678D01*
X-226617828Y-47550678D02*
X-226554019Y-47514964D01*
X-227656875Y-45080678D02*
X-227720685Y-45044964D01*
X-227720685Y-45044964D02*
X-227816399Y-45044964D01*
X-227816399Y-45044964D02*
X-227912113Y-45080678D01*
X-227912113Y-45080678D02*
X-227975923Y-45152107D01*
X-227975923Y-45152107D02*
X-228007828Y-45223535D01*
X-228007828Y-45223535D02*
X-228039732Y-45366392D01*
X-228039732Y-45366392D02*
X-228039732Y-45473535D01*
X-228039732Y-45473535D02*
X-228007828Y-45616392D01*
X-228007828Y-45616392D02*
X-227975923Y-45687821D01*
X-227975923Y-45687821D02*
X-227912113Y-45759250D01*
X-227912113Y-45759250D02*
X-227816399Y-45794964D01*
X-227816399Y-45794964D02*
X-227752590Y-45794964D01*
X-227752590Y-45794964D02*
X-227656875Y-45759250D01*
X-227656875Y-45759250D02*
X-227624971Y-45723535D01*
X-227624971Y-45723535D02*
X-227624971Y-45473535D01*
X-227624971Y-45473535D02*
X-227752590Y-45473535D01*
X-227337828Y-45794964D02*
X-227337828Y-45044964D01*
X-227337828Y-45044964D02*
X-226954971Y-45794964D01*
X-226954971Y-45794964D02*
X-226954971Y-45044964D01*
X-226635923Y-45794964D02*
X-226635923Y-45044964D01*
X-226635923Y-45044964D02*
X-226476399Y-45044964D01*
X-226476399Y-45044964D02*
X-226380685Y-45080678D01*
X-226380685Y-45080678D02*
X-226316875Y-45152107D01*
X-226316875Y-45152107D02*
X-226284970Y-45223535D01*
X-226284970Y-45223535D02*
X-226253066Y-45366392D01*
X-226253066Y-45366392D02*
X-226253066Y-45473535D01*
X-226253066Y-45473535D02*
X-226284970Y-45616392D01*
X-226284970Y-45616392D02*
X-226316875Y-45687821D01*
X-226316875Y-45687821D02*
X-226380685Y-45759250D01*
X-226380685Y-45759250D02*
X-226476399Y-45794964D01*
X-226476399Y-45794964D02*
X-226635923Y-45794964D01*
X-248975208Y-58135613D02*
X-248930961Y-58077395D01*
X-248930961Y-58077395D02*
X-248917640Y-57982612D01*
X-248917640Y-57982612D02*
X-248939686Y-57882859D01*
X-248939686Y-57882859D02*
X-249001539Y-57809729D01*
X-249001539Y-57809729D02*
X-249067832Y-57768194D01*
X-249067832Y-57768194D02*
X-249204859Y-57716718D01*
X-249204859Y-57716718D02*
X-249310959Y-57701807D01*
X-249310959Y-57701807D02*
X-249456866Y-57713519D01*
X-249456866Y-57713519D02*
X-249532040Y-57735172D01*
X-249532040Y-57735172D02*
X-249611654Y-57788420D01*
X-249611654Y-57788420D02*
X-249660341Y-57878232D01*
X-249660341Y-57878232D02*
X-249669222Y-57941421D01*
X-249669222Y-57941421D02*
X-249647176Y-58041174D01*
X-249647176Y-58041174D02*
X-249616250Y-58077739D01*
X-249616250Y-58077739D02*
X-249368682Y-58112532D01*
X-249368682Y-58112532D02*
X-249350921Y-57986155D01*
X-249726945Y-58352146D02*
X-248984244Y-58456526D01*
X-248984244Y-58456526D02*
X-249780229Y-58731277D01*
X-249780229Y-58731277D02*
X-249037528Y-58835657D01*
X-249824632Y-59047220D02*
X-249081931Y-59151600D01*
X-249081931Y-59151600D02*
X-249104132Y-59309571D01*
X-249104132Y-59309571D02*
X-249152820Y-59399384D01*
X-249152820Y-59399384D02*
X-249232434Y-59452631D01*
X-249232434Y-59452631D02*
X-249307607Y-59474285D01*
X-249307607Y-59474285D02*
X-249453515Y-59485997D01*
X-249453515Y-59485997D02*
X-249559615Y-59471086D01*
X-249559615Y-59471086D02*
X-249696641Y-59419610D01*
X-249696641Y-59419610D02*
X-249762934Y-59378074D01*
X-249762934Y-59378074D02*
X-249824787Y-59304945D01*
X-249824787Y-59304945D02*
X-249846833Y-59205192D01*
X-249846833Y-59205192D02*
X-249824632Y-59047220D01*
X-252425729Y-71116675D02*
X-252474416Y-71206488D01*
X-252474416Y-71206488D02*
X-252514223Y-71233111D01*
X-252514223Y-71233111D02*
X-252589397Y-71254765D01*
X-252589397Y-71254765D02*
X-252695497Y-71239853D01*
X-252695497Y-71239853D02*
X-252761790Y-71198318D01*
X-252761790Y-71198318D02*
X-252792717Y-71161753D01*
X-252792717Y-71161753D02*
X-252819203Y-71093594D01*
X-252819203Y-71093594D02*
X-252783681Y-70840840D01*
X-252783681Y-70840840D02*
X-252040980Y-70945220D01*
X-252040980Y-70945220D02*
X-252072062Y-71166380D01*
X-252072062Y-71166380D02*
X-252116309Y-71224598D01*
X-252116309Y-71224598D02*
X-252156116Y-71251222D01*
X-252156116Y-71251222D02*
X-252231290Y-71272875D01*
X-252231290Y-71272875D02*
X-252302023Y-71262934D01*
X-252302023Y-71262934D02*
X-252368316Y-71221399D01*
X-252368316Y-71221399D02*
X-252399243Y-71184834D01*
X-252399243Y-71184834D02*
X-252425729Y-71116675D01*
X-252425729Y-71116675D02*
X-252394647Y-70895515D01*
X-252660286Y-71502548D02*
X-252704689Y-71818491D01*
X-252863606Y-71409537D02*
X-252151987Y-71735077D01*
X-252151987Y-71735077D02*
X-252925770Y-71851857D01*
X-252200830Y-72082614D02*
X-252254113Y-72461745D01*
X-252970173Y-72167800D02*
X-252227472Y-72272180D01*
D11*
X-349610000Y-88410000D02*
X-349610000Y-86910000D01*
X-355010000Y-88410000D02*
X-349610000Y-88410000D01*
X-355010000Y-86910000D02*
X-355010000Y-88410000D01*
X-349610000Y-86910000D02*
X-355010000Y-86910000D01*
X-352810000Y-87160000D02*
X-352810000Y-88160000D01*
X-351810000Y-88160000D02*
X-352710000Y-87660000D01*
X-351810000Y-87160000D02*
X-351810000Y-88160000D01*
X-352710000Y-87660000D02*
X-351810000Y-87160000D01*
X-349610000Y-91060000D02*
X-349610000Y-89560000D01*
X-355010000Y-91060000D02*
X-349610000Y-91060000D01*
X-355010000Y-89560000D02*
X-355010000Y-91060000D01*
X-349610000Y-89560000D02*
X-355010000Y-89560000D01*
X-352810000Y-89810000D02*
X-352810000Y-90810000D01*
X-351810000Y-90810000D02*
X-352710000Y-90310000D01*
X-351810000Y-89810000D02*
X-351810000Y-90810000D01*
X-352710000Y-90310000D02*
X-351810000Y-89810000D01*
X-349610000Y-93710000D02*
X-349610000Y-92210000D01*
X-355010000Y-93710000D02*
X-349610000Y-93710000D01*
X-355010000Y-92210000D02*
X-355010000Y-93710000D01*
X-349610000Y-92210000D02*
X-355010000Y-92210000D01*
X-352810000Y-92460000D02*
X-352810000Y-93460000D01*
X-351810000Y-93460000D02*
X-352710000Y-92960000D01*
X-351810000Y-92460000D02*
X-351810000Y-93460000D01*
X-352710000Y-92960000D02*
X-351810000Y-92460000D01*
X-106960000Y-84940000D02*
X-106060000Y-84440000D01*
X-106060000Y-84440000D02*
X-106060000Y-85440000D01*
X-106060000Y-85440000D02*
X-106960000Y-84940000D01*
X-107060000Y-84440000D02*
X-107060000Y-85440000D01*
X-103860000Y-84190000D02*
X-109260000Y-84190000D01*
X-109260000Y-84190000D02*
X-109260000Y-85690000D01*
X-109260000Y-85690000D02*
X-103860000Y-85690000D01*
X-103860000Y-85690000D02*
X-103860000Y-84190000D01*
X-106960000Y-87590000D02*
X-106060000Y-87090000D01*
X-106060000Y-87090000D02*
X-106060000Y-88090000D01*
X-106060000Y-88090000D02*
X-106960000Y-87590000D01*
X-107060000Y-87090000D02*
X-107060000Y-88090000D01*
X-103860000Y-86840000D02*
X-109260000Y-86840000D01*
X-109260000Y-86840000D02*
X-109260000Y-88340000D01*
X-109260000Y-88340000D02*
X-103860000Y-88340000D01*
X-103860000Y-88340000D02*
X-103860000Y-86840000D01*
X-106960000Y-90240000D02*
X-106060000Y-89740000D01*
X-106060000Y-89740000D02*
X-106060000Y-90740000D01*
X-106060000Y-90740000D02*
X-106960000Y-90240000D01*
X-107060000Y-89740000D02*
X-107060000Y-90740000D01*
X-103860000Y-89490000D02*
X-109260000Y-89490000D01*
X-109260000Y-89490000D02*
X-109260000Y-90990000D01*
X-109260000Y-90990000D02*
X-103860000Y-90990000D01*
X-103860000Y-90990000D02*
X-103860000Y-89490000D01*
X-349610000Y-85760000D02*
X-349610000Y-84260000D01*
X-355010000Y-85760000D02*
X-349610000Y-85760000D01*
X-355010000Y-84260000D02*
X-355010000Y-85760000D01*
X-349610000Y-84260000D02*
X-355010000Y-84260000D01*
X-352810000Y-84510000D02*
X-352810000Y-85510000D01*
X-351810000Y-85510000D02*
X-352710000Y-85010000D01*
X-351810000Y-84510000D02*
X-351810000Y-85510000D01*
X-352710000Y-85010000D02*
X-351810000Y-84510000D01*
X-158163475Y-110473734D02*
X-158163475Y-108973734D01*
X-158163475Y-108973734D02*
X-163563475Y-108973734D01*
X-160363475Y-110223734D02*
X-160363475Y-109223734D01*
X-160463475Y-109723734D02*
X-161363475Y-110223734D01*
X-161363475Y-110223734D02*
X-161363475Y-109223734D01*
X-161363475Y-109223734D02*
X-160463475Y-109723734D01*
X-163563475Y-110473734D02*
X-158163475Y-110473734D01*
X-163563475Y-108973734D02*
X-163563475Y-110473734D01*
X-225933475Y-121423734D02*
X-225933475Y-119923734D01*
X-225933475Y-119923734D02*
X-231333475Y-119923734D01*
X-228133475Y-121173734D02*
X-228133475Y-120173734D01*
X-228233475Y-120673734D02*
X-229133475Y-121173734D01*
X-229133475Y-121173734D02*
X-229133475Y-120173734D01*
X-229133475Y-120173734D02*
X-228233475Y-120673734D01*
X-231333475Y-121423734D02*
X-225933475Y-121423734D01*
X-231333475Y-119923734D02*
X-231333475Y-121423734D01*
X-225933475Y-129081234D02*
X-225933475Y-127581234D01*
X-225933475Y-127581234D02*
X-231333475Y-127581234D01*
X-228133475Y-128831234D02*
X-228133475Y-127831234D01*
X-228233475Y-128331234D02*
X-229133475Y-128831234D01*
X-229133475Y-128831234D02*
X-229133475Y-127831234D01*
X-229133475Y-127831234D02*
X-228233475Y-128331234D01*
X-231333475Y-129081234D02*
X-225933475Y-129081234D01*
X-231333475Y-127581234D02*
X-231333475Y-129081234D01*
X-225880000Y-114650000D02*
X-225880000Y-113150000D01*
X-225880000Y-113150000D02*
X-231280000Y-113150000D01*
X-228080000Y-114400000D02*
X-228080000Y-113400000D01*
X-228180000Y-113900000D02*
X-229080000Y-114400000D01*
X-229080000Y-114400000D02*
X-229080000Y-113400000D01*
X-229080000Y-113400000D02*
X-228180000Y-113900000D01*
X-231280000Y-114650000D02*
X-225880000Y-114650000D01*
X-231280000Y-113150000D02*
X-231280000Y-114650000D01*
X-312653475Y-121683734D02*
X-312653475Y-120183734D01*
X-312653475Y-120183734D02*
X-318053475Y-120183734D01*
X-314853475Y-121433734D02*
X-314853475Y-120433734D01*
X-314953475Y-120933734D02*
X-315853475Y-121433734D01*
X-315853475Y-121433734D02*
X-315853475Y-120433734D01*
X-315853475Y-120433734D02*
X-314953475Y-120933734D01*
X-318053475Y-121683734D02*
X-312653475Y-121683734D01*
X-318053475Y-120183734D02*
X-318053475Y-121683734D01*
X-312653475Y-116675734D02*
X-312653475Y-115175734D01*
X-312653475Y-115175734D02*
X-318053475Y-115175734D01*
X-314853475Y-116425734D02*
X-314853475Y-115425734D01*
X-314953475Y-115925734D02*
X-315853475Y-116425734D01*
X-315853475Y-116425734D02*
X-315853475Y-115425734D01*
X-315853475Y-115425734D02*
X-314953475Y-115925734D01*
X-318053475Y-116675734D02*
X-312653475Y-116675734D01*
X-318053475Y-115175734D02*
X-318053475Y-116675734D01*
X-241071400Y-44068000D02*
X-241071400Y-45068000D01*
X-241071400Y-44068000D02*
X-240071400Y-44068000D01*
X-241071400Y-76068000D02*
X-241071400Y-77118000D01*
X-241071400Y-77118000D02*
X-240071400Y-77118000D01*
X-223271400Y-44068000D02*
X-224221400Y-44068000D01*
X-223271400Y-44068000D02*
X-223271400Y-45068000D01*
X-223271400Y-76118000D02*
X-223271400Y-77118000D01*
X-223271400Y-77118000D02*
X-224281400Y-77118000D01*
X-225833475Y-123963734D02*
X-225833475Y-122463734D01*
X-225833475Y-122463734D02*
X-231233475Y-122463734D01*
X-228033475Y-123713734D02*
X-228033475Y-122713734D01*
X-228133475Y-123213734D02*
X-229033475Y-123713734D01*
X-229033475Y-123713734D02*
X-229033475Y-122713734D01*
X-229033475Y-122713734D02*
X-228133475Y-123213734D01*
X-231233475Y-123963734D02*
X-225833475Y-123963734D01*
X-231233475Y-122463734D02*
X-231233475Y-123963734D01*
X-146048475Y-110543734D02*
X-146048475Y-109043734D01*
X-146048475Y-109043734D02*
X-151448475Y-109043734D01*
X-148248475Y-110293734D02*
X-148248475Y-109293734D01*
X-148348475Y-109793734D02*
X-149248475Y-110293734D01*
X-149248475Y-110293734D02*
X-149248475Y-109293734D01*
X-149248475Y-109293734D02*
X-148348475Y-109793734D01*
X-151448475Y-110543734D02*
X-146048475Y-110543734D01*
X-151448475Y-109043734D02*
X-151448475Y-110543734D01*
X-146043475Y-113293734D02*
X-146043475Y-111793734D01*
X-146043475Y-111793734D02*
X-151443475Y-111793734D01*
X-148243475Y-113043734D02*
X-148243475Y-112043734D01*
X-148343475Y-112543734D02*
X-149243475Y-113043734D01*
X-149243475Y-113043734D02*
X-149243475Y-112043734D01*
X-149243475Y-112043734D02*
X-148343475Y-112543734D01*
X-151443475Y-113293734D02*
X-146043475Y-113293734D01*
X-151443475Y-111793734D02*
X-151443475Y-113293734D01*
X-301693475Y-121783734D02*
X-301693475Y-120283734D01*
X-301693475Y-120283734D02*
X-307093475Y-120283734D01*
X-303893475Y-121533734D02*
X-303893475Y-120533734D01*
X-303993475Y-121033734D02*
X-304893475Y-121533734D01*
X-304893475Y-121533734D02*
X-304893475Y-120533734D01*
X-304893475Y-120533734D02*
X-303993475Y-121033734D01*
X-307093475Y-121783734D02*
X-301693475Y-121783734D01*
X-307093475Y-120283734D02*
X-307093475Y-121783734D01*
X-225890000Y-109840000D02*
X-225890000Y-108340000D01*
X-225890000Y-108340000D02*
X-231290000Y-108340000D01*
X-228090000Y-109590000D02*
X-228090000Y-108590000D01*
X-228190000Y-109090000D02*
X-229090000Y-109590000D01*
X-229090000Y-109590000D02*
X-229090000Y-108590000D01*
X-229090000Y-108590000D02*
X-228190000Y-109090000D01*
X-231290000Y-109840000D02*
X-225890000Y-109840000D01*
X-231290000Y-108340000D02*
X-231290000Y-109840000D01*
X-158193475Y-118903734D02*
X-158193475Y-117403734D01*
X-158193475Y-117403734D02*
X-163593475Y-117403734D01*
X-160393475Y-118653734D02*
X-160393475Y-117653734D01*
X-160493475Y-118153734D02*
X-161393475Y-118653734D01*
X-161393475Y-118653734D02*
X-161393475Y-117653734D01*
X-161393475Y-117653734D02*
X-160493475Y-118153734D01*
X-163593475Y-118903734D02*
X-158193475Y-118903734D01*
X-163593475Y-117403734D02*
X-163593475Y-118903734D01*
X-301688475Y-108703734D02*
X-301688475Y-107203734D01*
X-301688475Y-107203734D02*
X-307088475Y-107203734D01*
X-303888475Y-108453734D02*
X-303888475Y-107453734D01*
X-303988475Y-107953734D02*
X-304888475Y-108453734D01*
X-304888475Y-108453734D02*
X-304888475Y-107453734D01*
X-304888475Y-107453734D02*
X-303988475Y-107953734D01*
X-307088475Y-108703734D02*
X-301688475Y-108703734D01*
X-307088475Y-107203734D02*
X-307088475Y-108703734D01*
X-146043475Y-121483734D02*
X-146043475Y-119983734D01*
X-146043475Y-119983734D02*
X-151443475Y-119983734D01*
X-148243475Y-121233734D02*
X-148243475Y-120233734D01*
X-148343475Y-120733734D02*
X-149243475Y-121233734D01*
X-149243475Y-121233734D02*
X-149243475Y-120233734D01*
X-149243475Y-120233734D02*
X-148343475Y-120733734D01*
X-151443475Y-121483734D02*
X-146043475Y-121483734D01*
X-151443475Y-119983734D02*
X-151443475Y-121483734D01*
X-158193475Y-121483734D02*
X-158193475Y-119983734D01*
X-158193475Y-119983734D02*
X-163593475Y-119983734D01*
X-160393475Y-121233734D02*
X-160393475Y-120233734D01*
X-160493475Y-120733734D02*
X-161393475Y-121233734D01*
X-161393475Y-121233734D02*
X-161393475Y-120233734D01*
X-161393475Y-120233734D02*
X-160493475Y-120733734D01*
X-163593475Y-121483734D02*
X-158193475Y-121483734D01*
X-163593475Y-119983734D02*
X-163593475Y-121483734D01*
X-312623475Y-109133734D02*
X-312623475Y-107633734D01*
X-312623475Y-107633734D02*
X-318023475Y-107633734D01*
X-314823475Y-108883734D02*
X-314823475Y-107883734D01*
X-314923475Y-108383734D02*
X-315823475Y-108883734D01*
X-315823475Y-108883734D02*
X-315823475Y-107883734D01*
X-315823475Y-107883734D02*
X-314923475Y-108383734D01*
X-318023475Y-109133734D02*
X-312623475Y-109133734D01*
X-318023475Y-107633734D02*
X-318023475Y-109133734D01*
X-225873475Y-126573734D02*
X-225873475Y-125073734D01*
X-225873475Y-125073734D02*
X-231273475Y-125073734D01*
X-228073475Y-126323734D02*
X-228073475Y-125323734D01*
X-228173475Y-125823734D02*
X-229073475Y-126323734D01*
X-229073475Y-126323734D02*
X-229073475Y-125323734D01*
X-229073475Y-125323734D02*
X-228173475Y-125823734D01*
X-231273475Y-126573734D02*
X-225873475Y-126573734D01*
X-231273475Y-125073734D02*
X-231273475Y-126573734D01*
X-225885000Y-117070000D02*
X-225885000Y-115570000D01*
X-225885000Y-115570000D02*
X-231285000Y-115570000D01*
X-228085000Y-116820000D02*
X-228085000Y-115820000D01*
X-228185000Y-116320000D02*
X-229085000Y-116820000D01*
X-229085000Y-116820000D02*
X-229085000Y-115820000D01*
X-229085000Y-115820000D02*
X-228185000Y-116320000D01*
X-231285000Y-117070000D02*
X-225885000Y-117070000D01*
X-231285000Y-115570000D02*
X-231285000Y-117070000D01*
X-301693475Y-111207734D02*
X-301693475Y-109707734D01*
X-301693475Y-109707734D02*
X-307093475Y-109707734D01*
X-303893475Y-110957734D02*
X-303893475Y-109957734D01*
X-303993475Y-110457734D02*
X-304893475Y-110957734D01*
X-304893475Y-110957734D02*
X-304893475Y-109957734D01*
X-304893475Y-109957734D02*
X-303993475Y-110457734D01*
X-307093475Y-111207734D02*
X-301693475Y-111207734D01*
X-307093475Y-109707734D02*
X-307093475Y-111207734D01*
X-301693475Y-119139734D02*
X-301693475Y-117639734D01*
X-301693475Y-117639734D02*
X-307093475Y-117639734D01*
X-303893475Y-118889734D02*
X-303893475Y-117889734D01*
X-303993475Y-118389734D02*
X-304893475Y-118889734D01*
X-304893475Y-118889734D02*
X-304893475Y-117889734D01*
X-304893475Y-117889734D02*
X-303993475Y-118389734D01*
X-307093475Y-119139734D02*
X-301693475Y-119139734D01*
X-307093475Y-117639734D02*
X-307093475Y-119139734D01*
X-227243475Y-79319734D02*
X-227243475Y-77819734D01*
X-227243475Y-77819734D02*
X-232643475Y-77819734D01*
X-229443475Y-79069734D02*
X-229443475Y-78069734D01*
X-229543475Y-78569734D02*
X-230443475Y-79069734D01*
X-230443475Y-79069734D02*
X-230443475Y-78069734D01*
X-230443475Y-78069734D02*
X-229543475Y-78569734D01*
X-232643475Y-79319734D02*
X-227243475Y-79319734D01*
X-232643475Y-77819734D02*
X-232643475Y-79319734D01*
X-158118475Y-107773734D02*
X-158118475Y-106273734D01*
X-158118475Y-106273734D02*
X-163518475Y-106273734D01*
X-160318475Y-107523734D02*
X-160318475Y-106523734D01*
X-160418475Y-107023734D02*
X-161318475Y-107523734D01*
X-161318475Y-107523734D02*
X-161318475Y-106523734D01*
X-161318475Y-106523734D02*
X-160418475Y-107023734D01*
X-163518475Y-107773734D02*
X-158118475Y-107773734D01*
X-163518475Y-106273734D02*
X-163518475Y-107773734D01*
X-312653475Y-111667734D02*
X-312653475Y-110167734D01*
X-312653475Y-110167734D02*
X-318053475Y-110167734D01*
X-314853475Y-111417734D02*
X-314853475Y-110417734D01*
X-314953475Y-110917734D02*
X-315853475Y-111417734D01*
X-315853475Y-111417734D02*
X-315853475Y-110417734D01*
X-315853475Y-110417734D02*
X-314953475Y-110917734D01*
X-318053475Y-111667734D02*
X-312653475Y-111667734D01*
X-318053475Y-110167734D02*
X-318053475Y-111667734D01*
X-145968475Y-107883734D02*
X-145968475Y-106383734D01*
X-145968475Y-106383734D02*
X-151368475Y-106383734D01*
X-148168475Y-107633734D02*
X-148168475Y-106633734D01*
X-148268475Y-107133734D02*
X-149168475Y-107633734D01*
X-149168475Y-107633734D02*
X-149168475Y-106633734D01*
X-149168475Y-106633734D02*
X-148268475Y-107133734D01*
X-151368475Y-107883734D02*
X-145968475Y-107883734D01*
X-151368475Y-106383734D02*
X-151368475Y-107883734D01*
X-312653475Y-114171734D02*
X-312653475Y-112671734D01*
X-312653475Y-112671734D02*
X-318053475Y-112671734D01*
X-314853475Y-113921734D02*
X-314853475Y-112921734D01*
X-314953475Y-113421734D02*
X-315853475Y-113921734D01*
X-315853475Y-113921734D02*
X-315853475Y-112921734D01*
X-315853475Y-112921734D02*
X-314953475Y-113421734D01*
X-318053475Y-114171734D02*
X-312653475Y-114171734D01*
X-318053475Y-112671734D02*
X-318053475Y-114171734D01*
X-146043475Y-118753734D02*
X-146043475Y-117253734D01*
X-146043475Y-117253734D02*
X-151443475Y-117253734D01*
X-148243475Y-118503734D02*
X-148243475Y-117503734D01*
X-148343475Y-118003734D02*
X-149243475Y-118503734D01*
X-149243475Y-118503734D02*
X-149243475Y-117503734D01*
X-149243475Y-117503734D02*
X-148343475Y-118003734D01*
X-151443475Y-118753734D02*
X-146043475Y-118753734D01*
X-151443475Y-117253734D02*
X-151443475Y-118753734D01*
X-227233475Y-81691067D02*
X-227233475Y-80191067D01*
X-227233475Y-80191067D02*
X-232633475Y-80191067D01*
X-229433475Y-81441067D02*
X-229433475Y-80441067D01*
X-229533475Y-80941067D02*
X-230433475Y-81441067D01*
X-230433475Y-81441067D02*
X-230433475Y-80441067D01*
X-230433475Y-80441067D02*
X-229533475Y-80941067D01*
X-232633475Y-81691067D02*
X-227233475Y-81691067D01*
X-232633475Y-80191067D02*
X-232633475Y-81691067D01*
X-225890000Y-112320000D02*
X-225890000Y-110820000D01*
X-225890000Y-110820000D02*
X-231290000Y-110820000D01*
X-228090000Y-112070000D02*
X-228090000Y-111070000D01*
X-228190000Y-111570000D02*
X-229090000Y-112070000D01*
X-229090000Y-112070000D02*
X-229090000Y-111070000D01*
X-229090000Y-111070000D02*
X-228190000Y-111570000D01*
X-231290000Y-112320000D02*
X-225890000Y-112320000D01*
X-231290000Y-110820000D02*
X-231290000Y-112320000D01*
X-225933475Y-131633734D02*
X-225933475Y-130133734D01*
X-225933475Y-130133734D02*
X-231333475Y-130133734D01*
X-228133475Y-131383734D02*
X-228133475Y-130383734D01*
X-228233475Y-130883734D02*
X-229133475Y-131383734D01*
X-229133475Y-131383734D02*
X-229133475Y-130383734D01*
X-229133475Y-130383734D02*
X-228233475Y-130883734D01*
X-231333475Y-131633734D02*
X-225933475Y-131633734D01*
X-231333475Y-130133734D02*
X-231333475Y-131633734D01*
X-312563475Y-106653734D02*
X-312563475Y-105153734D01*
X-312563475Y-105153734D02*
X-317963475Y-105153734D01*
X-314763475Y-106403734D02*
X-314763475Y-105403734D01*
X-314863475Y-105903734D02*
X-315763475Y-106403734D01*
X-315763475Y-106403734D02*
X-315763475Y-105403734D01*
X-315763475Y-105403734D02*
X-314863475Y-105903734D01*
X-317963475Y-106653734D02*
X-312563475Y-106653734D01*
X-317963475Y-105153734D02*
X-317963475Y-106653734D01*
X-312653475Y-119179734D02*
X-312653475Y-117679734D01*
X-312653475Y-117679734D02*
X-318053475Y-117679734D01*
X-314853475Y-118929734D02*
X-314853475Y-117929734D01*
X-314953475Y-118429734D02*
X-315853475Y-118929734D01*
X-315853475Y-118929734D02*
X-315853475Y-117929734D01*
X-315853475Y-117929734D02*
X-314953475Y-118429734D01*
X-318053475Y-119179734D02*
X-312653475Y-119179734D01*
X-318053475Y-117679734D02*
X-318053475Y-119179734D01*
X-158198475Y-116033734D02*
X-158198475Y-114533734D01*
X-158198475Y-114533734D02*
X-163598475Y-114533734D01*
X-160398475Y-115783734D02*
X-160398475Y-114783734D01*
X-160498475Y-115283734D02*
X-161398475Y-115783734D01*
X-161398475Y-115783734D02*
X-161398475Y-114783734D01*
X-161398475Y-114783734D02*
X-160498475Y-115283734D01*
X-163598475Y-116033734D02*
X-158198475Y-116033734D01*
X-163598475Y-114533734D02*
X-163598475Y-116033734D01*
X-146043475Y-116023734D02*
X-146043475Y-114523734D01*
X-146043475Y-114523734D02*
X-151443475Y-114523734D01*
X-148243475Y-115773734D02*
X-148243475Y-114773734D01*
X-148343475Y-115273734D02*
X-149243475Y-115773734D01*
X-149243475Y-115773734D02*
X-149243475Y-114773734D01*
X-149243475Y-114773734D02*
X-148343475Y-115273734D01*
X-151443475Y-116023734D02*
X-146043475Y-116023734D01*
X-151443475Y-114523734D02*
X-151443475Y-116023734D01*
X-301693475Y-116495734D02*
X-301693475Y-114995734D01*
X-301693475Y-114995734D02*
X-307093475Y-114995734D01*
X-303893475Y-116245734D02*
X-303893475Y-115245734D01*
X-303993475Y-115745734D02*
X-304893475Y-116245734D01*
X-304893475Y-116245734D02*
X-304893475Y-115245734D01*
X-304893475Y-115245734D02*
X-303993475Y-115745734D01*
X-307093475Y-116495734D02*
X-301693475Y-116495734D01*
X-307093475Y-114995734D02*
X-307093475Y-116495734D01*
X-158268475Y-113143734D02*
X-158268475Y-111643734D01*
X-158268475Y-111643734D02*
X-163668475Y-111643734D01*
X-160468475Y-112893734D02*
X-160468475Y-111893734D01*
X-160568475Y-112393734D02*
X-161468475Y-112893734D01*
X-161468475Y-112893734D02*
X-161468475Y-111893734D01*
X-161468475Y-111893734D02*
X-160568475Y-112393734D01*
X-163668475Y-113143734D02*
X-158268475Y-113143734D01*
X-163668475Y-111643734D02*
X-163668475Y-113143734D01*
X-227303475Y-84062400D02*
X-227303475Y-82562400D01*
X-227303475Y-82562400D02*
X-232703475Y-82562400D01*
X-229503475Y-83812400D02*
X-229503475Y-82812400D01*
X-229603475Y-83312400D02*
X-230503475Y-83812400D01*
X-230503475Y-83812400D02*
X-230503475Y-82812400D01*
X-230503475Y-82812400D02*
X-229603475Y-83312400D01*
X-232703475Y-84062400D02*
X-227303475Y-84062400D01*
X-232703475Y-82562400D02*
X-232703475Y-84062400D01*
X-225870000Y-119210000D02*
X-225870000Y-117710000D01*
X-225870000Y-117710000D02*
X-231270000Y-117710000D01*
X-228070000Y-118960000D02*
X-228070000Y-117960000D01*
X-228170000Y-118460000D02*
X-229070000Y-118960000D01*
X-229070000Y-118960000D02*
X-229070000Y-117960000D01*
X-229070000Y-117960000D02*
X-228170000Y-118460000D01*
X-231270000Y-119210000D02*
X-225870000Y-119210000D01*
X-231270000Y-117710000D02*
X-231270000Y-119210000D01*
X-301693475Y-113851734D02*
X-301693475Y-112351734D01*
X-301693475Y-112351734D02*
X-307093475Y-112351734D01*
X-303893475Y-113601734D02*
X-303893475Y-112601734D01*
X-303993475Y-113101734D02*
X-304893475Y-113601734D01*
X-304893475Y-113601734D02*
X-304893475Y-112601734D01*
X-304893475Y-112601734D02*
X-303993475Y-113101734D01*
X-307093475Y-113851734D02*
X-301693475Y-113851734D01*
X-307093475Y-112351734D02*
X-307093475Y-113851734D01*
X-106960000Y-92890000D02*
X-106060000Y-92390000D01*
X-106060000Y-92390000D02*
X-106060000Y-93390000D01*
X-106060000Y-93390000D02*
X-106960000Y-92890000D01*
X-107060000Y-92390000D02*
X-107060000Y-93390000D01*
X-103860000Y-92140000D02*
X-109260000Y-92140000D01*
X-109260000Y-92140000D02*
X-109260000Y-93640000D01*
X-109260000Y-93640000D02*
X-103860000Y-93640000D01*
X-103860000Y-93640000D02*
X-103860000Y-92140000D01*
D12*
X-348500000Y-87660000D03*
D13*
X-356120000Y-87660000D03*
D12*
X-348500000Y-90310000D03*
D13*
X-356120000Y-90310000D03*
D12*
X-348500000Y-92960000D03*
D13*
X-356120000Y-92960000D03*
X-110370000Y-84940000D03*
D12*
X-102750000Y-84940000D03*
D13*
X-110370000Y-87590000D03*
D12*
X-102750000Y-87590000D03*
D13*
X-110370000Y-90240000D03*
D12*
X-102750000Y-90240000D03*
X-348500000Y-85010000D03*
D13*
X-356120000Y-85010000D03*
X-157053475Y-109723734D03*
D12*
X-164673475Y-109723734D03*
D13*
X-224823475Y-120673734D03*
D12*
X-232443475Y-120673734D03*
D13*
X-224823475Y-128331234D03*
D12*
X-232443475Y-128331234D03*
D13*
X-224770000Y-113900000D03*
D12*
X-232390000Y-113900000D03*
D13*
X-311543475Y-120933734D03*
D12*
X-319163475Y-120933734D03*
D13*
X-311543475Y-115925734D03*
D12*
X-319163475Y-115925734D03*
D14*
X-224560000Y-47890000D03*
X-224560000Y-50430000D03*
X-224560000Y-52970000D03*
X-224560000Y-55510000D03*
X-224560000Y-58050000D03*
X-224560000Y-60590000D03*
X-224560000Y-63130000D03*
X-224560000Y-65670000D03*
X-224560000Y-68210000D03*
X-224560000Y-70750000D03*
X-224560000Y-73290000D03*
X-224560000Y-75830000D03*
X-239780000Y-75830000D03*
X-239780000Y-73290000D03*
X-239780000Y-70750000D03*
X-239780000Y-68210000D03*
X-239780000Y-65670000D03*
X-239780000Y-63130000D03*
X-239780000Y-60590000D03*
X-239780000Y-58050000D03*
X-239780000Y-55510000D03*
X-239780000Y-52970000D03*
X-239780000Y-50430000D03*
X-239780000Y-47890000D03*
D15*
X-239780000Y-45350000D03*
D14*
X-224560000Y-45350000D03*
D13*
X-224723475Y-123213734D03*
D12*
X-232343475Y-123213734D03*
D13*
X-144938475Y-109793734D03*
D12*
X-152558475Y-109793734D03*
D13*
X-144933475Y-112543734D03*
D12*
X-152553475Y-112543734D03*
D13*
X-300583475Y-121033734D03*
D12*
X-308203475Y-121033734D03*
D13*
X-224780000Y-109090000D03*
D12*
X-232400000Y-109090000D03*
D13*
X-157083475Y-118153734D03*
D12*
X-164703475Y-118153734D03*
D13*
X-300578475Y-107953734D03*
D12*
X-308198475Y-107953734D03*
D13*
X-144933475Y-120733734D03*
D12*
X-152553475Y-120733734D03*
D13*
X-157083475Y-120733734D03*
D12*
X-164703475Y-120733734D03*
D13*
X-311513475Y-108383734D03*
D12*
X-319133475Y-108383734D03*
D13*
X-224763475Y-125823734D03*
D12*
X-232383475Y-125823734D03*
D13*
X-224775000Y-116320000D03*
D12*
X-232395000Y-116320000D03*
D13*
X-300583475Y-110457734D03*
D12*
X-308203475Y-110457734D03*
D13*
X-300583475Y-118389734D03*
D12*
X-308203475Y-118389734D03*
D13*
X-226133475Y-78569734D03*
D12*
X-233753475Y-78569734D03*
D13*
X-157008475Y-107023734D03*
D12*
X-164628475Y-107023734D03*
D13*
X-311543475Y-110917734D03*
D12*
X-319163475Y-110917734D03*
D13*
X-144858475Y-107133734D03*
D12*
X-152478475Y-107133734D03*
D13*
X-311543475Y-113421734D03*
D12*
X-319163475Y-113421734D03*
D13*
X-144933475Y-118003734D03*
D12*
X-152553475Y-118003734D03*
D13*
X-226123475Y-80941067D03*
D12*
X-233743475Y-80941067D03*
D13*
X-224780000Y-111570000D03*
D12*
X-232400000Y-111570000D03*
D13*
X-224823475Y-130883734D03*
D12*
X-232443475Y-130883734D03*
D13*
X-311453475Y-105903734D03*
D12*
X-319073475Y-105903734D03*
D13*
X-311543475Y-118429734D03*
D12*
X-319163475Y-118429734D03*
D13*
X-157088475Y-115283734D03*
D12*
X-164708475Y-115283734D03*
D13*
X-144933475Y-115273734D03*
D12*
X-152553475Y-115273734D03*
D13*
X-300583475Y-115745734D03*
D12*
X-308203475Y-115745734D03*
D13*
X-157158475Y-112393734D03*
D12*
X-164778475Y-112393734D03*
D13*
X-226193475Y-83312400D03*
D12*
X-233813475Y-83312400D03*
D13*
X-224760000Y-118460000D03*
D12*
X-232380000Y-118460000D03*
D13*
X-300583475Y-113101734D03*
D12*
X-308203475Y-113101734D03*
D16*
X-249740000Y-72300000D03*
D14*
X-247621786Y-57228120D03*
D13*
X-110370000Y-92890000D03*
D12*
X-102750000Y-92890000D03*
M02*
