M48
; DRILL file {KiCad 7.0.1-0} date 2023 October 08, Sunday 21:15:59
; FORMAT={-:-/ absolute / metric / decimal}
; #@! TF.CreationDate,2023-10-08T21:15:59+09:00
; #@! TF.GenerationSoftware,Kicad,Pcbnew,7.0.1-0
; #@! TF.FileFunction,Plated,1,2,PTH
FMAT,2
METRIC
; #@! TA.AperFunction,Plated,PTH,ViaDrill
T1C0.400
; #@! TA.AperFunction,Plated,PTH,ComponentDrill
T2C0.500
; #@! TA.AperFunction,Plated,PTH,ComponentDrill
T3C0.813
; #@! TA.AperFunction,Plated,PTH,ComponentDrill
T4C0.900
; #@! TA.AperFunction,Plated,PTH,ComponentDrill
T5C1.300
%
G90
G05
T1
X-359.42Y-109.34
X-333.42Y-80.23
X-331.81Y-84.69
X-331.15Y-83.58
X-327.36Y-98.29
X-324.67Y-84.74
X-308.198Y-92.72
X-305.42Y-84.7
X-298.073Y-91.744
X-294.543Y-67.724
X-289.23Y-109.33
X-283.26Y-87.784
X-275.603Y-69.694
X-269.59Y-111.5
X-263.383Y-114.554
X-258.68Y-63.75
X-257.31Y-86.01
X-257.31Y-89.74
X-251.0Y-110.846
X-246.0Y-54.55
X-243.46Y-115.36
X-242.96Y-81.71
X-236.37Y-113.92
X-224.74Y-103.82
X-223.459Y-82.161
X-222.88Y-114.87
X-222.32Y-115.835
X-222.313Y-128.331
X-218.63Y-116.56
X-206.84Y-116.54
X-205.16Y-51.01
X-203.32Y-116.51
X-201.953Y-72.204
X-194.533Y-88.914
X-186.73Y-104.85
X-186.73Y-107.61
X-185.263Y-115.464
X-181.433Y-72.944
X-175.773Y-87.374
X-174.193Y-104.844
X-174.173Y-105.924
X-171.663Y-109.004
X-169.423Y-110.504
X-168.313Y-104.814
X-168.24Y-114.25
X-167.833Y-110.814
X-167.32Y-105.99
X-163.683Y-66.574
X-162.483Y-87.334
X-160.95Y-116.744
X-158.203Y-113.804
X-151.623Y-84.004
X-142.343Y-64.754
X-137.593Y-83.934
X-113.14Y-54.24
X-102.8Y-101.29
T3
X-356.12Y-85.01
X-356.12Y-87.66
X-356.12Y-90.31
X-356.12Y-92.96
X-348.5Y-85.01
X-348.5Y-87.66
X-348.5Y-90.31
X-348.5Y-92.96
X-319.163Y-110.918
X-319.163Y-113.422
X-319.163Y-115.926
X-319.163Y-118.43
X-319.163Y-120.934
X-319.133Y-108.384
X-319.073Y-105.904
X-311.543Y-110.918
X-311.543Y-113.422
X-311.543Y-115.926
X-311.543Y-118.43
X-311.543Y-120.934
X-311.513Y-108.384
X-311.453Y-105.904
X-308.203Y-110.458
X-308.203Y-113.102
X-308.203Y-115.746
X-308.203Y-118.39
X-308.203Y-121.034
X-308.198Y-107.954
X-300.583Y-110.458
X-300.583Y-113.102
X-300.583Y-115.746
X-300.583Y-118.39
X-300.583Y-121.034
X-300.578Y-107.954
X-249.74Y-72.3
X-247.622Y-57.228
X-239.78Y-45.35
X-239.78Y-47.89
X-239.78Y-50.43
X-239.78Y-52.97
X-239.78Y-55.51
X-239.78Y-58.05
X-239.78Y-60.59
X-239.78Y-63.13
X-239.78Y-65.67
X-239.78Y-68.21
X-239.78Y-70.75
X-239.78Y-73.29
X-239.78Y-75.83
X-233.813Y-83.312
X-233.753Y-78.57
X-233.743Y-80.941
X-232.443Y-120.674
X-232.443Y-128.331
X-232.443Y-130.884
X-232.4Y-109.09
X-232.4Y-111.57
X-232.395Y-116.32
X-232.39Y-113.9
X-232.383Y-125.824
X-232.38Y-118.46
X-232.343Y-123.214
X-226.193Y-83.312
X-226.133Y-78.57
X-226.123Y-80.941
X-224.823Y-120.674
X-224.823Y-128.331
X-224.823Y-130.884
X-224.78Y-109.09
X-224.78Y-111.57
X-224.775Y-116.32
X-224.77Y-113.9
X-224.763Y-125.824
X-224.76Y-118.46
X-224.723Y-123.214
X-224.56Y-45.35
X-224.56Y-47.89
X-224.56Y-50.43
X-224.56Y-52.97
X-224.56Y-55.51
X-224.56Y-58.05
X-224.56Y-60.59
X-224.56Y-63.13
X-224.56Y-65.67
X-224.56Y-68.21
X-224.56Y-70.75
X-224.56Y-73.29
X-224.56Y-75.83
X-164.778Y-112.394
X-164.708Y-115.284
X-164.703Y-118.154
X-164.703Y-120.734
X-164.673Y-109.724
X-164.628Y-107.024
X-157.158Y-112.394
X-157.088Y-115.284
X-157.083Y-118.154
X-157.083Y-120.734
X-157.053Y-109.724
X-157.008Y-107.024
X-152.558Y-109.794
X-152.553Y-112.544
X-152.553Y-115.274
X-152.553Y-118.004
X-152.553Y-120.734
X-152.478Y-107.134
X-144.938Y-109.794
X-144.933Y-112.544
X-144.933Y-115.274
X-144.933Y-118.004
X-144.933Y-120.734
X-144.858Y-107.134
X-110.37Y-84.94
X-110.37Y-87.59
X-110.37Y-90.24
X-110.37Y-92.89
X-102.75Y-84.94
X-102.75Y-87.59
X-102.75Y-90.24
X-102.75Y-92.89
T4
X-241.6Y-93.14
X-218.9Y-91.87
X-218.9Y-94.41
T5
X-221.19Y-50.32
X-214.69Y-50.32
T2
G00X-103.13Y-52.65
M15
G01X-103.13Y-52.35
M16
G05
G00X-103.13Y-55.15
M15
G01X-103.13Y-54.85
M16
G05
G00X-103.13Y-57.65
M15
G01X-103.13Y-57.35
M16
G05
T0
M30
