G04 #@! TF.GenerationSoftware,KiCad,Pcbnew,7.0.1-0*
G04 #@! TF.CreationDate,2023-10-08T21:15:56+09:00*
G04 #@! TF.ProjectId,cool846ble,636f6f6c-3834-4366-926c-652e6b696361,rev?*
G04 #@! TF.SameCoordinates,Original*
G04 #@! TF.FileFunction,Legend,Bot*
G04 #@! TF.FilePolarity,Positive*
%FSLAX46Y46*%
G04 Gerber Fmt 4.6, Leading zero omitted, Abs format (unit mm)*
G04 Created by KiCad (PCBNEW 7.0.1-0) date 2023-10-08 21:15:56*
%MOMM*%
%LPD*%
G01*
G04 APERTURE LIST*
G04 Aperture macros list*
%AMRotRect*
0 Rectangle, with rotation*
0 The origin of the aperture is its center*
0 $1 length*
0 $2 width*
0 $3 Rotation angle, in degrees counterclockwise*
0 Add horizontal line*
21,1,$1,$2,0,0,$3*%
G04 Aperture macros list end*
%ADD10C,0.300000*%
%ADD11C,0.125000*%
%ADD12C,0.150000*%
%ADD13C,0.400000*%
%ADD14C,0.500000*%
%ADD15C,1.000000*%
%ADD16C,3.500000*%
%ADD17C,3.000000*%
%ADD18C,0.800000*%
%ADD19C,0.120000*%
%ADD20C,0.200000*%
%ADD21C,1.524000*%
%ADD22R,1.524000X1.524000*%
%ADD23RotRect,1.524000X1.524000X82.000000*%
G04 APERTURE END LIST*
D10*
X-184810000Y-47155000D02*
X-184667142Y-47226428D01*
X-184667142Y-47226428D02*
X-184381428Y-47226428D01*
X-184381428Y-47226428D02*
X-184238571Y-47155000D01*
X-184238571Y-47155000D02*
X-184167142Y-47083571D01*
X-184167142Y-47083571D02*
X-184095714Y-46940714D01*
X-184095714Y-46940714D02*
X-184095714Y-46512142D01*
X-184095714Y-46512142D02*
X-184167142Y-46369285D01*
X-184167142Y-46369285D02*
X-184238571Y-46297857D01*
X-184238571Y-46297857D02*
X-184381428Y-46226428D01*
X-184381428Y-46226428D02*
X-184667142Y-46226428D01*
X-184667142Y-46226428D02*
X-184810000Y-46297857D01*
X-185667142Y-47226428D02*
X-185524285Y-47155000D01*
X-185524285Y-47155000D02*
X-185452856Y-47083571D01*
X-185452856Y-47083571D02*
X-185381428Y-46940714D01*
X-185381428Y-46940714D02*
X-185381428Y-46512142D01*
X-185381428Y-46512142D02*
X-185452856Y-46369285D01*
X-185452856Y-46369285D02*
X-185524285Y-46297857D01*
X-185524285Y-46297857D02*
X-185667142Y-46226428D01*
X-185667142Y-46226428D02*
X-185881428Y-46226428D01*
X-185881428Y-46226428D02*
X-186024285Y-46297857D01*
X-186024285Y-46297857D02*
X-186095714Y-46369285D01*
X-186095714Y-46369285D02*
X-186167142Y-46512142D01*
X-186167142Y-46512142D02*
X-186167142Y-46940714D01*
X-186167142Y-46940714D02*
X-186095714Y-47083571D01*
X-186095714Y-47083571D02*
X-186024285Y-47155000D01*
X-186024285Y-47155000D02*
X-185881428Y-47226428D01*
X-185881428Y-47226428D02*
X-185667142Y-47226428D01*
X-187024285Y-47226428D02*
X-186881428Y-47155000D01*
X-186881428Y-47155000D02*
X-186809999Y-47083571D01*
X-186809999Y-47083571D02*
X-186738571Y-46940714D01*
X-186738571Y-46940714D02*
X-186738571Y-46512142D01*
X-186738571Y-46512142D02*
X-186809999Y-46369285D01*
X-186809999Y-46369285D02*
X-186881428Y-46297857D01*
X-186881428Y-46297857D02*
X-187024285Y-46226428D01*
X-187024285Y-46226428D02*
X-187238571Y-46226428D01*
X-187238571Y-46226428D02*
X-187381428Y-46297857D01*
X-187381428Y-46297857D02*
X-187452857Y-46369285D01*
X-187452857Y-46369285D02*
X-187524285Y-46512142D01*
X-187524285Y-46512142D02*
X-187524285Y-46940714D01*
X-187524285Y-46940714D02*
X-187452857Y-47083571D01*
X-187452857Y-47083571D02*
X-187381428Y-47155000D01*
X-187381428Y-47155000D02*
X-187238571Y-47226428D01*
X-187238571Y-47226428D02*
X-187024285Y-47226428D01*
X-188381428Y-47226428D02*
X-188238571Y-47155000D01*
X-188238571Y-47155000D02*
X-188167142Y-47012142D01*
X-188167142Y-47012142D02*
X-188167142Y-45726428D01*
X-189167142Y-46369285D02*
X-189024285Y-46297857D01*
X-189024285Y-46297857D02*
X-188952856Y-46226428D01*
X-188952856Y-46226428D02*
X-188881428Y-46083571D01*
X-188881428Y-46083571D02*
X-188881428Y-46012142D01*
X-188881428Y-46012142D02*
X-188952856Y-45869285D01*
X-188952856Y-45869285D02*
X-189024285Y-45797857D01*
X-189024285Y-45797857D02*
X-189167142Y-45726428D01*
X-189167142Y-45726428D02*
X-189452856Y-45726428D01*
X-189452856Y-45726428D02*
X-189595714Y-45797857D01*
X-189595714Y-45797857D02*
X-189667142Y-45869285D01*
X-189667142Y-45869285D02*
X-189738571Y-46012142D01*
X-189738571Y-46012142D02*
X-189738571Y-46083571D01*
X-189738571Y-46083571D02*
X-189667142Y-46226428D01*
X-189667142Y-46226428D02*
X-189595714Y-46297857D01*
X-189595714Y-46297857D02*
X-189452856Y-46369285D01*
X-189452856Y-46369285D02*
X-189167142Y-46369285D01*
X-189167142Y-46369285D02*
X-189024285Y-46440714D01*
X-189024285Y-46440714D02*
X-188952856Y-46512142D01*
X-188952856Y-46512142D02*
X-188881428Y-46655000D01*
X-188881428Y-46655000D02*
X-188881428Y-46940714D01*
X-188881428Y-46940714D02*
X-188952856Y-47083571D01*
X-188952856Y-47083571D02*
X-189024285Y-47155000D01*
X-189024285Y-47155000D02*
X-189167142Y-47226428D01*
X-189167142Y-47226428D02*
X-189452856Y-47226428D01*
X-189452856Y-47226428D02*
X-189595714Y-47155000D01*
X-189595714Y-47155000D02*
X-189667142Y-47083571D01*
X-189667142Y-47083571D02*
X-189738571Y-46940714D01*
X-189738571Y-46940714D02*
X-189738571Y-46655000D01*
X-189738571Y-46655000D02*
X-189667142Y-46512142D01*
X-189667142Y-46512142D02*
X-189595714Y-46440714D01*
X-189595714Y-46440714D02*
X-189452856Y-46369285D01*
X-191024285Y-46226428D02*
X-191024285Y-47226428D01*
X-190667142Y-45655000D02*
X-190309999Y-46726428D01*
X-190309999Y-46726428D02*
X-191238570Y-46726428D01*
X-192452856Y-45726428D02*
X-192167141Y-45726428D01*
X-192167141Y-45726428D02*
X-192024284Y-45797857D01*
X-192024284Y-45797857D02*
X-191952856Y-45869285D01*
X-191952856Y-45869285D02*
X-191809998Y-46083571D01*
X-191809998Y-46083571D02*
X-191738570Y-46369285D01*
X-191738570Y-46369285D02*
X-191738570Y-46940714D01*
X-191738570Y-46940714D02*
X-191809998Y-47083571D01*
X-191809998Y-47083571D02*
X-191881427Y-47155000D01*
X-191881427Y-47155000D02*
X-192024284Y-47226428D01*
X-192024284Y-47226428D02*
X-192309998Y-47226428D01*
X-192309998Y-47226428D02*
X-192452856Y-47155000D01*
X-192452856Y-47155000D02*
X-192524284Y-47083571D01*
X-192524284Y-47083571D02*
X-192595713Y-46940714D01*
X-192595713Y-46940714D02*
X-192595713Y-46583571D01*
X-192595713Y-46583571D02*
X-192524284Y-46440714D01*
X-192524284Y-46440714D02*
X-192452856Y-46369285D01*
X-192452856Y-46369285D02*
X-192309998Y-46297857D01*
X-192309998Y-46297857D02*
X-192024284Y-46297857D01*
X-192024284Y-46297857D02*
X-191881427Y-46369285D01*
X-191881427Y-46369285D02*
X-191809998Y-46440714D01*
X-191809998Y-46440714D02*
X-191738570Y-46583571D01*
X-193238569Y-47226428D02*
X-193238569Y-45726428D01*
X-193238569Y-46297857D02*
X-193381427Y-46226428D01*
X-193381427Y-46226428D02*
X-193667141Y-46226428D01*
X-193667141Y-46226428D02*
X-193809998Y-46297857D01*
X-193809998Y-46297857D02*
X-193881427Y-46369285D01*
X-193881427Y-46369285D02*
X-193952855Y-46512142D01*
X-193952855Y-46512142D02*
X-193952855Y-46940714D01*
X-193952855Y-46940714D02*
X-193881427Y-47083571D01*
X-193881427Y-47083571D02*
X-193809998Y-47155000D01*
X-193809998Y-47155000D02*
X-193667141Y-47226428D01*
X-193667141Y-47226428D02*
X-193381427Y-47226428D01*
X-193381427Y-47226428D02*
X-193238569Y-47155000D01*
X-194809998Y-47226428D02*
X-194667141Y-47155000D01*
X-194667141Y-47155000D02*
X-194595712Y-47012142D01*
X-194595712Y-47012142D02*
X-194595712Y-45726428D01*
X-195952855Y-47155000D02*
X-195809998Y-47226428D01*
X-195809998Y-47226428D02*
X-195524284Y-47226428D01*
X-195524284Y-47226428D02*
X-195381426Y-47155000D01*
X-195381426Y-47155000D02*
X-195309998Y-47012142D01*
X-195309998Y-47012142D02*
X-195309998Y-46440714D01*
X-195309998Y-46440714D02*
X-195381426Y-46297857D01*
X-195381426Y-46297857D02*
X-195524284Y-46226428D01*
X-195524284Y-46226428D02*
X-195809998Y-46226428D01*
X-195809998Y-46226428D02*
X-195952855Y-46297857D01*
X-195952855Y-46297857D02*
X-196024284Y-46440714D01*
X-196024284Y-46440714D02*
X-196024284Y-46583571D01*
X-196024284Y-46583571D02*
X-195309998Y-46726428D01*
X-198452855Y-47226428D02*
X-198452855Y-45726428D01*
X-198452855Y-47155000D02*
X-198309997Y-47226428D01*
X-198309997Y-47226428D02*
X-198024283Y-47226428D01*
X-198024283Y-47226428D02*
X-197881426Y-47155000D01*
X-197881426Y-47155000D02*
X-197809997Y-47083571D01*
X-197809997Y-47083571D02*
X-197738569Y-46940714D01*
X-197738569Y-46940714D02*
X-197738569Y-46512142D01*
X-197738569Y-46512142D02*
X-197809997Y-46369285D01*
X-197809997Y-46369285D02*
X-197881426Y-46297857D01*
X-197881426Y-46297857D02*
X-198024283Y-46226428D01*
X-198024283Y-46226428D02*
X-198309997Y-46226428D01*
X-198309997Y-46226428D02*
X-198452855Y-46297857D01*
X-199738569Y-47155000D02*
X-199595712Y-47226428D01*
X-199595712Y-47226428D02*
X-199309998Y-47226428D01*
X-199309998Y-47226428D02*
X-199167140Y-47155000D01*
X-199167140Y-47155000D02*
X-199095712Y-47012142D01*
X-199095712Y-47012142D02*
X-199095712Y-46440714D01*
X-199095712Y-46440714D02*
X-199167140Y-46297857D01*
X-199167140Y-46297857D02*
X-199309998Y-46226428D01*
X-199309998Y-46226428D02*
X-199595712Y-46226428D01*
X-199595712Y-46226428D02*
X-199738569Y-46297857D01*
X-199738569Y-46297857D02*
X-199809998Y-46440714D01*
X-199809998Y-46440714D02*
X-199809998Y-46583571D01*
X-199809998Y-46583571D02*
X-199095712Y-46726428D01*
X-200381426Y-47155000D02*
X-200524283Y-47226428D01*
X-200524283Y-47226428D02*
X-200809997Y-47226428D01*
X-200809997Y-47226428D02*
X-200952854Y-47155000D01*
X-200952854Y-47155000D02*
X-201024283Y-47012142D01*
X-201024283Y-47012142D02*
X-201024283Y-46940714D01*
X-201024283Y-46940714D02*
X-200952854Y-46797857D01*
X-200952854Y-46797857D02*
X-200809997Y-46726428D01*
X-200809997Y-46726428D02*
X-200595712Y-46726428D01*
X-200595712Y-46726428D02*
X-200452854Y-46655000D01*
X-200452854Y-46655000D02*
X-200381426Y-46512142D01*
X-200381426Y-46512142D02*
X-200381426Y-46440714D01*
X-200381426Y-46440714D02*
X-200452854Y-46297857D01*
X-200452854Y-46297857D02*
X-200595712Y-46226428D01*
X-200595712Y-46226428D02*
X-200809997Y-46226428D01*
X-200809997Y-46226428D02*
X-200952854Y-46297857D01*
X-201667140Y-47226428D02*
X-201667140Y-46226428D01*
X-201667140Y-45726428D02*
X-201595712Y-45797857D01*
X-201595712Y-45797857D02*
X-201667140Y-45869285D01*
X-201667140Y-45869285D02*
X-201738569Y-45797857D01*
X-201738569Y-45797857D02*
X-201667140Y-45726428D01*
X-201667140Y-45726428D02*
X-201667140Y-45869285D01*
X-203024284Y-46226428D02*
X-203024284Y-47440714D01*
X-203024284Y-47440714D02*
X-202952855Y-47583571D01*
X-202952855Y-47583571D02*
X-202881426Y-47655000D01*
X-202881426Y-47655000D02*
X-202738569Y-47726428D01*
X-202738569Y-47726428D02*
X-202524284Y-47726428D01*
X-202524284Y-47726428D02*
X-202381426Y-47655000D01*
X-203024284Y-47155000D02*
X-202881426Y-47226428D01*
X-202881426Y-47226428D02*
X-202595712Y-47226428D01*
X-202595712Y-47226428D02*
X-202452855Y-47155000D01*
X-202452855Y-47155000D02*
X-202381426Y-47083571D01*
X-202381426Y-47083571D02*
X-202309998Y-46940714D01*
X-202309998Y-46940714D02*
X-202309998Y-46512142D01*
X-202309998Y-46512142D02*
X-202381426Y-46369285D01*
X-202381426Y-46369285D02*
X-202452855Y-46297857D01*
X-202452855Y-46297857D02*
X-202595712Y-46226428D01*
X-202595712Y-46226428D02*
X-202881426Y-46226428D01*
X-202881426Y-46226428D02*
X-203024284Y-46297857D01*
X-203738569Y-46226428D02*
X-203738569Y-47226428D01*
X-203738569Y-46369285D02*
X-203809998Y-46297857D01*
X-203809998Y-46297857D02*
X-203952855Y-46226428D01*
X-203952855Y-46226428D02*
X-204167141Y-46226428D01*
X-204167141Y-46226428D02*
X-204309998Y-46297857D01*
X-204309998Y-46297857D02*
X-204381427Y-46440714D01*
X-204381427Y-46440714D02*
X-204381427Y-47226428D01*
X-205667141Y-47155000D02*
X-205524284Y-47226428D01*
X-205524284Y-47226428D02*
X-205238570Y-47226428D01*
X-205238570Y-47226428D02*
X-205095712Y-47155000D01*
X-205095712Y-47155000D02*
X-205024284Y-47012142D01*
X-205024284Y-47012142D02*
X-205024284Y-46440714D01*
X-205024284Y-46440714D02*
X-205095712Y-46297857D01*
X-205095712Y-46297857D02*
X-205238570Y-46226428D01*
X-205238570Y-46226428D02*
X-205524284Y-46226428D01*
X-205524284Y-46226428D02*
X-205667141Y-46297857D01*
X-205667141Y-46297857D02*
X-205738570Y-46440714D01*
X-205738570Y-46440714D02*
X-205738570Y-46583571D01*
X-205738570Y-46583571D02*
X-205024284Y-46726428D01*
X-207024284Y-47226428D02*
X-207024284Y-45726428D01*
X-207024284Y-47155000D02*
X-206881426Y-47226428D01*
X-206881426Y-47226428D02*
X-206595712Y-47226428D01*
X-206595712Y-47226428D02*
X-206452855Y-47155000D01*
X-206452855Y-47155000D02*
X-206381426Y-47083571D01*
X-206381426Y-47083571D02*
X-206309998Y-46940714D01*
X-206309998Y-46940714D02*
X-206309998Y-46512142D01*
X-206309998Y-46512142D02*
X-206381426Y-46369285D01*
X-206381426Y-46369285D02*
X-206452855Y-46297857D01*
X-206452855Y-46297857D02*
X-206595712Y-46226428D01*
X-206595712Y-46226428D02*
X-206881426Y-46226428D01*
X-206881426Y-46226428D02*
X-207024284Y-46297857D01*
X-208881426Y-47226428D02*
X-208881426Y-45726428D01*
X-208881426Y-46297857D02*
X-209024284Y-46226428D01*
X-209024284Y-46226428D02*
X-209309998Y-46226428D01*
X-209309998Y-46226428D02*
X-209452855Y-46297857D01*
X-209452855Y-46297857D02*
X-209524284Y-46369285D01*
X-209524284Y-46369285D02*
X-209595712Y-46512142D01*
X-209595712Y-46512142D02*
X-209595712Y-46940714D01*
X-209595712Y-46940714D02*
X-209524284Y-47083571D01*
X-209524284Y-47083571D02*
X-209452855Y-47155000D01*
X-209452855Y-47155000D02*
X-209309998Y-47226428D01*
X-209309998Y-47226428D02*
X-209024284Y-47226428D01*
X-209024284Y-47226428D02*
X-208881426Y-47155000D01*
X-210095712Y-46226428D02*
X-210452855Y-47226428D01*
X-210809998Y-46226428D02*
X-210452855Y-47226428D01*
X-210452855Y-47226428D02*
X-210309998Y-47583571D01*
X-210309998Y-47583571D02*
X-210238569Y-47655000D01*
X-210238569Y-47655000D02*
X-210095712Y-47726428D01*
X-212524283Y-47226428D02*
X-212524283Y-46226428D01*
X-212524283Y-46369285D02*
X-212595712Y-46297857D01*
X-212595712Y-46297857D02*
X-212738569Y-46226428D01*
X-212738569Y-46226428D02*
X-212952855Y-46226428D01*
X-212952855Y-46226428D02*
X-213095712Y-46297857D01*
X-213095712Y-46297857D02*
X-213167141Y-46440714D01*
X-213167141Y-46440714D02*
X-213167141Y-47226428D01*
X-213167141Y-46440714D02*
X-213238569Y-46297857D01*
X-213238569Y-46297857D02*
X-213381426Y-46226428D01*
X-213381426Y-46226428D02*
X-213595712Y-46226428D01*
X-213595712Y-46226428D02*
X-213738569Y-46297857D01*
X-213738569Y-46297857D02*
X-213809998Y-46440714D01*
X-213809998Y-46440714D02*
X-213809998Y-47226428D01*
X-214524283Y-47083571D02*
X-214595712Y-47155000D01*
X-214595712Y-47155000D02*
X-214524283Y-47226428D01*
X-214524283Y-47226428D02*
X-214452855Y-47155000D01*
X-214452855Y-47155000D02*
X-214524283Y-47083571D01*
X-214524283Y-47083571D02*
X-214524283Y-47226428D01*
X-215238569Y-47226428D02*
X-215238569Y-45726428D01*
X-215381427Y-46655000D02*
X-215809998Y-47226428D01*
X-215809998Y-46226428D02*
X-215238569Y-46797857D01*
X-216452855Y-47226428D02*
X-216452855Y-46226428D01*
X-216452855Y-45726428D02*
X-216381427Y-45797857D01*
X-216381427Y-45797857D02*
X-216452855Y-45869285D01*
X-216452855Y-45869285D02*
X-216524284Y-45797857D01*
X-216524284Y-45797857D02*
X-216452855Y-45726428D01*
X-216452855Y-45726428D02*
X-216452855Y-45869285D01*
X-184024285Y-48656428D02*
X-184381428Y-49656428D01*
X-184381428Y-49656428D02*
X-184738571Y-48656428D01*
X-185881428Y-49585000D02*
X-185738571Y-49656428D01*
X-185738571Y-49656428D02*
X-185452857Y-49656428D01*
X-185452857Y-49656428D02*
X-185309999Y-49585000D01*
X-185309999Y-49585000D02*
X-185238571Y-49442142D01*
X-185238571Y-49442142D02*
X-185238571Y-48870714D01*
X-185238571Y-48870714D02*
X-185309999Y-48727857D01*
X-185309999Y-48727857D02*
X-185452857Y-48656428D01*
X-185452857Y-48656428D02*
X-185738571Y-48656428D01*
X-185738571Y-48656428D02*
X-185881428Y-48727857D01*
X-185881428Y-48727857D02*
X-185952857Y-48870714D01*
X-185952857Y-48870714D02*
X-185952857Y-49013571D01*
X-185952857Y-49013571D02*
X-185238571Y-49156428D01*
X-186595713Y-49656428D02*
X-186595713Y-48656428D01*
X-186595713Y-48942142D02*
X-186667142Y-48799285D01*
X-186667142Y-48799285D02*
X-186738571Y-48727857D01*
X-186738571Y-48727857D02*
X-186881428Y-48656428D01*
X-186881428Y-48656428D02*
X-187024285Y-48656428D01*
X-189452856Y-49656428D02*
X-188595713Y-49656428D01*
X-189024284Y-49656428D02*
X-189024284Y-48156428D01*
X-189024284Y-48156428D02*
X-188881427Y-48370714D01*
X-188881427Y-48370714D02*
X-188738570Y-48513571D01*
X-188738570Y-48513571D02*
X-188595713Y-48585000D01*
X-190095712Y-49513571D02*
X-190167141Y-49585000D01*
X-190167141Y-49585000D02*
X-190095712Y-49656428D01*
X-190095712Y-49656428D02*
X-190024284Y-49585000D01*
X-190024284Y-49585000D02*
X-190095712Y-49513571D01*
X-190095712Y-49513571D02*
X-190095712Y-49656428D01*
X-191095713Y-48156428D02*
X-191238570Y-48156428D01*
X-191238570Y-48156428D02*
X-191381427Y-48227857D01*
X-191381427Y-48227857D02*
X-191452856Y-48299285D01*
X-191452856Y-48299285D02*
X-191524284Y-48442142D01*
X-191524284Y-48442142D02*
X-191595713Y-48727857D01*
X-191595713Y-48727857D02*
X-191595713Y-49085000D01*
X-191595713Y-49085000D02*
X-191524284Y-49370714D01*
X-191524284Y-49370714D02*
X-191452856Y-49513571D01*
X-191452856Y-49513571D02*
X-191381427Y-49585000D01*
X-191381427Y-49585000D02*
X-191238570Y-49656428D01*
X-191238570Y-49656428D02*
X-191095713Y-49656428D01*
X-191095713Y-49656428D02*
X-190952856Y-49585000D01*
X-190952856Y-49585000D02*
X-190881427Y-49513571D01*
X-190881427Y-49513571D02*
X-190809998Y-49370714D01*
X-190809998Y-49370714D02*
X-190738570Y-49085000D01*
X-190738570Y-49085000D02*
X-190738570Y-48727857D01*
X-190738570Y-48727857D02*
X-190809998Y-48442142D01*
X-190809998Y-48442142D02*
X-190881427Y-48299285D01*
X-190881427Y-48299285D02*
X-190952856Y-48227857D01*
X-190952856Y-48227857D02*
X-191095713Y-48156428D01*
X-194024284Y-49656428D02*
X-194024284Y-48156428D01*
X-194024284Y-49585000D02*
X-193881426Y-49656428D01*
X-193881426Y-49656428D02*
X-193595712Y-49656428D01*
X-193595712Y-49656428D02*
X-193452855Y-49585000D01*
X-193452855Y-49585000D02*
X-193381426Y-49513571D01*
X-193381426Y-49513571D02*
X-193309998Y-49370714D01*
X-193309998Y-49370714D02*
X-193309998Y-48942142D01*
X-193309998Y-48942142D02*
X-193381426Y-48799285D01*
X-193381426Y-48799285D02*
X-193452855Y-48727857D01*
X-193452855Y-48727857D02*
X-193595712Y-48656428D01*
X-193595712Y-48656428D02*
X-193881426Y-48656428D01*
X-193881426Y-48656428D02*
X-194024284Y-48727857D01*
X-195381427Y-49656428D02*
X-195381427Y-48870714D01*
X-195381427Y-48870714D02*
X-195309998Y-48727857D01*
X-195309998Y-48727857D02*
X-195167141Y-48656428D01*
X-195167141Y-48656428D02*
X-194881427Y-48656428D01*
X-194881427Y-48656428D02*
X-194738569Y-48727857D01*
X-195381427Y-49585000D02*
X-195238569Y-49656428D01*
X-195238569Y-49656428D02*
X-194881427Y-49656428D01*
X-194881427Y-49656428D02*
X-194738569Y-49585000D01*
X-194738569Y-49585000D02*
X-194667141Y-49442142D01*
X-194667141Y-49442142D02*
X-194667141Y-49299285D01*
X-194667141Y-49299285D02*
X-194738569Y-49156428D01*
X-194738569Y-49156428D02*
X-194881427Y-49085000D01*
X-194881427Y-49085000D02*
X-195238569Y-49085000D01*
X-195238569Y-49085000D02*
X-195381427Y-49013571D01*
X-195881427Y-48656428D02*
X-196452855Y-48656428D01*
X-196095712Y-48156428D02*
X-196095712Y-49442142D01*
X-196095712Y-49442142D02*
X-196167141Y-49585000D01*
X-196167141Y-49585000D02*
X-196309998Y-49656428D01*
X-196309998Y-49656428D02*
X-196452855Y-49656428D01*
X-197595713Y-49656428D02*
X-197595713Y-48870714D01*
X-197595713Y-48870714D02*
X-197524284Y-48727857D01*
X-197524284Y-48727857D02*
X-197381427Y-48656428D01*
X-197381427Y-48656428D02*
X-197095713Y-48656428D01*
X-197095713Y-48656428D02*
X-196952855Y-48727857D01*
X-197595713Y-49585000D02*
X-197452855Y-49656428D01*
X-197452855Y-49656428D02*
X-197095713Y-49656428D01*
X-197095713Y-49656428D02*
X-196952855Y-49585000D01*
X-196952855Y-49585000D02*
X-196881427Y-49442142D01*
X-196881427Y-49442142D02*
X-196881427Y-49299285D01*
X-196881427Y-49299285D02*
X-196952855Y-49156428D01*
X-196952855Y-49156428D02*
X-197095713Y-49085000D01*
X-197095713Y-49085000D02*
X-197452855Y-49085000D01*
X-197452855Y-49085000D02*
X-197595713Y-49013571D01*
X-199381427Y-48299285D02*
X-199452855Y-48227857D01*
X-199452855Y-48227857D02*
X-199595713Y-48156428D01*
X-199595713Y-48156428D02*
X-199952855Y-48156428D01*
X-199952855Y-48156428D02*
X-200095713Y-48227857D01*
X-200095713Y-48227857D02*
X-200167141Y-48299285D01*
X-200167141Y-48299285D02*
X-200238570Y-48442142D01*
X-200238570Y-48442142D02*
X-200238570Y-48585000D01*
X-200238570Y-48585000D02*
X-200167141Y-48799285D01*
X-200167141Y-48799285D02*
X-199309998Y-49656428D01*
X-199309998Y-49656428D02*
X-200238570Y-49656428D01*
X-201167141Y-48156428D02*
X-201309998Y-48156428D01*
X-201309998Y-48156428D02*
X-201452855Y-48227857D01*
X-201452855Y-48227857D02*
X-201524284Y-48299285D01*
X-201524284Y-48299285D02*
X-201595712Y-48442142D01*
X-201595712Y-48442142D02*
X-201667141Y-48727857D01*
X-201667141Y-48727857D02*
X-201667141Y-49085000D01*
X-201667141Y-49085000D02*
X-201595712Y-49370714D01*
X-201595712Y-49370714D02*
X-201524284Y-49513571D01*
X-201524284Y-49513571D02*
X-201452855Y-49585000D01*
X-201452855Y-49585000D02*
X-201309998Y-49656428D01*
X-201309998Y-49656428D02*
X-201167141Y-49656428D01*
X-201167141Y-49656428D02*
X-201024284Y-49585000D01*
X-201024284Y-49585000D02*
X-200952855Y-49513571D01*
X-200952855Y-49513571D02*
X-200881426Y-49370714D01*
X-200881426Y-49370714D02*
X-200809998Y-49085000D01*
X-200809998Y-49085000D02*
X-200809998Y-48727857D01*
X-200809998Y-48727857D02*
X-200881426Y-48442142D01*
X-200881426Y-48442142D02*
X-200952855Y-48299285D01*
X-200952855Y-48299285D02*
X-201024284Y-48227857D01*
X-201024284Y-48227857D02*
X-201167141Y-48156428D01*
X-202238569Y-48299285D02*
X-202309997Y-48227857D01*
X-202309997Y-48227857D02*
X-202452855Y-48156428D01*
X-202452855Y-48156428D02*
X-202809997Y-48156428D01*
X-202809997Y-48156428D02*
X-202952855Y-48227857D01*
X-202952855Y-48227857D02*
X-203024283Y-48299285D01*
X-203024283Y-48299285D02*
X-203095712Y-48442142D01*
X-203095712Y-48442142D02*
X-203095712Y-48585000D01*
X-203095712Y-48585000D02*
X-203024283Y-48799285D01*
X-203024283Y-48799285D02*
X-202167140Y-49656428D01*
X-202167140Y-49656428D02*
X-203095712Y-49656428D01*
X-203595711Y-48156428D02*
X-204524283Y-48156428D01*
X-204524283Y-48156428D02*
X-204024283Y-48727857D01*
X-204024283Y-48727857D02*
X-204238568Y-48727857D01*
X-204238568Y-48727857D02*
X-204381426Y-48799285D01*
X-204381426Y-48799285D02*
X-204452854Y-48870714D01*
X-204452854Y-48870714D02*
X-204524283Y-49013571D01*
X-204524283Y-49013571D02*
X-204524283Y-49370714D01*
X-204524283Y-49370714D02*
X-204452854Y-49513571D01*
X-204452854Y-49513571D02*
X-204381426Y-49585000D01*
X-204381426Y-49585000D02*
X-204238568Y-49656428D01*
X-204238568Y-49656428D02*
X-203809997Y-49656428D01*
X-203809997Y-49656428D02*
X-203667140Y-49585000D01*
X-203667140Y-49585000D02*
X-203595711Y-49513571D01*
X-205952854Y-49656428D02*
X-205095711Y-49656428D01*
X-205524282Y-49656428D02*
X-205524282Y-48156428D01*
X-205524282Y-48156428D02*
X-205381425Y-48370714D01*
X-205381425Y-48370714D02*
X-205238568Y-48513571D01*
X-205238568Y-48513571D02*
X-205095711Y-48585000D01*
X-206881425Y-48156428D02*
X-207024282Y-48156428D01*
X-207024282Y-48156428D02*
X-207167139Y-48227857D01*
X-207167139Y-48227857D02*
X-207238568Y-48299285D01*
X-207238568Y-48299285D02*
X-207309996Y-48442142D01*
X-207309996Y-48442142D02*
X-207381425Y-48727857D01*
X-207381425Y-48727857D02*
X-207381425Y-49085000D01*
X-207381425Y-49085000D02*
X-207309996Y-49370714D01*
X-207309996Y-49370714D02*
X-207238568Y-49513571D01*
X-207238568Y-49513571D02*
X-207167139Y-49585000D01*
X-207167139Y-49585000D02*
X-207024282Y-49656428D01*
X-207024282Y-49656428D02*
X-206881425Y-49656428D01*
X-206881425Y-49656428D02*
X-206738568Y-49585000D01*
X-206738568Y-49585000D02*
X-206667139Y-49513571D01*
X-206667139Y-49513571D02*
X-206595710Y-49370714D01*
X-206595710Y-49370714D02*
X-206524282Y-49085000D01*
X-206524282Y-49085000D02*
X-206524282Y-48727857D01*
X-206524282Y-48727857D02*
X-206595710Y-48442142D01*
X-206595710Y-48442142D02*
X-206667139Y-48299285D01*
X-206667139Y-48299285D02*
X-206738568Y-48227857D01*
X-206738568Y-48227857D02*
X-206881425Y-48156428D01*
X-208309996Y-48156428D02*
X-208452853Y-48156428D01*
X-208452853Y-48156428D02*
X-208595710Y-48227857D01*
X-208595710Y-48227857D02*
X-208667139Y-48299285D01*
X-208667139Y-48299285D02*
X-208738567Y-48442142D01*
X-208738567Y-48442142D02*
X-208809996Y-48727857D01*
X-208809996Y-48727857D02*
X-208809996Y-49085000D01*
X-208809996Y-49085000D02*
X-208738567Y-49370714D01*
X-208738567Y-49370714D02*
X-208667139Y-49513571D01*
X-208667139Y-49513571D02*
X-208595710Y-49585000D01*
X-208595710Y-49585000D02*
X-208452853Y-49656428D01*
X-208452853Y-49656428D02*
X-208309996Y-49656428D01*
X-208309996Y-49656428D02*
X-208167139Y-49585000D01*
X-208167139Y-49585000D02*
X-208095710Y-49513571D01*
X-208095710Y-49513571D02*
X-208024281Y-49370714D01*
X-208024281Y-49370714D02*
X-207952853Y-49085000D01*
X-207952853Y-49085000D02*
X-207952853Y-48727857D01*
X-207952853Y-48727857D02*
X-208024281Y-48442142D01*
X-208024281Y-48442142D02*
X-208095710Y-48299285D01*
X-208095710Y-48299285D02*
X-208167139Y-48227857D01*
X-208167139Y-48227857D02*
X-208309996Y-48156428D01*
X-209667138Y-48799285D02*
X-209524281Y-48727857D01*
X-209524281Y-48727857D02*
X-209452852Y-48656428D01*
X-209452852Y-48656428D02*
X-209381424Y-48513571D01*
X-209381424Y-48513571D02*
X-209381424Y-48442142D01*
X-209381424Y-48442142D02*
X-209452852Y-48299285D01*
X-209452852Y-48299285D02*
X-209524281Y-48227857D01*
X-209524281Y-48227857D02*
X-209667138Y-48156428D01*
X-209667138Y-48156428D02*
X-209952852Y-48156428D01*
X-209952852Y-48156428D02*
X-210095710Y-48227857D01*
X-210095710Y-48227857D02*
X-210167138Y-48299285D01*
X-210167138Y-48299285D02*
X-210238567Y-48442142D01*
X-210238567Y-48442142D02*
X-210238567Y-48513571D01*
X-210238567Y-48513571D02*
X-210167138Y-48656428D01*
X-210167138Y-48656428D02*
X-210095710Y-48727857D01*
X-210095710Y-48727857D02*
X-209952852Y-48799285D01*
X-209952852Y-48799285D02*
X-209667138Y-48799285D01*
X-209667138Y-48799285D02*
X-209524281Y-48870714D01*
X-209524281Y-48870714D02*
X-209452852Y-48942142D01*
X-209452852Y-48942142D02*
X-209381424Y-49085000D01*
X-209381424Y-49085000D02*
X-209381424Y-49370714D01*
X-209381424Y-49370714D02*
X-209452852Y-49513571D01*
X-209452852Y-49513571D02*
X-209524281Y-49585000D01*
X-209524281Y-49585000D02*
X-209667138Y-49656428D01*
X-209667138Y-49656428D02*
X-209952852Y-49656428D01*
X-209952852Y-49656428D02*
X-210095710Y-49585000D01*
X-210095710Y-49585000D02*
X-210167138Y-49513571D01*
X-210167138Y-49513571D02*
X-210238567Y-49370714D01*
X-210238567Y-49370714D02*
X-210238567Y-49085000D01*
X-210238567Y-49085000D02*
X-210167138Y-48942142D01*
X-210167138Y-48942142D02*
X-210095710Y-48870714D01*
X-210095710Y-48870714D02*
X-209952852Y-48799285D01*
D11*
X-235230686Y-58250678D02*
X-235549733Y-58250678D01*
X-235166876Y-58464964D02*
X-235390209Y-57714964D01*
X-235390209Y-57714964D02*
X-235613543Y-58464964D01*
X-235773067Y-57714964D02*
X-236187829Y-57714964D01*
X-236187829Y-57714964D02*
X-235964495Y-58000678D01*
X-235964495Y-58000678D02*
X-236060210Y-58000678D01*
X-236060210Y-58000678D02*
X-236124019Y-58036392D01*
X-236124019Y-58036392D02*
X-236155924Y-58072107D01*
X-236155924Y-58072107D02*
X-236187829Y-58143535D01*
X-236187829Y-58143535D02*
X-236187829Y-58322107D01*
X-236187829Y-58322107D02*
X-236155924Y-58393535D01*
X-236155924Y-58393535D02*
X-236124019Y-58429250D01*
X-236124019Y-58429250D02*
X-236060210Y-58464964D01*
X-236060210Y-58464964D02*
X-235868781Y-58464964D01*
X-235868781Y-58464964D02*
X-235804972Y-58429250D01*
X-235804972Y-58429250D02*
X-235773067Y-58393535D01*
X-236953543Y-57679250D02*
X-236379257Y-58643535D01*
X-237400210Y-58072107D02*
X-237176876Y-58072107D01*
X-237176876Y-58464964D02*
X-237176876Y-57714964D01*
X-237176876Y-57714964D02*
X-237495924Y-57714964D01*
X-238038305Y-57964964D02*
X-238038305Y-58464964D01*
X-237878781Y-57679250D02*
X-237719258Y-58214964D01*
X-237719258Y-58214964D02*
X-238134019Y-58214964D01*
X-236919495Y-53314964D02*
X-236696162Y-52957821D01*
X-236536638Y-53314964D02*
X-236536638Y-52564964D01*
X-236536638Y-52564964D02*
X-236791876Y-52564964D01*
X-236791876Y-52564964D02*
X-236855686Y-52600678D01*
X-236855686Y-52600678D02*
X-236887591Y-52636392D01*
X-236887591Y-52636392D02*
X-236919495Y-52707821D01*
X-236919495Y-52707821D02*
X-236919495Y-52814964D01*
X-236919495Y-52814964D02*
X-236887591Y-52886392D01*
X-236887591Y-52886392D02*
X-236855686Y-52922107D01*
X-236855686Y-52922107D02*
X-236791876Y-52957821D01*
X-236791876Y-52957821D02*
X-236536638Y-52957821D01*
X-237174734Y-53279250D02*
X-237270448Y-53314964D01*
X-237270448Y-53314964D02*
X-237429972Y-53314964D01*
X-237429972Y-53314964D02*
X-237493781Y-53279250D01*
X-237493781Y-53279250D02*
X-237525686Y-53243535D01*
X-237525686Y-53243535D02*
X-237557591Y-53172107D01*
X-237557591Y-53172107D02*
X-237557591Y-53100678D01*
X-237557591Y-53100678D02*
X-237525686Y-53029250D01*
X-237525686Y-53029250D02*
X-237493781Y-52993535D01*
X-237493781Y-52993535D02*
X-237429972Y-52957821D01*
X-237429972Y-52957821D02*
X-237302353Y-52922107D01*
X-237302353Y-52922107D02*
X-237238543Y-52886392D01*
X-237238543Y-52886392D02*
X-237206638Y-52850678D01*
X-237206638Y-52850678D02*
X-237174734Y-52779250D01*
X-237174734Y-52779250D02*
X-237174734Y-52707821D01*
X-237174734Y-52707821D02*
X-237206638Y-52636392D01*
X-237206638Y-52636392D02*
X-237238543Y-52600678D01*
X-237238543Y-52600678D02*
X-237302353Y-52564964D01*
X-237302353Y-52564964D02*
X-237461876Y-52564964D01*
X-237461876Y-52564964D02*
X-237557591Y-52600678D01*
X-237749019Y-52564964D02*
X-238131876Y-52564964D01*
X-237940448Y-53314964D02*
X-237940448Y-52564964D01*
X-226635924Y-52700678D02*
X-226572114Y-52664964D01*
X-226572114Y-52664964D02*
X-226476400Y-52664964D01*
X-226476400Y-52664964D02*
X-226380686Y-52700678D01*
X-226380686Y-52700678D02*
X-226316876Y-52772107D01*
X-226316876Y-52772107D02*
X-226284971Y-52843535D01*
X-226284971Y-52843535D02*
X-226253067Y-52986392D01*
X-226253067Y-52986392D02*
X-226253067Y-53093535D01*
X-226253067Y-53093535D02*
X-226284971Y-53236392D01*
X-226284971Y-53236392D02*
X-226316876Y-53307821D01*
X-226316876Y-53307821D02*
X-226380686Y-53379250D01*
X-226380686Y-53379250D02*
X-226476400Y-53414964D01*
X-226476400Y-53414964D02*
X-226540209Y-53414964D01*
X-226540209Y-53414964D02*
X-226635924Y-53379250D01*
X-226635924Y-53379250D02*
X-226667828Y-53343535D01*
X-226667828Y-53343535D02*
X-226667828Y-53093535D01*
X-226667828Y-53093535D02*
X-226540209Y-53093535D01*
X-226954971Y-53414964D02*
X-226954971Y-52664964D01*
X-226954971Y-52664964D02*
X-227337828Y-53414964D01*
X-227337828Y-53414964D02*
X-227337828Y-52664964D01*
X-227656876Y-53414964D02*
X-227656876Y-52664964D01*
X-227656876Y-52664964D02*
X-227816400Y-52664964D01*
X-227816400Y-52664964D02*
X-227912114Y-52700678D01*
X-227912114Y-52700678D02*
X-227975924Y-52772107D01*
X-227975924Y-52772107D02*
X-228007829Y-52843535D01*
X-228007829Y-52843535D02*
X-228039733Y-52986392D01*
X-228039733Y-52986392D02*
X-228039733Y-53093535D01*
X-228039733Y-53093535D02*
X-228007829Y-53236392D01*
X-228007829Y-53236392D02*
X-227975924Y-53307821D01*
X-227975924Y-53307821D02*
X-227912114Y-53379250D01*
X-227912114Y-53379250D02*
X-227816400Y-53414964D01*
X-227816400Y-53414964D02*
X-227656876Y-53414964D01*
X-226116876Y-68514964D02*
X-226116876Y-67764964D01*
X-226116876Y-67764964D02*
X-226276400Y-67764964D01*
X-226276400Y-67764964D02*
X-226372114Y-67800678D01*
X-226372114Y-67800678D02*
X-226435924Y-67872107D01*
X-226435924Y-67872107D02*
X-226467829Y-67943535D01*
X-226467829Y-67943535D02*
X-226499733Y-68086392D01*
X-226499733Y-68086392D02*
X-226499733Y-68193535D01*
X-226499733Y-68193535D02*
X-226467829Y-68336392D01*
X-226467829Y-68336392D02*
X-226435924Y-68407821D01*
X-226435924Y-68407821D02*
X-226372114Y-68479250D01*
X-226372114Y-68479250D02*
X-226276400Y-68514964D01*
X-226276400Y-68514964D02*
X-226116876Y-68514964D01*
X-226723067Y-67764964D02*
X-227169733Y-67764964D01*
X-227169733Y-67764964D02*
X-226882591Y-68514964D01*
X-227903543Y-67729250D02*
X-227329257Y-68693535D01*
X-228414019Y-67764964D02*
X-228286400Y-67764964D01*
X-228286400Y-67764964D02*
X-228222591Y-67800678D01*
X-228222591Y-67800678D02*
X-228190686Y-67836392D01*
X-228190686Y-67836392D02*
X-228126876Y-67943535D01*
X-228126876Y-67943535D02*
X-228094972Y-68086392D01*
X-228094972Y-68086392D02*
X-228094972Y-68372107D01*
X-228094972Y-68372107D02*
X-228126876Y-68443535D01*
X-228126876Y-68443535D02*
X-228158781Y-68479250D01*
X-228158781Y-68479250D02*
X-228222591Y-68514964D01*
X-228222591Y-68514964D02*
X-228350210Y-68514964D01*
X-228350210Y-68514964D02*
X-228414019Y-68479250D01*
X-228414019Y-68479250D02*
X-228445924Y-68443535D01*
X-228445924Y-68443535D02*
X-228477829Y-68372107D01*
X-228477829Y-68372107D02*
X-228477829Y-68193535D01*
X-228477829Y-68193535D02*
X-228445924Y-68122107D01*
X-228445924Y-68122107D02*
X-228414019Y-68086392D01*
X-228414019Y-68086392D02*
X-228350210Y-68050678D01*
X-228350210Y-68050678D02*
X-228222591Y-68050678D01*
X-228222591Y-68050678D02*
X-228158781Y-68086392D01*
X-228158781Y-68086392D02*
X-228126876Y-68122107D01*
X-228126876Y-68122107D02*
X-228094972Y-68193535D01*
X-226635924Y-55150678D02*
X-226572114Y-55114964D01*
X-226572114Y-55114964D02*
X-226476400Y-55114964D01*
X-226476400Y-55114964D02*
X-226380686Y-55150678D01*
X-226380686Y-55150678D02*
X-226316876Y-55222107D01*
X-226316876Y-55222107D02*
X-226284971Y-55293535D01*
X-226284971Y-55293535D02*
X-226253067Y-55436392D01*
X-226253067Y-55436392D02*
X-226253067Y-55543535D01*
X-226253067Y-55543535D02*
X-226284971Y-55686392D01*
X-226284971Y-55686392D02*
X-226316876Y-55757821D01*
X-226316876Y-55757821D02*
X-226380686Y-55829250D01*
X-226380686Y-55829250D02*
X-226476400Y-55864964D01*
X-226476400Y-55864964D02*
X-226540209Y-55864964D01*
X-226540209Y-55864964D02*
X-226635924Y-55829250D01*
X-226635924Y-55829250D02*
X-226667828Y-55793535D01*
X-226667828Y-55793535D02*
X-226667828Y-55543535D01*
X-226667828Y-55543535D02*
X-226540209Y-55543535D01*
X-226954971Y-55864964D02*
X-226954971Y-55114964D01*
X-226954971Y-55114964D02*
X-227337828Y-55864964D01*
X-227337828Y-55864964D02*
X-227337828Y-55114964D01*
X-227656876Y-55864964D02*
X-227656876Y-55114964D01*
X-227656876Y-55114964D02*
X-227816400Y-55114964D01*
X-227816400Y-55114964D02*
X-227912114Y-55150678D01*
X-227912114Y-55150678D02*
X-227975924Y-55222107D01*
X-227975924Y-55222107D02*
X-228007829Y-55293535D01*
X-228007829Y-55293535D02*
X-228039733Y-55436392D01*
X-228039733Y-55436392D02*
X-228039733Y-55543535D01*
X-228039733Y-55543535D02*
X-228007829Y-55686392D01*
X-228007829Y-55686392D02*
X-227975924Y-55757821D01*
X-227975924Y-55757821D02*
X-227912114Y-55829250D01*
X-227912114Y-55829250D02*
X-227816400Y-55864964D01*
X-227816400Y-55864964D02*
X-227656876Y-55864964D01*
X-226116876Y-63414964D02*
X-226116876Y-62664964D01*
X-226116876Y-62664964D02*
X-226276400Y-62664964D01*
X-226276400Y-62664964D02*
X-226372114Y-62700678D01*
X-226372114Y-62700678D02*
X-226435924Y-62772107D01*
X-226435924Y-62772107D02*
X-226467829Y-62843535D01*
X-226467829Y-62843535D02*
X-226499733Y-62986392D01*
X-226499733Y-62986392D02*
X-226499733Y-63093535D01*
X-226499733Y-63093535D02*
X-226467829Y-63236392D01*
X-226467829Y-63236392D02*
X-226435924Y-63307821D01*
X-226435924Y-63307821D02*
X-226372114Y-63379250D01*
X-226372114Y-63379250D02*
X-226276400Y-63414964D01*
X-226276400Y-63414964D02*
X-226116876Y-63414964D01*
X-227074019Y-62914964D02*
X-227074019Y-63414964D01*
X-226914495Y-62629250D02*
X-226754972Y-63164964D01*
X-226754972Y-63164964D02*
X-227169733Y-63164964D01*
X-227903543Y-62629250D02*
X-227329257Y-63593535D01*
X-228414019Y-62914964D02*
X-228414019Y-63414964D01*
X-228254495Y-62629250D02*
X-228094972Y-63164964D01*
X-228094972Y-63164964D02*
X-228509733Y-63164964D01*
X-226499733Y-65893535D02*
X-226467829Y-65929250D01*
X-226467829Y-65929250D02*
X-226372114Y-65964964D01*
X-226372114Y-65964964D02*
X-226308305Y-65964964D01*
X-226308305Y-65964964D02*
X-226212591Y-65929250D01*
X-226212591Y-65929250D02*
X-226148781Y-65857821D01*
X-226148781Y-65857821D02*
X-226116876Y-65786392D01*
X-226116876Y-65786392D02*
X-226084972Y-65643535D01*
X-226084972Y-65643535D02*
X-226084972Y-65536392D01*
X-226084972Y-65536392D02*
X-226116876Y-65393535D01*
X-226116876Y-65393535D02*
X-226148781Y-65322107D01*
X-226148781Y-65322107D02*
X-226212591Y-65250678D01*
X-226212591Y-65250678D02*
X-226308305Y-65214964D01*
X-226308305Y-65214964D02*
X-226372114Y-65214964D01*
X-226372114Y-65214964D02*
X-226467829Y-65250678D01*
X-226467829Y-65250678D02*
X-226499733Y-65286392D01*
X-227074019Y-65214964D02*
X-226946400Y-65214964D01*
X-226946400Y-65214964D02*
X-226882591Y-65250678D01*
X-226882591Y-65250678D02*
X-226850686Y-65286392D01*
X-226850686Y-65286392D02*
X-226786876Y-65393535D01*
X-226786876Y-65393535D02*
X-226754972Y-65536392D01*
X-226754972Y-65536392D02*
X-226754972Y-65822107D01*
X-226754972Y-65822107D02*
X-226786876Y-65893535D01*
X-226786876Y-65893535D02*
X-226818781Y-65929250D01*
X-226818781Y-65929250D02*
X-226882591Y-65964964D01*
X-226882591Y-65964964D02*
X-227010210Y-65964964D01*
X-227010210Y-65964964D02*
X-227074019Y-65929250D01*
X-227074019Y-65929250D02*
X-227105924Y-65893535D01*
X-227105924Y-65893535D02*
X-227137829Y-65822107D01*
X-227137829Y-65822107D02*
X-227137829Y-65643535D01*
X-227137829Y-65643535D02*
X-227105924Y-65572107D01*
X-227105924Y-65572107D02*
X-227074019Y-65536392D01*
X-227074019Y-65536392D02*
X-227010210Y-65500678D01*
X-227010210Y-65500678D02*
X-226882591Y-65500678D01*
X-226882591Y-65500678D02*
X-226818781Y-65536392D01*
X-226818781Y-65536392D02*
X-226786876Y-65572107D01*
X-226786876Y-65572107D02*
X-226754972Y-65643535D01*
X-227903543Y-65179250D02*
X-227329257Y-66143535D01*
X-228445924Y-65214964D02*
X-228126876Y-65214964D01*
X-228126876Y-65214964D02*
X-228094972Y-65572107D01*
X-228094972Y-65572107D02*
X-228126876Y-65536392D01*
X-228126876Y-65536392D02*
X-228190686Y-65500678D01*
X-228190686Y-65500678D02*
X-228350210Y-65500678D01*
X-228350210Y-65500678D02*
X-228414019Y-65536392D01*
X-228414019Y-65536392D02*
X-228445924Y-65572107D01*
X-228445924Y-65572107D02*
X-228477829Y-65643535D01*
X-228477829Y-65643535D02*
X-228477829Y-65822107D01*
X-228477829Y-65822107D02*
X-228445924Y-65893535D01*
X-228445924Y-65893535D02*
X-228414019Y-65929250D01*
X-228414019Y-65929250D02*
X-228350210Y-65964964D01*
X-228350210Y-65964964D02*
X-228190686Y-65964964D01*
X-228190686Y-65964964D02*
X-228126876Y-65929250D01*
X-228126876Y-65929250D02*
X-228094972Y-65893535D01*
X-226635924Y-45080678D02*
X-226572114Y-45044964D01*
X-226572114Y-45044964D02*
X-226476400Y-45044964D01*
X-226476400Y-45044964D02*
X-226380686Y-45080678D01*
X-226380686Y-45080678D02*
X-226316876Y-45152107D01*
X-226316876Y-45152107D02*
X-226284971Y-45223535D01*
X-226284971Y-45223535D02*
X-226253067Y-45366392D01*
X-226253067Y-45366392D02*
X-226253067Y-45473535D01*
X-226253067Y-45473535D02*
X-226284971Y-45616392D01*
X-226284971Y-45616392D02*
X-226316876Y-45687821D01*
X-226316876Y-45687821D02*
X-226380686Y-45759250D01*
X-226380686Y-45759250D02*
X-226476400Y-45794964D01*
X-226476400Y-45794964D02*
X-226540209Y-45794964D01*
X-226540209Y-45794964D02*
X-226635924Y-45759250D01*
X-226635924Y-45759250D02*
X-226667828Y-45723535D01*
X-226667828Y-45723535D02*
X-226667828Y-45473535D01*
X-226667828Y-45473535D02*
X-226540209Y-45473535D01*
X-226954971Y-45794964D02*
X-226954971Y-45044964D01*
X-226954971Y-45044964D02*
X-227337828Y-45794964D01*
X-227337828Y-45794964D02*
X-227337828Y-45044964D01*
X-227656876Y-45794964D02*
X-227656876Y-45044964D01*
X-227656876Y-45044964D02*
X-227816400Y-45044964D01*
X-227816400Y-45044964D02*
X-227912114Y-45080678D01*
X-227912114Y-45080678D02*
X-227975924Y-45152107D01*
X-227975924Y-45152107D02*
X-228007829Y-45223535D01*
X-228007829Y-45223535D02*
X-228039733Y-45366392D01*
X-228039733Y-45366392D02*
X-228039733Y-45473535D01*
X-228039733Y-45473535D02*
X-228007829Y-45616392D01*
X-228007829Y-45616392D02*
X-227975924Y-45687821D01*
X-227975924Y-45687821D02*
X-227912114Y-45759250D01*
X-227912114Y-45759250D02*
X-227816400Y-45794964D01*
X-227816400Y-45794964D02*
X-227656876Y-45794964D01*
X-226198781Y-60979250D02*
X-226294495Y-61014964D01*
X-226294495Y-61014964D02*
X-226454019Y-61014964D01*
X-226454019Y-61014964D02*
X-226517828Y-60979250D01*
X-226517828Y-60979250D02*
X-226549733Y-60943535D01*
X-226549733Y-60943535D02*
X-226581638Y-60872107D01*
X-226581638Y-60872107D02*
X-226581638Y-60800678D01*
X-226581638Y-60800678D02*
X-226549733Y-60729250D01*
X-226549733Y-60729250D02*
X-226517828Y-60693535D01*
X-226517828Y-60693535D02*
X-226454019Y-60657821D01*
X-226454019Y-60657821D02*
X-226326400Y-60622107D01*
X-226326400Y-60622107D02*
X-226262590Y-60586392D01*
X-226262590Y-60586392D02*
X-226230685Y-60550678D01*
X-226230685Y-60550678D02*
X-226198781Y-60479250D01*
X-226198781Y-60479250D02*
X-226198781Y-60407821D01*
X-226198781Y-60407821D02*
X-226230685Y-60336392D01*
X-226230685Y-60336392D02*
X-226262590Y-60300678D01*
X-226262590Y-60300678D02*
X-226326400Y-60264964D01*
X-226326400Y-60264964D02*
X-226485923Y-60264964D01*
X-226485923Y-60264964D02*
X-226581638Y-60300678D01*
X-227251637Y-60943535D02*
X-227219733Y-60979250D01*
X-227219733Y-60979250D02*
X-227124018Y-61014964D01*
X-227124018Y-61014964D02*
X-227060209Y-61014964D01*
X-227060209Y-61014964D02*
X-226964495Y-60979250D01*
X-226964495Y-60979250D02*
X-226900685Y-60907821D01*
X-226900685Y-60907821D02*
X-226868780Y-60836392D01*
X-226868780Y-60836392D02*
X-226836876Y-60693535D01*
X-226836876Y-60693535D02*
X-226836876Y-60586392D01*
X-226836876Y-60586392D02*
X-226868780Y-60443535D01*
X-226868780Y-60443535D02*
X-226900685Y-60372107D01*
X-226900685Y-60372107D02*
X-226964495Y-60300678D01*
X-226964495Y-60300678D02*
X-227060209Y-60264964D01*
X-227060209Y-60264964D02*
X-227124018Y-60264964D01*
X-227124018Y-60264964D02*
X-227219733Y-60300678D01*
X-227219733Y-60300678D02*
X-227251637Y-60336392D01*
X-227857828Y-61014964D02*
X-227538780Y-61014964D01*
X-227538780Y-61014964D02*
X-227538780Y-60264964D01*
X-228559733Y-60229250D02*
X-227985447Y-61193535D01*
X-228783066Y-61014964D02*
X-228783066Y-60264964D01*
X-228783066Y-60264964D02*
X-228942590Y-60264964D01*
X-228942590Y-60264964D02*
X-229038304Y-60300678D01*
X-229038304Y-60300678D02*
X-229102114Y-60372107D01*
X-229102114Y-60372107D02*
X-229134019Y-60443535D01*
X-229134019Y-60443535D02*
X-229165923Y-60586392D01*
X-229165923Y-60586392D02*
X-229165923Y-60693535D01*
X-229165923Y-60693535D02*
X-229134019Y-60836392D01*
X-229134019Y-60836392D02*
X-229102114Y-60907821D01*
X-229102114Y-60907821D02*
X-229038304Y-60979250D01*
X-229038304Y-60979250D02*
X-228942590Y-61014964D01*
X-228942590Y-61014964D02*
X-228783066Y-61014964D01*
X-229580685Y-60264964D02*
X-229644495Y-60264964D01*
X-229644495Y-60264964D02*
X-229708304Y-60300678D01*
X-229708304Y-60300678D02*
X-229740209Y-60336392D01*
X-229740209Y-60336392D02*
X-229772114Y-60407821D01*
X-229772114Y-60407821D02*
X-229804019Y-60550678D01*
X-229804019Y-60550678D02*
X-229804019Y-60729250D01*
X-229804019Y-60729250D02*
X-229772114Y-60872107D01*
X-229772114Y-60872107D02*
X-229740209Y-60943535D01*
X-229740209Y-60943535D02*
X-229708304Y-60979250D01*
X-229708304Y-60979250D02*
X-229644495Y-61014964D01*
X-229644495Y-61014964D02*
X-229580685Y-61014964D01*
X-229580685Y-61014964D02*
X-229516876Y-60979250D01*
X-229516876Y-60979250D02*
X-229484971Y-60943535D01*
X-229484971Y-60943535D02*
X-229453066Y-60872107D01*
X-229453066Y-60872107D02*
X-229421162Y-60729250D01*
X-229421162Y-60729250D02*
X-229421162Y-60550678D01*
X-229421162Y-60550678D02*
X-229453066Y-60407821D01*
X-229453066Y-60407821D02*
X-229484971Y-60336392D01*
X-229484971Y-60336392D02*
X-229516876Y-60300678D01*
X-229516876Y-60300678D02*
X-229580685Y-60264964D01*
X-230569733Y-60229250D02*
X-229995447Y-61193535D01*
X-230729257Y-60264964D02*
X-231144019Y-60264964D01*
X-231144019Y-60264964D02*
X-230920685Y-60550678D01*
X-230920685Y-60550678D02*
X-231016400Y-60550678D01*
X-231016400Y-60550678D02*
X-231080209Y-60586392D01*
X-231080209Y-60586392D02*
X-231112114Y-60622107D01*
X-231112114Y-60622107D02*
X-231144019Y-60693535D01*
X-231144019Y-60693535D02*
X-231144019Y-60872107D01*
X-231144019Y-60872107D02*
X-231112114Y-60943535D01*
X-231112114Y-60943535D02*
X-231080209Y-60979250D01*
X-231080209Y-60979250D02*
X-231016400Y-61014964D01*
X-231016400Y-61014964D02*
X-230824971Y-61014964D01*
X-230824971Y-61014964D02*
X-230761162Y-60979250D01*
X-230761162Y-60979250D02*
X-230729257Y-60943535D01*
X-226148781Y-70672107D02*
X-226372115Y-70672107D01*
X-226467829Y-71064964D02*
X-226148781Y-71064964D01*
X-226148781Y-71064964D02*
X-226148781Y-70314964D01*
X-226148781Y-70314964D02*
X-226467829Y-70314964D01*
X-227042114Y-70314964D02*
X-226914495Y-70314964D01*
X-226914495Y-70314964D02*
X-226850686Y-70350678D01*
X-226850686Y-70350678D02*
X-226818781Y-70386392D01*
X-226818781Y-70386392D02*
X-226754971Y-70493535D01*
X-226754971Y-70493535D02*
X-226723067Y-70636392D01*
X-226723067Y-70636392D02*
X-226723067Y-70922107D01*
X-226723067Y-70922107D02*
X-226754971Y-70993535D01*
X-226754971Y-70993535D02*
X-226786876Y-71029250D01*
X-226786876Y-71029250D02*
X-226850686Y-71064964D01*
X-226850686Y-71064964D02*
X-226978305Y-71064964D01*
X-226978305Y-71064964D02*
X-227042114Y-71029250D01*
X-227042114Y-71029250D02*
X-227074019Y-70993535D01*
X-227074019Y-70993535D02*
X-227105924Y-70922107D01*
X-227105924Y-70922107D02*
X-227105924Y-70743535D01*
X-227105924Y-70743535D02*
X-227074019Y-70672107D01*
X-227074019Y-70672107D02*
X-227042114Y-70636392D01*
X-227042114Y-70636392D02*
X-226978305Y-70600678D01*
X-226978305Y-70600678D02*
X-226850686Y-70600678D01*
X-226850686Y-70600678D02*
X-226786876Y-70636392D01*
X-226786876Y-70636392D02*
X-226754971Y-70672107D01*
X-226754971Y-70672107D02*
X-226723067Y-70743535D01*
X-227871638Y-70279250D02*
X-227297352Y-71243535D01*
X-228031162Y-70314964D02*
X-228477828Y-70314964D01*
X-228477828Y-70314964D02*
X-228190686Y-71064964D01*
X-235533781Y-76164964D02*
X-235150924Y-76164964D01*
X-235342352Y-76164964D02*
X-235342352Y-75414964D01*
X-235342352Y-75414964D02*
X-235278543Y-75522107D01*
X-235278543Y-75522107D02*
X-235214733Y-75593535D01*
X-235214733Y-75593535D02*
X-235150924Y-75629250D01*
X-235948542Y-75414964D02*
X-236012352Y-75414964D01*
X-236012352Y-75414964D02*
X-236076161Y-75450678D01*
X-236076161Y-75450678D02*
X-236108066Y-75486392D01*
X-236108066Y-75486392D02*
X-236139971Y-75557821D01*
X-236139971Y-75557821D02*
X-236171876Y-75700678D01*
X-236171876Y-75700678D02*
X-236171876Y-75879250D01*
X-236171876Y-75879250D02*
X-236139971Y-76022107D01*
X-236139971Y-76022107D02*
X-236108066Y-76093535D01*
X-236108066Y-76093535D02*
X-236076161Y-76129250D01*
X-236076161Y-76129250D02*
X-236012352Y-76164964D01*
X-236012352Y-76164964D02*
X-235948542Y-76164964D01*
X-235948542Y-76164964D02*
X-235884733Y-76129250D01*
X-235884733Y-76129250D02*
X-235852828Y-76093535D01*
X-235852828Y-76093535D02*
X-235820923Y-76022107D01*
X-235820923Y-76022107D02*
X-235789019Y-75879250D01*
X-235789019Y-75879250D02*
X-235789019Y-75700678D01*
X-235789019Y-75700678D02*
X-235820923Y-75557821D01*
X-235820923Y-75557821D02*
X-235852828Y-75486392D01*
X-235852828Y-75486392D02*
X-235884733Y-75450678D01*
X-235884733Y-75450678D02*
X-235948542Y-75414964D01*
X-236937590Y-75379250D02*
X-236363304Y-76343535D01*
X-237384257Y-75772107D02*
X-237479971Y-75807821D01*
X-237479971Y-75807821D02*
X-237511876Y-75843535D01*
X-237511876Y-75843535D02*
X-237543780Y-75914964D01*
X-237543780Y-75914964D02*
X-237543780Y-76022107D01*
X-237543780Y-76022107D02*
X-237511876Y-76093535D01*
X-237511876Y-76093535D02*
X-237479971Y-76129250D01*
X-237479971Y-76129250D02*
X-237416161Y-76164964D01*
X-237416161Y-76164964D02*
X-237160923Y-76164964D01*
X-237160923Y-76164964D02*
X-237160923Y-75414964D01*
X-237160923Y-75414964D02*
X-237384257Y-75414964D01*
X-237384257Y-75414964D02*
X-237448066Y-75450678D01*
X-237448066Y-75450678D02*
X-237479971Y-75486392D01*
X-237479971Y-75486392D02*
X-237511876Y-75557821D01*
X-237511876Y-75557821D02*
X-237511876Y-75629250D01*
X-237511876Y-75629250D02*
X-237479971Y-75700678D01*
X-237479971Y-75700678D02*
X-237448066Y-75736392D01*
X-237448066Y-75736392D02*
X-237384257Y-75772107D01*
X-237384257Y-75772107D02*
X-237160923Y-75772107D01*
X-238118066Y-75414964D02*
X-237990447Y-75414964D01*
X-237990447Y-75414964D02*
X-237926638Y-75450678D01*
X-237926638Y-75450678D02*
X-237894733Y-75486392D01*
X-237894733Y-75486392D02*
X-237830923Y-75593535D01*
X-237830923Y-75593535D02*
X-237799019Y-75736392D01*
X-237799019Y-75736392D02*
X-237799019Y-76022107D01*
X-237799019Y-76022107D02*
X-237830923Y-76093535D01*
X-237830923Y-76093535D02*
X-237862828Y-76129250D01*
X-237862828Y-76129250D02*
X-237926638Y-76164964D01*
X-237926638Y-76164964D02*
X-238054257Y-76164964D01*
X-238054257Y-76164964D02*
X-238118066Y-76129250D01*
X-238118066Y-76129250D02*
X-238149971Y-76093535D01*
X-238149971Y-76093535D02*
X-238181876Y-76022107D01*
X-238181876Y-76022107D02*
X-238181876Y-75843535D01*
X-238181876Y-75843535D02*
X-238149971Y-75772107D01*
X-238149971Y-75772107D02*
X-238118066Y-75736392D01*
X-238118066Y-75736392D02*
X-238054257Y-75700678D01*
X-238054257Y-75700678D02*
X-237926638Y-75700678D01*
X-237926638Y-75700678D02*
X-237862828Y-75736392D01*
X-237862828Y-75736392D02*
X-237830923Y-75772107D01*
X-237830923Y-75772107D02*
X-237799019Y-75843535D01*
X-236775924Y-50050678D02*
X-236712114Y-50014964D01*
X-236712114Y-50014964D02*
X-236616400Y-50014964D01*
X-236616400Y-50014964D02*
X-236520686Y-50050678D01*
X-236520686Y-50050678D02*
X-236456876Y-50122107D01*
X-236456876Y-50122107D02*
X-236424971Y-50193535D01*
X-236424971Y-50193535D02*
X-236393067Y-50336392D01*
X-236393067Y-50336392D02*
X-236393067Y-50443535D01*
X-236393067Y-50443535D02*
X-236424971Y-50586392D01*
X-236424971Y-50586392D02*
X-236456876Y-50657821D01*
X-236456876Y-50657821D02*
X-236520686Y-50729250D01*
X-236520686Y-50729250D02*
X-236616400Y-50764964D01*
X-236616400Y-50764964D02*
X-236680209Y-50764964D01*
X-236680209Y-50764964D02*
X-236775924Y-50729250D01*
X-236775924Y-50729250D02*
X-236807828Y-50693535D01*
X-236807828Y-50693535D02*
X-236807828Y-50443535D01*
X-236807828Y-50443535D02*
X-236680209Y-50443535D01*
X-237094971Y-50764964D02*
X-237094971Y-50014964D01*
X-237094971Y-50014964D02*
X-237477828Y-50764964D01*
X-237477828Y-50764964D02*
X-237477828Y-50014964D01*
X-237796876Y-50764964D02*
X-237796876Y-50014964D01*
X-237796876Y-50014964D02*
X-237956400Y-50014964D01*
X-237956400Y-50014964D02*
X-238052114Y-50050678D01*
X-238052114Y-50050678D02*
X-238115924Y-50122107D01*
X-238115924Y-50122107D02*
X-238147829Y-50193535D01*
X-238147829Y-50193535D02*
X-238179733Y-50336392D01*
X-238179733Y-50336392D02*
X-238179733Y-50443535D01*
X-238179733Y-50443535D02*
X-238147829Y-50586392D01*
X-238147829Y-50586392D02*
X-238115924Y-50657821D01*
X-238115924Y-50657821D02*
X-238052114Y-50729250D01*
X-238052114Y-50729250D02*
X-237956400Y-50764964D01*
X-237956400Y-50764964D02*
X-237796876Y-50764964D01*
X-226362590Y-48264964D02*
X-226362590Y-47514964D01*
X-226362590Y-47514964D02*
X-226522114Y-47514964D01*
X-226522114Y-47514964D02*
X-226617828Y-47550678D01*
X-226617828Y-47550678D02*
X-226681638Y-47622107D01*
X-226681638Y-47622107D02*
X-226713543Y-47693535D01*
X-226713543Y-47693535D02*
X-226745447Y-47836392D01*
X-226745447Y-47836392D02*
X-226745447Y-47943535D01*
X-226745447Y-47943535D02*
X-226713543Y-48086392D01*
X-226713543Y-48086392D02*
X-226681638Y-48157821D01*
X-226681638Y-48157821D02*
X-226617828Y-48229250D01*
X-226617828Y-48229250D02*
X-226522114Y-48264964D01*
X-226522114Y-48264964D02*
X-226362590Y-48264964D01*
X-226968781Y-47514964D02*
X-227383543Y-47514964D01*
X-227383543Y-47514964D02*
X-227160209Y-47800678D01*
X-227160209Y-47800678D02*
X-227255924Y-47800678D01*
X-227255924Y-47800678D02*
X-227319733Y-47836392D01*
X-227319733Y-47836392D02*
X-227351638Y-47872107D01*
X-227351638Y-47872107D02*
X-227383543Y-47943535D01*
X-227383543Y-47943535D02*
X-227383543Y-48122107D01*
X-227383543Y-48122107D02*
X-227351638Y-48193535D01*
X-227351638Y-48193535D02*
X-227319733Y-48229250D01*
X-227319733Y-48229250D02*
X-227255924Y-48264964D01*
X-227255924Y-48264964D02*
X-227064495Y-48264964D01*
X-227064495Y-48264964D02*
X-227000686Y-48229250D01*
X-227000686Y-48229250D02*
X-226968781Y-48193535D01*
X-228149257Y-47479250D02*
X-227574971Y-48443535D01*
X-228276876Y-47514964D02*
X-228659733Y-47514964D01*
X-228468305Y-48264964D02*
X-228468305Y-47514964D01*
X-228819257Y-47514964D02*
X-229265923Y-48264964D01*
X-229265923Y-47514964D02*
X-228819257Y-48264964D01*
X-229648780Y-47514964D02*
X-229712590Y-47514964D01*
X-229712590Y-47514964D02*
X-229776399Y-47550678D01*
X-229776399Y-47550678D02*
X-229808304Y-47586392D01*
X-229808304Y-47586392D02*
X-229840209Y-47657821D01*
X-229840209Y-47657821D02*
X-229872114Y-47800678D01*
X-229872114Y-47800678D02*
X-229872114Y-47979250D01*
X-229872114Y-47979250D02*
X-229840209Y-48122107D01*
X-229840209Y-48122107D02*
X-229808304Y-48193535D01*
X-229808304Y-48193535D02*
X-229776399Y-48229250D01*
X-229776399Y-48229250D02*
X-229712590Y-48264964D01*
X-229712590Y-48264964D02*
X-229648780Y-48264964D01*
X-229648780Y-48264964D02*
X-229584971Y-48229250D01*
X-229584971Y-48229250D02*
X-229553066Y-48193535D01*
X-229553066Y-48193535D02*
X-229521161Y-48122107D01*
X-229521161Y-48122107D02*
X-229489257Y-47979250D01*
X-229489257Y-47979250D02*
X-229489257Y-47800678D01*
X-229489257Y-47800678D02*
X-229521161Y-47657821D01*
X-229521161Y-47657821D02*
X-229553066Y-47586392D01*
X-229553066Y-47586392D02*
X-229584971Y-47550678D01*
X-229584971Y-47550678D02*
X-229648780Y-47514964D01*
X-236393066Y-55014964D02*
X-236616399Y-55764964D01*
X-236616399Y-55764964D02*
X-236839733Y-55014964D01*
X-237445923Y-55693535D02*
X-237414019Y-55729250D01*
X-237414019Y-55729250D02*
X-237318304Y-55764964D01*
X-237318304Y-55764964D02*
X-237254495Y-55764964D01*
X-237254495Y-55764964D02*
X-237158781Y-55729250D01*
X-237158781Y-55729250D02*
X-237094971Y-55657821D01*
X-237094971Y-55657821D02*
X-237063066Y-55586392D01*
X-237063066Y-55586392D02*
X-237031162Y-55443535D01*
X-237031162Y-55443535D02*
X-237031162Y-55336392D01*
X-237031162Y-55336392D02*
X-237063066Y-55193535D01*
X-237063066Y-55193535D02*
X-237094971Y-55122107D01*
X-237094971Y-55122107D02*
X-237158781Y-55050678D01*
X-237158781Y-55050678D02*
X-237254495Y-55014964D01*
X-237254495Y-55014964D02*
X-237318304Y-55014964D01*
X-237318304Y-55014964D02*
X-237414019Y-55050678D01*
X-237414019Y-55050678D02*
X-237445923Y-55086392D01*
X-238115923Y-55693535D02*
X-238084019Y-55729250D01*
X-238084019Y-55729250D02*
X-237988304Y-55764964D01*
X-237988304Y-55764964D02*
X-237924495Y-55764964D01*
X-237924495Y-55764964D02*
X-237828781Y-55729250D01*
X-237828781Y-55729250D02*
X-237764971Y-55657821D01*
X-237764971Y-55657821D02*
X-237733066Y-55586392D01*
X-237733066Y-55586392D02*
X-237701162Y-55443535D01*
X-237701162Y-55443535D02*
X-237701162Y-55336392D01*
X-237701162Y-55336392D02*
X-237733066Y-55193535D01*
X-237733066Y-55193535D02*
X-237764971Y-55122107D01*
X-237764971Y-55122107D02*
X-237828781Y-55050678D01*
X-237828781Y-55050678D02*
X-237924495Y-55014964D01*
X-237924495Y-55014964D02*
X-237988304Y-55014964D01*
X-237988304Y-55014964D02*
X-238084019Y-55050678D01*
X-238084019Y-55050678D02*
X-238115923Y-55086392D01*
X-235230686Y-60750678D02*
X-235549733Y-60750678D01*
X-235166876Y-60964964D02*
X-235390209Y-60214964D01*
X-235390209Y-60214964D02*
X-235613543Y-60964964D01*
X-235804972Y-60286392D02*
X-235836876Y-60250678D01*
X-235836876Y-60250678D02*
X-235900686Y-60214964D01*
X-235900686Y-60214964D02*
X-236060210Y-60214964D01*
X-236060210Y-60214964D02*
X-236124019Y-60250678D01*
X-236124019Y-60250678D02*
X-236155924Y-60286392D01*
X-236155924Y-60286392D02*
X-236187829Y-60357821D01*
X-236187829Y-60357821D02*
X-236187829Y-60429250D01*
X-236187829Y-60429250D02*
X-236155924Y-60536392D01*
X-236155924Y-60536392D02*
X-235773067Y-60964964D01*
X-235773067Y-60964964D02*
X-236187829Y-60964964D01*
X-236953543Y-60179250D02*
X-236379257Y-61143535D01*
X-237400210Y-60572107D02*
X-237176876Y-60572107D01*
X-237176876Y-60964964D02*
X-237176876Y-60214964D01*
X-237176876Y-60214964D02*
X-237495924Y-60214964D01*
X-238070210Y-60214964D02*
X-237751162Y-60214964D01*
X-237751162Y-60214964D02*
X-237719258Y-60572107D01*
X-237719258Y-60572107D02*
X-237751162Y-60536392D01*
X-237751162Y-60536392D02*
X-237814972Y-60500678D01*
X-237814972Y-60500678D02*
X-237974496Y-60500678D01*
X-237974496Y-60500678D02*
X-238038305Y-60536392D01*
X-238038305Y-60536392D02*
X-238070210Y-60572107D01*
X-238070210Y-60572107D02*
X-238102115Y-60643535D01*
X-238102115Y-60643535D02*
X-238102115Y-60822107D01*
X-238102115Y-60822107D02*
X-238070210Y-60893535D01*
X-238070210Y-60893535D02*
X-238038305Y-60929250D01*
X-238038305Y-60929250D02*
X-237974496Y-60964964D01*
X-237974496Y-60964964D02*
X-237814972Y-60964964D01*
X-237814972Y-60964964D02*
X-237751162Y-60929250D01*
X-237751162Y-60929250D02*
X-237719258Y-60893535D01*
X-235230686Y-65800678D02*
X-235549733Y-65800678D01*
X-235166876Y-66014964D02*
X-235390209Y-65264964D01*
X-235390209Y-65264964D02*
X-235613543Y-66014964D01*
X-235964495Y-65264964D02*
X-236028305Y-65264964D01*
X-236028305Y-65264964D02*
X-236092114Y-65300678D01*
X-236092114Y-65300678D02*
X-236124019Y-65336392D01*
X-236124019Y-65336392D02*
X-236155924Y-65407821D01*
X-236155924Y-65407821D02*
X-236187829Y-65550678D01*
X-236187829Y-65550678D02*
X-236187829Y-65729250D01*
X-236187829Y-65729250D02*
X-236155924Y-65872107D01*
X-236155924Y-65872107D02*
X-236124019Y-65943535D01*
X-236124019Y-65943535D02*
X-236092114Y-65979250D01*
X-236092114Y-65979250D02*
X-236028305Y-66014964D01*
X-236028305Y-66014964D02*
X-235964495Y-66014964D01*
X-235964495Y-66014964D02*
X-235900686Y-65979250D01*
X-235900686Y-65979250D02*
X-235868781Y-65943535D01*
X-235868781Y-65943535D02*
X-235836876Y-65872107D01*
X-235836876Y-65872107D02*
X-235804972Y-65729250D01*
X-235804972Y-65729250D02*
X-235804972Y-65550678D01*
X-235804972Y-65550678D02*
X-235836876Y-65407821D01*
X-235836876Y-65407821D02*
X-235868781Y-65336392D01*
X-235868781Y-65336392D02*
X-235900686Y-65300678D01*
X-235900686Y-65300678D02*
X-235964495Y-65264964D01*
X-236953543Y-65229250D02*
X-236379257Y-66193535D01*
X-237400210Y-65622107D02*
X-237176876Y-65622107D01*
X-237176876Y-66014964D02*
X-237176876Y-65264964D01*
X-237176876Y-65264964D02*
X-237495924Y-65264964D01*
X-237687353Y-65264964D02*
X-238134019Y-65264964D01*
X-238134019Y-65264964D02*
X-237846877Y-66014964D01*
X-226182829Y-58479250D02*
X-226278543Y-58514964D01*
X-226278543Y-58514964D02*
X-226438067Y-58514964D01*
X-226438067Y-58514964D02*
X-226501876Y-58479250D01*
X-226501876Y-58479250D02*
X-226533781Y-58443535D01*
X-226533781Y-58443535D02*
X-226565686Y-58372107D01*
X-226565686Y-58372107D02*
X-226565686Y-58300678D01*
X-226565686Y-58300678D02*
X-226533781Y-58229250D01*
X-226533781Y-58229250D02*
X-226501876Y-58193535D01*
X-226501876Y-58193535D02*
X-226438067Y-58157821D01*
X-226438067Y-58157821D02*
X-226310448Y-58122107D01*
X-226310448Y-58122107D02*
X-226246638Y-58086392D01*
X-226246638Y-58086392D02*
X-226214733Y-58050678D01*
X-226214733Y-58050678D02*
X-226182829Y-57979250D01*
X-226182829Y-57979250D02*
X-226182829Y-57907821D01*
X-226182829Y-57907821D02*
X-226214733Y-57836392D01*
X-226214733Y-57836392D02*
X-226246638Y-57800678D01*
X-226246638Y-57800678D02*
X-226310448Y-57764964D01*
X-226310448Y-57764964D02*
X-226469971Y-57764964D01*
X-226469971Y-57764964D02*
X-226565686Y-57800678D01*
X-226852828Y-58514964D02*
X-226852828Y-57764964D01*
X-226852828Y-57764964D02*
X-227012352Y-57764964D01*
X-227012352Y-57764964D02*
X-227108066Y-57800678D01*
X-227108066Y-57800678D02*
X-227171876Y-57872107D01*
X-227171876Y-57872107D02*
X-227203781Y-57943535D01*
X-227203781Y-57943535D02*
X-227235685Y-58086392D01*
X-227235685Y-58086392D02*
X-227235685Y-58193535D01*
X-227235685Y-58193535D02*
X-227203781Y-58336392D01*
X-227203781Y-58336392D02*
X-227171876Y-58407821D01*
X-227171876Y-58407821D02*
X-227108066Y-58479250D01*
X-227108066Y-58479250D02*
X-227012352Y-58514964D01*
X-227012352Y-58514964D02*
X-226852828Y-58514964D01*
X-227490924Y-58300678D02*
X-227809971Y-58300678D01*
X-227427114Y-58514964D02*
X-227650447Y-57764964D01*
X-227650447Y-57764964D02*
X-227873781Y-58514964D01*
X-228575686Y-57729250D02*
X-228001400Y-58693535D01*
X-228799019Y-58514964D02*
X-228799019Y-57764964D01*
X-228799019Y-57764964D02*
X-228958543Y-57764964D01*
X-228958543Y-57764964D02*
X-229054257Y-57800678D01*
X-229054257Y-57800678D02*
X-229118067Y-57872107D01*
X-229118067Y-57872107D02*
X-229149972Y-57943535D01*
X-229149972Y-57943535D02*
X-229181876Y-58086392D01*
X-229181876Y-58086392D02*
X-229181876Y-58193535D01*
X-229181876Y-58193535D02*
X-229149972Y-58336392D01*
X-229149972Y-58336392D02*
X-229118067Y-58407821D01*
X-229118067Y-58407821D02*
X-229054257Y-58479250D01*
X-229054257Y-58479250D02*
X-228958543Y-58514964D01*
X-228958543Y-58514964D02*
X-228799019Y-58514964D01*
X-229819972Y-58514964D02*
X-229437115Y-58514964D01*
X-229628543Y-58514964D02*
X-229628543Y-57764964D01*
X-229628543Y-57764964D02*
X-229564734Y-57872107D01*
X-229564734Y-57872107D02*
X-229500924Y-57943535D01*
X-229500924Y-57943535D02*
X-229437115Y-57979250D01*
X-230585686Y-57729250D02*
X-230011400Y-58693535D01*
X-230777115Y-57836392D02*
X-230809019Y-57800678D01*
X-230809019Y-57800678D02*
X-230872829Y-57764964D01*
X-230872829Y-57764964D02*
X-231032353Y-57764964D01*
X-231032353Y-57764964D02*
X-231096162Y-57800678D01*
X-231096162Y-57800678D02*
X-231128067Y-57836392D01*
X-231128067Y-57836392D02*
X-231159972Y-57907821D01*
X-231159972Y-57907821D02*
X-231159972Y-57979250D01*
X-231159972Y-57979250D02*
X-231128067Y-58086392D01*
X-231128067Y-58086392D02*
X-230745210Y-58514964D01*
X-230745210Y-58514964D02*
X-231159972Y-58514964D01*
X-236823780Y-48214964D02*
X-236600447Y-47857821D01*
X-236440923Y-48214964D02*
X-236440923Y-47464964D01*
X-236440923Y-47464964D02*
X-236696161Y-47464964D01*
X-236696161Y-47464964D02*
X-236759971Y-47500678D01*
X-236759971Y-47500678D02*
X-236791876Y-47536392D01*
X-236791876Y-47536392D02*
X-236823780Y-47607821D01*
X-236823780Y-47607821D02*
X-236823780Y-47714964D01*
X-236823780Y-47714964D02*
X-236791876Y-47786392D01*
X-236791876Y-47786392D02*
X-236759971Y-47822107D01*
X-236759971Y-47822107D02*
X-236696161Y-47857821D01*
X-236696161Y-47857821D02*
X-236440923Y-47857821D01*
X-237079019Y-48000678D02*
X-237398066Y-48000678D01*
X-237015209Y-48214964D02*
X-237238542Y-47464964D01*
X-237238542Y-47464964D02*
X-237461876Y-48214964D01*
X-237621400Y-47464964D02*
X-237780924Y-48214964D01*
X-237780924Y-48214964D02*
X-237908543Y-47679250D01*
X-237908543Y-47679250D02*
X-238036162Y-48214964D01*
X-238036162Y-48214964D02*
X-238195686Y-47464964D01*
X-226340210Y-73222107D02*
X-226435924Y-73257821D01*
X-226435924Y-73257821D02*
X-226467829Y-73293535D01*
X-226467829Y-73293535D02*
X-226499733Y-73364964D01*
X-226499733Y-73364964D02*
X-226499733Y-73472107D01*
X-226499733Y-73472107D02*
X-226467829Y-73543535D01*
X-226467829Y-73543535D02*
X-226435924Y-73579250D01*
X-226435924Y-73579250D02*
X-226372114Y-73614964D01*
X-226372114Y-73614964D02*
X-226116876Y-73614964D01*
X-226116876Y-73614964D02*
X-226116876Y-72864964D01*
X-226116876Y-72864964D02*
X-226340210Y-72864964D01*
X-226340210Y-72864964D02*
X-226404019Y-72900678D01*
X-226404019Y-72900678D02*
X-226435924Y-72936392D01*
X-226435924Y-72936392D02*
X-226467829Y-73007821D01*
X-226467829Y-73007821D02*
X-226467829Y-73079250D01*
X-226467829Y-73079250D02*
X-226435924Y-73150678D01*
X-226435924Y-73150678D02*
X-226404019Y-73186392D01*
X-226404019Y-73186392D02*
X-226340210Y-73222107D01*
X-226340210Y-73222107D02*
X-226116876Y-73222107D01*
X-227074019Y-73114964D02*
X-227074019Y-73614964D01*
X-226914495Y-72829250D02*
X-226754972Y-73364964D01*
X-226754972Y-73364964D02*
X-227169733Y-73364964D01*
X-227903543Y-72829250D02*
X-227329257Y-73793535D01*
X-228222591Y-73186392D02*
X-228158781Y-73150678D01*
X-228158781Y-73150678D02*
X-228126876Y-73114964D01*
X-228126876Y-73114964D02*
X-228094972Y-73043535D01*
X-228094972Y-73043535D02*
X-228094972Y-73007821D01*
X-228094972Y-73007821D02*
X-228126876Y-72936392D01*
X-228126876Y-72936392D02*
X-228158781Y-72900678D01*
X-228158781Y-72900678D02*
X-228222591Y-72864964D01*
X-228222591Y-72864964D02*
X-228350210Y-72864964D01*
X-228350210Y-72864964D02*
X-228414019Y-72900678D01*
X-228414019Y-72900678D02*
X-228445924Y-72936392D01*
X-228445924Y-72936392D02*
X-228477829Y-73007821D01*
X-228477829Y-73007821D02*
X-228477829Y-73043535D01*
X-228477829Y-73043535D02*
X-228445924Y-73114964D01*
X-228445924Y-73114964D02*
X-228414019Y-73150678D01*
X-228414019Y-73150678D02*
X-228350210Y-73186392D01*
X-228350210Y-73186392D02*
X-228222591Y-73186392D01*
X-228222591Y-73186392D02*
X-228158781Y-73222107D01*
X-228158781Y-73222107D02*
X-228126876Y-73257821D01*
X-228126876Y-73257821D02*
X-228094972Y-73329250D01*
X-228094972Y-73329250D02*
X-228094972Y-73472107D01*
X-228094972Y-73472107D02*
X-228126876Y-73543535D01*
X-228126876Y-73543535D02*
X-228158781Y-73579250D01*
X-228158781Y-73579250D02*
X-228222591Y-73614964D01*
X-228222591Y-73614964D02*
X-228350210Y-73614964D01*
X-228350210Y-73614964D02*
X-228414019Y-73579250D01*
X-228414019Y-73579250D02*
X-228445924Y-73543535D01*
X-228445924Y-73543535D02*
X-228477829Y-73472107D01*
X-228477829Y-73472107D02*
X-228477829Y-73329250D01*
X-228477829Y-73329250D02*
X-228445924Y-73257821D01*
X-228445924Y-73257821D02*
X-228414019Y-73222107D01*
X-228414019Y-73222107D02*
X-228350210Y-73186392D01*
X-226340210Y-75722107D02*
X-226435924Y-75757821D01*
X-226435924Y-75757821D02*
X-226467829Y-75793535D01*
X-226467829Y-75793535D02*
X-226499733Y-75864964D01*
X-226499733Y-75864964D02*
X-226499733Y-75972107D01*
X-226499733Y-75972107D02*
X-226467829Y-76043535D01*
X-226467829Y-76043535D02*
X-226435924Y-76079250D01*
X-226435924Y-76079250D02*
X-226372114Y-76114964D01*
X-226372114Y-76114964D02*
X-226116876Y-76114964D01*
X-226116876Y-76114964D02*
X-226116876Y-75364964D01*
X-226116876Y-75364964D02*
X-226340210Y-75364964D01*
X-226340210Y-75364964D02*
X-226404019Y-75400678D01*
X-226404019Y-75400678D02*
X-226435924Y-75436392D01*
X-226435924Y-75436392D02*
X-226467829Y-75507821D01*
X-226467829Y-75507821D02*
X-226467829Y-75579250D01*
X-226467829Y-75579250D02*
X-226435924Y-75650678D01*
X-226435924Y-75650678D02*
X-226404019Y-75686392D01*
X-226404019Y-75686392D02*
X-226340210Y-75722107D01*
X-226340210Y-75722107D02*
X-226116876Y-75722107D01*
X-227105924Y-75364964D02*
X-226786876Y-75364964D01*
X-226786876Y-75364964D02*
X-226754972Y-75722107D01*
X-226754972Y-75722107D02*
X-226786876Y-75686392D01*
X-226786876Y-75686392D02*
X-226850686Y-75650678D01*
X-226850686Y-75650678D02*
X-227010210Y-75650678D01*
X-227010210Y-75650678D02*
X-227074019Y-75686392D01*
X-227074019Y-75686392D02*
X-227105924Y-75722107D01*
X-227105924Y-75722107D02*
X-227137829Y-75793535D01*
X-227137829Y-75793535D02*
X-227137829Y-75972107D01*
X-227137829Y-75972107D02*
X-227105924Y-76043535D01*
X-227105924Y-76043535D02*
X-227074019Y-76079250D01*
X-227074019Y-76079250D02*
X-227010210Y-76114964D01*
X-227010210Y-76114964D02*
X-226850686Y-76114964D01*
X-226850686Y-76114964D02*
X-226786876Y-76079250D01*
X-226786876Y-76079250D02*
X-226754972Y-76043535D01*
X-227903543Y-75329250D02*
X-227329257Y-76293535D01*
X-228158781Y-76114964D02*
X-228286400Y-76114964D01*
X-228286400Y-76114964D02*
X-228350210Y-76079250D01*
X-228350210Y-76079250D02*
X-228382114Y-76043535D01*
X-228382114Y-76043535D02*
X-228445924Y-75936392D01*
X-228445924Y-75936392D02*
X-228477829Y-75793535D01*
X-228477829Y-75793535D02*
X-228477829Y-75507821D01*
X-228477829Y-75507821D02*
X-228445924Y-75436392D01*
X-228445924Y-75436392D02*
X-228414019Y-75400678D01*
X-228414019Y-75400678D02*
X-228350210Y-75364964D01*
X-228350210Y-75364964D02*
X-228222591Y-75364964D01*
X-228222591Y-75364964D02*
X-228158781Y-75400678D01*
X-228158781Y-75400678D02*
X-228126876Y-75436392D01*
X-228126876Y-75436392D02*
X-228094972Y-75507821D01*
X-228094972Y-75507821D02*
X-228094972Y-75686392D01*
X-228094972Y-75686392D02*
X-228126876Y-75757821D01*
X-228126876Y-75757821D02*
X-228158781Y-75793535D01*
X-228158781Y-75793535D02*
X-228222591Y-75829250D01*
X-228222591Y-75829250D02*
X-228350210Y-75829250D01*
X-228350210Y-75829250D02*
X-228414019Y-75793535D01*
X-228414019Y-75793535D02*
X-228445924Y-75757821D01*
X-228445924Y-75757821D02*
X-228477829Y-75686392D01*
X-226282828Y-50814964D02*
X-226282828Y-50064964D01*
X-226282828Y-50064964D02*
X-226442352Y-50064964D01*
X-226442352Y-50064964D02*
X-226538066Y-50100678D01*
X-226538066Y-50100678D02*
X-226601876Y-50172107D01*
X-226601876Y-50172107D02*
X-226633781Y-50243535D01*
X-226633781Y-50243535D02*
X-226665685Y-50386392D01*
X-226665685Y-50386392D02*
X-226665685Y-50493535D01*
X-226665685Y-50493535D02*
X-226633781Y-50636392D01*
X-226633781Y-50636392D02*
X-226601876Y-50707821D01*
X-226601876Y-50707821D02*
X-226538066Y-50779250D01*
X-226538066Y-50779250D02*
X-226442352Y-50814964D01*
X-226442352Y-50814964D02*
X-226282828Y-50814964D01*
X-226920924Y-50136392D02*
X-226952828Y-50100678D01*
X-226952828Y-50100678D02*
X-227016638Y-50064964D01*
X-227016638Y-50064964D02*
X-227176162Y-50064964D01*
X-227176162Y-50064964D02*
X-227239971Y-50100678D01*
X-227239971Y-50100678D02*
X-227271876Y-50136392D01*
X-227271876Y-50136392D02*
X-227303781Y-50207821D01*
X-227303781Y-50207821D02*
X-227303781Y-50279250D01*
X-227303781Y-50279250D02*
X-227271876Y-50386392D01*
X-227271876Y-50386392D02*
X-226889019Y-50814964D01*
X-226889019Y-50814964D02*
X-227303781Y-50814964D01*
X-228069495Y-50029250D02*
X-227495209Y-50993535D01*
X-228675685Y-50814964D02*
X-228452352Y-50457821D01*
X-228292828Y-50814964D02*
X-228292828Y-50064964D01*
X-228292828Y-50064964D02*
X-228548066Y-50064964D01*
X-228548066Y-50064964D02*
X-228611876Y-50100678D01*
X-228611876Y-50100678D02*
X-228643781Y-50136392D01*
X-228643781Y-50136392D02*
X-228675685Y-50207821D01*
X-228675685Y-50207821D02*
X-228675685Y-50314964D01*
X-228675685Y-50314964D02*
X-228643781Y-50386392D01*
X-228643781Y-50386392D02*
X-228611876Y-50422107D01*
X-228611876Y-50422107D02*
X-228548066Y-50457821D01*
X-228548066Y-50457821D02*
X-228292828Y-50457821D01*
X-228899019Y-50064964D02*
X-229345685Y-50814964D01*
X-229345685Y-50064964D02*
X-228899019Y-50814964D01*
X-229951876Y-50814964D02*
X-229569019Y-50814964D01*
X-229760447Y-50814964D02*
X-229760447Y-50064964D01*
X-229760447Y-50064964D02*
X-229696638Y-50172107D01*
X-229696638Y-50172107D02*
X-229632828Y-50243535D01*
X-229632828Y-50243535D02*
X-229569019Y-50279250D01*
X-235533781Y-68564964D02*
X-235150924Y-68564964D01*
X-235342352Y-68564964D02*
X-235342352Y-67814964D01*
X-235342352Y-67814964D02*
X-235278543Y-67922107D01*
X-235278543Y-67922107D02*
X-235214733Y-67993535D01*
X-235214733Y-67993535D02*
X-235150924Y-68029250D01*
X-236139971Y-67814964D02*
X-235820923Y-67814964D01*
X-235820923Y-67814964D02*
X-235789019Y-68172107D01*
X-235789019Y-68172107D02*
X-235820923Y-68136392D01*
X-235820923Y-68136392D02*
X-235884733Y-68100678D01*
X-235884733Y-68100678D02*
X-236044257Y-68100678D01*
X-236044257Y-68100678D02*
X-236108066Y-68136392D01*
X-236108066Y-68136392D02*
X-236139971Y-68172107D01*
X-236139971Y-68172107D02*
X-236171876Y-68243535D01*
X-236171876Y-68243535D02*
X-236171876Y-68422107D01*
X-236171876Y-68422107D02*
X-236139971Y-68493535D01*
X-236139971Y-68493535D02*
X-236108066Y-68529250D01*
X-236108066Y-68529250D02*
X-236044257Y-68564964D01*
X-236044257Y-68564964D02*
X-235884733Y-68564964D01*
X-235884733Y-68564964D02*
X-235820923Y-68529250D01*
X-235820923Y-68529250D02*
X-235789019Y-68493535D01*
X-236937590Y-67779250D02*
X-236363304Y-68743535D01*
X-237384257Y-68172107D02*
X-237479971Y-68207821D01*
X-237479971Y-68207821D02*
X-237511876Y-68243535D01*
X-237511876Y-68243535D02*
X-237543780Y-68314964D01*
X-237543780Y-68314964D02*
X-237543780Y-68422107D01*
X-237543780Y-68422107D02*
X-237511876Y-68493535D01*
X-237511876Y-68493535D02*
X-237479971Y-68529250D01*
X-237479971Y-68529250D02*
X-237416161Y-68564964D01*
X-237416161Y-68564964D02*
X-237160923Y-68564964D01*
X-237160923Y-68564964D02*
X-237160923Y-67814964D01*
X-237160923Y-67814964D02*
X-237384257Y-67814964D01*
X-237384257Y-67814964D02*
X-237448066Y-67850678D01*
X-237448066Y-67850678D02*
X-237479971Y-67886392D01*
X-237479971Y-67886392D02*
X-237511876Y-67957821D01*
X-237511876Y-67957821D02*
X-237511876Y-68029250D01*
X-237511876Y-68029250D02*
X-237479971Y-68100678D01*
X-237479971Y-68100678D02*
X-237448066Y-68136392D01*
X-237448066Y-68136392D02*
X-237384257Y-68172107D01*
X-237384257Y-68172107D02*
X-237160923Y-68172107D01*
X-238181876Y-68564964D02*
X-237799019Y-68564964D01*
X-237990447Y-68564964D02*
X-237990447Y-67814964D01*
X-237990447Y-67814964D02*
X-237926638Y-67922107D01*
X-237926638Y-67922107D02*
X-237862828Y-67993535D01*
X-237862828Y-67993535D02*
X-237799019Y-68029250D01*
X-235533781Y-71114964D02*
X-235150924Y-71114964D01*
X-235342352Y-71114964D02*
X-235342352Y-70364964D01*
X-235342352Y-70364964D02*
X-235278543Y-70472107D01*
X-235278543Y-70472107D02*
X-235214733Y-70543535D01*
X-235214733Y-70543535D02*
X-235150924Y-70579250D01*
X-236108066Y-70614964D02*
X-236108066Y-71114964D01*
X-235948542Y-70329250D02*
X-235789019Y-70864964D01*
X-235789019Y-70864964D02*
X-236203780Y-70864964D01*
X-236937590Y-70329250D02*
X-236363304Y-71293535D01*
X-237384257Y-70722107D02*
X-237479971Y-70757821D01*
X-237479971Y-70757821D02*
X-237511876Y-70793535D01*
X-237511876Y-70793535D02*
X-237543780Y-70864964D01*
X-237543780Y-70864964D02*
X-237543780Y-70972107D01*
X-237543780Y-70972107D02*
X-237511876Y-71043535D01*
X-237511876Y-71043535D02*
X-237479971Y-71079250D01*
X-237479971Y-71079250D02*
X-237416161Y-71114964D01*
X-237416161Y-71114964D02*
X-237160923Y-71114964D01*
X-237160923Y-71114964D02*
X-237160923Y-70364964D01*
X-237160923Y-70364964D02*
X-237384257Y-70364964D01*
X-237384257Y-70364964D02*
X-237448066Y-70400678D01*
X-237448066Y-70400678D02*
X-237479971Y-70436392D01*
X-237479971Y-70436392D02*
X-237511876Y-70507821D01*
X-237511876Y-70507821D02*
X-237511876Y-70579250D01*
X-237511876Y-70579250D02*
X-237479971Y-70650678D01*
X-237479971Y-70650678D02*
X-237448066Y-70686392D01*
X-237448066Y-70686392D02*
X-237384257Y-70722107D01*
X-237384257Y-70722107D02*
X-237160923Y-70722107D01*
X-237767114Y-70364964D02*
X-238181876Y-70364964D01*
X-238181876Y-70364964D02*
X-237958542Y-70650678D01*
X-237958542Y-70650678D02*
X-238054257Y-70650678D01*
X-238054257Y-70650678D02*
X-238118066Y-70686392D01*
X-238118066Y-70686392D02*
X-238149971Y-70722107D01*
X-238149971Y-70722107D02*
X-238181876Y-70793535D01*
X-238181876Y-70793535D02*
X-238181876Y-70972107D01*
X-238181876Y-70972107D02*
X-238149971Y-71043535D01*
X-238149971Y-71043535D02*
X-238118066Y-71079250D01*
X-238118066Y-71079250D02*
X-238054257Y-71114964D01*
X-238054257Y-71114964D02*
X-237862828Y-71114964D01*
X-237862828Y-71114964D02*
X-237799019Y-71079250D01*
X-237799019Y-71079250D02*
X-237767114Y-71043535D01*
X-236791876Y-45402107D02*
X-236887590Y-45437821D01*
X-236887590Y-45437821D02*
X-236919495Y-45473535D01*
X-236919495Y-45473535D02*
X-236951399Y-45544964D01*
X-236951399Y-45544964D02*
X-236951399Y-45652107D01*
X-236951399Y-45652107D02*
X-236919495Y-45723535D01*
X-236919495Y-45723535D02*
X-236887590Y-45759250D01*
X-236887590Y-45759250D02*
X-236823780Y-45794964D01*
X-236823780Y-45794964D02*
X-236568542Y-45794964D01*
X-236568542Y-45794964D02*
X-236568542Y-45044964D01*
X-236568542Y-45044964D02*
X-236791876Y-45044964D01*
X-236791876Y-45044964D02*
X-236855685Y-45080678D01*
X-236855685Y-45080678D02*
X-236887590Y-45116392D01*
X-236887590Y-45116392D02*
X-236919495Y-45187821D01*
X-236919495Y-45187821D02*
X-236919495Y-45259250D01*
X-236919495Y-45259250D02*
X-236887590Y-45330678D01*
X-236887590Y-45330678D02*
X-236855685Y-45366392D01*
X-236855685Y-45366392D02*
X-236791876Y-45402107D01*
X-236791876Y-45402107D02*
X-236568542Y-45402107D01*
X-237206638Y-45580678D02*
X-237525685Y-45580678D01*
X-237142828Y-45794964D02*
X-237366161Y-45044964D01*
X-237366161Y-45044964D02*
X-237589495Y-45794964D01*
X-237717114Y-45044964D02*
X-238099971Y-45044964D01*
X-237908543Y-45794964D02*
X-237908543Y-45044964D01*
X-235230686Y-63250678D02*
X-235549733Y-63250678D01*
X-235166876Y-63464964D02*
X-235390209Y-62714964D01*
X-235390209Y-62714964D02*
X-235613543Y-63464964D01*
X-236187829Y-63464964D02*
X-235804972Y-63464964D01*
X-235996400Y-63464964D02*
X-235996400Y-62714964D01*
X-235996400Y-62714964D02*
X-235932591Y-62822107D01*
X-235932591Y-62822107D02*
X-235868781Y-62893535D01*
X-235868781Y-62893535D02*
X-235804972Y-62929250D01*
X-236953543Y-62679250D02*
X-236379257Y-63643535D01*
X-237400210Y-63072107D02*
X-237176876Y-63072107D01*
X-237176876Y-63464964D02*
X-237176876Y-62714964D01*
X-237176876Y-62714964D02*
X-237495924Y-62714964D01*
X-238038305Y-62714964D02*
X-237910686Y-62714964D01*
X-237910686Y-62714964D02*
X-237846877Y-62750678D01*
X-237846877Y-62750678D02*
X-237814972Y-62786392D01*
X-237814972Y-62786392D02*
X-237751162Y-62893535D01*
X-237751162Y-62893535D02*
X-237719258Y-63036392D01*
X-237719258Y-63036392D02*
X-237719258Y-63322107D01*
X-237719258Y-63322107D02*
X-237751162Y-63393535D01*
X-237751162Y-63393535D02*
X-237783067Y-63429250D01*
X-237783067Y-63429250D02*
X-237846877Y-63464964D01*
X-237846877Y-63464964D02*
X-237974496Y-63464964D01*
X-237974496Y-63464964D02*
X-238038305Y-63429250D01*
X-238038305Y-63429250D02*
X-238070210Y-63393535D01*
X-238070210Y-63393535D02*
X-238102115Y-63322107D01*
X-238102115Y-63322107D02*
X-238102115Y-63143535D01*
X-238102115Y-63143535D02*
X-238070210Y-63072107D01*
X-238070210Y-63072107D02*
X-238038305Y-63036392D01*
X-238038305Y-63036392D02*
X-237974496Y-63000678D01*
X-237974496Y-63000678D02*
X-237846877Y-63000678D01*
X-237846877Y-63000678D02*
X-237783067Y-63036392D01*
X-237783067Y-63036392D02*
X-237751162Y-63072107D01*
X-237751162Y-63072107D02*
X-237719258Y-63143535D01*
X-235533781Y-73664964D02*
X-235150924Y-73664964D01*
X-235342352Y-73664964D02*
X-235342352Y-72914964D01*
X-235342352Y-72914964D02*
X-235278543Y-73022107D01*
X-235278543Y-73022107D02*
X-235214733Y-73093535D01*
X-235214733Y-73093535D02*
X-235150924Y-73129250D01*
X-236108066Y-72914964D02*
X-235980447Y-72914964D01*
X-235980447Y-72914964D02*
X-235916638Y-72950678D01*
X-235916638Y-72950678D02*
X-235884733Y-72986392D01*
X-235884733Y-72986392D02*
X-235820923Y-73093535D01*
X-235820923Y-73093535D02*
X-235789019Y-73236392D01*
X-235789019Y-73236392D02*
X-235789019Y-73522107D01*
X-235789019Y-73522107D02*
X-235820923Y-73593535D01*
X-235820923Y-73593535D02*
X-235852828Y-73629250D01*
X-235852828Y-73629250D02*
X-235916638Y-73664964D01*
X-235916638Y-73664964D02*
X-236044257Y-73664964D01*
X-236044257Y-73664964D02*
X-236108066Y-73629250D01*
X-236108066Y-73629250D02*
X-236139971Y-73593535D01*
X-236139971Y-73593535D02*
X-236171876Y-73522107D01*
X-236171876Y-73522107D02*
X-236171876Y-73343535D01*
X-236171876Y-73343535D02*
X-236139971Y-73272107D01*
X-236139971Y-73272107D02*
X-236108066Y-73236392D01*
X-236108066Y-73236392D02*
X-236044257Y-73200678D01*
X-236044257Y-73200678D02*
X-235916638Y-73200678D01*
X-235916638Y-73200678D02*
X-235852828Y-73236392D01*
X-235852828Y-73236392D02*
X-235820923Y-73272107D01*
X-235820923Y-73272107D02*
X-235789019Y-73343535D01*
X-236937590Y-72879250D02*
X-236363304Y-73843535D01*
X-237384257Y-73272107D02*
X-237479971Y-73307821D01*
X-237479971Y-73307821D02*
X-237511876Y-73343535D01*
X-237511876Y-73343535D02*
X-237543780Y-73414964D01*
X-237543780Y-73414964D02*
X-237543780Y-73522107D01*
X-237543780Y-73522107D02*
X-237511876Y-73593535D01*
X-237511876Y-73593535D02*
X-237479971Y-73629250D01*
X-237479971Y-73629250D02*
X-237416161Y-73664964D01*
X-237416161Y-73664964D02*
X-237160923Y-73664964D01*
X-237160923Y-73664964D02*
X-237160923Y-72914964D01*
X-237160923Y-72914964D02*
X-237384257Y-72914964D01*
X-237384257Y-72914964D02*
X-237448066Y-72950678D01*
X-237448066Y-72950678D02*
X-237479971Y-72986392D01*
X-237479971Y-72986392D02*
X-237511876Y-73057821D01*
X-237511876Y-73057821D02*
X-237511876Y-73129250D01*
X-237511876Y-73129250D02*
X-237479971Y-73200678D01*
X-237479971Y-73200678D02*
X-237448066Y-73236392D01*
X-237448066Y-73236392D02*
X-237384257Y-73272107D01*
X-237384257Y-73272107D02*
X-237160923Y-73272107D01*
X-237799019Y-72986392D02*
X-237830923Y-72950678D01*
X-237830923Y-72950678D02*
X-237894733Y-72914964D01*
X-237894733Y-72914964D02*
X-238054257Y-72914964D01*
X-238054257Y-72914964D02*
X-238118066Y-72950678D01*
X-238118066Y-72950678D02*
X-238149971Y-72986392D01*
X-238149971Y-72986392D02*
X-238181876Y-73057821D01*
X-238181876Y-73057821D02*
X-238181876Y-73129250D01*
X-238181876Y-73129250D02*
X-238149971Y-73236392D01*
X-238149971Y-73236392D02*
X-237767114Y-73664964D01*
X-237767114Y-73664964D02*
X-238181876Y-73664964D01*
X-252593378Y-72156098D02*
X-252615424Y-72056344D01*
X-252615424Y-72056344D02*
X-252646350Y-72019780D01*
X-252646350Y-72019780D02*
X-252712643Y-71978245D01*
X-252712643Y-71978245D02*
X-252818743Y-71963333D01*
X-252818743Y-71963333D02*
X-252893917Y-71984986D01*
X-252893917Y-71984986D02*
X-252933724Y-72011610D01*
X-252933724Y-72011610D02*
X-252977971Y-72069828D01*
X-252977971Y-72069828D02*
X-253013494Y-72322582D01*
X-253013494Y-72322582D02*
X-252270793Y-72426962D01*
X-252270793Y-72426962D02*
X-252239711Y-72205802D01*
X-252239711Y-72205802D02*
X-252266197Y-72137643D01*
X-252266197Y-72137643D02*
X-252297123Y-72101079D01*
X-252297123Y-72101079D02*
X-252363416Y-72059543D01*
X-252363416Y-72059543D02*
X-252434150Y-72049603D01*
X-252434150Y-72049603D02*
X-252509323Y-72071256D01*
X-252509323Y-72071256D02*
X-252549130Y-72097880D01*
X-252549130Y-72097880D02*
X-252593378Y-72156098D01*
X-252593378Y-72156098D02*
X-252624460Y-72377258D01*
X-252712488Y-71720520D02*
X-252668085Y-71404577D01*
X-252933568Y-71753886D02*
X-252159785Y-71637106D01*
X-252159785Y-71637106D02*
X-252871404Y-71311566D01*
X-252110942Y-71289568D02*
X-252057659Y-70910437D01*
X-252827002Y-70995623D02*
X-252084301Y-71100003D01*
X-249117297Y-59146629D02*
X-249090811Y-59214788D01*
X-249090811Y-59214788D02*
X-249104132Y-59309570D01*
X-249104132Y-59309570D02*
X-249152820Y-59399383D01*
X-249152820Y-59399383D02*
X-249232434Y-59452630D01*
X-249232434Y-59452630D02*
X-249307607Y-59474284D01*
X-249307607Y-59474284D02*
X-249453514Y-59485996D01*
X-249453514Y-59485996D02*
X-249559615Y-59471085D01*
X-249559615Y-59471085D02*
X-249696641Y-59419609D01*
X-249696641Y-59419609D02*
X-249762934Y-59378073D01*
X-249762934Y-59378073D02*
X-249824787Y-59304944D01*
X-249824787Y-59304944D02*
X-249846833Y-59205191D01*
X-249846833Y-59205191D02*
X-249837953Y-59142002D01*
X-249837953Y-59142002D02*
X-249789265Y-59052190D01*
X-249789265Y-59052190D02*
X-249749458Y-59025566D01*
X-249749458Y-59025566D02*
X-249501891Y-59060359D01*
X-249501891Y-59060359D02*
X-249519652Y-59186736D01*
X-249780229Y-58731277D02*
X-249037528Y-58835656D01*
X-249037528Y-58835656D02*
X-249726945Y-58352145D01*
X-249726945Y-58352145D02*
X-248984244Y-58456525D01*
X-249682543Y-58036203D02*
X-248939841Y-58140582D01*
X-248939841Y-58140582D02*
X-248917640Y-57982611D01*
X-248917640Y-57982611D02*
X-248939686Y-57882858D01*
X-248939686Y-57882858D02*
X-249001539Y-57809728D01*
X-249001539Y-57809728D02*
X-249067832Y-57768193D01*
X-249067832Y-57768193D02*
X-249204858Y-57716717D01*
X-249204858Y-57716717D02*
X-249310959Y-57701806D01*
X-249310959Y-57701806D02*
X-249456866Y-57713518D01*
X-249456866Y-57713518D02*
X-249532040Y-57735171D01*
X-249532040Y-57735171D02*
X-249611654Y-57788419D01*
X-249611654Y-57788419D02*
X-249660341Y-57878231D01*
X-249660341Y-57878231D02*
X-249682543Y-58036203D01*
D12*
X-216487618Y-50782619D02*
X-216154285Y-50306428D01*
X-215916190Y-50782619D02*
X-215916190Y-49782619D01*
X-215916190Y-49782619D02*
X-216297142Y-49782619D01*
X-216297142Y-49782619D02*
X-216392380Y-49830238D01*
X-216392380Y-49830238D02*
X-216439999Y-49877857D01*
X-216439999Y-49877857D02*
X-216487618Y-49973095D01*
X-216487618Y-49973095D02*
X-216487618Y-50115952D01*
X-216487618Y-50115952D02*
X-216439999Y-50211190D01*
X-216439999Y-50211190D02*
X-216392380Y-50258809D01*
X-216392380Y-50258809D02*
X-216297142Y-50306428D01*
X-216297142Y-50306428D02*
X-215916190Y-50306428D01*
X-216916190Y-50258809D02*
X-217249523Y-50258809D01*
X-217392380Y-50782619D02*
X-216916190Y-50782619D01*
X-216916190Y-50782619D02*
X-216916190Y-49782619D01*
X-216916190Y-49782619D02*
X-217392380Y-49782619D01*
X-217773333Y-50735000D02*
X-217916190Y-50782619D01*
X-217916190Y-50782619D02*
X-218154285Y-50782619D01*
X-218154285Y-50782619D02*
X-218249523Y-50735000D01*
X-218249523Y-50735000D02*
X-218297142Y-50687380D01*
X-218297142Y-50687380D02*
X-218344761Y-50592142D01*
X-218344761Y-50592142D02*
X-218344761Y-50496904D01*
X-218344761Y-50496904D02*
X-218297142Y-50401666D01*
X-218297142Y-50401666D02*
X-218249523Y-50354047D01*
X-218249523Y-50354047D02*
X-218154285Y-50306428D01*
X-218154285Y-50306428D02*
X-217963809Y-50258809D01*
X-217963809Y-50258809D02*
X-217868571Y-50211190D01*
X-217868571Y-50211190D02*
X-217820952Y-50163571D01*
X-217820952Y-50163571D02*
X-217773333Y-50068333D01*
X-217773333Y-50068333D02*
X-217773333Y-49973095D01*
X-217773333Y-49973095D02*
X-217820952Y-49877857D01*
X-217820952Y-49877857D02*
X-217868571Y-49830238D01*
X-217868571Y-49830238D02*
X-217963809Y-49782619D01*
X-217963809Y-49782619D02*
X-218201904Y-49782619D01*
X-218201904Y-49782619D02*
X-218344761Y-49830238D01*
X-218773333Y-50258809D02*
X-219106666Y-50258809D01*
X-219249523Y-50782619D02*
X-218773333Y-50782619D01*
X-218773333Y-50782619D02*
X-218773333Y-49782619D01*
X-218773333Y-49782619D02*
X-219249523Y-49782619D01*
X-219535238Y-49782619D02*
X-220106666Y-49782619D01*
X-219820952Y-50782619D02*
X-219820952Y-49782619D01*
X-229514285Y-93128809D02*
X-229657142Y-93176428D01*
X-229657142Y-93176428D02*
X-229704761Y-93224047D01*
X-229704761Y-93224047D02*
X-229752380Y-93319285D01*
X-229752380Y-93319285D02*
X-229752380Y-93462142D01*
X-229752380Y-93462142D02*
X-229704761Y-93557380D01*
X-229704761Y-93557380D02*
X-229657142Y-93605000D01*
X-229657142Y-93605000D02*
X-229561904Y-93652619D01*
X-229561904Y-93652619D02*
X-229180952Y-93652619D01*
X-229180952Y-93652619D02*
X-229180952Y-92652619D01*
X-229180952Y-92652619D02*
X-229514285Y-92652619D01*
X-229514285Y-92652619D02*
X-229609523Y-92700238D01*
X-229609523Y-92700238D02*
X-229657142Y-92747857D01*
X-229657142Y-92747857D02*
X-229704761Y-92843095D01*
X-229704761Y-92843095D02*
X-229704761Y-92938333D01*
X-229704761Y-92938333D02*
X-229657142Y-93033571D01*
X-229657142Y-93033571D02*
X-229609523Y-93081190D01*
X-229609523Y-93081190D02*
X-229514285Y-93128809D01*
X-229514285Y-93128809D02*
X-229180952Y-93128809D01*
X-230038095Y-92652619D02*
X-230609523Y-92652619D01*
X-230323809Y-93652619D02*
X-230323809Y-92652619D01*
X-231466666Y-93652619D02*
X-230895238Y-93652619D01*
X-231180952Y-93652619D02*
X-231180952Y-92652619D01*
X-231180952Y-92652619D02*
X-231085714Y-92795476D01*
X-231085714Y-92795476D02*
X-230990476Y-92890714D01*
X-230990476Y-92890714D02*
X-230895238Y-92938333D01*
X-228178570Y-91173809D02*
X-228321427Y-91221428D01*
X-228321427Y-91221428D02*
X-228369046Y-91269047D01*
X-228369046Y-91269047D02*
X-228416665Y-91364285D01*
X-228416665Y-91364285D02*
X-228416665Y-91507142D01*
X-228416665Y-91507142D02*
X-228369046Y-91602380D01*
X-228369046Y-91602380D02*
X-228321427Y-91650000D01*
X-228321427Y-91650000D02*
X-228226189Y-91697619D01*
X-228226189Y-91697619D02*
X-227845237Y-91697619D01*
X-227845237Y-91697619D02*
X-227845237Y-90697619D01*
X-227845237Y-90697619D02*
X-228178570Y-90697619D01*
X-228178570Y-90697619D02*
X-228273808Y-90745238D01*
X-228273808Y-90745238D02*
X-228321427Y-90792857D01*
X-228321427Y-90792857D02*
X-228369046Y-90888095D01*
X-228369046Y-90888095D02*
X-228369046Y-90983333D01*
X-228369046Y-90983333D02*
X-228321427Y-91078571D01*
X-228321427Y-91078571D02*
X-228273808Y-91126190D01*
X-228273808Y-91126190D02*
X-228178570Y-91173809D01*
X-228178570Y-91173809D02*
X-227845237Y-91173809D01*
X-229273808Y-91697619D02*
X-229273808Y-91173809D01*
X-229273808Y-91173809D02*
X-229226189Y-91078571D01*
X-229226189Y-91078571D02*
X-229130951Y-91030952D01*
X-229130951Y-91030952D02*
X-228940475Y-91030952D01*
X-228940475Y-91030952D02*
X-228845237Y-91078571D01*
X-229273808Y-91650000D02*
X-229178570Y-91697619D01*
X-229178570Y-91697619D02*
X-228940475Y-91697619D01*
X-228940475Y-91697619D02*
X-228845237Y-91650000D01*
X-228845237Y-91650000D02*
X-228797618Y-91554761D01*
X-228797618Y-91554761D02*
X-228797618Y-91459523D01*
X-228797618Y-91459523D02*
X-228845237Y-91364285D01*
X-228845237Y-91364285D02*
X-228940475Y-91316666D01*
X-228940475Y-91316666D02*
X-229178570Y-91316666D01*
X-229178570Y-91316666D02*
X-229273808Y-91269047D01*
X-229607142Y-91030952D02*
X-229988094Y-91030952D01*
X-229749999Y-90697619D02*
X-229749999Y-91554761D01*
X-229749999Y-91554761D02*
X-229797618Y-91650000D01*
X-229797618Y-91650000D02*
X-229892856Y-91697619D01*
X-229892856Y-91697619D02*
X-229988094Y-91697619D01*
X-230178571Y-91030952D02*
X-230559523Y-91030952D01*
X-230321428Y-90697619D02*
X-230321428Y-91554761D01*
X-230321428Y-91554761D02*
X-230369047Y-91650000D01*
X-230369047Y-91650000D02*
X-230464285Y-91697619D01*
X-230464285Y-91697619D02*
X-230559523Y-91697619D01*
X-231273809Y-91650000D02*
X-231178571Y-91697619D01*
X-231178571Y-91697619D02*
X-230988095Y-91697619D01*
X-230988095Y-91697619D02*
X-230892857Y-91650000D01*
X-230892857Y-91650000D02*
X-230845238Y-91554761D01*
X-230845238Y-91554761D02*
X-230845238Y-91173809D01*
X-230845238Y-91173809D02*
X-230892857Y-91078571D01*
X-230892857Y-91078571D02*
X-230988095Y-91030952D01*
X-230988095Y-91030952D02*
X-231178571Y-91030952D01*
X-231178571Y-91030952D02*
X-231273809Y-91078571D01*
X-231273809Y-91078571D02*
X-231321428Y-91173809D01*
X-231321428Y-91173809D02*
X-231321428Y-91269047D01*
X-231321428Y-91269047D02*
X-230845238Y-91364285D01*
X-231750000Y-91697619D02*
X-231750000Y-91030952D01*
X-231750000Y-91221428D02*
X-231797619Y-91126190D01*
X-231797619Y-91126190D02*
X-231845238Y-91078571D01*
X-231845238Y-91078571D02*
X-231940476Y-91030952D01*
X-231940476Y-91030952D02*
X-232035714Y-91030952D01*
X-232273810Y-91030952D02*
X-232511905Y-91697619D01*
X-232750000Y-91030952D02*
X-232511905Y-91697619D01*
X-232511905Y-91697619D02*
X-232416667Y-91935714D01*
X-232416667Y-91935714D02*
X-232369048Y-91983333D01*
X-232369048Y-91983333D02*
X-232273810Y-92030952D01*
X-220088095Y-93253333D02*
X-221611905Y-93253333D01*
X-220850000Y-94015238D02*
X-220850000Y-92491428D01*
X-349610000Y-88410000D02*
X-349610000Y-86910000D01*
X-355010000Y-88410000D02*
X-349610000Y-88410000D01*
X-355010000Y-86910000D02*
X-355010000Y-88410000D01*
X-349610000Y-86910000D02*
X-355010000Y-86910000D01*
X-352810000Y-87160000D02*
X-352810000Y-88160000D01*
X-351810000Y-88160000D02*
X-352710000Y-87660000D01*
X-351810000Y-87160000D02*
X-351810000Y-88160000D01*
X-352710000Y-87660000D02*
X-351810000Y-87160000D01*
X-349610000Y-91060000D02*
X-349610000Y-89560000D01*
X-355010000Y-91060000D02*
X-349610000Y-91060000D01*
X-355010000Y-89560000D02*
X-355010000Y-91060000D01*
X-349610000Y-89560000D02*
X-355010000Y-89560000D01*
X-352810000Y-89810000D02*
X-352810000Y-90810000D01*
X-351810000Y-90810000D02*
X-352710000Y-90310000D01*
X-351810000Y-89810000D02*
X-351810000Y-90810000D01*
X-352710000Y-90310000D02*
X-351810000Y-89810000D01*
X-349610000Y-93710000D02*
X-349610000Y-92210000D01*
X-355010000Y-93710000D02*
X-349610000Y-93710000D01*
X-355010000Y-92210000D02*
X-355010000Y-93710000D01*
X-349610000Y-92210000D02*
X-355010000Y-92210000D01*
X-352810000Y-92460000D02*
X-352810000Y-93460000D01*
X-351810000Y-93460000D02*
X-352710000Y-92960000D01*
X-351810000Y-92460000D02*
X-351810000Y-93460000D01*
X-352710000Y-92960000D02*
X-351810000Y-92460000D01*
X-106960000Y-84940000D02*
X-106060000Y-84440000D01*
X-106060000Y-84440000D02*
X-106060000Y-85440000D01*
X-106060000Y-85440000D02*
X-106960000Y-84940000D01*
X-107060000Y-84440000D02*
X-107060000Y-85440000D01*
X-103860000Y-84190000D02*
X-109260000Y-84190000D01*
X-109260000Y-84190000D02*
X-109260000Y-85690000D01*
X-109260000Y-85690000D02*
X-103860000Y-85690000D01*
X-103860000Y-85690000D02*
X-103860000Y-84190000D01*
X-106960000Y-87590000D02*
X-106060000Y-87090000D01*
X-106060000Y-87090000D02*
X-106060000Y-88090000D01*
X-106060000Y-88090000D02*
X-106960000Y-87590000D01*
X-107060000Y-87090000D02*
X-107060000Y-88090000D01*
X-103860000Y-86840000D02*
X-109260000Y-86840000D01*
X-109260000Y-86840000D02*
X-109260000Y-88340000D01*
X-109260000Y-88340000D02*
X-103860000Y-88340000D01*
X-103860000Y-88340000D02*
X-103860000Y-86840000D01*
X-106960000Y-90240000D02*
X-106060000Y-89740000D01*
X-106060000Y-89740000D02*
X-106060000Y-90740000D01*
X-106060000Y-90740000D02*
X-106960000Y-90240000D01*
X-107060000Y-89740000D02*
X-107060000Y-90740000D01*
X-103860000Y-89490000D02*
X-109260000Y-89490000D01*
X-109260000Y-89490000D02*
X-109260000Y-90990000D01*
X-109260000Y-90990000D02*
X-103860000Y-90990000D01*
X-103860000Y-90990000D02*
X-103860000Y-89490000D01*
X-349610000Y-85760000D02*
X-349610000Y-84260000D01*
X-355010000Y-85760000D02*
X-349610000Y-85760000D01*
X-355010000Y-84260000D02*
X-355010000Y-85760000D01*
X-349610000Y-84260000D02*
X-355010000Y-84260000D01*
X-352810000Y-84510000D02*
X-352810000Y-85510000D01*
X-351810000Y-85510000D02*
X-352710000Y-85010000D01*
X-351810000Y-84510000D02*
X-351810000Y-85510000D01*
X-352710000Y-85010000D02*
X-351810000Y-84510000D01*
X-271845063Y-83145752D02*
X-272346086Y-86710717D01*
X-272346086Y-86710717D02*
X-264225887Y-87851936D01*
X-271964431Y-84138803D02*
X-272277570Y-86366906D01*
D13*
X-272169711Y-86533539D02*
X-270931876Y-86707505D01*
D14*
X-271681802Y-83421153D02*
X-270401413Y-83651592D01*
D15*
X-271767448Y-86186142D02*
X-271419515Y-83710472D01*
D16*
X-270313092Y-85178746D02*
X-263678296Y-86111205D01*
D12*
X-267091776Y-83813782D02*
X-271845063Y-83145752D01*
D17*
X-263650729Y-86418028D02*
X-263338981Y-84199828D01*
D18*
X-262044620Y-83109355D02*
X-262295132Y-84891837D01*
D14*
X-261854328Y-82833151D02*
X-264280485Y-82492177D01*
D12*
X-261628440Y-82662932D02*
X-264628952Y-82241237D01*
X-262247760Y-87069625D02*
X-261628440Y-82662932D01*
D10*
X-261890460Y-85605099D02*
X-261980923Y-86248773D01*
D12*
X-261777516Y-85519989D02*
X-261975570Y-85492155D01*
X-261881896Y-86262690D02*
X-261777516Y-85519989D01*
X-267091776Y-83813782D02*
G75*
G03*
X-264635587Y-82261987I366373J2139835D01*
G01*
D15*
X-266751338Y-84265558D02*
G75*
G03*
X-264295149Y-82713763I366373J2139835D01*
G01*
D12*
X-264225887Y-87851936D02*
G75*
G03*
X-261881896Y-86262689I377372J1966619D01*
G01*
X-252980457Y-85796999D02*
X-253481480Y-89361964D01*
X-253481480Y-89361964D02*
X-245361281Y-90503183D01*
X-253099825Y-86790050D02*
X-253412964Y-89018153D01*
D13*
X-253305105Y-89184786D02*
X-252067270Y-89358752D01*
D14*
X-252817196Y-86072400D02*
X-251536807Y-86302839D01*
D15*
X-252902842Y-88837389D02*
X-252554909Y-86361719D01*
D16*
X-251448486Y-87829993D02*
X-244813690Y-88762452D01*
D12*
X-248227170Y-86465029D02*
X-252980457Y-85796999D01*
D17*
X-244786123Y-89069275D02*
X-244474375Y-86851075D01*
D18*
X-243180014Y-85760602D02*
X-243430526Y-87543084D01*
D14*
X-242989722Y-85484398D02*
X-245415879Y-85143424D01*
D12*
X-242763834Y-85314179D02*
X-245764346Y-84892484D01*
X-243383154Y-89720872D02*
X-242763834Y-85314179D01*
D10*
X-243025854Y-88256346D02*
X-243116317Y-88900020D01*
D12*
X-242912910Y-88171236D02*
X-243110964Y-88143402D01*
X-243017290Y-88913937D02*
X-242912910Y-88171236D01*
X-248227170Y-86465029D02*
G75*
G03*
X-245770981Y-84913234I366373J2139835D01*
G01*
D15*
X-247886732Y-86916805D02*
G75*
G03*
X-245430543Y-85365010I366373J2139835D01*
G01*
D12*
X-245361281Y-90503183D02*
G75*
G03*
X-243017290Y-88913936I377372J1966619D01*
G01*
X-255045361Y-66269581D02*
X-255546384Y-69834546D01*
X-255546384Y-69834546D02*
X-247426185Y-70975765D01*
X-255164729Y-67262632D02*
X-255477868Y-69490735D01*
D13*
X-255370009Y-69657368D02*
X-254132174Y-69831334D01*
D14*
X-254882100Y-66544982D02*
X-253601711Y-66775421D01*
D15*
X-254967746Y-69309971D02*
X-254619813Y-66834301D01*
D16*
X-253513390Y-68302575D02*
X-246878594Y-69235034D01*
D12*
X-250292074Y-66937611D02*
X-255045361Y-66269581D01*
D17*
X-246851027Y-69541857D02*
X-246539279Y-67323657D01*
D18*
X-245244918Y-66233184D02*
X-245495430Y-68015666D01*
D14*
X-245054626Y-65956980D02*
X-247480783Y-65616006D01*
D12*
X-244828738Y-65786761D02*
X-247829250Y-65365066D01*
X-245448058Y-70193454D02*
X-244828738Y-65786761D01*
D10*
X-245090758Y-68728928D02*
X-245181221Y-69372602D01*
D12*
X-244977814Y-68643818D02*
X-245175868Y-68615984D01*
X-245082194Y-69386519D02*
X-244977814Y-68643818D01*
X-250292074Y-66937611D02*
G75*
G03*
X-247835885Y-65385816I366373J2139835D01*
G01*
D15*
X-249951636Y-67389387D02*
G75*
G03*
X-247495447Y-65837592I366373J2139835D01*
G01*
D12*
X-247426185Y-70975765D02*
G75*
G03*
X-245082194Y-69386518I377372J1966619D01*
G01*
X-182545879Y-62628859D02*
X-182044856Y-66193824D01*
X-182044856Y-66193824D02*
X-173924657Y-65052604D01*
X-182386901Y-63616343D02*
X-182073761Y-65844447D01*
D13*
X-181924150Y-65974894D02*
X-180686315Y-65800928D01*
D14*
X-182313032Y-62848591D02*
X-181018725Y-62717180D01*
D15*
X-181633226Y-65530077D02*
X-181981159Y-63054406D01*
D16*
X-180512885Y-64160830D02*
X-173878089Y-63228370D01*
D12*
X-177792592Y-61960828D02*
X-182545879Y-62628859D01*
D17*
X-173767018Y-63515708D02*
X-174078766Y-61297508D01*
D18*
X-173135121Y-59892504D02*
X-172884610Y-61674986D01*
D14*
X-173028333Y-59574548D02*
X-175454490Y-59915522D01*
D12*
X-172858114Y-59348660D02*
X-175858626Y-59770354D01*
X-172238794Y-63755353D02*
X-172858114Y-59348660D01*
D10*
X-172299013Y-62249075D02*
X-172208551Y-62892749D01*
D12*
X-172213904Y-62136131D02*
X-172411957Y-62163965D01*
X-172109524Y-62878832D02*
X-172213904Y-62136131D01*
X-177792592Y-61960827D02*
G75*
G03*
X-175859285Y-59792129I-237640J2157928D01*
G01*
D15*
X-177340816Y-62301265D02*
G75*
G03*
X-175407509Y-60132567I-237638J2157927D01*
G01*
D12*
X-173924657Y-65052604D02*
G75*
G03*
X-172109524Y-62878831I-179320J1994453D01*
G01*
X-292774574Y-60967086D02*
X-293275597Y-64532051D01*
X-293275597Y-64532051D02*
X-285155398Y-65673270D01*
X-292893942Y-61960137D02*
X-293207081Y-64188240D01*
D13*
X-293099222Y-64354873D02*
X-291861387Y-64528839D01*
D14*
X-292611313Y-61242487D02*
X-291330924Y-61472926D01*
D15*
X-292696959Y-64007476D02*
X-292349026Y-61531806D01*
D16*
X-291242603Y-63000080D02*
X-284607807Y-63932539D01*
D12*
X-288021287Y-61635116D02*
X-292774574Y-60967086D01*
D17*
X-284580240Y-64239362D02*
X-284268492Y-62021162D01*
D18*
X-282974131Y-60930689D02*
X-283224643Y-62713171D01*
D14*
X-282783839Y-60654485D02*
X-285209996Y-60313511D01*
D12*
X-282557951Y-60484266D02*
X-285558463Y-60062571D01*
X-283177271Y-64890959D02*
X-282557951Y-60484266D01*
D10*
X-282819971Y-63426433D02*
X-282910434Y-64070107D01*
D12*
X-282707027Y-63341323D02*
X-282905081Y-63313489D01*
X-282811407Y-64084024D02*
X-282707027Y-63341323D01*
X-288021287Y-61635116D02*
G75*
G03*
X-285565098Y-60083321I366373J2139835D01*
G01*
D15*
X-287680849Y-62086892D02*
G75*
G03*
X-285224660Y-60535097I366373J2139835D01*
G01*
D12*
X-285155398Y-65673270D02*
G75*
G03*
X-282811407Y-64084023I377372J1966619D01*
G01*
X-290709670Y-80494504D02*
X-291210693Y-84059469D01*
X-291210693Y-84059469D02*
X-283090494Y-85200688D01*
X-290829038Y-81487555D02*
X-291142177Y-83715658D01*
D13*
X-291034318Y-83882291D02*
X-289796483Y-84056257D01*
D14*
X-290546409Y-80769905D02*
X-289266020Y-81000344D01*
D15*
X-290632055Y-83534894D02*
X-290284122Y-81059224D01*
D16*
X-289177699Y-82527498D02*
X-282542903Y-83459957D01*
D12*
X-285956383Y-81162534D02*
X-290709670Y-80494504D01*
D17*
X-282515336Y-83766780D02*
X-282203588Y-81548580D01*
D18*
X-280909227Y-80458107D02*
X-281159739Y-82240589D01*
D14*
X-280718935Y-80181903D02*
X-283145092Y-79840929D01*
D12*
X-280493047Y-80011684D02*
X-283493559Y-79589989D01*
X-281112367Y-84418377D02*
X-280493047Y-80011684D01*
D10*
X-280755067Y-82953851D02*
X-280845530Y-83597525D01*
D12*
X-280642123Y-82868741D02*
X-280840177Y-82840907D01*
X-280746503Y-83611442D02*
X-280642123Y-82868741D01*
X-285956383Y-81162534D02*
G75*
G03*
X-283500194Y-79610739I366373J2139835D01*
G01*
D15*
X-285615945Y-81614310D02*
G75*
G03*
X-283159756Y-80062515I366373J2139835D01*
G01*
D12*
X-283090494Y-85200688D02*
G75*
G03*
X-280746503Y-83611441I377372J1966619D01*
G01*
X-331978475Y-58075733D02*
X-331978475Y-61675733D01*
X-331978475Y-61675733D02*
X-323778474Y-61675733D01*
X-331958475Y-59075733D02*
X-331958475Y-61325733D01*
D13*
X-331828475Y-61475733D02*
X-330578475Y-61475733D01*
D14*
X-331778475Y-58325733D02*
X-330478475Y-58375733D01*
D15*
X-331478475Y-61075733D02*
X-331478475Y-58575733D01*
D16*
X-330178475Y-59875733D02*
X-323478475Y-59875733D01*
D12*
X-327178475Y-58075733D02*
X-331978475Y-58075733D01*
D17*
X-323408475Y-60175733D02*
X-323408475Y-57935733D01*
D18*
X-322278475Y-56675733D02*
X-322278475Y-58475732D01*
D14*
X-322128475Y-56375733D02*
X-324578475Y-56375733D01*
D12*
X-321928475Y-56175733D02*
X-324958475Y-56175733D01*
X-321928475Y-60625733D02*
X-321928475Y-56175733D01*
D10*
X-321778475Y-59125733D02*
X-321778475Y-59775733D01*
D12*
X-321678475Y-59025733D02*
X-321878475Y-59025733D01*
X-321678475Y-59775733D02*
X-321678475Y-59025733D01*
X-327178475Y-58075733D02*
G75*
G03*
X-324962157Y-56197204I65000J2170000D01*
G01*
D15*
X-326778475Y-58475733D02*
G75*
G03*
X-324562157Y-56597204I65000J2170000D01*
G01*
D12*
X-323778474Y-61675733D02*
G75*
G03*
X-321678475Y-59775732I99999J2000000D01*
G01*
X-163681272Y-59977611D02*
X-163180249Y-63542576D01*
X-163180249Y-63542576D02*
X-155060050Y-62401356D01*
X-163522294Y-60965095D02*
X-163209154Y-63193199D01*
D13*
X-163059543Y-63323646D02*
X-161821708Y-63149680D01*
D14*
X-163448425Y-60197343D02*
X-162154118Y-60065932D01*
D15*
X-162768619Y-62878829D02*
X-163116552Y-60403158D01*
D16*
X-161648278Y-61509582D02*
X-155013482Y-60577122D01*
D12*
X-158927985Y-59309580D02*
X-163681272Y-59977611D01*
D17*
X-154902411Y-60864460D02*
X-155214159Y-58646260D01*
D18*
X-154270514Y-57241256D02*
X-154020003Y-59023738D01*
D14*
X-154163726Y-56923300D02*
X-156589883Y-57264274D01*
D12*
X-153993507Y-56697412D02*
X-156994019Y-57119106D01*
X-153374187Y-61104105D02*
X-153993507Y-56697412D01*
D10*
X-153434406Y-59597827D02*
X-153343944Y-60241501D01*
D12*
X-153349297Y-59484883D02*
X-153547350Y-59512717D01*
X-153244917Y-60227584D02*
X-153349297Y-59484883D01*
X-158927985Y-59309579D02*
G75*
G03*
X-156994678Y-57140881I-237640J2157928D01*
G01*
D15*
X-158476209Y-59650017D02*
G75*
G03*
X-156542902Y-57481319I-237638J2157927D01*
G01*
D12*
X-155060050Y-62401356D02*
G75*
G03*
X-153244917Y-60227583I-179320J1994453D01*
G01*
X-311639181Y-58315838D02*
X-312140204Y-61880803D01*
X-312140204Y-61880803D02*
X-304020005Y-63022022D01*
X-311758549Y-59308889D02*
X-312071688Y-61536992D01*
D13*
X-311963829Y-61703625D02*
X-310725994Y-61877591D01*
D14*
X-311475920Y-58591239D02*
X-310195531Y-58821678D01*
D15*
X-311561566Y-61356228D02*
X-311213633Y-58880558D01*
D16*
X-310107210Y-60348832D02*
X-303472414Y-61281291D01*
D12*
X-306885894Y-58983868D02*
X-311639181Y-58315838D01*
D17*
X-303444847Y-61588114D02*
X-303133099Y-59369914D01*
D18*
X-301838738Y-58279441D02*
X-302089250Y-60061923D01*
D14*
X-301648446Y-58003237D02*
X-304074603Y-57662263D01*
D12*
X-301422558Y-57833018D02*
X-304423070Y-57411323D01*
X-302041878Y-62239711D02*
X-301422558Y-57833018D01*
D10*
X-301684578Y-60775185D02*
X-301775041Y-61418859D01*
D12*
X-301571634Y-60690075D02*
X-301769688Y-60662241D01*
X-301676014Y-61432776D02*
X-301571634Y-60690075D01*
X-306885894Y-58983868D02*
G75*
G03*
X-304429705Y-57432073I366373J2139835D01*
G01*
D15*
X-306545456Y-59435644D02*
G75*
G03*
X-304089267Y-57883849I366373J2139835D01*
G01*
D12*
X-304020005Y-63022022D02*
G75*
G03*
X-301676014Y-61432775I377372J1966619D01*
G01*
X-220275092Y-67931354D02*
X-219774069Y-71496319D01*
X-219774069Y-71496319D02*
X-211653870Y-70355099D01*
X-220116114Y-68918838D02*
X-219802974Y-71146942D01*
D13*
X-219653363Y-71277389D02*
X-218415528Y-71103423D01*
D14*
X-220042245Y-68151086D02*
X-218747938Y-68019675D01*
D15*
X-219362439Y-70832572D02*
X-219710372Y-68356901D01*
D16*
X-218242098Y-69463325D02*
X-211607302Y-68530865D01*
D12*
X-215521805Y-67263323D02*
X-220275092Y-67931354D01*
D17*
X-211496231Y-68818203D02*
X-211807979Y-66600003D01*
D18*
X-210864334Y-65194999D02*
X-210613823Y-66977481D01*
D14*
X-210757546Y-64877043D02*
X-213183703Y-65218017D01*
D12*
X-210587327Y-64651155D02*
X-213587839Y-65072849D01*
X-209968007Y-69057848D02*
X-210587327Y-64651155D01*
D10*
X-210028226Y-67551570D02*
X-209937764Y-68195244D01*
D12*
X-209943117Y-67438626D02*
X-210141170Y-67466460D01*
X-209838737Y-68181327D02*
X-209943117Y-67438626D01*
X-215521805Y-67263322D02*
G75*
G03*
X-213588498Y-65094624I-237640J2157928D01*
G01*
D15*
X-215070029Y-67603760D02*
G75*
G03*
X-213136722Y-65435062I-237638J2157927D01*
G01*
D12*
X-211653870Y-70355099D02*
G75*
G03*
X-209838737Y-68181326I-179320J1994453D01*
G01*
X-201410485Y-65280107D02*
X-200909462Y-68845072D01*
X-200909462Y-68845072D02*
X-192789263Y-67703852D01*
X-201251507Y-66267591D02*
X-200938367Y-68495695D01*
D13*
X-200788756Y-68626142D02*
X-199550921Y-68452176D01*
D14*
X-201177638Y-65499839D02*
X-199883331Y-65368428D01*
D15*
X-200497832Y-68181325D02*
X-200845765Y-65705654D01*
D16*
X-199377491Y-66812078D02*
X-192742695Y-65879618D01*
D12*
X-196657198Y-64612076D02*
X-201410485Y-65280107D01*
D17*
X-192631624Y-66166956D02*
X-192943372Y-63948756D01*
D18*
X-191999727Y-62543752D02*
X-191749216Y-64326234D01*
D14*
X-191892939Y-62225796D02*
X-194319096Y-62566770D01*
D12*
X-191722720Y-61999908D02*
X-194723232Y-62421602D01*
X-191103400Y-66406601D02*
X-191722720Y-61999908D01*
D10*
X-191163619Y-64900323D02*
X-191073157Y-65543997D01*
D12*
X-191078510Y-64787379D02*
X-191276563Y-64815213D01*
X-190974130Y-65530080D02*
X-191078510Y-64787379D01*
X-196657198Y-64612075D02*
G75*
G03*
X-194723891Y-62443377I-237640J2157928D01*
G01*
D15*
X-196205422Y-64952513D02*
G75*
G03*
X-194272115Y-62783815I-237638J2157927D01*
G01*
D12*
X-192789263Y-67703852D02*
G75*
G03*
X-190974130Y-65530079I-179320J1994453D01*
G01*
X-273909968Y-63618333D02*
X-274410991Y-67183298D01*
X-274410991Y-67183298D02*
X-266290792Y-68324517D01*
X-274029336Y-64611384D02*
X-274342475Y-66839487D01*
D13*
X-274234616Y-67006120D02*
X-272996781Y-67180086D01*
D14*
X-273746707Y-63893734D02*
X-272466318Y-64124173D01*
D15*
X-273832353Y-66658723D02*
X-273484420Y-64183053D01*
D16*
X-272377997Y-65651327D02*
X-265743201Y-66583786D01*
D12*
X-269156681Y-64286363D02*
X-273909968Y-63618333D01*
D17*
X-265715634Y-66890609D02*
X-265403886Y-64672409D01*
D18*
X-264109525Y-63581936D02*
X-264360037Y-65364418D01*
D14*
X-263919233Y-63305732D02*
X-266345390Y-62964758D01*
D12*
X-263693345Y-63135513D02*
X-266693857Y-62713818D01*
X-264312665Y-67542206D02*
X-263693345Y-63135513D01*
D10*
X-263955365Y-66077680D02*
X-264045828Y-66721354D01*
D12*
X-263842421Y-65992570D02*
X-264040475Y-65964736D01*
X-263946801Y-66735271D02*
X-263842421Y-65992570D01*
X-269156681Y-64286363D02*
G75*
G03*
X-266700492Y-62734568I366373J2139835D01*
G01*
D15*
X-268816243Y-64738139D02*
G75*
G03*
X-266360054Y-63186344I366373J2139835D01*
G01*
D12*
X-266290792Y-68324517D02*
G75*
G03*
X-263946801Y-66735270I377372J1966619D01*
G01*
X-212907693Y-86133149D02*
X-212406670Y-89698114D01*
X-212406670Y-89698114D02*
X-204286471Y-88556894D01*
X-212748715Y-87120633D02*
X-212435575Y-89348737D01*
D13*
X-212285964Y-89479184D02*
X-211048129Y-89305218D01*
D14*
X-212674846Y-86352881D02*
X-211380539Y-86221470D01*
D15*
X-211995040Y-89034367D02*
X-212342973Y-86558696D01*
D16*
X-210874699Y-87665120D02*
X-204239903Y-86732660D01*
D12*
X-208154406Y-85465118D02*
X-212907693Y-86133149D01*
D17*
X-204128832Y-87019998D02*
X-204440580Y-84801798D01*
D18*
X-203496935Y-83396794D02*
X-203246424Y-85179276D01*
D14*
X-203390147Y-83078838D02*
X-205816304Y-83419812D01*
D12*
X-203219928Y-82852950D02*
X-206220440Y-83274644D01*
X-202600608Y-87259643D02*
X-203219928Y-82852950D01*
D10*
X-202660827Y-85753365D02*
X-202570365Y-86397039D01*
D12*
X-202575718Y-85640421D02*
X-202773771Y-85668255D01*
X-202471338Y-86383122D02*
X-202575718Y-85640421D01*
X-208154406Y-85465117D02*
G75*
G03*
X-206221099Y-83296419I-237640J2157928D01*
G01*
D15*
X-207702630Y-85805555D02*
G75*
G03*
X-205769323Y-83636857I-237638J2157927D01*
G01*
D12*
X-204286471Y-88556894D02*
G75*
G03*
X-202471338Y-86383121I-179320J1994453D01*
G01*
X-194043086Y-83481901D02*
X-193542063Y-87046866D01*
X-193542063Y-87046866D02*
X-185421864Y-85905646D01*
X-193884108Y-84469385D02*
X-193570968Y-86697489D01*
D13*
X-193421357Y-86827936D02*
X-192183522Y-86653970D01*
D14*
X-193810239Y-83701633D02*
X-192515932Y-83570222D01*
D15*
X-193130433Y-86383119D02*
X-193478366Y-83907448D01*
D16*
X-192010092Y-85013872D02*
X-185375296Y-84081412D01*
D12*
X-189289799Y-82813870D02*
X-194043086Y-83481901D01*
D17*
X-185264225Y-84368750D02*
X-185575973Y-82150550D01*
D18*
X-184632328Y-80745546D02*
X-184381817Y-82528028D01*
D14*
X-184525540Y-80427590D02*
X-186951697Y-80768564D01*
D12*
X-184355321Y-80201702D02*
X-187355833Y-80623396D01*
X-183736001Y-84608395D02*
X-184355321Y-80201702D01*
D10*
X-183796220Y-83102117D02*
X-183705758Y-83745791D01*
D12*
X-183711111Y-82989173D02*
X-183909164Y-83017007D01*
X-183606731Y-83731874D02*
X-183711111Y-82989173D01*
X-189289799Y-82813869D02*
G75*
G03*
X-187356492Y-80645171I-237640J2157928D01*
G01*
D15*
X-188838023Y-83154307D02*
G75*
G03*
X-186904716Y-80985609I-237638J2157927D01*
G01*
D12*
X-185421864Y-85905646D02*
G75*
G03*
X-183606731Y-83731873I-179320J1994453D01*
G01*
X-175178479Y-80830654D02*
X-174677456Y-84395619D01*
X-174677456Y-84395619D02*
X-166557257Y-83254399D01*
X-175019501Y-81818138D02*
X-174706361Y-84046242D01*
D13*
X-174556750Y-84176689D02*
X-173318915Y-84002723D01*
D14*
X-174945632Y-81050386D02*
X-173651325Y-80918975D01*
D15*
X-174265826Y-83731872D02*
X-174613759Y-81256201D01*
D16*
X-173145485Y-82362625D02*
X-166510689Y-81430165D01*
D12*
X-170425192Y-80162623D02*
X-175178479Y-80830654D01*
D17*
X-166399618Y-81717503D02*
X-166711366Y-79499303D01*
D18*
X-165767721Y-78094299D02*
X-165517210Y-79876781D01*
D14*
X-165660933Y-77776343D02*
X-168087090Y-78117317D01*
D12*
X-165490714Y-77550455D02*
X-168491226Y-77972149D01*
X-164871394Y-81957148D02*
X-165490714Y-77550455D01*
D10*
X-164931613Y-80450870D02*
X-164841151Y-81094544D01*
D12*
X-164846504Y-80337926D02*
X-165044557Y-80365760D01*
X-164742124Y-81080627D02*
X-164846504Y-80337926D01*
X-170425192Y-80162622D02*
G75*
G03*
X-168491885Y-77993924I-237640J2157928D01*
G01*
D15*
X-169973416Y-80503060D02*
G75*
G03*
X-168040109Y-78334362I-237638J2157927D01*
G01*
D12*
X-166557257Y-83254399D02*
G75*
G03*
X-164742124Y-81080626I-179320J1994453D01*
G01*
X-156313873Y-78179406D02*
X-155812850Y-81744371D01*
X-155812850Y-81744371D02*
X-147692651Y-80603151D01*
X-156154895Y-79166890D02*
X-155841755Y-81394994D01*
D13*
X-155692144Y-81525441D02*
X-154454309Y-81351475D01*
D14*
X-156081026Y-78399138D02*
X-154786719Y-78267727D01*
D15*
X-155401220Y-81080624D02*
X-155749153Y-78604953D01*
D16*
X-154280879Y-79711377D02*
X-147646083Y-78778917D01*
D12*
X-151560586Y-77511375D02*
X-156313873Y-78179406D01*
D17*
X-147535012Y-79066255D02*
X-147846760Y-76848055D01*
D18*
X-146903115Y-75443051D02*
X-146652604Y-77225533D01*
D14*
X-146796327Y-75125095D02*
X-149222484Y-75466069D01*
D12*
X-146626108Y-74899207D02*
X-149626620Y-75320901D01*
X-146006788Y-79305900D02*
X-146626108Y-74899207D01*
D10*
X-146067007Y-77799622D02*
X-145976545Y-78443296D01*
D12*
X-145981898Y-77686678D02*
X-146179951Y-77714512D01*
X-145877518Y-78429379D02*
X-145981898Y-77686678D01*
X-151560586Y-77511374D02*
G75*
G03*
X-149627279Y-75342676I-237640J2157928D01*
G01*
D15*
X-151108810Y-77851812D02*
G75*
G03*
X-149175503Y-75683114I-237638J2157927D01*
G01*
D12*
X-147692651Y-80603151D02*
G75*
G03*
X-145877518Y-78429378I-179320J1994453D01*
G01*
X-135953975Y-77125734D02*
X-135953975Y-80725734D01*
X-135953975Y-80725734D02*
X-127753974Y-80725734D01*
X-135933975Y-78125734D02*
X-135933975Y-80375734D01*
D13*
X-135803975Y-80525734D02*
X-134553975Y-80525734D01*
D14*
X-135753975Y-77375734D02*
X-134453975Y-77425734D01*
D15*
X-135453975Y-80125734D02*
X-135453975Y-77625734D01*
D16*
X-134153975Y-78925734D02*
X-127453975Y-78925734D01*
D12*
X-131153975Y-77125734D02*
X-135953975Y-77125734D01*
D17*
X-127383975Y-79225734D02*
X-127383975Y-76985734D01*
D18*
X-126253975Y-75725734D02*
X-126253975Y-77525733D01*
D14*
X-126103975Y-75425734D02*
X-128553975Y-75425734D01*
D12*
X-125903975Y-75225734D02*
X-128933975Y-75225734D01*
X-125903975Y-79675734D02*
X-125903975Y-75225734D01*
D10*
X-125753975Y-78175734D02*
X-125753975Y-78825734D01*
D12*
X-125653975Y-78075734D02*
X-125853975Y-78075734D01*
X-125653975Y-78825734D02*
X-125653975Y-78075734D01*
X-131153975Y-77125734D02*
G75*
G03*
X-128937657Y-75247205I65000J2170000D01*
G01*
D15*
X-130753975Y-77525734D02*
G75*
G03*
X-128537657Y-75647205I65000J2170000D01*
G01*
D12*
X-127753974Y-80725734D02*
G75*
G03*
X-125653975Y-78825733I99999J2000000D01*
G01*
X-302793221Y-98033487D02*
X-303294244Y-101598452D01*
X-303294244Y-101598452D02*
X-295174045Y-102739671D01*
X-302912589Y-99026538D02*
X-303225728Y-101254641D01*
D13*
X-303117869Y-101421274D02*
X-301880034Y-101595240D01*
D14*
X-302629960Y-98308888D02*
X-301349571Y-98539327D01*
D15*
X-302715606Y-101073877D02*
X-302367673Y-98598207D01*
D16*
X-301261250Y-100066481D02*
X-294626454Y-100998940D01*
D12*
X-298039934Y-98701517D02*
X-302793221Y-98033487D01*
D17*
X-294598887Y-101305763D02*
X-294287139Y-99087563D01*
D18*
X-292992778Y-97997090D02*
X-293243290Y-99779572D01*
D14*
X-292802486Y-97720886D02*
X-295228643Y-97379912D01*
D12*
X-292576598Y-97550667D02*
X-295577110Y-97128972D01*
X-293195918Y-101957360D02*
X-292576598Y-97550667D01*
D10*
X-292838618Y-100492834D02*
X-292929081Y-101136508D01*
D12*
X-292725674Y-100407724D02*
X-292923728Y-100379890D01*
X-292830054Y-101150425D02*
X-292725674Y-100407724D01*
X-298039934Y-98701517D02*
G75*
G03*
X-295583745Y-97149722I366373J2139835D01*
G01*
D15*
X-297699496Y-99153293D02*
G75*
G03*
X-295243307Y-97601498I366373J2139835D01*
G01*
D12*
X-295174045Y-102739671D02*
G75*
G03*
X-292830054Y-101150424I377372J1966619D01*
G01*
X-283928614Y-100684735D02*
X-284429637Y-104249700D01*
X-284429637Y-104249700D02*
X-276309438Y-105390919D01*
X-284047982Y-101677786D02*
X-284361121Y-103905889D01*
D13*
X-284253262Y-104072522D02*
X-283015427Y-104246488D01*
D14*
X-283765353Y-100960136D02*
X-282484964Y-101190575D01*
D15*
X-283850999Y-103725125D02*
X-283503066Y-101249455D01*
D16*
X-282396643Y-102717729D02*
X-275761847Y-103650188D01*
D12*
X-279175327Y-101352765D02*
X-283928614Y-100684735D01*
D17*
X-275734280Y-103957011D02*
X-275422532Y-101738811D01*
D18*
X-274128171Y-100648338D02*
X-274378683Y-102430820D01*
D14*
X-273937879Y-100372134D02*
X-276364036Y-100031160D01*
D12*
X-273711991Y-100201915D02*
X-276712503Y-99780220D01*
X-274331311Y-104608608D02*
X-273711991Y-100201915D01*
D10*
X-273974011Y-103144082D02*
X-274064474Y-103787756D01*
D12*
X-273861067Y-103058972D02*
X-274059121Y-103031138D01*
X-273965447Y-103801673D02*
X-273861067Y-103058972D01*
X-279175327Y-101352765D02*
G75*
G03*
X-276719138Y-99800970I366373J2139835D01*
G01*
D15*
X-278834889Y-101804541D02*
G75*
G03*
X-276378700Y-100252746I366373J2139835D01*
G01*
D12*
X-276309438Y-105390919D02*
G75*
G03*
X-273965447Y-103801672I377372J1966619D01*
G01*
X-265064008Y-103335982D02*
X-265565031Y-106900947D01*
X-265565031Y-106900947D02*
X-257444832Y-108042166D01*
X-265183376Y-104329033D02*
X-265496515Y-106557136D01*
D13*
X-265388656Y-106723769D02*
X-264150821Y-106897735D01*
D14*
X-264900747Y-103611383D02*
X-263620358Y-103841822D01*
D15*
X-264986393Y-106376372D02*
X-264638460Y-103900702D01*
D16*
X-263532037Y-105368976D02*
X-256897241Y-106301435D01*
D12*
X-260310721Y-104004012D02*
X-265064008Y-103335982D01*
D17*
X-256869674Y-106608258D02*
X-256557926Y-104390058D01*
D18*
X-255263565Y-103299585D02*
X-255514077Y-105082067D01*
D14*
X-255073273Y-103023381D02*
X-257499430Y-102682407D01*
D12*
X-254847385Y-102853162D02*
X-257847897Y-102431467D01*
X-255466705Y-107259855D02*
X-254847385Y-102853162D01*
D10*
X-255109405Y-105795329D02*
X-255199868Y-106439003D01*
D12*
X-254996461Y-105710219D02*
X-255194515Y-105682385D01*
X-255100841Y-106452920D02*
X-254996461Y-105710219D01*
X-260310721Y-104004012D02*
G75*
G03*
X-257854532Y-102452217I366373J2139835D01*
G01*
D15*
X-259970283Y-104455788D02*
G75*
G03*
X-257514094Y-102903993I366373J2139835D01*
G01*
D12*
X-257444832Y-108042166D02*
G75*
G03*
X-255100841Y-106452919I377372J1966619D01*
G01*
X-246199401Y-105987230D02*
X-246700424Y-109552195D01*
X-246700424Y-109552195D02*
X-238580225Y-110693414D01*
X-246318769Y-106980281D02*
X-246631908Y-109208384D01*
D13*
X-246524049Y-109375017D02*
X-245286214Y-109548983D01*
D14*
X-246036140Y-106262631D02*
X-244755751Y-106493070D01*
D15*
X-246121786Y-109027620D02*
X-245773853Y-106551950D01*
D16*
X-244667430Y-108020224D02*
X-238032634Y-108952683D01*
D12*
X-241446114Y-106655260D02*
X-246199401Y-105987230D01*
D17*
X-238005067Y-109259506D02*
X-237693319Y-107041306D01*
D18*
X-236398958Y-105950833D02*
X-236649470Y-107733315D01*
D14*
X-236208666Y-105674629D02*
X-238634823Y-105333655D01*
D12*
X-235982778Y-105504410D02*
X-238983290Y-105082715D01*
X-236602098Y-109911103D02*
X-235982778Y-105504410D01*
D10*
X-236244798Y-108446577D02*
X-236335261Y-109090251D01*
D12*
X-236131854Y-108361467D02*
X-236329908Y-108333633D01*
X-236236234Y-109104168D02*
X-236131854Y-108361467D01*
X-241446114Y-106655260D02*
G75*
G03*
X-238989925Y-105103465I366373J2139835D01*
G01*
D15*
X-241105676Y-107107036D02*
G75*
G03*
X-238649487Y-105555241I366373J2139835D01*
G01*
D12*
X-238580225Y-110693414D02*
G75*
G03*
X-236236234Y-109104167I377372J1966619D01*
G01*
X-143800000Y-58040000D02*
X-143800000Y-61640000D01*
X-143800000Y-61640000D02*
X-135599999Y-61640000D01*
X-143780000Y-59040000D02*
X-143780000Y-61290000D01*
D13*
X-143650000Y-61440000D02*
X-142400000Y-61440000D01*
D14*
X-143600000Y-58290000D02*
X-142300000Y-58340000D01*
D15*
X-143300000Y-61040000D02*
X-143300000Y-58540000D01*
D16*
X-142000000Y-59840000D02*
X-135300000Y-59840000D01*
D12*
X-139000000Y-58040000D02*
X-143800000Y-58040000D01*
D17*
X-135230000Y-60140000D02*
X-135230000Y-57900000D01*
D18*
X-134100000Y-56640000D02*
X-134100000Y-58439999D01*
D14*
X-133950000Y-56340000D02*
X-136400000Y-56340000D01*
D12*
X-133750000Y-56140000D02*
X-136780000Y-56140000D01*
X-133750000Y-60590000D02*
X-133750000Y-56140000D01*
D10*
X-133600000Y-59090000D02*
X-133600000Y-59740000D01*
D12*
X-133500000Y-58990000D02*
X-133700000Y-58990000D01*
X-133500000Y-59740000D02*
X-133500000Y-58990000D01*
X-139000000Y-58040000D02*
G75*
G03*
X-136783682Y-56161471I65000J2170000D01*
G01*
D15*
X-138600000Y-58440000D02*
G75*
G03*
X-136383682Y-56561471I65000J2170000D01*
G01*
D12*
X-135599999Y-61640000D02*
G75*
G03*
X-133500000Y-59739999I99999J2000000D01*
G01*
X-329730000Y-77110000D02*
X-329730000Y-80710000D01*
X-329730000Y-80710000D02*
X-321529999Y-80710000D01*
X-329710000Y-78110000D02*
X-329710000Y-80360000D01*
D13*
X-329580000Y-80510000D02*
X-328330000Y-80510000D01*
D14*
X-329530000Y-77360000D02*
X-328230000Y-77410000D01*
D15*
X-329230000Y-80110000D02*
X-329230000Y-77610000D01*
D16*
X-327930000Y-78910000D02*
X-321230000Y-78910000D01*
D12*
X-324930000Y-77110000D02*
X-329730000Y-77110000D01*
D17*
X-321160000Y-79210000D02*
X-321160000Y-76970000D01*
D18*
X-320030000Y-75710000D02*
X-320030000Y-77509999D01*
D14*
X-319880000Y-75410000D02*
X-322330000Y-75410000D01*
D12*
X-319680000Y-75210000D02*
X-322710000Y-75210000D01*
X-319680000Y-79660000D02*
X-319680000Y-75210000D01*
D10*
X-319530000Y-78160000D02*
X-319530000Y-78810000D01*
D12*
X-319430000Y-78060000D02*
X-319630000Y-78060000D01*
X-319430000Y-78810000D02*
X-319430000Y-78060000D01*
X-324930000Y-77110000D02*
G75*
G03*
X-322713682Y-75231471I65000J2170000D01*
G01*
D15*
X-324530000Y-77510000D02*
G75*
G03*
X-322313682Y-75631471I65000J2170000D01*
G01*
D12*
X-321529999Y-80710000D02*
G75*
G03*
X-319430000Y-78809999I99999J2000000D01*
G01*
X-286595261Y-119611444D02*
X-287096284Y-123176409D01*
X-287096284Y-123176409D02*
X-278976085Y-124317628D01*
X-286714629Y-120604495D02*
X-287027768Y-122832598D01*
D13*
X-286919909Y-122999231D02*
X-285682074Y-123173197D01*
D14*
X-286432000Y-119886845D02*
X-285151611Y-120117284D01*
D15*
X-286517646Y-122651834D02*
X-286169713Y-120176164D01*
D16*
X-285063290Y-121644438D02*
X-278428494Y-122576897D01*
D12*
X-281841974Y-120279474D02*
X-286595261Y-119611444D01*
D17*
X-278400927Y-122883720D02*
X-278089179Y-120665520D01*
D18*
X-276794818Y-119575047D02*
X-277045330Y-121357529D01*
D14*
X-276604526Y-119298843D02*
X-279030683Y-118957869D01*
D12*
X-276378638Y-119128624D02*
X-279379150Y-118706929D01*
X-276997958Y-123535317D02*
X-276378638Y-119128624D01*
D10*
X-276640658Y-122070791D02*
X-276731121Y-122714465D01*
D12*
X-276527714Y-121985681D02*
X-276725768Y-121957847D01*
X-276632094Y-122728382D02*
X-276527714Y-121985681D01*
X-281841974Y-120279474D02*
G75*
G03*
X-279385785Y-118727679I366373J2139835D01*
G01*
D15*
X-281501536Y-120731250D02*
G75*
G03*
X-279045347Y-119179455I366373J2139835D01*
G01*
D12*
X-278976085Y-124317628D02*
G75*
G03*
X-276632094Y-122728381I377372J1966619D01*
G01*
X-142900000Y-96210000D02*
X-142900000Y-99810000D01*
X-142900000Y-99810000D02*
X-134699999Y-99810000D01*
X-142880000Y-97210000D02*
X-142880000Y-99460000D01*
D13*
X-142750000Y-99610000D02*
X-141500000Y-99610000D01*
D14*
X-142700000Y-96460000D02*
X-141400000Y-96510000D01*
D15*
X-142400000Y-99210000D02*
X-142400000Y-96710000D01*
D16*
X-141100000Y-98010000D02*
X-134400000Y-98010000D01*
D12*
X-138100000Y-96210000D02*
X-142900000Y-96210000D01*
D17*
X-134330000Y-98310000D02*
X-134330000Y-96070000D01*
D18*
X-133200000Y-94810000D02*
X-133200000Y-96609999D01*
D14*
X-133050000Y-94510000D02*
X-135500000Y-94510000D01*
D12*
X-132850000Y-94310000D02*
X-135880000Y-94310000D01*
X-132850000Y-98760000D02*
X-132850000Y-94310000D01*
D10*
X-132700000Y-97260000D02*
X-132700000Y-97910000D01*
D12*
X-132600000Y-97160000D02*
X-132800000Y-97160000D01*
X-132600000Y-97910000D02*
X-132600000Y-97160000D01*
X-138100000Y-96210000D02*
G75*
G03*
X-135883682Y-94331471I65000J2170000D01*
G01*
D15*
X-137700000Y-96610000D02*
G75*
G03*
X-135483682Y-94731471I65000J2170000D01*
G01*
D12*
X-134699999Y-99810000D02*
G75*
G03*
X-132600000Y-97909999I99999J2000000D01*
G01*
X-322730000Y-96190000D02*
X-322730000Y-99790000D01*
X-322730000Y-99790000D02*
X-314529999Y-99790000D01*
X-322710000Y-97190000D02*
X-322710000Y-99440000D01*
D13*
X-322580000Y-99590000D02*
X-321330000Y-99590000D01*
D14*
X-322530000Y-96440000D02*
X-321230000Y-96490000D01*
D15*
X-322230000Y-99190000D02*
X-322230000Y-96690000D01*
D16*
X-320930000Y-97990000D02*
X-314230000Y-97990000D01*
D12*
X-317930000Y-96190000D02*
X-322730000Y-96190000D01*
D17*
X-314160000Y-98290000D02*
X-314160000Y-96050000D01*
D18*
X-313030000Y-94790000D02*
X-313030000Y-96589999D01*
D14*
X-312880000Y-94490000D02*
X-315330000Y-94490000D01*
D12*
X-312680000Y-94290000D02*
X-315710000Y-94290000D01*
X-312680000Y-98740000D02*
X-312680000Y-94290000D01*
D10*
X-312530000Y-97240000D02*
X-312530000Y-97890000D01*
D12*
X-312430000Y-97140000D02*
X-312630000Y-97140000D01*
X-312430000Y-97890000D02*
X-312430000Y-97140000D01*
X-317930000Y-96190000D02*
G75*
G03*
X-315713682Y-94311471I65000J2170000D01*
G01*
D15*
X-317530000Y-96590000D02*
G75*
G03*
X-315313682Y-94711471I65000J2170000D01*
G01*
D12*
X-314529999Y-99790000D02*
G75*
G03*
X-312430000Y-97889999I99999J2000000D01*
G01*
X-267684137Y-122275442D02*
X-268185160Y-125840407D01*
X-268185160Y-125840407D02*
X-260064961Y-126981626D01*
X-267803505Y-123268493D02*
X-268116644Y-125496596D01*
D13*
X-268008785Y-125663229D02*
X-266770950Y-125837195D01*
D14*
X-267520876Y-122550843D02*
X-266240487Y-122781282D01*
D15*
X-267606522Y-125315832D02*
X-267258589Y-122840162D01*
D16*
X-266152166Y-124308436D02*
X-259517370Y-125240895D01*
D12*
X-262930850Y-122943472D02*
X-267684137Y-122275442D01*
D17*
X-259489803Y-125547718D02*
X-259178055Y-123329518D01*
D18*
X-257883694Y-122239045D02*
X-258134206Y-124021527D01*
D14*
X-257693402Y-121962841D02*
X-260119559Y-121621867D01*
D12*
X-257467514Y-121792622D02*
X-260468026Y-121370927D01*
X-258086834Y-126199315D02*
X-257467514Y-121792622D01*
D10*
X-257729534Y-124734789D02*
X-257819997Y-125378463D01*
D12*
X-257616590Y-124649679D02*
X-257814644Y-124621845D01*
X-257720970Y-125392380D02*
X-257616590Y-124649679D01*
X-262930850Y-122943472D02*
G75*
G03*
X-260474661Y-121391677I366373J2139835D01*
G01*
D15*
X-262590412Y-123395248D02*
G75*
G03*
X-260134223Y-121843453I366373J2139835D01*
G01*
D12*
X-260064961Y-126981626D02*
G75*
G03*
X-257720970Y-125392379I377372J1966619D01*
G01*
X-216909660Y-125173166D02*
X-216408637Y-128738131D01*
X-216408637Y-128738131D02*
X-208288438Y-127596911D01*
X-216750682Y-126160650D02*
X-216437542Y-128388754D01*
D13*
X-216287931Y-128519201D02*
X-215050096Y-128345235D01*
D14*
X-216676813Y-125392898D02*
X-215382506Y-125261487D01*
D15*
X-215997007Y-128074384D02*
X-216344940Y-125598713D01*
D16*
X-214876666Y-126705137D02*
X-208241870Y-125772677D01*
D12*
X-212156373Y-124505135D02*
X-216909660Y-125173166D01*
D17*
X-208130799Y-126060015D02*
X-208442547Y-123841815D01*
D18*
X-207498902Y-122436811D02*
X-207248391Y-124219293D01*
D14*
X-207392114Y-122118855D02*
X-209818271Y-122459829D01*
D12*
X-207221895Y-121892967D02*
X-210222407Y-122314661D01*
X-206602575Y-126299660D02*
X-207221895Y-121892967D01*
D10*
X-206662794Y-124793382D02*
X-206572332Y-125437056D01*
D12*
X-206577685Y-124680438D02*
X-206775738Y-124708272D01*
X-206473305Y-125423139D02*
X-206577685Y-124680438D01*
X-212156373Y-124505134D02*
G75*
G03*
X-210223066Y-122336436I-237640J2157928D01*
G01*
D15*
X-211704597Y-124845572D02*
G75*
G03*
X-209771290Y-122676874I-237638J2157927D01*
G01*
D12*
X-208288438Y-127596911D02*
G75*
G03*
X-206473305Y-125423138I-179320J1994453D01*
G01*
X-158163475Y-110473734D02*
X-158163475Y-108973734D01*
X-158163475Y-108973734D02*
X-163563475Y-108973734D01*
X-160363475Y-110223734D02*
X-160363475Y-109223734D01*
X-160463475Y-109723734D02*
X-161363475Y-110223734D01*
X-161363475Y-110223734D02*
X-161363475Y-109223734D01*
X-161363475Y-109223734D02*
X-160463475Y-109723734D01*
X-163563475Y-110473734D02*
X-158163475Y-110473734D01*
X-163563475Y-108973734D02*
X-163563475Y-110473734D01*
X-225933475Y-121423734D02*
X-225933475Y-119923734D01*
X-225933475Y-119923734D02*
X-231333475Y-119923734D01*
X-228133475Y-121173734D02*
X-228133475Y-120173734D01*
X-228233475Y-120673734D02*
X-229133475Y-121173734D01*
X-229133475Y-121173734D02*
X-229133475Y-120173734D01*
X-229133475Y-120173734D02*
X-228233475Y-120673734D01*
X-231333475Y-121423734D02*
X-225933475Y-121423734D01*
X-231333475Y-119923734D02*
X-231333475Y-121423734D01*
X-162943135Y-98356900D02*
X-162442112Y-101921865D01*
X-162442112Y-101921865D02*
X-154321913Y-100780645D01*
X-162784157Y-99344384D02*
X-162471017Y-101572488D01*
D13*
X-162321406Y-101702935D02*
X-161083571Y-101528969D01*
D14*
X-162710288Y-98576632D02*
X-161415981Y-98445221D01*
D15*
X-162030482Y-101258118D02*
X-162378415Y-98782447D01*
D16*
X-160910141Y-99888871D02*
X-154275345Y-98956411D01*
D12*
X-158189848Y-97688869D02*
X-162943135Y-98356900D01*
D17*
X-154164274Y-99243749D02*
X-154476022Y-97025549D01*
D18*
X-153532377Y-95620545D02*
X-153281866Y-97403027D01*
D14*
X-153425589Y-95302589D02*
X-155851746Y-95643563D01*
D12*
X-153255370Y-95076701D02*
X-156255882Y-95498395D01*
X-152636050Y-99483394D02*
X-153255370Y-95076701D01*
D10*
X-152696269Y-97977116D02*
X-152605807Y-98620790D01*
D12*
X-152611160Y-97864172D02*
X-152809213Y-97892006D01*
X-152506780Y-98606873D02*
X-152611160Y-97864172D01*
X-158189848Y-97688868D02*
G75*
G03*
X-156256541Y-95520170I-237640J2157928D01*
G01*
D15*
X-157738072Y-98029306D02*
G75*
G03*
X-155804765Y-95860608I-237638J2157927D01*
G01*
D12*
X-154321913Y-100780645D02*
G75*
G03*
X-152506780Y-98606872I-179320J1994453D01*
G01*
X-225933475Y-129081234D02*
X-225933475Y-127581234D01*
X-225933475Y-127581234D02*
X-231333475Y-127581234D01*
X-228133475Y-128831234D02*
X-228133475Y-127831234D01*
X-228233475Y-128331234D02*
X-229133475Y-128831234D01*
X-229133475Y-128831234D02*
X-229133475Y-127831234D01*
X-229133475Y-127831234D02*
X-228233475Y-128331234D01*
X-231333475Y-129081234D02*
X-225933475Y-129081234D01*
X-231333475Y-127581234D02*
X-231333475Y-129081234D01*
X-225880000Y-114650000D02*
X-225880000Y-113150000D01*
X-225880000Y-113150000D02*
X-231280000Y-113150000D01*
X-228080000Y-114400000D02*
X-228080000Y-113400000D01*
X-228180000Y-113900000D02*
X-229080000Y-114400000D01*
X-229080000Y-114400000D02*
X-229080000Y-113400000D01*
X-229080000Y-113400000D02*
X-228180000Y-113900000D01*
X-231280000Y-114650000D02*
X-225880000Y-114650000D01*
X-231280000Y-113150000D02*
X-231280000Y-114650000D01*
X-312653475Y-121683734D02*
X-312653475Y-120183734D01*
X-312653475Y-120183734D02*
X-318053475Y-120183734D01*
X-314853475Y-121433734D02*
X-314853475Y-120433734D01*
X-314953475Y-120933734D02*
X-315853475Y-121433734D01*
X-315853475Y-121433734D02*
X-315853475Y-120433734D01*
X-315853475Y-120433734D02*
X-314953475Y-120933734D01*
X-318053475Y-121683734D02*
X-312653475Y-121683734D01*
X-318053475Y-120183734D02*
X-318053475Y-121683734D01*
X-181833135Y-100996900D02*
X-181332112Y-104561865D01*
X-181332112Y-104561865D02*
X-173211913Y-103420645D01*
X-181674157Y-101984384D02*
X-181361017Y-104212488D01*
D13*
X-181211406Y-104342935D02*
X-179973571Y-104168969D01*
D14*
X-181600288Y-101216632D02*
X-180305981Y-101085221D01*
D15*
X-180920482Y-103898118D02*
X-181268415Y-101422447D01*
D16*
X-179800141Y-102528871D02*
X-173165345Y-101596411D01*
D12*
X-177079848Y-100328869D02*
X-181833135Y-100996900D01*
D17*
X-173054274Y-101883749D02*
X-173366022Y-99665549D01*
D18*
X-172422377Y-98260545D02*
X-172171866Y-100043027D01*
D14*
X-172315589Y-97942589D02*
X-174741746Y-98283563D01*
D12*
X-172145370Y-97716701D02*
X-175145882Y-98138395D01*
X-171526050Y-102123394D02*
X-172145370Y-97716701D01*
D10*
X-171586269Y-100617116D02*
X-171495807Y-101260790D01*
D12*
X-171501160Y-100504172D02*
X-171699213Y-100532006D01*
X-171396780Y-101246873D02*
X-171501160Y-100504172D01*
X-177079848Y-100328868D02*
G75*
G03*
X-175146541Y-98160170I-237640J2157928D01*
G01*
D15*
X-176628072Y-100669306D02*
G75*
G03*
X-174694765Y-98500608I-237638J2157927D01*
G01*
D12*
X-173211913Y-103420645D02*
G75*
G03*
X-171396780Y-101246872I-179320J1994453D01*
G01*
X-312653475Y-116675734D02*
X-312653475Y-115175734D01*
X-312653475Y-115175734D02*
X-318053475Y-115175734D01*
X-314853475Y-116425734D02*
X-314853475Y-115425734D01*
X-314953475Y-115925734D02*
X-315853475Y-116425734D01*
X-315853475Y-116425734D02*
X-315853475Y-115425734D01*
X-315853475Y-115425734D02*
X-314953475Y-115925734D01*
X-318053475Y-116675734D02*
X-312653475Y-116675734D01*
X-318053475Y-115175734D02*
X-318053475Y-116675734D01*
X-225833475Y-123963734D02*
X-225833475Y-122463734D01*
X-225833475Y-122463734D02*
X-231233475Y-122463734D01*
X-228033475Y-123713734D02*
X-228033475Y-122713734D01*
X-228133475Y-123213734D02*
X-229033475Y-123713734D01*
X-229033475Y-123713734D02*
X-229033475Y-122713734D01*
X-229033475Y-122713734D02*
X-228133475Y-123213734D01*
X-231233475Y-123963734D02*
X-225833475Y-123963734D01*
X-231233475Y-122463734D02*
X-231233475Y-123963734D01*
X-146048475Y-110543734D02*
X-146048475Y-109043734D01*
X-146048475Y-109043734D02*
X-151448475Y-109043734D01*
X-148248475Y-110293734D02*
X-148248475Y-109293734D01*
X-148348475Y-109793734D02*
X-149248475Y-110293734D01*
X-149248475Y-110293734D02*
X-149248475Y-109293734D01*
X-149248475Y-109293734D02*
X-148348475Y-109793734D01*
X-151448475Y-110543734D02*
X-146048475Y-110543734D01*
X-151448475Y-109043734D02*
X-151448475Y-110543734D01*
X-146043475Y-113293734D02*
X-146043475Y-111793734D01*
X-146043475Y-111793734D02*
X-151443475Y-111793734D01*
X-148243475Y-113043734D02*
X-148243475Y-112043734D01*
X-148343475Y-112543734D02*
X-149243475Y-113043734D01*
X-149243475Y-113043734D02*
X-149243475Y-112043734D01*
X-149243475Y-112043734D02*
X-148343475Y-112543734D01*
X-151443475Y-113293734D02*
X-146043475Y-113293734D01*
X-151443475Y-111793734D02*
X-151443475Y-113293734D01*
X-301693475Y-121783734D02*
X-301693475Y-120283734D01*
X-301693475Y-120283734D02*
X-307093475Y-120283734D01*
X-303893475Y-121533734D02*
X-303893475Y-120533734D01*
X-303993475Y-121033734D02*
X-304893475Y-121533734D01*
X-304893475Y-121533734D02*
X-304893475Y-120533734D01*
X-304893475Y-120533734D02*
X-303993475Y-121033734D01*
X-307093475Y-121783734D02*
X-301693475Y-121783734D01*
X-307093475Y-120283734D02*
X-307093475Y-121783734D01*
X-200723135Y-103666900D02*
X-200222112Y-107231865D01*
X-200222112Y-107231865D02*
X-192101913Y-106090645D01*
X-200564157Y-104654384D02*
X-200251017Y-106882488D01*
D13*
X-200101406Y-107012935D02*
X-198863571Y-106838969D01*
D14*
X-200490288Y-103886632D02*
X-199195981Y-103755221D01*
D15*
X-199810482Y-106568118D02*
X-200158415Y-104092447D01*
D16*
X-198690141Y-105198871D02*
X-192055345Y-104266411D01*
D12*
X-195969848Y-102998869D02*
X-200723135Y-103666900D01*
D17*
X-191944274Y-104553749D02*
X-192256022Y-102335549D01*
D18*
X-191312377Y-100930545D02*
X-191061866Y-102713027D01*
D14*
X-191205589Y-100612589D02*
X-193631746Y-100953563D01*
D12*
X-191035370Y-100386701D02*
X-194035882Y-100808395D01*
X-190416050Y-104793394D02*
X-191035370Y-100386701D01*
D10*
X-190476269Y-103287116D02*
X-190385807Y-103930790D01*
D12*
X-190391160Y-103174172D02*
X-190589213Y-103202006D01*
X-190286780Y-103916873D02*
X-190391160Y-103174172D01*
X-195969848Y-102998868D02*
G75*
G03*
X-194036541Y-100830170I-237640J2157928D01*
G01*
D15*
X-195518072Y-103339306D02*
G75*
G03*
X-193584765Y-101170608I-237638J2157927D01*
G01*
D12*
X-192101913Y-106090645D02*
G75*
G03*
X-190286780Y-103916872I-179320J1994453D01*
G01*
X-225890000Y-109840000D02*
X-225890000Y-108340000D01*
X-225890000Y-108340000D02*
X-231290000Y-108340000D01*
X-228090000Y-109590000D02*
X-228090000Y-108590000D01*
X-228190000Y-109090000D02*
X-229090000Y-109590000D01*
X-229090000Y-109590000D02*
X-229090000Y-108590000D01*
X-229090000Y-108590000D02*
X-228190000Y-109090000D01*
X-231290000Y-109840000D02*
X-225890000Y-109840000D01*
X-231290000Y-108340000D02*
X-231290000Y-109840000D01*
X-158193475Y-118903734D02*
X-158193475Y-117403734D01*
X-158193475Y-117403734D02*
X-163593475Y-117403734D01*
X-160393475Y-118653734D02*
X-160393475Y-117653734D01*
X-160493475Y-118153734D02*
X-161393475Y-118653734D01*
X-161393475Y-118653734D02*
X-161393475Y-117653734D01*
X-161393475Y-117653734D02*
X-160493475Y-118153734D01*
X-163593475Y-118903734D02*
X-158193475Y-118903734D01*
X-163593475Y-117403734D02*
X-163593475Y-118903734D01*
X-301688475Y-108703734D02*
X-301688475Y-107203734D01*
X-301688475Y-107203734D02*
X-307088475Y-107203734D01*
X-303888475Y-108453734D02*
X-303888475Y-107453734D01*
X-303988475Y-107953734D02*
X-304888475Y-108453734D01*
X-304888475Y-108453734D02*
X-304888475Y-107453734D01*
X-304888475Y-107453734D02*
X-303988475Y-107953734D01*
X-307088475Y-108703734D02*
X-301688475Y-108703734D01*
X-307088475Y-107203734D02*
X-307088475Y-108703734D01*
X-146043475Y-121483734D02*
X-146043475Y-119983734D01*
X-146043475Y-119983734D02*
X-151443475Y-119983734D01*
X-148243475Y-121233734D02*
X-148243475Y-120233734D01*
X-148343475Y-120733734D02*
X-149243475Y-121233734D01*
X-149243475Y-121233734D02*
X-149243475Y-120233734D01*
X-149243475Y-120233734D02*
X-148343475Y-120733734D01*
X-151443475Y-121483734D02*
X-146043475Y-121483734D01*
X-151443475Y-119983734D02*
X-151443475Y-121483734D01*
X-309588174Y-77862177D02*
X-310089197Y-81427142D01*
X-310089197Y-81427142D02*
X-301968998Y-82568361D01*
X-309707542Y-78855228D02*
X-310020681Y-81083331D01*
D13*
X-309912822Y-81249964D02*
X-308674987Y-81423930D01*
D14*
X-309424913Y-78137578D02*
X-308144524Y-78368017D01*
D15*
X-309510559Y-80902567D02*
X-309162626Y-78426897D01*
D16*
X-308056203Y-79895171D02*
X-301421407Y-80827630D01*
D12*
X-304834887Y-78530207D02*
X-309588174Y-77862177D01*
D17*
X-301393840Y-81134453D02*
X-301082092Y-78916253D01*
D18*
X-299787731Y-77825780D02*
X-300038243Y-79608262D01*
D14*
X-299597439Y-77549576D02*
X-302023596Y-77208602D01*
D12*
X-299371551Y-77379357D02*
X-302372063Y-76957662D01*
X-299990871Y-81786050D02*
X-299371551Y-77379357D01*
D10*
X-299633571Y-80321524D02*
X-299724034Y-80965198D01*
D12*
X-299520627Y-80236414D02*
X-299718681Y-80208580D01*
X-299625007Y-80979115D02*
X-299520627Y-80236414D01*
X-304834887Y-78530207D02*
G75*
G03*
X-302378698Y-76978412I366373J2139835D01*
G01*
D15*
X-304494449Y-78981983D02*
G75*
G03*
X-302038260Y-77430188I366373J2139835D01*
G01*
D12*
X-301968998Y-82568361D02*
G75*
G03*
X-299625007Y-80979114I377372J1966619D01*
G01*
X-158193475Y-121483734D02*
X-158193475Y-119983734D01*
X-158193475Y-119983734D02*
X-163593475Y-119983734D01*
X-160393475Y-121233734D02*
X-160393475Y-120233734D01*
X-160493475Y-120733734D02*
X-161393475Y-121233734D01*
X-161393475Y-121233734D02*
X-161393475Y-120233734D01*
X-161393475Y-120233734D02*
X-160493475Y-120733734D01*
X-163593475Y-121483734D02*
X-158193475Y-121483734D01*
X-163593475Y-119983734D02*
X-163593475Y-121483734D01*
X-335788475Y-115225733D02*
X-335788475Y-118825733D01*
X-335788475Y-118825733D02*
X-327588474Y-118825733D01*
X-335768475Y-116225733D02*
X-335768475Y-118475733D01*
D13*
X-335638475Y-118625733D02*
X-334388475Y-118625733D01*
D14*
X-335588475Y-115475733D02*
X-334288475Y-115525733D01*
D15*
X-335288475Y-118225733D02*
X-335288475Y-115725733D01*
D16*
X-333988475Y-117025733D02*
X-327288475Y-117025733D01*
D12*
X-330988475Y-115225733D02*
X-335788475Y-115225733D01*
D17*
X-327218475Y-117325733D02*
X-327218475Y-115085733D01*
D18*
X-326088475Y-113825733D02*
X-326088475Y-115625732D01*
D14*
X-325938475Y-113525733D02*
X-328388475Y-113525733D01*
D12*
X-325738475Y-113325733D02*
X-328768475Y-113325733D01*
X-325738475Y-117775733D02*
X-325738475Y-113325733D01*
D10*
X-325588475Y-116275733D02*
X-325588475Y-116925733D01*
D12*
X-325488475Y-116175733D02*
X-325688475Y-116175733D01*
X-325488475Y-116925733D02*
X-325488475Y-116175733D01*
X-330988475Y-115225733D02*
G75*
G03*
X-328772157Y-113347204I65000J2170000D01*
G01*
D15*
X-330588475Y-115625733D02*
G75*
G03*
X-328372157Y-113747204I65000J2170000D01*
G01*
D12*
X-327588474Y-118825733D02*
G75*
G03*
X-325488475Y-116925732I99999J2000000D01*
G01*
X-312623475Y-109133734D02*
X-312623475Y-107633734D01*
X-312623475Y-107633734D02*
X-318023475Y-107633734D01*
X-314823475Y-108883734D02*
X-314823475Y-107883734D01*
X-314923475Y-108383734D02*
X-315823475Y-108883734D01*
X-315823475Y-108883734D02*
X-315823475Y-107883734D01*
X-315823475Y-107883734D02*
X-314923475Y-108383734D01*
X-318023475Y-109133734D02*
X-312623475Y-109133734D01*
X-318023475Y-107633734D02*
X-318023475Y-109133734D01*
X-225873475Y-126573734D02*
X-225873475Y-125073734D01*
X-225873475Y-125073734D02*
X-231273475Y-125073734D01*
X-228073475Y-126323734D02*
X-228073475Y-125323734D01*
X-228173475Y-125823734D02*
X-229073475Y-126323734D01*
X-229073475Y-126323734D02*
X-229073475Y-125323734D01*
X-229073475Y-125323734D02*
X-228173475Y-125823734D01*
X-231273475Y-126573734D02*
X-225873475Y-126573734D01*
X-231273475Y-125073734D02*
X-231273475Y-126573734D01*
X-225885000Y-117070000D02*
X-225885000Y-115570000D01*
X-225885000Y-115570000D02*
X-231285000Y-115570000D01*
X-228085000Y-116820000D02*
X-228085000Y-115820000D01*
X-228185000Y-116320000D02*
X-229085000Y-116820000D01*
X-229085000Y-116820000D02*
X-229085000Y-115820000D01*
X-229085000Y-115820000D02*
X-228185000Y-116320000D01*
X-231285000Y-117070000D02*
X-225885000Y-117070000D01*
X-231285000Y-115570000D02*
X-231285000Y-117070000D01*
X-301693475Y-111207734D02*
X-301693475Y-109707734D01*
X-301693475Y-109707734D02*
X-307093475Y-109707734D01*
X-303893475Y-110957734D02*
X-303893475Y-109957734D01*
X-303993475Y-110457734D02*
X-304893475Y-110957734D01*
X-304893475Y-110957734D02*
X-304893475Y-109957734D01*
X-304893475Y-109957734D02*
X-303993475Y-110457734D01*
X-307093475Y-111207734D02*
X-301693475Y-111207734D01*
X-307093475Y-109707734D02*
X-307093475Y-111207734D01*
X-301693475Y-119139734D02*
X-301693475Y-117639734D01*
X-301693475Y-117639734D02*
X-307093475Y-117639734D01*
X-303893475Y-118889734D02*
X-303893475Y-117889734D01*
X-303993475Y-118389734D02*
X-304893475Y-118889734D01*
X-304893475Y-118889734D02*
X-304893475Y-117889734D01*
X-304893475Y-117889734D02*
X-303993475Y-118389734D01*
X-307093475Y-119139734D02*
X-301693475Y-119139734D01*
X-307093475Y-117639734D02*
X-307093475Y-119139734D01*
X-227243475Y-79319734D02*
X-227243475Y-77819734D01*
X-227243475Y-77819734D02*
X-232643475Y-77819734D01*
X-229443475Y-79069734D02*
X-229443475Y-78069734D01*
X-229543475Y-78569734D02*
X-230443475Y-79069734D01*
X-230443475Y-79069734D02*
X-230443475Y-78069734D01*
X-230443475Y-78069734D02*
X-229543475Y-78569734D01*
X-232643475Y-79319734D02*
X-227243475Y-79319734D01*
X-232643475Y-77819734D02*
X-232643475Y-79319734D01*
X-158118475Y-107773734D02*
X-158118475Y-106273734D01*
X-158118475Y-106273734D02*
X-163518475Y-106273734D01*
X-160318475Y-107523734D02*
X-160318475Y-106523734D01*
X-160418475Y-107023734D02*
X-161318475Y-107523734D01*
X-161318475Y-107523734D02*
X-161318475Y-106523734D01*
X-161318475Y-106523734D02*
X-160418475Y-107023734D01*
X-163518475Y-107773734D02*
X-158118475Y-107773734D01*
X-163518475Y-106273734D02*
X-163518475Y-107773734D01*
X-312653475Y-111667734D02*
X-312653475Y-110167734D01*
X-312653475Y-110167734D02*
X-318053475Y-110167734D01*
X-314853475Y-111417734D02*
X-314853475Y-110417734D01*
X-314953475Y-110917734D02*
X-315853475Y-111417734D01*
X-315853475Y-111417734D02*
X-315853475Y-110417734D01*
X-315853475Y-110417734D02*
X-314953475Y-110917734D01*
X-318053475Y-111667734D02*
X-312653475Y-111667734D01*
X-318053475Y-110167734D02*
X-318053475Y-111667734D01*
X-145968475Y-107883734D02*
X-145968475Y-106383734D01*
X-145968475Y-106383734D02*
X-151368475Y-106383734D01*
X-148168475Y-107633734D02*
X-148168475Y-106633734D01*
X-148268475Y-107133734D02*
X-149168475Y-107633734D01*
X-149168475Y-107633734D02*
X-149168475Y-106633734D01*
X-149168475Y-106633734D02*
X-148268475Y-107133734D01*
X-151368475Y-107883734D02*
X-145968475Y-107883734D01*
X-151368475Y-106383734D02*
X-151368475Y-107883734D01*
X-198020222Y-122530165D02*
X-197519199Y-126095130D01*
X-197519199Y-126095130D02*
X-189399000Y-124953910D01*
X-197861244Y-123517649D02*
X-197548104Y-125745753D01*
D13*
X-197398493Y-125876200D02*
X-196160658Y-125702234D01*
D14*
X-197787375Y-122749897D02*
X-196493068Y-122618486D01*
D15*
X-197107569Y-125431383D02*
X-197455502Y-122955712D01*
D16*
X-195987228Y-124062136D02*
X-189352432Y-123129676D01*
D12*
X-193266935Y-121862134D02*
X-198020222Y-122530165D01*
D17*
X-189241361Y-123417014D02*
X-189553109Y-121198814D01*
D18*
X-188609464Y-119793810D02*
X-188358953Y-121576292D01*
D14*
X-188502676Y-119475854D02*
X-190928833Y-119816828D01*
D12*
X-188332457Y-119249966D02*
X-191332969Y-119671660D01*
X-187713137Y-123656659D02*
X-188332457Y-119249966D01*
D10*
X-187773356Y-122150381D02*
X-187682894Y-122794055D01*
D12*
X-187688247Y-122037437D02*
X-187886300Y-122065271D01*
X-187583867Y-122780138D02*
X-187688247Y-122037437D01*
X-193266935Y-121862133D02*
G75*
G03*
X-191333628Y-119693435I-237640J2157928D01*
G01*
D15*
X-192815159Y-122202571D02*
G75*
G03*
X-190881852Y-120033873I-237638J2157927D01*
G01*
D12*
X-189399000Y-124953910D02*
G75*
G03*
X-187583867Y-122780137I-179320J1994453D01*
G01*
X-312653475Y-114171734D02*
X-312653475Y-112671734D01*
X-312653475Y-112671734D02*
X-318053475Y-112671734D01*
X-314853475Y-113921734D02*
X-314853475Y-112921734D01*
X-314953475Y-113421734D02*
X-315853475Y-113921734D01*
X-315853475Y-113921734D02*
X-315853475Y-112921734D01*
X-315853475Y-112921734D02*
X-314953475Y-113421734D01*
X-318053475Y-114171734D02*
X-312653475Y-114171734D01*
X-318053475Y-112671734D02*
X-318053475Y-114171734D01*
X-146043475Y-118753734D02*
X-146043475Y-117253734D01*
X-146043475Y-117253734D02*
X-151443475Y-117253734D01*
X-148243475Y-118503734D02*
X-148243475Y-117503734D01*
X-148343475Y-118003734D02*
X-149243475Y-118503734D01*
X-149243475Y-118503734D02*
X-149243475Y-117503734D01*
X-149243475Y-117503734D02*
X-148343475Y-118003734D01*
X-151443475Y-118753734D02*
X-146043475Y-118753734D01*
X-151443475Y-117253734D02*
X-151443475Y-118753734D01*
X-135001475Y-115225734D02*
X-135001475Y-118825734D01*
X-135001475Y-118825734D02*
X-126801474Y-118825734D01*
X-134981475Y-116225734D02*
X-134981475Y-118475734D01*
D13*
X-134851475Y-118625734D02*
X-133601475Y-118625734D01*
D14*
X-134801475Y-115475734D02*
X-133501475Y-115525734D01*
D15*
X-134501475Y-118225734D02*
X-134501475Y-115725734D01*
D16*
X-133201475Y-117025734D02*
X-126501475Y-117025734D01*
D12*
X-130201475Y-115225734D02*
X-135001475Y-115225734D01*
D17*
X-126431475Y-117325734D02*
X-126431475Y-115085734D01*
D18*
X-125301475Y-113825734D02*
X-125301475Y-115625733D01*
D14*
X-125151475Y-113525734D02*
X-127601475Y-113525734D01*
D12*
X-124951475Y-113325734D02*
X-127981475Y-113325734D01*
X-124951475Y-117775734D02*
X-124951475Y-113325734D01*
D10*
X-124801475Y-116275734D02*
X-124801475Y-116925734D01*
D12*
X-124701475Y-116175734D02*
X-124901475Y-116175734D01*
X-124701475Y-116925734D02*
X-124701475Y-116175734D01*
X-130201475Y-115225734D02*
G75*
G03*
X-127985157Y-113347205I65000J2170000D01*
G01*
D15*
X-129801475Y-115625734D02*
G75*
G03*
X-127585157Y-113747205I65000J2170000D01*
G01*
D12*
X-126801474Y-118825734D02*
G75*
G03*
X-124701475Y-116925733I99999J2000000D01*
G01*
X-227233475Y-81691067D02*
X-227233475Y-80191067D01*
X-227233475Y-80191067D02*
X-232633475Y-80191067D01*
X-229433475Y-81441067D02*
X-229433475Y-80441067D01*
X-229533475Y-80941067D02*
X-230433475Y-81441067D01*
X-230433475Y-81441067D02*
X-230433475Y-80441067D01*
X-230433475Y-80441067D02*
X-229533475Y-80941067D01*
X-232633475Y-81691067D02*
X-227233475Y-81691067D01*
X-232633475Y-80191067D02*
X-232633475Y-81691067D01*
X-225890000Y-112320000D02*
X-225890000Y-110820000D01*
X-225890000Y-110820000D02*
X-231290000Y-110820000D01*
X-228090000Y-112070000D02*
X-228090000Y-111070000D01*
X-228190000Y-111570000D02*
X-229090000Y-112070000D01*
X-229090000Y-112070000D02*
X-229090000Y-111070000D01*
X-229090000Y-111070000D02*
X-228190000Y-111570000D01*
X-231290000Y-112320000D02*
X-225890000Y-112320000D01*
X-231290000Y-110820000D02*
X-231290000Y-112320000D01*
X-225933475Y-131633734D02*
X-225933475Y-130133734D01*
X-225933475Y-130133734D02*
X-231333475Y-130133734D01*
X-228133475Y-131383734D02*
X-228133475Y-130383734D01*
X-228233475Y-130883734D02*
X-229133475Y-131383734D01*
X-229133475Y-131383734D02*
X-229133475Y-130383734D01*
X-229133475Y-130383734D02*
X-228233475Y-130883734D01*
X-231333475Y-131633734D02*
X-225933475Y-131633734D01*
X-231333475Y-130133734D02*
X-231333475Y-131633734D01*
X-312563475Y-106653734D02*
X-312563475Y-105153734D01*
X-312563475Y-105153734D02*
X-317963475Y-105153734D01*
X-314763475Y-106403734D02*
X-314763475Y-105403734D01*
X-314863475Y-105903734D02*
X-315763475Y-106403734D01*
X-315763475Y-106403734D02*
X-315763475Y-105403734D01*
X-315763475Y-105403734D02*
X-314863475Y-105903734D01*
X-317963475Y-106653734D02*
X-312563475Y-106653734D01*
X-317963475Y-105153734D02*
X-317963475Y-106653734D01*
X-312653475Y-119179734D02*
X-312653475Y-117679734D01*
X-312653475Y-117679734D02*
X-318053475Y-117679734D01*
X-314853475Y-118929734D02*
X-314853475Y-117929734D01*
X-314953475Y-118429734D02*
X-315853475Y-118929734D01*
X-315853475Y-118929734D02*
X-315853475Y-117929734D01*
X-315853475Y-117929734D02*
X-314953475Y-118429734D01*
X-318053475Y-119179734D02*
X-312653475Y-119179734D01*
X-318053475Y-117679734D02*
X-318053475Y-119179734D01*
X-158198475Y-116033734D02*
X-158198475Y-114533734D01*
X-158198475Y-114533734D02*
X-163598475Y-114533734D01*
X-160398475Y-115783734D02*
X-160398475Y-114783734D01*
X-160498475Y-115283734D02*
X-161398475Y-115783734D01*
X-161398475Y-115783734D02*
X-161398475Y-114783734D01*
X-161398475Y-114783734D02*
X-160498475Y-115283734D01*
X-163598475Y-116033734D02*
X-158198475Y-116033734D01*
X-163598475Y-114533734D02*
X-163598475Y-116033734D01*
X-219583697Y-106313899D02*
X-219082674Y-109878864D01*
X-219082674Y-109878864D02*
X-210962475Y-108737644D01*
X-219424719Y-107301383D02*
X-219111579Y-109529487D01*
D13*
X-218961968Y-109659934D02*
X-217724133Y-109485968D01*
D14*
X-219350850Y-106533631D02*
X-218056543Y-106402220D01*
D15*
X-218671044Y-109215117D02*
X-219018977Y-106739446D01*
D16*
X-217550703Y-107845870D02*
X-210915907Y-106913410D01*
D12*
X-214830410Y-105645868D02*
X-219583697Y-106313899D01*
D17*
X-210804836Y-107200748D02*
X-211116584Y-104982548D01*
D18*
X-210172939Y-103577544D02*
X-209922428Y-105360026D01*
D14*
X-210066151Y-103259588D02*
X-212492308Y-103600562D01*
D12*
X-209895932Y-103033700D02*
X-212896444Y-103455394D01*
X-209276612Y-107440393D02*
X-209895932Y-103033700D01*
D10*
X-209336831Y-105934115D02*
X-209246369Y-106577789D01*
D12*
X-209251722Y-105821171D02*
X-209449775Y-105849005D01*
X-209147342Y-106563872D02*
X-209251722Y-105821171D01*
X-214830410Y-105645867D02*
G75*
G03*
X-212897103Y-103477169I-237640J2157928D01*
G01*
D15*
X-214378634Y-105986305D02*
G75*
G03*
X-212445327Y-103817607I-237638J2157927D01*
G01*
D12*
X-210962475Y-108737644D02*
G75*
G03*
X-209147342Y-106563871I-179320J1994453D01*
G01*
X-146043475Y-116023734D02*
X-146043475Y-114523734D01*
X-146043475Y-114523734D02*
X-151443475Y-114523734D01*
X-148243475Y-115773734D02*
X-148243475Y-114773734D01*
X-148343475Y-115273734D02*
X-149243475Y-115773734D01*
X-149243475Y-115773734D02*
X-149243475Y-114773734D01*
X-149243475Y-114773734D02*
X-148343475Y-115273734D01*
X-151443475Y-116023734D02*
X-146043475Y-116023734D01*
X-151443475Y-114523734D02*
X-151443475Y-116023734D01*
X-301693475Y-116495734D02*
X-301693475Y-114995734D01*
X-301693475Y-114995734D02*
X-307093475Y-114995734D01*
X-303893475Y-116245734D02*
X-303893475Y-115245734D01*
X-303993475Y-115745734D02*
X-304893475Y-116245734D01*
X-304893475Y-116245734D02*
X-304893475Y-115245734D01*
X-304893475Y-115245734D02*
X-303993475Y-115745734D01*
X-307093475Y-116495734D02*
X-301693475Y-116495734D01*
X-307093475Y-114995734D02*
X-307093475Y-116495734D01*
X-158268475Y-113143734D02*
X-158268475Y-111643734D01*
X-158268475Y-111643734D02*
X-163668475Y-111643734D01*
X-160468475Y-112893734D02*
X-160468475Y-111893734D01*
X-160568475Y-112393734D02*
X-161468475Y-112893734D01*
X-161468475Y-112893734D02*
X-161468475Y-111893734D01*
X-161468475Y-111893734D02*
X-160568475Y-112393734D01*
X-163668475Y-113143734D02*
X-158268475Y-113143734D01*
X-163668475Y-111643734D02*
X-163668475Y-113143734D01*
X-248825261Y-124891444D02*
X-249326284Y-128456409D01*
X-249326284Y-128456409D02*
X-241206085Y-129597628D01*
X-248944629Y-125884495D02*
X-249257768Y-128112598D01*
D13*
X-249149909Y-128279231D02*
X-247912074Y-128453197D01*
D14*
X-248662000Y-125166845D02*
X-247381611Y-125397284D01*
D15*
X-248747646Y-127931834D02*
X-248399713Y-125456164D01*
D16*
X-247293290Y-126924438D02*
X-240658494Y-127856897D01*
D12*
X-244071974Y-125559474D02*
X-248825261Y-124891444D01*
D17*
X-240630927Y-128163720D02*
X-240319179Y-125945520D01*
D18*
X-239024818Y-124855047D02*
X-239275330Y-126637529D01*
D14*
X-238834526Y-124578843D02*
X-241260683Y-124237869D01*
D12*
X-238608638Y-124408624D02*
X-241609150Y-123986929D01*
X-239227958Y-128815317D02*
X-238608638Y-124408624D01*
D10*
X-238870658Y-127350791D02*
X-238961121Y-127994465D01*
D12*
X-238757714Y-127265681D02*
X-238955768Y-127237847D01*
X-238862094Y-128008382D02*
X-238757714Y-127265681D01*
X-244071974Y-125559474D02*
G75*
G03*
X-241615785Y-124007679I366373J2139835D01*
G01*
D15*
X-243731536Y-126011250D02*
G75*
G03*
X-241275347Y-124459455I366373J2139835D01*
G01*
D12*
X-241206085Y-129597628D02*
G75*
G03*
X-238862094Y-128008381I377372J1966619D01*
G01*
X-179160222Y-119960165D02*
X-178659199Y-123525130D01*
X-178659199Y-123525130D02*
X-170539000Y-122383910D01*
X-179001244Y-120947649D02*
X-178688104Y-123175753D01*
D13*
X-178538493Y-123306200D02*
X-177300658Y-123132234D01*
D14*
X-178927375Y-120179897D02*
X-177633068Y-120048486D01*
D15*
X-178247569Y-122861383D02*
X-178595502Y-120385712D01*
D16*
X-177127228Y-121492136D02*
X-170492432Y-120559676D01*
D12*
X-174406935Y-119292134D02*
X-179160222Y-119960165D01*
D17*
X-170381361Y-120847014D02*
X-170693109Y-118628814D01*
D18*
X-169749464Y-117223810D02*
X-169498953Y-119006292D01*
D14*
X-169642676Y-116905854D02*
X-172068833Y-117246828D01*
D12*
X-169472457Y-116679966D02*
X-172472969Y-117101660D01*
X-168853137Y-121086659D02*
X-169472457Y-116679966D01*
D10*
X-168913356Y-119580381D02*
X-168822894Y-120224055D01*
D12*
X-168828247Y-119467437D02*
X-169026300Y-119495271D01*
X-168723867Y-120210138D02*
X-168828247Y-119467437D01*
X-174406935Y-119292133D02*
G75*
G03*
X-172473628Y-117123435I-237640J2157928D01*
G01*
D15*
X-173955159Y-119632571D02*
G75*
G03*
X-172021852Y-117463873I-237638J2157927D01*
G01*
D12*
X-170539000Y-122383910D02*
G75*
G03*
X-168723867Y-120210137I-179320J1994453D01*
G01*
X-227303475Y-84062400D02*
X-227303475Y-82562400D01*
X-227303475Y-82562400D02*
X-232703475Y-82562400D01*
X-229503475Y-83812400D02*
X-229503475Y-82812400D01*
X-229603475Y-83312400D02*
X-230503475Y-83812400D01*
X-230503475Y-83812400D02*
X-230503475Y-82812400D01*
X-230503475Y-82812400D02*
X-229603475Y-83312400D01*
X-232703475Y-84062400D02*
X-227303475Y-84062400D01*
X-232703475Y-82562400D02*
X-232703475Y-84062400D01*
X-225870000Y-119210000D02*
X-225870000Y-117710000D01*
X-225870000Y-117710000D02*
X-231270000Y-117710000D01*
X-228070000Y-118960000D02*
X-228070000Y-117960000D01*
X-228170000Y-118460000D02*
X-229070000Y-118960000D01*
X-229070000Y-118960000D02*
X-229070000Y-117960000D01*
X-229070000Y-117960000D02*
X-228170000Y-118460000D01*
X-231270000Y-119210000D02*
X-225870000Y-119210000D01*
X-231270000Y-117710000D02*
X-231270000Y-119210000D01*
X-301693475Y-113851734D02*
X-301693475Y-112351734D01*
X-301693475Y-112351734D02*
X-307093475Y-112351734D01*
X-303893475Y-113601734D02*
X-303893475Y-112601734D01*
X-303993475Y-113101734D02*
X-304893475Y-113601734D01*
X-304893475Y-113601734D02*
X-304893475Y-112601734D01*
X-304893475Y-112601734D02*
X-303993475Y-113101734D01*
X-307093475Y-113851734D02*
X-301693475Y-113851734D01*
X-307093475Y-112351734D02*
X-307093475Y-113851734D01*
X-248650205Y-73757253D02*
X-249640473Y-73618079D01*
X-248650205Y-73757253D02*
X-248511032Y-72766984D01*
X-246172924Y-56130481D02*
X-246305138Y-57071236D01*
X-246172924Y-56130481D02*
X-247163192Y-55991308D01*
X-215090000Y-51920000D02*
X-215090000Y-51670000D01*
X-215090000Y-51920000D02*
X-220790000Y-51920000D01*
X-215090000Y-48720000D02*
X-215090000Y-48970000D01*
X-215090000Y-48720000D02*
X-220790000Y-48720000D01*
X-220790000Y-51920000D02*
X-220790000Y-51670000D01*
X-220790000Y-48720000D02*
X-220790000Y-48970000D01*
D19*
X-244182000Y-52244000D02*
X-252818000Y-52244000D01*
X-244182000Y-49196000D02*
X-244182000Y-52244000D01*
X-252818000Y-52244000D02*
X-252818000Y-49196000D01*
X-252818000Y-49196000D02*
X-244182000Y-49196000D01*
D12*
X-104080000Y-59500000D02*
X-100580000Y-59500000D01*
X-100580000Y-59500000D02*
X-100580000Y-50500000D01*
X-104080000Y-50500000D02*
X-104080000Y-59500000D01*
X-100580000Y-50500000D02*
X-104080000Y-50500000D01*
D20*
X-218100001Y-89640001D02*
X-218100000Y-96639999D01*
X-221958439Y-96639999D02*
X-218100000Y-96639999D01*
X-221958439Y-89640001D02*
X-218100001Y-89640001D01*
X-224917318Y-100389999D02*
X-226868063Y-100389999D01*
X-224917318Y-85890001D02*
X-226868063Y-85890001D01*
X-235582682Y-100389999D02*
X-233631937Y-100389999D01*
X-235582682Y-85890001D02*
X-233631937Y-85890001D01*
X-238541561Y-96640000D02*
X-242400000Y-96640000D01*
X-238541561Y-89640001D02*
X-242400000Y-89640001D01*
X-242400000Y-89640001D02*
X-242400000Y-96640000D01*
X-222250001Y-93140000D02*
G75*
G03*
X-222250001Y-93140000I-7999999J0D01*
G01*
X-221958439Y-96639999D02*
X-222081225Y-96917712D01*
X-222213035Y-97190584D01*
X-222353711Y-97458412D01*
X-222503096Y-97720996D01*
X-222661030Y-97978136D01*
X-222827355Y-98229632D01*
X-223001913Y-98475282D01*
X-223184546Y-98714886D01*
X-223375096Y-98948243D01*
X-223573404Y-99175154D01*
X-223779313Y-99395417D01*
X-223992663Y-99608832D01*
X-224213297Y-99815198D01*
X-224441056Y-100014315D01*
X-224675782Y-100205982D01*
X-224917318Y-100389999D01*
X-224917318Y-85890001D02*
X-224675782Y-86074017D01*
X-224441056Y-86265684D01*
X-224213297Y-86464801D01*
X-223992663Y-86671167D01*
X-223779313Y-86884582D01*
X-223573404Y-87104845D01*
X-223375096Y-87331756D01*
X-223184546Y-87565113D01*
X-223001913Y-87804717D01*
X-222827355Y-88050367D01*
X-222661030Y-88301863D01*
X-222503096Y-88559003D01*
X-222353711Y-88821587D01*
X-222213035Y-89089415D01*
X-222081225Y-89362287D01*
X-221958439Y-89640001D01*
X-226868063Y-100389999D02*
X-227067724Y-100479830D01*
X-227269502Y-100564057D01*
X-227473277Y-100642653D01*
X-227678930Y-100715592D01*
X-227886343Y-100782848D01*
X-228095397Y-100844393D01*
X-228305972Y-100900202D01*
X-228517949Y-100950249D01*
X-228731211Y-100994506D01*
X-228945637Y-101032948D01*
X-229161110Y-101065548D01*
X-229377509Y-101092280D01*
X-229594717Y-101113117D01*
X-229812614Y-101128034D01*
X-230031081Y-101137003D01*
X-230250000Y-101139999D01*
X-230250000Y-101139999D02*
X-230468918Y-101137003D01*
X-230687385Y-101128034D01*
X-230905282Y-101113117D01*
X-231122490Y-101092280D01*
X-231338889Y-101065548D01*
X-231554362Y-101032948D01*
X-231768788Y-100994506D01*
X-231982050Y-100950249D01*
X-232194027Y-100900202D01*
X-232404602Y-100844393D01*
X-232613656Y-100782848D01*
X-232821069Y-100715592D01*
X-233026722Y-100642653D01*
X-233230497Y-100564057D01*
X-233432275Y-100479830D01*
X-233631937Y-100389999D01*
X-230250000Y-85140001D02*
X-230031081Y-85142996D01*
X-229812614Y-85151965D01*
X-229594717Y-85166882D01*
X-229377509Y-85187719D01*
X-229161110Y-85214451D01*
X-228945637Y-85247051D01*
X-228731211Y-85285493D01*
X-228517949Y-85329751D01*
X-228305972Y-85379797D01*
X-228095397Y-85435606D01*
X-227886343Y-85497151D01*
X-227678930Y-85564407D01*
X-227473277Y-85637346D01*
X-227269502Y-85715942D01*
X-227067724Y-85800169D01*
X-226868063Y-85890001D01*
X-233631937Y-85890001D02*
X-233432275Y-85800169D01*
X-233230497Y-85715942D01*
X-233026722Y-85637346D01*
X-232821069Y-85564407D01*
X-232613656Y-85497151D01*
X-232404602Y-85435606D01*
X-232194027Y-85379797D01*
X-231982050Y-85329751D01*
X-231768788Y-85285493D01*
X-231554362Y-85247051D01*
X-231338889Y-85214451D01*
X-231122490Y-85187719D01*
X-230905282Y-85166882D01*
X-230687385Y-85151965D01*
X-230468918Y-85142996D01*
X-230250000Y-85140001D01*
X-235582682Y-100389999D02*
X-235824217Y-100205982D01*
X-236058943Y-100014315D01*
X-236286702Y-99815198D01*
X-236507336Y-99608832D01*
X-236720686Y-99395417D01*
X-236926595Y-99175154D01*
X-237124903Y-98948244D01*
X-237315453Y-98714886D01*
X-237498086Y-98475282D01*
X-237672644Y-98229632D01*
X-237838969Y-97978137D01*
X-237996903Y-97720997D01*
X-238146288Y-97458412D01*
X-238286964Y-97190584D01*
X-238418774Y-96917713D01*
X-238541561Y-96640000D01*
X-238541561Y-89640001D02*
X-238418774Y-89362287D01*
X-238286964Y-89089415D01*
X-238146288Y-88821587D01*
X-237996903Y-88559003D01*
X-237838969Y-88301863D01*
X-237672644Y-88050367D01*
X-237498086Y-87804717D01*
X-237315453Y-87565113D01*
X-237124903Y-87331756D01*
X-236926595Y-87104845D01*
X-236720686Y-86884582D01*
X-236507336Y-86671167D01*
X-236286702Y-86464801D01*
X-236058943Y-86265684D01*
X-235824217Y-86074017D01*
X-235582682Y-85890001D01*
D13*
X-341630000Y-99590000D02*
X-340380000Y-99590000D01*
D16*
X-339980000Y-97990000D02*
X-333280000Y-97990000D01*
D12*
X-331730000Y-98740000D02*
X-331730000Y-94290000D01*
D14*
X-331930000Y-94490000D02*
X-334380000Y-94490000D01*
D10*
X-331580000Y-97240000D02*
X-331580000Y-97890000D01*
D17*
X-333210000Y-98290000D02*
X-333210000Y-96050000D01*
D12*
X-341760000Y-97190000D02*
X-341760000Y-99440000D01*
X-331480000Y-97140000D02*
X-331680000Y-97140000D01*
X-341780000Y-96190000D02*
X-341780000Y-99790000D01*
X-331480000Y-97890000D02*
X-331480000Y-97140000D01*
X-341780000Y-99790000D02*
X-333579999Y-99790000D01*
D15*
X-341280000Y-99190000D02*
X-341280000Y-96690000D01*
D14*
X-341580000Y-96440000D02*
X-340280000Y-96490000D01*
D12*
X-331730000Y-94290000D02*
X-334760000Y-94290000D01*
X-336980000Y-96190000D02*
X-341780000Y-96190000D01*
D18*
X-332080000Y-94790000D02*
X-332080000Y-96589999D01*
D15*
X-336580000Y-96590000D02*
G75*
G03*
X-334363682Y-94711471I65000J2170000D01*
G01*
D12*
X-333579999Y-99790000D02*
G75*
G03*
X-331480000Y-97889999I99999J2000000D01*
G01*
X-336980000Y-96190000D02*
G75*
G03*
X-334763682Y-94311471I65000J2170000D01*
G01*
D13*
X-354688475Y-118625733D02*
X-353438475Y-118625733D01*
D16*
X-353038475Y-117025733D02*
X-346338475Y-117025733D01*
D12*
X-344788475Y-117775733D02*
X-344788475Y-113325733D01*
D14*
X-344988475Y-113525733D02*
X-347438475Y-113525733D01*
D10*
X-344638475Y-116275733D02*
X-344638475Y-116925733D01*
D17*
X-346268475Y-117325733D02*
X-346268475Y-115085733D01*
D12*
X-354818475Y-116225733D02*
X-354818475Y-118475733D01*
X-344538475Y-116175733D02*
X-344738475Y-116175733D01*
X-354838475Y-115225733D02*
X-354838475Y-118825733D01*
X-344538475Y-116925733D02*
X-344538475Y-116175733D01*
X-354838475Y-118825733D02*
X-346638474Y-118825733D01*
D15*
X-354338475Y-118225733D02*
X-354338475Y-115725733D01*
D14*
X-354638475Y-115475733D02*
X-353338475Y-115525733D01*
D12*
X-344788475Y-113325733D02*
X-347818475Y-113325733D01*
X-350038475Y-115225733D02*
X-354838475Y-115225733D01*
D18*
X-345138475Y-113825733D02*
X-345138475Y-115625732D01*
D15*
X-349638475Y-115625733D02*
G75*
G03*
X-347422157Y-113747204I65000J2170000D01*
G01*
D12*
X-346638474Y-118825733D02*
G75*
G03*
X-344538475Y-116925732I99999J2000000D01*
G01*
X-350038475Y-115225733D02*
G75*
G03*
X-347822157Y-113347204I65000J2170000D01*
G01*
D13*
X-115801475Y-118625734D02*
X-114551475Y-118625734D01*
D16*
X-114151475Y-117025734D02*
X-107451475Y-117025734D01*
D12*
X-105901475Y-117775734D02*
X-105901475Y-113325734D01*
D14*
X-106101475Y-113525734D02*
X-108551475Y-113525734D01*
D10*
X-105751475Y-116275734D02*
X-105751475Y-116925734D01*
D17*
X-107381475Y-117325734D02*
X-107381475Y-115085734D01*
D12*
X-115931475Y-116225734D02*
X-115931475Y-118475734D01*
X-105651475Y-116175734D02*
X-105851475Y-116175734D01*
X-115951475Y-115225734D02*
X-115951475Y-118825734D01*
X-105651475Y-116925734D02*
X-105651475Y-116175734D01*
X-115951475Y-118825734D02*
X-107751474Y-118825734D01*
D15*
X-115451475Y-118225734D02*
X-115451475Y-115725734D01*
D14*
X-115751475Y-115475734D02*
X-114451475Y-115525734D01*
D12*
X-105901475Y-113325734D02*
X-108931475Y-113325734D01*
X-111151475Y-115225734D02*
X-115951475Y-115225734D01*
D18*
X-106251475Y-113825734D02*
X-106251475Y-115625733D01*
D15*
X-110751475Y-115625734D02*
G75*
G03*
X-108535157Y-113747205I65000J2170000D01*
G01*
D12*
X-107751474Y-118825734D02*
G75*
G03*
X-105651475Y-116925733I99999J2000000D01*
G01*
X-111151475Y-115225734D02*
G75*
G03*
X-108935157Y-113347205I65000J2170000D01*
G01*
X-106960000Y-92890000D02*
X-106060000Y-92390000D01*
X-106060000Y-92390000D02*
X-106060000Y-93390000D01*
X-106060000Y-93390000D02*
X-106960000Y-92890000D01*
X-107060000Y-92390000D02*
X-107060000Y-93390000D01*
X-103860000Y-92140000D02*
X-109260000Y-92140000D01*
X-109260000Y-92140000D02*
X-109260000Y-93640000D01*
X-109260000Y-93640000D02*
X-103860000Y-93640000D01*
X-103860000Y-93640000D02*
X-103860000Y-92140000D01*
D13*
X-124600000Y-61440000D02*
X-123350000Y-61440000D01*
D16*
X-122950000Y-59840000D02*
X-116250000Y-59840000D01*
D12*
X-114700000Y-60590000D02*
X-114700000Y-56140000D01*
D14*
X-114900000Y-56340000D02*
X-117350000Y-56340000D01*
D10*
X-114550000Y-59090000D02*
X-114550000Y-59740000D01*
D17*
X-116180000Y-60140000D02*
X-116180000Y-57900000D01*
D12*
X-124730000Y-59040000D02*
X-124730000Y-61290000D01*
X-114450000Y-58990000D02*
X-114650000Y-58990000D01*
X-124750000Y-58040000D02*
X-124750000Y-61640000D01*
X-114450000Y-59740000D02*
X-114450000Y-58990000D01*
X-124750000Y-61640000D02*
X-116549999Y-61640000D01*
D15*
X-124250000Y-61040000D02*
X-124250000Y-58540000D01*
D14*
X-124550000Y-58290000D02*
X-123250000Y-58340000D01*
D12*
X-114700000Y-56140000D02*
X-117730000Y-56140000D01*
X-119950000Y-58040000D02*
X-124750000Y-58040000D01*
D18*
X-115050000Y-56640000D02*
X-115050000Y-58439999D01*
D15*
X-119550000Y-58440000D02*
G75*
G03*
X-117333682Y-56561471I65000J2170000D01*
G01*
D12*
X-116549999Y-61640000D02*
G75*
G03*
X-114450000Y-59739999I99999J2000000D01*
G01*
X-119950000Y-58040000D02*
G75*
G03*
X-117733682Y-56161471I65000J2170000D01*
G01*
D13*
X-350878475Y-61475733D02*
X-349628475Y-61475733D01*
D16*
X-349228475Y-59875733D02*
X-342528475Y-59875733D01*
D12*
X-340978475Y-60625733D02*
X-340978475Y-56175733D01*
D14*
X-341178475Y-56375733D02*
X-343628475Y-56375733D01*
D10*
X-340828475Y-59125733D02*
X-340828475Y-59775733D01*
D17*
X-342458475Y-60175733D02*
X-342458475Y-57935733D01*
D12*
X-351008475Y-59075733D02*
X-351008475Y-61325733D01*
X-340728475Y-59025733D02*
X-340928475Y-59025733D01*
X-351028475Y-58075733D02*
X-351028475Y-61675733D01*
X-340728475Y-59775733D02*
X-340728475Y-59025733D01*
X-351028475Y-61675733D02*
X-342828474Y-61675733D01*
D15*
X-350528475Y-61075733D02*
X-350528475Y-58575733D01*
D14*
X-350828475Y-58325733D02*
X-349528475Y-58375733D01*
D12*
X-340978475Y-56175733D02*
X-344008475Y-56175733D01*
X-346228475Y-58075733D02*
X-351028475Y-58075733D01*
D18*
X-341328475Y-56675733D02*
X-341328475Y-58475732D01*
D15*
X-345828475Y-58475733D02*
G75*
G03*
X-343612157Y-56597204I65000J2170000D01*
G01*
D12*
X-342828474Y-61675733D02*
G75*
G03*
X-340728475Y-59775732I99999J2000000D01*
G01*
X-346228475Y-58075733D02*
G75*
G03*
X-344012157Y-56197204I65000J2170000D01*
G01*
D13*
X-116753975Y-80525734D02*
X-115503975Y-80525734D01*
D16*
X-115103975Y-78925734D02*
X-108403975Y-78925734D01*
D12*
X-106853975Y-79675734D02*
X-106853975Y-75225734D01*
D14*
X-107053975Y-75425734D02*
X-109503975Y-75425734D01*
D10*
X-106703975Y-78175734D02*
X-106703975Y-78825734D01*
D17*
X-108333975Y-79225734D02*
X-108333975Y-76985734D01*
D12*
X-116883975Y-78125734D02*
X-116883975Y-80375734D01*
X-106603975Y-78075734D02*
X-106803975Y-78075734D01*
X-116903975Y-77125734D02*
X-116903975Y-80725734D01*
X-106603975Y-78825734D02*
X-106603975Y-78075734D01*
X-116903975Y-80725734D02*
X-108703974Y-80725734D01*
D15*
X-116403975Y-80125734D02*
X-116403975Y-77625734D01*
D14*
X-116703975Y-77375734D02*
X-115403975Y-77425734D01*
D12*
X-106853975Y-75225734D02*
X-109883975Y-75225734D01*
X-112103975Y-77125734D02*
X-116903975Y-77125734D01*
D18*
X-107203975Y-75725734D02*
X-107203975Y-77525733D01*
D15*
X-111703975Y-77525734D02*
G75*
G03*
X-109487657Y-75647205I65000J2170000D01*
G01*
D12*
X-108703974Y-80725734D02*
G75*
G03*
X-106603975Y-78825733I99999J2000000D01*
G01*
X-112103975Y-77125734D02*
G75*
G03*
X-109887657Y-75247205I65000J2170000D01*
G01*
D13*
X-123700000Y-99610000D02*
X-122450000Y-99610000D01*
D16*
X-122050000Y-98010000D02*
X-115350000Y-98010000D01*
D12*
X-113800000Y-98760000D02*
X-113800000Y-94310000D01*
D14*
X-114000000Y-94510000D02*
X-116450000Y-94510000D01*
D10*
X-113650000Y-97260000D02*
X-113650000Y-97910000D01*
D17*
X-115280000Y-98310000D02*
X-115280000Y-96070000D01*
D12*
X-123830000Y-97210000D02*
X-123830000Y-99460000D01*
X-113550000Y-97160000D02*
X-113750000Y-97160000D01*
X-123850000Y-96210000D02*
X-123850000Y-99810000D01*
X-113550000Y-97910000D02*
X-113550000Y-97160000D01*
X-123850000Y-99810000D02*
X-115649999Y-99810000D01*
D15*
X-123350000Y-99210000D02*
X-123350000Y-96710000D01*
D14*
X-123650000Y-96460000D02*
X-122350000Y-96510000D01*
D12*
X-113800000Y-94310000D02*
X-116830000Y-94310000D01*
X-119050000Y-96210000D02*
X-123850000Y-96210000D01*
D18*
X-114150000Y-94810000D02*
X-114150000Y-96609999D01*
D15*
X-118650000Y-96610000D02*
G75*
G03*
X-116433682Y-94731471I65000J2170000D01*
G01*
D12*
X-115649999Y-99810000D02*
G75*
G03*
X-113550000Y-97909999I99999J2000000D01*
G01*
X-119050000Y-96210000D02*
G75*
G03*
X-116833682Y-94331471I65000J2170000D01*
G01*
D13*
X-348630000Y-80510000D02*
X-347380000Y-80510000D01*
D16*
X-346980000Y-78910000D02*
X-340280000Y-78910000D01*
D12*
X-338730000Y-79660000D02*
X-338730000Y-75210000D01*
D14*
X-338930000Y-75410000D02*
X-341380000Y-75410000D01*
D10*
X-338580000Y-78160000D02*
X-338580000Y-78810000D01*
D17*
X-340210000Y-79210000D02*
X-340210000Y-76970000D01*
D12*
X-348760000Y-78110000D02*
X-348760000Y-80360000D01*
X-338480000Y-78060000D02*
X-338680000Y-78060000D01*
X-348780000Y-77110000D02*
X-348780000Y-80710000D01*
X-338480000Y-78810000D02*
X-338480000Y-78060000D01*
X-348780000Y-80710000D02*
X-340579999Y-80710000D01*
D15*
X-348280000Y-80110000D02*
X-348280000Y-77610000D01*
D14*
X-348580000Y-77360000D02*
X-347280000Y-77410000D01*
D12*
X-338730000Y-75210000D02*
X-341760000Y-75210000D01*
X-343980000Y-77110000D02*
X-348780000Y-77110000D01*
D18*
X-339080000Y-75710000D02*
X-339080000Y-77509999D01*
D15*
X-343580000Y-77510000D02*
G75*
G03*
X-341363682Y-75631471I65000J2170000D01*
G01*
D12*
X-340579999Y-80710000D02*
G75*
G03*
X-338480000Y-78809999I99999J2000000D01*
G01*
X-343980000Y-77110000D02*
G75*
G03*
X-341763682Y-75231471I65000J2170000D01*
G01*
D21*
X-224560000Y-47890000D03*
X-224560000Y-50430000D03*
X-224560000Y-52970000D03*
X-224560000Y-55510000D03*
X-224560000Y-58050000D03*
X-224560000Y-60590000D03*
X-224560000Y-63130000D03*
X-224560000Y-65670000D03*
X-224560000Y-68210000D03*
X-224560000Y-70750000D03*
X-224560000Y-73290000D03*
X-224560000Y-75830000D03*
X-239780000Y-75830000D03*
X-239780000Y-73290000D03*
X-239780000Y-70750000D03*
X-239780000Y-68210000D03*
X-239780000Y-65670000D03*
X-239780000Y-63130000D03*
X-239780000Y-60590000D03*
X-239780000Y-58050000D03*
X-239780000Y-55510000D03*
X-239780000Y-52970000D03*
X-239780000Y-50430000D03*
X-239780000Y-47890000D03*
D22*
X-239780000Y-45350000D03*
D21*
X-224560000Y-45350000D03*
D23*
X-249740000Y-72300000D03*
D21*
X-247621786Y-57228120D03*
M02*
